<?xml version="1.0" standalone="no"?>
<svg viewBox="0 0 200 200" xmlns="http://www.w3.org/2000/svg">
  <path fill="#fcf5ea" d="M36.6,-49.1C49.6,-48.5,63.8,-42.1,73.4,-30.7C82.9,-19.3,87.8,-3,84.7,11.5C81.6,26.1,70.6,38.9,57.3,43.9C44,49,28.4,46.4,15.2,48.8C2.1,51.3,-8.7,58.8,-20.3,59.7C-31.8,60.6,-44.2,54.8,-48.3,44.8C-52.4,34.8,-48.1,20.6,-53.9,5.5C-59.6,-9.6,-75.3,-25.6,-74.9,-37.5C-74.6,-49.4,-58.2,-57.2,-43,-56.7C-27.8,-56.3,-13.9,-47.6,-1.1,-46C11.8,-44.3,23.6,-49.6,36.6,-49.1Z" transform="translate(100 100)" />
</svg>
