<?xml version="1.0" encoding="utf-8" ?>
<svg xmlns="http://www.w3.org/2000/svg" xmlns:xlink="http://www.w3.org/1999/xlink" width="1981" height="1379">
	<path fill="#F2C39B" d="M180.267 962.025L182.55 972.929L184.789 984.236C182.534 985.574 179.563 986.905 178.974 989.693C178.607 991.432 178.585 993.348 178.505 995.121L177.871 997.98C175.166 990.056 168.209 975.609 172.353 967.513C174.064 964.169 176.963 963.225 180.267 962.025Z"/>
	<path fill="#F2C39B" d="M184.285 233.367L187.425 242.921C188.916 247.519 190.146 251.95 190.954 256.718C188.113 257.227 187.076 257.07 184.983 259.143C184.647 261.8 184.47 264.441 184.33 267.115L183.679 269.912C180.605 261.823 174.227 249.693 176.706 240.907C177.917 236.614 180.634 235.312 184.285 233.367Z"/>
	<path fill="#F2C39B" d="M430.902 233.559C434.477 234.908 437.372 235.727 438.97 239.533C442.87 248.821 435.131 260.046 433.203 269.004C432.969 268.671 432.727 268.345 432.502 268.006C430.087 264.362 431.268 261.313 432.229 257.388L425.718 257.008L427.815 245.487L430.902 233.559Z"/>
	<path fill="#F2C39B" d="M1798.85 963.184C1802.37 964.497 1806 965.573 1807.55 969.379C1810.38 976.367 1807.68 985.117 1804.54 991.516C1803.35 993.935 1802.26 995.757 1800 997.336L1798.04 988.184C1796.57 987.108 1794.6 987.287 1792.85 987.194C1796.31 982.961 1796.32 977.915 1796.87 972.701C1797.41 972.039 1797.7 971.724 1798.14 971.059C1799.87 968.409 1799.53 966.125 1798.85 963.184Z"/>
	<path fill="#F2C39B" d="M1795.48 236.024C1798.25 235.558 1799.5 235.547 1802.05 236.781C1804.49 239.398 1805.13 241.575 1805.04 245.173C1804.88 251.849 1801.26 264.575 1797.06 269.794C1797.36 272.056 1797.88 273.477 1796.04 275.291C1795.4 275.921 1794.92 276.201 1794.21 276.679C1793.36 274.842 1794.1 271.858 1794.34 269.845C1793.16 267.084 1791.59 266.515 1789.18 264.94C1790.98 261.749 1791.08 260.78 1790.25 257.295C1790.51 256.941 1790.8 256.602 1791.05 256.234C1793.54 252.542 1794.08 248.086 1793.18 243.822C1795.14 241.113 1795.47 239.356 1795.48 236.024Z"/>
	<path fill="#F9D4A9" d="M1790.25 257.295L1794.65 257.596C1795.44 259.106 1795.57 259.369 1795.48 261.058C1797.05 263.207 1797.95 264.031 1797.69 266.859C1797.6 267.834 1797.29 268.852 1797.06 269.794C1797.36 272.056 1797.88 273.477 1796.04 275.291C1795.4 275.921 1794.92 276.201 1794.21 276.679C1793.36 274.842 1794.1 271.858 1794.34 269.845C1793.16 267.084 1791.59 266.515 1789.18 264.94C1790.98 261.749 1791.08 260.78 1790.25 257.295Z"/>
	<path fill="#F2C39B" d="M1550.54 963.275C1552.66 965.19 1553.52 965.6 1554.28 968.423L1553.07 971.88C1556.07 974.646 1558.04 977.499 1558.29 981.697C1558.42 983.904 1557.81 985.551 1556.85 987.492C1558.4 989.069 1559.68 989.661 1559.39 992.118C1559.28 993.056 1558.63 994.246 1558.24 995.12C1557.32 998.263 1556.23 1001.33 1555.13 1004.42L1554.33 1004.6C1553.2 1002.01 1551.92 1000.2 1550.04 998.11C1549.87 996.881 1549.39 995.608 1549.05 994.409C1550.93 988.607 1545.13 980.968 1544.94 974.789C1544.8 969.984 1547.55 966.633 1550.54 963.275Z"/>
	<path fill="#F9D4A9" d="M1550.04 998.11C1552.48 995.135 1552.18 991.804 1554.11 988.783C1554.91 987.518 1555.45 987.786 1556.85 987.492C1558.4 989.069 1559.68 989.661 1559.39 992.118C1559.28 993.056 1558.63 994.246 1558.24 995.12C1557.32 998.263 1556.23 1001.33 1555.13 1004.42L1554.33 1004.6C1553.2 1002.01 1551.92 1000.2 1550.04 998.11Z"/>
	<path fill="#F2C39B" d="M1548.78 233.103C1550.98 234.904 1551.23 235.162 1552.05 237.87C1551.63 239.801 1551.29 241.654 1550.4 243.439C1553.16 245.435 1554.64 247.054 1555.21 250.658C1555.67 253.553 1555.11 255.691 1553.95 258.32L1556.23 260.756C1556.06 262.405 1555.79 263.492 1555.06 264.983C1554.34 269.128 1554.11 272.877 1550.59 275.581C1550.03 272.184 1549.43 271.494 1547.24 268.773C1547.76 259.405 1540.21 250.48 1542.05 241.216C1542.56 238.614 1543.55 237.548 1545.77 236.166C1546.97 235.418 1547.64 235.159 1548.43 233.895C1548.58 233.649 1548.66 233.367 1548.78 233.103Z"/>
	<path fill="#F9D4A9" d="M1549.44 259.156L1552.51 257.483L1553.95 258.32L1556.23 260.756C1556.06 262.405 1555.79 263.492 1555.06 264.983C1554.34 269.128 1554.11 272.877 1550.59 275.581C1550.03 272.184 1549.43 271.494 1547.24 268.773C1549.91 265.318 1549.95 263.546 1549.44 259.156Z"/>
	<path fill="#F2C39B" d="M426.069 961.618C429.509 963.176 432.183 964.238 433.594 968.05C436.815 976.753 430.314 989.581 427.338 997.747C426.529 1001.15 425.601 1004.24 424.262 1007.48C423.219 1005.92 423.325 1004.58 423.201 1002.78C422.893 998.29 422.718 996.46 419.168 993.36L420.629 985.539L423.96 971.07L426.069 961.618Z"/>
	<path fill="#F9D4A9" d="M420.629 985.539L427.714 987.018C426.524 989.448 424.851 992.222 425.848 994.993C426.202 995.977 426.768 996.878 427.338 997.747C426.529 1001.15 425.601 1004.24 424.262 1007.48C423.219 1005.92 423.325 1004.58 423.201 1002.78C422.893 998.29 422.718 996.46 419.168 993.36L420.629 985.539Z"/>
	<path fill="#F2C39B" d="M1115.75 964.172C1119.41 965.625 1122.44 966.597 1124.04 970.537C1127.45 978.953 1120.87 991.678 1117.91 999.576C1117.07 1002.63 1116.28 1005.58 1114.9 1008.44C1113.1 1005.1 1114.35 1003.87 1113.91 1000.53C1113.54 997.751 1110.98 996.547 1108.93 995.004L1111.13 986.627C1111.69 982.103 1112.78 977.53 1113.62 973.043L1115.75 964.172Z"/>
	<path fill="#F9D4A9" d="M1111.13 986.627C1113.86 987.854 1115.71 988.238 1117.4 990.847C1116.63 993.377 1115.6 995.238 1116.81 997.827C1117.17 998.595 1117.44 998.925 1117.91 999.576C1117.07 1002.63 1116.28 1005.58 1114.9 1008.44C1113.1 1005.1 1114.35 1003.87 1113.91 1000.53C1113.54 997.751 1110.98 996.547 1108.93 995.004L1111.13 986.627Z"/>
	<path fill="#F2C39B" d="M1115.77 230.482C1119.33 231.722 1122.22 232.361 1123.91 236.048C1127.94 244.818 1120.77 258.796 1117.74 267.165L1115.32 274.548L1113.46 273.945C1113.69 271.923 1114.21 269.356 1113.99 267.341C1113.68 264.413 1111.25 263.14 1109.16 261.419L1110.89 253.752C1111.5 249.136 1112.65 244.561 1113.65 240.013L1115.77 230.482Z"/>
	<path fill="#F9D4A9" d="M1110.89 253.752C1112.94 254.241 1115.09 254.641 1117.09 255.277C1115.72 259.817 1115.78 262.838 1117.74 267.165L1115.32 274.548L1113.46 273.945C1113.69 271.923 1114.21 269.356 1113.99 267.341C1113.68 264.413 1111.25 263.14 1109.16 261.419L1110.89 253.752Z"/>
	<path fill="#F2C39B" d="M870.971 964.199L873.232 973.984C874.176 978.754 875.235 983.532 876.032 988.327L877.669 994.555C876.072 995.823 873.283 997.706 872.88 999.829C872.453 1002.08 872.979 1004.98 873.211 1007.25L871.465 1008.63L868.862 1000.19Q866.67 995.313 864.898 990.268C862.663 983.965 859.462 975.708 862.873 969.295C864.683 965.893 867.506 965.158 870.971 964.199Z"/>
	<path fill="#F9D4A9" d="M869.244 997.231C869.377 994.171 869.282 991.234 870.556 988.394C872.886 987.382 873.599 987.824 876.032 988.327L877.669 994.555C876.072 995.823 873.283 997.706 872.88 999.829C872.453 1002.08 872.979 1004.98 873.211 1007.25L871.465 1008.63L868.862 1000.19L869.244 997.231Z"/>
	<path fill="#F2C39B" d="M868.389 230.967C871.116 233.516 871.984 237.739 873.169 241.201C874.291 246.07 875.503 250.935 876.499 255.83L877.694 261.301C875.586 262.882 873.065 264.466 872.811 267.334C872.601 269.698 873.487 272.441 874.082 274.711L872.121 277.343L868.728 267.067C865.685 258.959 859.336 246.578 861.666 237.894C862.714 233.991 865.03 232.738 868.389 230.967Z"/>
	<path fill="#F9D4A9" d="M868.821 255.704C871.052 254.782 872.24 253.973 874.681 254.907C875.454 255.203 875.817 255.44 876.499 255.83L877.694 261.301C875.586 262.882 873.065 264.466 872.811 267.334C872.601 269.698 873.487 272.441 874.082 274.711L872.121 277.343L868.728 267.067C869.667 263.096 869.334 259.72 868.821 255.704Z"/>
	<path fill="#473433" d="M1628.66 64.0266C1654.69 59.3805 1680.27 55.6991 1706.52 61.1628C1709.94 61.8746 1715.32 62.644 1718.25 64.5427C1718.69 64.8272 1719.21 65.3742 1719.56 65.7117C1742.28 68.7462 1770.32 84.1649 1784.26 102.308C1807.03 131.946 1805.4 179.638 1800.58 214.827C1799.56 222.276 1797.92 228.949 1795.48 236.024C1795.47 239.356 1795.14 241.113 1793.18 243.822C1794.08 248.086 1793.54 252.542 1791.05 256.234C1790.8 256.602 1790.51 256.941 1790.25 257.295C1791.08 260.78 1790.98 261.749 1789.18 264.94C1789.66 273.128 1788.38 280.884 1784.52 288.214L1785.07 288.424C1783.6 275.634 1783.3 263.571 1784.17 250.721C1784.77 241.954 1786.2 232.92 1785.74 224.135C1785.27 214.853 1774.13 177.414 1769.61 168.925Q1768.62 167.061 1767.45 165.308Q1766.27 163.554 1764.92 161.929Q1763.58 160.304 1762.07 158.824Q1760.57 157.345 1758.92 156.026C1755.78 153.509 1752.23 151.511 1748.06 152.211C1740.7 153.448 1734.93 161.814 1731.19 167.631C1719.8 185.336 1710.83 205.887 1688.21 211.066C1677.34 213.556 1662.43 212.592 1652.79 206.564C1646.72 202.77 1641.62 196.861 1637.82 190.861C1631.39 180.695 1620.21 146.894 1604.7 150.514C1598.47 151.967 1593.29 159.405 1590.34 164.651C1584.78 174.55 1581.34 186.029 1576.95 196.491C1573.08 205.714 1567.68 215.147 1564.82 224.691C1563.08 230.527 1562.34 236.564 1562.34 242.647C1562.35 258.266 1565.28 272.793 1562.63 288.473C1561.42 287.074 1560.25 285.678 1559.14 284.194C1559.69 282.81 1560.24 281.46 1560.34 279.953C1560.73 274.351 1558.61 269.199 1555.06 264.983C1555.79 263.492 1556.06 262.405 1556.23 260.756L1553.95 258.32C1555.11 255.691 1555.67 253.553 1555.21 250.658C1554.64 247.054 1553.16 245.435 1550.4 243.439C1551.29 241.654 1551.63 239.801 1552.05 237.87C1551.23 235.162 1550.98 234.904 1548.78 233.103C1552.65 222.703 1546.35 208.677 1545.19 198.033C1542.52 173.529 1541.82 140.988 1551.9 118.056C1566.04 85.8811 1598.49 75.843 1628.66 64.0266Z"/>
	<path fill="#F2C39B" d="M1628.66 64.0266C1654.69 59.3805 1680.27 55.6991 1706.52 61.1628C1709.94 61.8746 1715.32 62.644 1718.25 64.5427C1718.69 64.8272 1719.21 65.3742 1719.56 65.7117C1719.65 66.8288 1719.4 67.8444 1719.23 68.9452C1716.68 72.765 1713.38 74.4772 1709.1 75.8152C1693.57 80.676 1665.54 81.2388 1649.88 75.603C1642.74 73.0324 1635.44 67.6343 1628.66 64.0266Z"/>
	<path fill="#473433" d="M908.106 69.5514C922.49 67.2247 919.283 65.1782 930.166 59.2863C935.205 56.558 942.489 56.2652 948.122 55.3865C980.824 50.2858 1015.68 49.9982 1047.58 60.2393C1062.89 65.1539 1084.76 73.9465 1092.39 88.6344C1096.14 90.3808 1100.02 92.1055 1103.05 94.9885C1115.08 106.426 1123.29 147.626 1123.73 164.064L1123.75 164.863C1123.83 167.948 1123.34 170.552 1122.59 173.523C1121.44 178.119 1119.86 182.843 1119.39 187.564C1117.94 202.086 1119.61 216.113 1115.77 230.482L1113.65 240.013C1112.65 244.561 1111.5 249.136 1110.89 253.752L1109.16 261.419C1108.14 268.41 1107.22 275.432 1106.05 282.397L1104.79 285.969C1098.08 269.54 1108.48 227.629 1103.89 207.962C1102.83 203.454 1100.55 199.182 1099.01 194.818C1096.22 186.857 1095.21 174.296 1087.12 169.656C1085.27 168.595 1083.21 168.326 1081.17 168.982C1073.4 171.48 1067.49 184.688 1063.61 191.317C1056.53 197.557 1047.2 206.701 1037.06 206.149C1033.28 205.943 1031.42 204.929 1029.05 202.028Q1028.36 201.178 1027.71 200.302C1009.52 209.581 986.743 218.239 966.266 211.511C959.231 209.199 954.844 203.611 948.359 200.723C944.709 199.097 940.105 199.688 936.67 197.965C934.863 197.059 933.312 194.586 932.149 192.997C929.401 187.086 921.913 170.261 915.798 167.9C914.115 167.25 912.589 167.688 911.126 168.611C910.85 168.785 910.574 168.964 910.322 169.173C903.779 174.603 902.498 189.173 898.94 196.814C893.722 208.022 883.495 215.18 881.367 228.081C879.285 240.709 887.841 275 881.938 284.655L880.811 282.424L877.694 261.301L876.499 255.83C875.503 250.935 874.291 246.07 873.169 241.201C871.984 237.739 871.116 233.516 868.389 230.967L869.232 230.704C869.126 222.828 863.313 209.591 861.929 200.608C859.899 187.441 861.891 141.901 866.344 129.709C869.534 120.976 875.719 113.211 881.255 105.835C883.967 102.223 883.1 100.211 884.141 96.2461C885.817 89.8695 899.745 83.346 905.061 79.7063C906.181 76.3706 907.098 72.9255 908.106 69.5514Z"/>
	<path fill="#473433" d="M240.025 69.7906C236.988 68.0045 232.388 65.956 230.108 63.3569C231.97 61.0414 236.184 60.5188 239.032 60.178C244.067 59.5756 267.238 61.2773 269.089 59.6664L266.63 57.4956C268.696 55.8438 270.523 55.5421 273.124 55.2468C279.578 54.5139 286.595 55.6728 293.137 55.5708C303.788 55.4048 313.518 53.2615 324.323 54.4275C347.251 56.902 390.496 67.9744 404.711 87.1542C405.152 87.7481 405.521 88.3915 405.948 88.9947C409.519 94.0351 418.39 94.4145 422.334 99.9225C429.052 109.306 436.336 148.85 437.31 161.384C437.754 167.094 437.236 172.495 436.479 178.151C434.038 196.396 435.322 215.837 430.902 233.559L427.815 245.487L425.718 257.008L424.155 264.019C423.206 271.1 422.052 278.232 421.351 285.338C420.941 286.508 420.46 287.175 419.743 288.17C414.919 282.31 419.698 245.627 418.861 235.807C417.686 222.016 411.23 214.393 400.974 205.787C386.268 213.83 370.703 221.845 353.804 223.735C349.774 224.186 340.527 225.059 337.383 222.503L337.19 218.95C331.927 216.911 319.34 225.096 313.619 226.778C306.147 228.976 297.341 228.099 289.686 227.112C250.823 222.102 254.525 208.404 225.79 192.707C188.023 218.45 199.089 237.609 198.402 276.254C198.341 279.644 198.769 284.236 196.963 287.184L195.855 285.314L192.255 263.651L190.954 256.718C190.146 251.95 188.916 247.519 187.425 242.921L184.285 233.367C177.492 208.842 171.225 176.665 181.786 152.365C181.865 152.182 181.94 151.998 182.017 151.815L176.522 144.837C187.469 124.72 180.597 116.524 203.387 103.088Q195.376 105.169 187.389 107.339C196.106 101.882 201.035 98.5661 205.201 88.6325C208.921 87.0301 213.956 85.4989 217.232 83.1737C229.782 74.2681 216.186 73.2964 240.025 69.7906Z"/>
	<path fill="#F2C39B" d="M225.79 192.707C254.525 208.404 250.823 222.102 289.686 227.112C297.341 228.099 306.147 228.976 313.619 226.778C319.34 225.096 331.927 216.911 337.19 218.95L337.383 222.503C340.527 225.059 349.774 224.186 353.804 223.735C370.703 221.845 386.268 213.83 400.974 205.787C411.23 214.393 417.686 222.016 418.861 235.807C419.698 245.627 414.919 282.31 419.743 288.17C420.46 287.175 420.941 286.508 421.351 285.338C422.052 278.232 423.206 271.1 424.155 264.019L425.718 257.008L432.229 257.388C431.268 261.313 430.087 264.362 432.502 268.006C432.727 268.345 432.969 268.671 433.203 269.004L429.682 279.356C425.228 292.286 421.109 305.621 418.202 318.99C415.893 329.608 414.524 340.803 411.146 351.124C408.131 360.337 403.483 368.294 399.628 377.077C402.878 386.896 405.781 394.019 415.552 398.812C422.938 402.435 431.271 404.943 439.006 407.768C403.896 425.575 371.152 450.795 333.568 463.143C273.669 482.822 227.061 432.352 177.986 407.591C183.483 405.917 189.183 404.373 194.484 402.156C207.382 396.762 211.31 388.101 216.256 375.866C206.3 356.698 202.582 337.404 197.496 316.671C194.584 304.801 191.012 293.143 187.378 281.48L183.679 269.912L184.33 267.115C184.47 264.441 184.647 261.8 184.983 259.143C187.076 257.07 188.113 257.227 190.954 256.718L192.255 263.651L195.855 285.314L196.963 287.184C198.769 284.236 198.341 279.644 198.402 276.254C199.089 237.609 188.023 218.45 225.79 192.707Z"/>
	<path fill="#F9D4A9" d="M425.718 257.008L432.229 257.388C431.268 261.313 430.087 264.362 432.502 268.006C432.727 268.345 432.969 268.671 433.203 269.004L429.682 279.356L426.995 278.105C428.24 275.556 428.899 273.02 429.155 270.209C427.868 266.973 426.763 266.178 424.155 264.019L425.718 257.008Z"/>
	<path fill="#F9D4A9" d="M184.33 267.115C184.47 264.441 184.647 261.8 184.983 259.143C187.076 257.07 188.113 257.227 190.954 256.718L192.255 263.651C189.674 266.336 187.396 268.505 187.658 272.532C187.824 275.089 189.152 278.043 190.253 280.343L187.378 281.48L183.679 269.912L184.33 267.115Z"/>
	<path fill="#473433" d="M231.9 329.532C226.66 325.932 221.083 321.639 217.558 316.26L218.221 313.329C233.388 311.402 282.187 331.621 293.91 340.736C294.394 341.111 294.864 341.576 295.306 341.989L295.212 343.233C287.919 344.317 282.383 342.851 275.405 340.65C266.465 339.461 241.454 332.357 231.9 329.532Z"/>
	<path fill="#473433" d="M344.667 339.831C339.168 341.766 331.026 344.642 325.358 342.174L325.323 340.624C325.654 340.258 325.988 339.894 326.347 339.555C334.933 331.445 361.433 321.34 373.26 317.79C378.802 316.126 384.732 315.799 390.301 314.263C393.158 313.475 395.172 311.815 398.251 311.806L399.773 313.608C399.731 314.426 399.755 314.764 399.589 315.508C398.337 321.091 388.223 327.082 383.843 329.967C370.919 333.833 357.67 336.301 344.667 339.831Z"/>
	<path fill="#F2C39B" d="M880.811 282.424L881.938 284.655C887.841 275 879.285 240.709 881.367 228.081C883.495 215.18 893.722 208.022 898.94 196.814C902.498 189.173 903.779 174.603 910.322 169.173C910.574 168.964 910.85 168.785 911.126 168.611C912.589 167.688 914.115 167.25 915.798 167.9C921.913 170.261 929.401 187.086 932.149 192.997C933.312 194.586 934.863 197.059 936.67 197.965C940.105 199.688 944.709 199.097 948.359 200.723C954.844 203.611 959.231 209.199 966.266 211.511C986.743 218.239 1009.52 209.581 1027.71 200.302Q1028.36 201.178 1029.05 202.028C1031.42 204.929 1033.28 205.943 1037.06 206.149C1047.2 206.701 1056.53 197.557 1063.61 191.317C1067.49 184.688 1073.4 171.48 1081.17 168.982C1083.21 168.326 1085.27 168.595 1087.12 169.656C1095.21 174.296 1096.22 186.857 1099.01 194.818C1100.55 199.182 1102.83 203.454 1103.89 207.962C1108.48 227.629 1098.08 269.54 1104.79 285.969L1106.05 282.397C1107.22 275.432 1108.14 268.41 1109.16 261.419C1111.25 263.14 1113.68 264.413 1113.99 267.341C1114.21 269.356 1113.69 271.923 1113.46 273.945L1115.32 274.548C1111.21 287.445 1107.16 300.447 1104.1 313.64C1101.42 325.248 1099.73 337.364 1096.11 348.709C1093.16 357.924 1088.36 365.76 1084.66 374.548C1088.75 385.457 1092.39 392.379 1103.4 397.461C1110.36 400.669 1118.54 403.205 1125.94 405.178C1106.43 410.294 1089.45 424.183 1072.35 434.395C1058.32 442.781 1042.8 450.908 1027.54 456.809C978.316 475.84 942.21 454.603 901.971 428.06C889.095 419.567 876.863 410.979 862.709 404.679C868.399 403.063 874.365 401.444 879.768 399.048C892.302 393.49 896.798 384.794 901.561 372.614C890.147 354.156 887.891 334.385 882.863 313.76C879.876 301.506 875.838 289.398 872.121 277.343L874.082 274.711C873.487 272.441 872.601 269.698 872.811 267.334C873.065 264.466 875.586 262.882 877.694 261.301L880.811 282.424Z"/>
	<path fill="#473433" d="M1029.41 337.003C1023.12 339.188 1013.61 342.069 1007.1 340.207L1006.72 339.129C1007.14 338.68 1007.66 338.086 1008.15 337.678C1017.4 329.979 1067.78 309.523 1079.13 310.707C1081.22 310.925 1081.47 311.211 1082.77 312.71C1082.69 313.546 1082.69 313.997 1082.5 314.768C1081.07 320.619 1072.76 324.597 1068.02 327.45L1029.41 337.003Z"/>
	<path fill="#473433" d="M917.523 326.672C912.708 323.542 907.396 320.542 904.834 315.178L904.991 313.128C908.34 310.678 911.336 310.788 915.324 311.386C927.745 313.25 973.563 330.814 980.656 339.771C979.346 341.121 979.257 340.763 977.407 340.808C970.486 340.974 963.907 338.953 957.319 337.088C944.12 333.32 930.549 331.093 917.523 326.672Z"/>
	<path fill="#F2C39B" d="M1559.14 284.194C1560.25 285.678 1561.42 287.074 1562.63 288.473C1565.28 272.793 1562.35 258.266 1562.34 242.647C1562.34 236.564 1563.08 230.527 1564.82 224.691C1567.68 215.147 1573.08 205.714 1576.95 196.491C1581.34 186.029 1584.78 174.55 1590.34 164.651C1593.29 159.405 1598.47 151.967 1604.7 150.514C1620.21 146.894 1631.39 180.695 1637.82 190.861C1641.62 196.861 1646.72 202.77 1652.79 206.564C1662.43 212.592 1677.34 213.556 1688.21 211.066C1710.83 205.887 1719.8 185.336 1731.19 167.631C1734.93 161.814 1740.7 153.448 1748.06 152.211C1752.23 151.511 1755.78 153.509 1758.92 156.026Q1760.57 157.345 1762.07 158.824Q1763.58 160.304 1764.92 161.929Q1766.27 163.554 1767.45 165.308Q1768.62 167.061 1769.61 168.925C1774.13 177.414 1785.27 214.853 1785.74 224.135C1786.2 232.92 1784.77 241.954 1784.17 250.721C1783.3 263.571 1783.6 275.634 1785.07 288.424L1784.52 288.214C1788.38 280.884 1789.66 273.128 1789.18 264.94C1791.59 266.515 1793.16 267.084 1794.34 269.845C1794.1 271.858 1793.36 274.842 1794.21 276.679C1792.89 290.921 1788.01 302.916 1784.43 316.605C1779.24 336.439 1777.94 362.89 1763.37 378.691C1767.86 381.593 1771.77 391.269 1773.56 396.318C1781.69 399.113 1796.52 402.379 1802.78 408.268C1801.69 410.034 1725.94 452.241 1718.85 455.559C1705.51 461.805 1691.48 467.098 1676.67 468.183C1642.39 470.693 1607.26 447.936 1579.74 429.748C1568.2 422.114 1556.45 412.899 1543.26 408.29C1543 408.198 1542.73 408.113 1542.46 408.024C1554.48 404.987 1569.46 401.054 1576.49 389.779C1578.71 386.21 1580.31 381.446 1579.44 377.266C1579.58 376.843 1579.74 376.425 1579.87 375.996C1581.5 370.53 1574.32 361.004 1572.07 356.019C1566.08 342.8 1565.42 325.447 1561.78 311.295C1558.89 300.06 1555.6 288.406 1551.26 277.65L1550.59 275.581C1554.11 272.877 1554.34 269.128 1555.06 264.983C1558.61 269.199 1560.73 274.351 1560.34 279.953C1560.24 281.46 1559.69 282.81 1559.14 284.194Z"/>
	<path fill="#473433" d="M1597.61 330.943C1597.35 330.583 1597.1 330.218 1596.83 329.863C1593.02 324.758 1583.9 321.631 1583.28 314.681L1584.34 312.9C1588.07 312.238 1590.93 314.834 1594.5 315.637C1598.42 316.519 1602.54 316.275 1606.47 317.288C1622.64 321.463 1642.92 330.387 1656.95 339.502C1658.07 340.228 1659.03 341.158 1659.93 342.139L1659.67 343.658C1653.15 345.567 1645.11 341.223 1638.35 341.191C1625.6 335.201 1611.4 333.187 1597.61 330.943Z"/>
	<path fill="#473433" d="M1686.08 344.118C1692.58 335.417 1718.75 325.81 1729.58 321.499C1736.68 318.669 1755.62 311.863 1762.9 315.013C1763.2 316.014 1763.66 316.613 1763.23 317.604C1760.12 324.72 1753.56 328.03 1746.72 330.737C1734.91 335.681 1721.99 336.862 1709.76 340.353C1703.9 341.867 1697.73 343.97 1691.7 344.489L1686.08 344.118Z"/>
	<path fill="#A29A9A" d="M1390.38 559.627C1398.47 551.328 1401.4 484.981 1411.81 465.78C1430.59 431.125 1506.62 418.318 1542.46 408.024C1542.73 408.113 1543 408.198 1543.26 408.29C1556.45 412.899 1568.2 422.114 1579.74 429.748C1607.26 447.936 1642.39 470.693 1676.67 468.183C1691.48 467.098 1705.51 461.805 1718.85 455.559C1725.94 452.241 1801.69 410.034 1802.78 408.268C1833.5 413.999 1880.52 427.02 1908.32 441.019C1924.23 449.035 1937.11 459.194 1942.68 476.643C1946.4 488.297 1956.86 551.6 1952.65 559.728L1390.38 559.627Z"/>
	<path fill="#A29A9A" d="M1124.78 1138.43C1163.08 1150.54 1208.44 1155.26 1241.59 1179.58C1248.95 1184.98 1255.21 1191.55 1259.29 1199.78C1269.58 1220.58 1271.57 1265.6 1275.26 1289.89L711.554 1289.81C716.816 1263.74 718.098 1219.96 730.429 1197.49C750.816 1160.32 824.349 1149.52 862.236 1138.37C878.282 1145.27 892.022 1155.04 906.551 1164.6C945.331 1190.1 980.775 1209.29 1027.57 1190.56C1062 1176.78 1090.94 1152.69 1124.78 1138.43Z"/>
	<path fill="#A29A9A" d="M711.544 556.315C716.883 530.274 718.152 486.611 730.273 464.286C750.831 426.421 824.881 416.037 862.709 404.679C876.863 410.979 889.095 419.567 901.971 428.06C942.21 454.603 978.316 475.84 1027.54 456.809C1042.8 450.908 1058.32 442.781 1072.35 434.395C1089.45 424.183 1106.43 410.294 1125.94 405.178C1135.79 409.54 1146.93 411.717 1157.35 414.348C1185.62 421.487 1218.18 428.811 1242.05 446.38C1249.1 451.566 1255.08 457.998 1259.01 465.865C1269.51 486.897 1271.5 531.786 1275.29 556.372L711.544 556.315Z"/>
	<path fill="#A29A9A" d="M434.048 1136.31C472.522 1148.72 518.585 1153.03 551.751 1177.8C558.66 1182.96 564.514 1189.33 568.371 1197.09C579.262 1219 581.031 1262.62 584.589 1287.9L20.9934 1287.92C26.0477 1262.9 28.3032 1217.27 39.5779 1196.02C59.6833 1158.13 133.314 1148.3 171.033 1136.49L172.031 1136.75C186.221 1140.5 199.142 1151.31 211.183 1159.5C272.795 1201.37 306.432 1208.93 372.684 1171.12C393.219 1159.4 412.352 1146 434.048 1136.31Z"/>
	<path fill="#A29A9A" d="M1393.22 1289.76C1401.53 1278.33 1402.3 1223.46 1412.26 1201.02C1432.03 1156.45 1504.67 1153.32 1544.75 1137.79L1545.68 1137.42C1600.52 1163.4 1640.5 1214.85 1707.95 1190.85Q1721.04 1186.12 1733.42 1179.75C1751.16 1170.7 1767.89 1159.88 1785.21 1150.09C1790.26 1147.23 1799.48 1143.93 1803.49 1140.1C1803.61 1140 1804.55 1138.43 1804.58 1138.33C1804.67 1138.08 1804.62 1137.79 1804.64 1137.53C1835.88 1144.3 1884.13 1156.7 1912.27 1171.14C1928.11 1179.27 1940.29 1189.28 1945.77 1206.7C1949.33 1218 1960.17 1281.65 1956.03 1289.63C1889.72 1287.31 1823.1 1289.67 1756.75 1289.79L1393.22 1289.76Z"/>
	<path fill="#A29A9A" d="M26.6296 558.994C30.9789 533.668 33.9372 487.799 45.5456 466.724C65.522 430.458 140.798 418.33 177.986 407.591C227.061 432.352 273.669 482.822 333.568 463.143C371.152 450.795 403.896 425.575 439.006 407.768C477.066 419.828 519.81 424.552 553.704 447.109C561.862 452.538 569.311 459.41 573.923 468.167C584.805 488.831 585.528 534.159 590.419 559.042C550.431 560.499 510.311 559.619 470.296 559.648L261.512 559.756L111.667 559.776C83.4941 559.776 54.7081 561.001 26.6296 558.994Z"/>
	<path fill="#F2C39B" d="M1551.45 892.496C1551.57 892.341 1551.69 892.189 1551.81 892.03C1557.3 884.316 1557.51 869.773 1560.4 860.575C1572.77 821.274 1611.16 798.088 1649.72 790.746C1685.67 783.903 1725.71 790.435 1756.23 811.179Q1757.29 811.893 1758.34 812.634Q1759.38 813.375 1760.41 814.143Q1761.43 814.91 1762.44 815.703Q1763.45 816.497 1764.43 817.315Q1765.42 818.134 1766.38 818.977Q1767.34 819.821 1768.29 820.689Q1769.23 821.556 1770.15 822.448Q1771.07 823.339 1771.96 824.254Q1772.86 825.169 1773.73 826.106Q1774.61 827.043 1775.45 828.002Q1776.3 828.961 1777.13 829.942Q1777.95 830.922 1778.75 831.923Q1779.55 832.924 1780.32 833.945Q1781.1 834.966 1781.84 836.007Q1782.59 837.047 1783.31 838.106Q1784.03 839.166 1784.72 840.243Q1785.42 841.32 1786.08 842.414Q1786.75 843.509 1787.38 844.62Q1788.02 845.731 1788.63 846.858Q1789.24 847.985 1789.82 849.127Q1790.4 850.269 1790.95 851.426Q1791.5 852.582 1792.02 853.752Q1792.54 854.922 1793.03 856.105Q1793.52 857.288 1793.98 858.483Q1794.44 859.678 1794.87 860.885Q1795.3 862.091 1795.7 863.308Q1796.1 864.525 1796.46 865.752Q1796.83 866.979 1797.17 868.215Q1797.5 869.45 1797.81 870.694Q1798.11 871.938 1798.39 873.19Q1798.66 874.441 1798.9 875.699Q1799.14 876.956 1799.35 878.22C1800.16 882.9 1800.63 888.093 1798.05 892.292C1801.13 893.922 1802.11 896.342 1803.08 899.536C1808.2 916.452 1807.16 947.505 1798.85 963.184C1799.53 966.125 1799.87 968.409 1798.14 971.059C1797.7 971.724 1797.41 972.039 1796.87 972.701C1796.32 977.915 1796.31 982.961 1792.85 987.194C1794.6 987.287 1796.57 987.108 1798.04 988.184L1800 997.336C1800.74 999.765 1801.2 1001.84 1800.11 1004.27C1799.44 1005.74 1798.22 1006.77 1796.91 1007.65C1797 1020.93 1791.03 1033.13 1787.73 1045.75C1782.62 1065.32 1781.69 1079.85 1772.31 1098.8C1771.02 1101.41 1769.6 1105.3 1767.55 1107.37C1767.31 1107.61 1767.06 1107.84 1766.82 1108.07C1769.61 1112.02 1775.7 1119.9 1775.34 1124.87C1782.6 1127.61 1799.59 1132.41 1804.64 1137.53C1804.62 1137.79 1804.67 1138.08 1804.58 1138.33C1804.55 1138.43 1803.61 1140 1803.49 1140.1C1799.48 1143.93 1790.26 1147.23 1785.21 1150.09C1767.89 1159.88 1751.16 1170.7 1733.42 1179.75Q1721.04 1186.12 1707.95 1190.85C1640.5 1214.85 1600.52 1163.4 1545.68 1137.42Q1549.23 1136.59 1552.75 1135.63C1562.64 1132.86 1575.67 1127.63 1580.65 1117.9C1582.52 1114.25 1583.41 1110.25 1582.27 1106.26C1584.7 1098.92 1574.55 1084.46 1572.38 1076.92C1569.36 1066.4 1568.18 1055.36 1565.65 1044.7C1562.45 1031.21 1557.88 1018.01 1554.33 1004.6L1555.13 1004.42C1556.23 1001.33 1557.32 998.263 1558.24 995.12C1558.63 994.246 1559.28 993.056 1559.39 992.118C1559.68 989.661 1558.4 989.069 1556.85 987.492C1557.81 985.551 1558.42 983.904 1558.29 981.697C1558.04 977.499 1556.07 974.646 1553.07 971.88L1554.28 968.423C1553.52 965.6 1552.66 965.19 1550.54 963.275C1551.03 962.751 1551.3 962.517 1551.66 961.842C1552.23 960.814 1552.34 959.839 1552.31 958.692C1552.04 948.046 1547.6 937.8 1547.52 927.167C1547.45 916.622 1554.3 902.328 1551.45 892.496Z"/>
	<path fill="#F9D4A9" d="M1791.91 993.126C1793.12 990.452 1793.5 990.173 1792.85 987.194C1794.6 987.287 1796.57 987.108 1798.04 988.184L1800 997.336C1800.74 999.765 1801.2 1001.84 1800.11 1004.27C1799.44 1005.74 1798.22 1006.77 1796.91 1007.65L1795.28 1006.58C1796.37 1004.59 1797.02 1002.77 1797.64 1000.6C1797.08 997.321 1794.22 995.315 1791.91 993.126Z"/>
	<path fill="#473433" d="M1598.64 1059.81C1598.53 1059.65 1598.41 1059.5 1598.29 1059.35C1594.56 1054.55 1586.82 1050.13 1586.27 1043.75L1587.3 1042.05C1590.56 1041.48 1593.78 1043.79 1596.95 1044.59C1617.95 1049.92 1641.13 1056.34 1659.12 1069.05Q1661.08 1070.44 1662.83 1072.08L1662.65 1073.28C1656.06 1076.75 1645.77 1070.3 1638.42 1070.63C1632.58 1065.04 1607.08 1060.84 1598.64 1059.81Z"/>
	<path fill="#473433" d="M1711.79 1070.44C1707.22 1071.71 1701.56 1073.84 1696.79 1073.67C1694.51 1073.58 1693.77 1073.83 1692.21 1072.19C1692.38 1071.89 1692.53 1071.58 1692.7 1071.29C1697.45 1063.51 1744.43 1046.5 1755.72 1043.97C1759.64 1043.09 1763.29 1042.12 1766.83 1044.38L1767.2 1046.55C1764.19 1053.14 1755.72 1058.12 1749.24 1060.7C1736.99 1064.9 1724.16 1066.76 1711.79 1070.44Z"/>
	<path fill="#473433" d="M1798.05 892.292C1801.13 893.922 1802.11 896.342 1803.08 899.536C1808.2 916.452 1807.16 947.505 1798.85 963.184C1799.53 966.125 1799.87 968.409 1798.14 971.059C1797.7 971.724 1797.41 972.039 1796.87 972.701C1796.32 977.915 1796.31 982.961 1792.85 987.194C1793.5 990.173 1793.12 990.452 1791.91 993.126C1792.62 998.894 1792.36 1008.67 1788.8 1013.53C1788.58 1013.82 1788.34 1014.09 1788.12 1014.38C1788.2 1015.72 1788.61 1017.3 1787.9 1018.45C1784.18 996.935 1786.12 933.482 1790.81 912.589C1792.37 905.666 1795.86 899.054 1798.05 892.292Z"/>
	<path fill="#473433" d="M1551.45 892.496C1554.39 893.192 1555.47 893.288 1557.26 895.937C1568.43 912.493 1569.72 997.124 1566.6 1017.82L1565.64 1019.08C1565.44 1018.87 1565.25 1018.65 1565.06 1018.44C1564.06 1017.37 1562.99 1016.39 1561.91 1015.4C1563.79 1011.52 1563.85 1007.15 1562.95 1002.98C1562.23 999.615 1561.17 997.044 1558.24 995.12C1558.63 994.246 1559.28 993.056 1559.39 992.118C1559.68 989.661 1558.4 989.069 1556.85 987.492C1557.81 985.551 1558.42 983.904 1558.29 981.697C1558.04 977.499 1556.07 974.646 1553.07 971.88L1554.28 968.423C1553.52 965.6 1552.66 965.19 1550.54 963.275C1551.03 962.751 1551.3 962.517 1551.66 961.842C1552.23 960.814 1552.34 959.839 1552.31 958.692C1552.04 948.046 1547.6 937.8 1547.52 927.167C1547.45 916.622 1554.3 902.328 1551.45 892.496Z"/>
	<path fill="#F2C39B" d="M246.413 796.61C287.045 784.096 322.32 784.47 362.61 797.874C371.128 801.659 379.377 805.384 387.399 810.151L388.099 810.575C408.348 821.576 419.63 834.546 426.164 857C435.866 890.347 433.469 928.076 426.069 961.618L423.96 971.07L420.629 985.539L419.168 993.36C422.718 996.46 422.893 998.29 423.201 1002.78C423.325 1004.58 423.219 1005.92 424.262 1007.48C420.823 1018.42 417.314 1029.36 414.65 1040.52C409.293 1062.96 406.097 1084.6 394.027 1104.76C397.547 1115.7 401.197 1122.82 411.723 1128.33C418.514 1131.88 426.692 1134.17 434.048 1136.31C412.352 1146 393.219 1159.4 372.684 1171.12C306.432 1208.93 272.795 1201.37 211.183 1159.5C199.142 1151.31 186.221 1140.5 172.031 1136.75L171.033 1136.49C178.204 1134.66 185.658 1132.84 192.264 1129.43C203.434 1123.66 206.995 1114.8 210.759 1103.39C198.846 1085.23 197.442 1065.27 192.403 1044.76C189.351 1032.34 185.228 1020.07 181.455 1007.84L177.871 997.98L178.505 995.121C178.585 993.348 178.607 991.432 178.974 989.693C179.563 986.905 182.534 985.574 184.789 984.236L182.55 972.929L180.267 962.025C173.568 927.401 166.723 883.027 179.787 849.071C187.323 829.485 201.059 816.73 219.976 808.35C228.906 804.831 237.65 800.542 246.413 796.61Z"/>
	<path fill="#F9D4A9" d="M178.505 995.121C178.585 993.348 178.607 991.432 178.974 989.693C179.563 986.905 182.534 985.574 184.789 984.236L186.387 992.345C184.539 994.634 182.134 997.154 182.349 1000.29C182.502 1002.51 183.239 1005.08 183.917 1007.2L181.455 1007.84L177.871 997.98L178.505 995.121Z"/>
	<path fill="#473433" d="M226.771 1058.06C221.416 1054.75 215.684 1050.91 212.747 1045.14L212.756 1043C214.651 1041.34 215.519 1041.34 218.082 1041.46C230.283 1042.06 279.981 1061.2 287.113 1069.69C287.382 1070.01 287.626 1070.35 287.883 1070.68L287.565 1071.97C280.641 1073.48 273.153 1070.58 266.642 1068.42C253.369 1065.11 239.653 1062.68 226.771 1058.06Z"/>
	<path fill="#473433" d="M337.967 1068.81C332.367 1070.89 322.639 1074.19 316.796 1072.23L316.459 1070.88C325.049 1061.19 366.785 1046.35 380.474 1043.2C384.618 1042.25 389.211 1040.94 392.983 1043.31L392.844 1045.63C389.126 1051.49 384.591 1054.81 378.647 1058.23C365.467 1062.82 351.51 1065.45 337.967 1068.81Z"/>
	<path fill="#473433" d="M388.099 810.575C408.348 821.576 419.63 834.546 426.164 857C435.866 890.347 433.469 928.076 426.069 961.618L423.96 971.07L420.629 985.539L419.168 993.36C417.992 1001.5 416.453 1009.57 414.933 1017.65C408.53 995.469 417.155 972.023 414.33 949.582C412.411 934.337 407.588 915.401 400.255 901.958C392.373 887.507 383.224 875.353 377.199 859.745C382.035 843.699 387.023 827.385 388.099 810.575Z"/>
	<path fill="#473433" d="M180.267 962.025C173.568 927.401 166.723 883.027 179.787 849.071C187.323 829.485 201.059 816.73 219.976 808.35C222.774 822.394 228.091 850.584 236.472 862.031C236.156 871.835 224.435 884.578 219.51 893.254C210.352 909.382 198.525 937.231 193.322 955.288C187.957 973.912 197.58 1001.23 192.114 1015.03L191.019 1015.62L190.034 1013.35C189.25 1006.32 187.679 999.3 186.387 992.345L184.789 984.236L182.55 972.929L180.267 962.025Z"/>
	<path fill="#F2C39B" d="M915.008 807.989L916.096 807.727C925.023 805.496 932.703 799.917 941.355 796.846C970.174 786.615 1004.42 785.725 1033.88 793.756C1042.2 796.024 1066.34 807.349 1070.91 807.61C1088.57 812.906 1103 826.909 1111.7 842.867C1126.8 870.53 1126.84 905.698 1121.27 935.965C1119.73 944.362 1115.84 955.84 1115.75 964.172L1113.62 973.043C1112.78 977.53 1111.69 982.103 1111.13 986.627L1108.93 995.004C1110.98 996.547 1113.54 997.751 1113.91 1000.53C1114.35 1003.87 1113.1 1005.1 1114.9 1008.44L1114.59 1009.25C1110.8 1022.02 1106.61 1034.84 1103.68 1047.83C1101.16 1059.03 1099.88 1070.97 1096.25 1081.85C1093.21 1090.97 1088.6 1099.02 1084.72 1107.72C1088.19 1118.13 1091.15 1124.86 1101.26 1129.94C1108.57 1133.61 1117.03 1135.85 1124.78 1138.43C1090.94 1152.69 1062 1176.78 1027.57 1190.56C980.775 1209.29 945.331 1190.1 906.551 1164.6C892.022 1155.04 878.282 1145.27 862.236 1138.37C867.903 1136.85 873.795 1135.05 879.228 1132.82C892.054 1127.56 896.084 1119.06 901.073 1106.93C898.31 1097.68 892.207 1089.68 889.574 1080.38C886.236 1068.59 884.847 1056.17 882.122 1044.22C879.379 1032.19 875.243 1020.37 871.465 1008.63L873.211 1007.25C872.979 1004.98 872.453 1002.08 872.88 999.829C873.283 997.706 876.072 995.823 877.669 994.555L876.032 988.327C875.235 983.532 874.176 978.754 873.232 973.984L870.971 964.199C868.393 954.202 866.02 944.037 864.266 933.863C858.56 900.759 859.133 862.53 879.521 834.214C887.694 822.864 900.715 810.379 915.008 807.989Z"/>
	<path fill="#473433" d="M1029.61 1070.28C1023.47 1072.44 1014.57 1076.09 1008.16 1074.05L1007.59 1072.61C1007.7 1072.42 1007.8 1072.22 1007.93 1072.04C1014.81 1062.99 1062.66 1046.41 1075.97 1044.33C1078.72 1043.9 1080.64 1043.79 1082.92 1045.44C1082.96 1046.13 1083.03 1046.47 1082.92 1047.12C1081.93 1052.9 1073.7 1057.34 1069.19 1060.2C1056.4 1064.39 1042.81 1067.68 1029.61 1070.28Z"/>
	<path fill="#473433" d="M901.887 1042.22L903.092 1042.64C910.615 1045.22 918.299 1045.15 925.858 1047.11C936.847 1049.95 971.267 1064.34 977.94 1071.93L977.759 1073.54C971.641 1075.78 963.097 1072.37 957.275 1070.31C943.697 1067.04 930.039 1064.2 916.767 1059.8C909.062 1054.76 905.49 1050.86 901.887 1042.22Z"/>
	<path fill="#473433" d="M1070.91 807.61C1088.57 812.906 1103 826.909 1111.7 842.867C1126.8 870.53 1126.84 905.698 1121.27 935.965C1119.73 944.362 1115.84 955.84 1115.75 964.172L1113.62 973.043C1112.78 977.53 1111.69 982.103 1111.13 986.627L1108.93 995.004C1107.82 1002.37 1107.18 1010.45 1105.33 1017.64L1104.49 1018.88C1098.77 1010.05 1104.04 972.333 1104.35 961.039Q1104.45 957.128 1104.13 953.229Q1103.82 949.33 1103.08 945.488C1097.93 917.183 1090.79 897.076 1066.49 880.046C1070.14 853.836 1078.01 834.356 1070.91 807.61Z"/>
	<path fill="#473433" d="M870.971 964.199C868.393 954.202 866.02 944.037 864.266 933.863C858.56 900.759 859.133 862.53 879.521 834.214C887.694 822.864 900.715 810.379 915.008 807.989C906.718 833.961 915.956 854.604 919.032 880.205C899.668 894.507 897.229 912.957 890.683 934.532C888.129 942.95 884.244 951.379 882.972 960.111C880.55 976.73 887.703 1005.4 882.253 1019.48C881.435 1018.39 881.223 1017.86 880.833 1016.59C879.937 1009.23 878.741 1001.89 877.669 994.555L876.032 988.327C875.235 983.532 874.176 978.754 873.232 973.984L870.971 964.199Z"/>
</svg>
