<?xml version="1.0" encoding="utf-8" ?>
<svg xmlns="http://www.w3.org/2000/svg" xmlns:xlink="http://www.w3.org/1999/xlink" width="1024" height="1024">
	<path fill="#2E2B29" d="M836.515 851.981C837.032 853.518 837.181 854.755 836.458 856.277C835.58 858.126 833.897 859.849 832.584 861.414C828.828 865.875 824.415 872.707 820.366 876.373C818.959 877.226 818.098 879.983 817.316 881.451C813.515 888.589 810.232 895.661 807.318 903.213C805.538 907.828 804.237 912.848 801.96 917.238C801.294 918.522 800.628 920.018 799.204 920.426C798.226 919.453 798.109 918.961 798.16 917.566C798.326 913.031 802.517 906.424 802.195 902.983L801.642 902.754C803.597 902.637 804.767 898.011 805.518 896.309C811.769 882.141 823.72 861.074 836.515 851.981Z"/>
	<path fill="#5A896D" d="M867.928 816.879C873.037 816.496 884.429 806.73 889.699 803.864C895.706 800.596 902.071 797.796 908.223 794.803C919.223 789.451 930.081 784.051 941.532 779.708C945.333 785.326 948.164 791.967 949.961 798.493Q952.101 804.768 954.412 810.982C956.073 815.199 959.944 824.132 959.589 828.441C956.376 834.274 953.265 839.708 948.673 844.596C931.821 862.532 899.759 874.178 876.42 880.954C867.493 883.545 849.063 889.779 840.479 889.305C838.88 889.217 837.277 888.552 835.864 887.828C835.726 887.757 835.594 887.675 835.459 887.599C829.858 884.826 825.236 880.225 820.366 876.373C824.415 872.707 828.828 865.875 832.584 861.414C833.897 859.849 835.58 858.126 836.458 856.277C837.181 854.755 837.032 853.518 836.515 851.981C840.213 850.44 846.569 838.185 849.704 834.536C855.285 828.041 861.896 822.865 867.928 816.879Z"/>
	<path fill="#FEFEFD" d="M838.496 862.037C849.815 856.331 860.862 849.851 872.103 843.947C898.667 829.996 925.655 816.224 949.961 798.493Q952.101 804.768 954.412 810.982C954.143 811.038 953.875 811.098 953.605 811.151C951.599 811.546 949.528 811.26 947.501 811.556C943.462 812.146 939.112 813.714 935.297 815.152C912.2 823.86 851.534 860.058 837.668 880.414C835.874 883.047 835.4 884.42 835.459 887.599C829.858 884.826 825.236 880.225 820.366 876.373C824.415 872.707 828.828 865.875 832.584 861.414C834.539 861.703 836.528 861.844 838.496 862.037Z"/>
	<path fill="#5A896D" d="M867.928 816.879C873.037 816.496 884.429 806.73 889.699 803.864C895.706 800.596 902.071 797.796 908.223 794.803C919.223 789.451 930.081 784.051 941.532 779.708C945.333 785.326 948.164 791.967 949.961 798.493C925.655 816.224 898.667 829.996 872.103 843.947C860.862 849.851 849.815 856.331 838.496 862.037C836.528 861.844 834.539 861.703 832.584 861.414C833.897 859.849 835.58 858.126 836.458 856.277C837.181 854.755 837.032 853.518 836.515 851.981C840.213 850.44 846.569 838.185 849.704 834.536C855.285 828.041 861.896 822.865 867.928 816.879Z"/>
	<path fill="#F3E9D7" d="M159.69 303.412C144.991 301.474 135.91 305.372 122.504 294.267C113.971 287.199 108.981 277.484 108.009 266.473C106.006 243.796 118.45 222.67 132.559 205.958C146.035 189.995 162.249 176.608 179.031 164.283Q181.798 162.247 184.6 160.259Q187.402 158.27 190.238 156.331Q193.074 154.391 195.943 152.501Q198.812 150.61 201.713 148.77Q204.614 146.929 207.546 145.139Q210.479 143.348 213.441 141.609Q216.404 139.869 219.396 138.181Q222.389 136.492 225.41 134.856Q228.431 133.219 231.479 131.635Q234.528 130.051 237.604 128.52Q240.679 126.988 243.781 125.51Q246.882 124.032 250.009 122.607Q253.135 121.183 256.286 119.812Q259.436 118.442 262.61 117.126Q265.784 115.81 268.98 114.549Q272.176 113.288 275.393 112.082Q278.61 110.876 281.848 109.726Q285.085 108.576 288.342 107.482Q291.599 106.388 294.874 105.35Q298.149 104.312 301.442 103.331Q304.734 102.35 308.043 101.425Q311.352 100.501 314.677 99.6336Q318.001 98.7664 321.34 97.9566Q324.679 97.1468 328.032 96.3946Q331.384 95.6425 334.749 94.9482Q338.114 94.254 341.49 93.6178Q344.866 92.9817 348.253 92.4038Q351.64 91.8259 355.036 91.3065Q358.432 90.7871 361.837 90.3263Q365.242 89.8655 368.654 89.4634Q372.066 89.0613 375.484 88.7181Q378.903 88.3749 382.327 88.0907Q400.477 86.607 418.686 86.3462Q436.895 86.0854 455.08 87.0488C506.124 90.0484 542.313 99.9997 581.971 133.481C577.809 135.928 573.903 138.825 569.954 141.598C553.345 131.68 533.328 125.647 514.08 130.568C502.865 133.435 493.876 140.106 487.473 149.68C470.905 147.25 453.97 148.616 440.128 158.873C426.959 168.632 419.772 182.307 416.079 198.024C394.612 213.773 374.121 231.332 367.575 258.349Q324.407 264.701 281.331 271.654C266.882 274.054 252.393 276.179 238.121 279.525Q210.944 285.724 184.414 294.279C178.469 296.2 165.061 303.877 159.69 303.412Z"/>
	<path fill="#F3E9D7" d="M143.742 570.765C154.504 586.456 178.395 611.471 194.44 622.15C195.219 634.734 198.785 652.683 208.718 661.4C216.562 668.285 231.219 674.149 240.736 679.627C259.359 690.345 292.904 718.183 301.293 737.815C305.359 747.331 305.961 758.75 306.701 768.991C308.092 788.22 309.69 807.561 312.832 826.6C313.893 833.033 315.104 839.56 316.958 845.813C319.156 853.23 322.173 860.562 323.348 868.227C324.479 875.61 323.917 883.249 323.58 890.682C323.385 894.989 323.721 900.575 322.643 904.712C290.597 918.591 261.223 927.475 226.218 930.976C185.755 935.023 144.252 927.959 112.127 901.486C76.3021 871.963 57.3597 829.401 52.9026 783.833C45.0409 703.457 95.1975 629.816 143.742 570.765Z"/>
	<path fill="#2E2B29" d="M581.971 133.481C583.954 132.413 585.95 131.35 588 130.415C599.233 125.291 611.824 121.821 624.179 121.172C656.9 119.452 656.181 135.411 678.448 150.948C684.011 154.83 690.039 156.802 696.333 159.165L696.113 159.734C693.635 160.398 690.2 159.48 687.729 158.817C665.087 152.742 660.106 134.197 644.064 127.761C631.546 122.739 608.269 126.029 596.218 131.381C595.93 131.51 595.645 131.645 595.358 131.777C601.458 132.918 608.749 132.793 614.402 135.342C626.592 136.726 653.226 146.695 662.128 154.836C666.139 158.503 668.886 163.989 673.426 166.903C678.226 169.983 683.928 171.903 689.005 174.532C703.215 181.891 713.92 192.29 723.808 204.701C734.867 218.583 748.752 240.656 754.201 257.441C756.228 263.686 754.753 269.051 755.409 275.298C755.907 280.029 758.049 284.984 759.5 289.519C763.699 302.641 766.841 315.533 778.049 324.617C780.062 326.249 790.945 332.514 790.767 334.294C785.138 334.804 778.218 330.773 774.044 327.24C764.477 319.142 761.273 308.31 756.221 297.337C757.893 306.692 757.419 322.653 760.769 330.681C762.368 334.514 765.723 338.133 769.075 340.516C772.634 343.047 776.851 342.73 780.317 344.907L780.265 345.665C776.373 347.357 770.957 346.056 767.182 344.539C764.908 343.626 762.8 342.528 760.693 341.28C759.868 346.447 759.463 351.885 759.462 357.12C762.647 360.859 768.224 363.904 770.641 367.632L770.421 368.206C766.532 368.516 762.61 366.161 759.358 364.228C756.602 380.585 753.714 401.129 763.929 415.506C765.817 418.164 768.036 420.675 769.811 423.396L770.905 423.736C770.753 423.952 770.591 424.161 770.449 424.384C770.376 424.497 770.324 424.622 770.262 424.741C766.132 423.84 762.551 420.397 760.274 416.97C754.377 408.092 753.473 396.267 752.578 385.959C749.374 404.282 749.095 422.95 745.17 441.221C741.62 457.744 734.649 473.176 730.548 489.508C729.571 493.398 728.54 507.237 726.087 509.211C724.737 508.387 724.356 506.7 723.971 505.25C722.133 498.325 725.189 490.407 725.98 483.499C723.981 489.065 722.081 494.703 719.366 499.97C715.285 507.885 709.478 514.921 707.426 523.755C706.444 527.985 707.229 533.937 706.239 537.198C706.015 537.936 705.598 538.091 705.027 538.546C703.754 538.531 703.158 538.376 702.228 537.442C700.481 535.687 698.937 532.582 698.416 530.17L697.27 529.067C700.174 558.381 709.245 598.487 726.397 622.642C738.597 624.186 753.381 624.782 761.536 635.365C763.402 637.788 764.55 640.714 765.774 643.496C772.279 648.018 778.86 648.055 784.759 651.887C788.643 654.41 791.921 658.171 795.42 661.208C799.609 664.847 804.381 668.031 809.159 670.844C833.876 685.399 860.476 696.658 885.616 710.51C891.62 713.818 898.666 716.713 904.173 720.731C909.524 724.635 914.109 729.971 918.277 735.068C941.547 763.527 961.588 809.241 968.335 845.381C968.915 848.49 969.677 852.893 968.688 855.917L967.372 856.216L968.451 856.32L967.578 856.351C963.299 851.005 961.747 835.64 959.589 828.441C959.944 824.132 956.073 815.199 954.412 810.982Q952.101 804.768 949.961 798.493C948.164 791.967 945.333 785.326 941.532 779.708C930.081 784.051 919.223 789.451 908.223 794.803C902.071 797.796 895.706 800.596 889.699 803.864C884.429 806.73 873.037 816.496 867.928 816.879C861.896 822.865 855.285 828.041 849.704 834.536C846.569 838.185 840.213 850.44 836.515 851.981C823.72 861.074 811.769 882.141 805.518 896.309C804.767 898.011 803.597 902.637 801.642 902.754C799.538 902.62 797.466 902.439 795.376 902.154C794.982 901.844 794.72 901.665 794.378 901.265C792.106 898.616 792.977 893.374 793.489 890.248C792.04 890.133 790.634 890.257 789.187 890.342C789.874 891.648 790.276 892.54 790.495 894.026L789.937 894.733C788.567 894.797 787.663 894.231 786.6 893.433C777.17 886.353 772.919 862.129 771.323 850.56C742.189 863.154 712.6 874.759 683.39 887.204C630.956 909.543 578.383 932.698 522.866 946.322C507.377 950.123 491.31 953.599 475.357 954.62C456.718 955.812 438.108 954.286 420.618 947.32C387.392 934.086 364.858 903.053 343.452 875.905C338.724 869.909 331.891 859.458 325.997 854.977C330.616 869.332 336.095 883.402 340.824 897.722C343.19 904.888 344.968 912.182 347.151 919.395Q341.787 910.601 337.358 901.3Q332.929 892 329.483 882.292C328.952 903.515 326.034 924.675 323.491 945.723C321.542 932.724 321.657 917.771 322.643 904.712C323.721 900.575 323.385 894.989 323.58 890.682C323.917 883.249 324.479 875.61 323.348 868.227C322.173 860.562 319.156 853.23 316.958 845.813C315.104 839.56 313.893 833.033 312.832 826.6C309.69 807.561 308.092 788.22 306.701 768.991C305.961 758.75 305.359 747.331 301.293 737.815C292.904 718.183 259.359 690.345 240.736 679.627C231.219 674.149 216.562 668.285 208.718 661.4C198.785 652.683 195.219 634.734 194.44 622.15C178.395 611.471 154.504 586.456 143.742 570.765C138.978 562.704 132.216 555.315 126.595 547.8C119.485 538.293 113.242 528.363 107.199 518.152Q91.8326 491.97 79.7345 464.127C74.7102 452.49 70.3534 440.57 65.3401 428.933C62.8576 423.17 59.9461 417.601 57.365 411.883C51.5388 398.978 49.1589 384.362 54.4101 370.8C55.8809 367.002 58.0521 363.33 60.8152 360.332C75.1387 344.79 115.896 322.145 135.33 313.292C143.304 309.66 151.675 306.948 159.69 303.412C165.061 303.877 178.469 296.2 184.414 294.279Q210.944 285.724 238.121 279.525C252.393 276.179 266.882 274.054 281.331 271.654Q324.407 264.701 367.575 258.349C374.121 231.332 394.612 213.773 416.079 198.024C419.772 182.307 426.959 168.632 440.128 158.873C453.97 148.616 470.905 147.25 487.473 149.68C493.876 140.106 502.865 133.435 514.08 130.568C533.328 125.647 553.345 131.68 569.954 141.598C573.903 138.825 577.809 135.928 581.971 133.481ZM250.981 431.912C254.286 435.104 266.89 447.789 270.464 448.339C277.82 443.974 284.867 438.93 291.976 434.166Q322.89 413.323 352.816 391.085C368.902 379.37 385.53 368.385 401.761 356.859C400.894 353.93 399.483 351.249 398.404 348.399C396.232 342.656 394.908 337.088 393.962 331.033C374.853 345.595 355.116 359.194 335.755 373.403C317.886 386.516 300.568 400.248 282.213 412.708C272.139 419.547 261.465 425.722 250.981 431.912Z"/>
	<path fill="#626261" d="M754.399 348.435C754.959 349.065 754.93 349.209 755.113 350.021C755.48 351.651 755.948 354.258 754.996 355.725L754.17 355.399C753.052 354.368 751.968 353.484 751.293 352.09C751.781 350.407 753.121 349.589 754.399 348.435Z"/>
	<path fill="#626261" d="M749.989 356.347C751.452 357.054 753.044 358.398 753.874 359.815C755.571 362.713 754.906 365.95 754.208 369.026L753.987 369.142L753.243 368.795C751.815 364.915 750.203 360.496 749.989 356.347Z"/>
	<path fill="#F3E9D7" d="M447.556 399.866C449.24 401.507 452.267 404.948 452.344 407.257L451.125 407.503C449.835 407.564 448.351 407.758 447.085 407.49C446.015 407.264 445.907 406.952 445.307 406.114C445.418 403.887 446.63 401.859 447.556 399.866Z"/>
	<path fill="#524944" d="M487.049 233.452C489.149 232.437 492.016 231.067 494.37 231.909C495.997 232.492 496.922 233.89 497.511 235.433C497.705 235.941 497.857 236.464 498.019 236.982C496.432 236.711 494.94 236.227 493.408 235.745L493.021 235.104C492.058 235.689 491.122 236.287 490.197 236.931L490.23 236.481C489.556 235.131 488.224 234.343 487.049 233.452Z"/>
	<path fill="#807F7D" d="M425.997 373.8C426.805 373.881 427.596 373.965 428.355 374.285C429.447 374.746 430.298 375.689 430.535 376.871C430.91 378.735 429.972 380.135 428.923 381.536C428.126 381.832 427.433 382.173 426.564 382.119C425.872 382.076 425.669 381.416 425.287 380.9C424.888 378.568 425.584 376.105 425.997 373.8Z"/>
	<path fill="#524944" d="M392.853 302.556C393.642 299.025 395.974 295.511 397.714 292.359C398.699 296.989 397.724 302.237 395.71 306.492L394.596 306.262C394.216 304.856 394.042 303.515 392.853 302.556Z"/>
	<path fill="#626261" d="M657.304 398.824C659.621 400.244 663.22 403.382 663.911 406.105C664.372 407.921 663.624 408.752 662.858 410.341C662.105 411.099 662.571 410.796 661.403 411.154C661.261 411.062 661.105 410.988 660.978 410.877C658.66 408.851 657.836 401.846 657.304 398.824Z"/>
	<path fill="#524944" d="M647.877 368.531C642.151 365.163 637.801 359.717 633.411 354.841C638.724 358.341 644.423 361.214 649.913 364.421L649.892 364.924C648.576 364.542 647.823 364.208 646.438 364.484C646.243 365.661 646.533 366.107 647.237 367.02C647.624 367.52 648.136 367.972 648.588 368.407L647.877 368.531Z"/>
	<path fill="#626261" d="M394.681 612.113C396.366 611.231 398.009 610.598 399.82 610.022C396.913 614.344 390.988 620.174 390.2 625.372L389.732 625.267L388.076 622.635C390.193 619.081 392.241 615.456 394.681 612.113Z"/>
	<path fill="#626261" d="M655.494 406.864C657.121 409.613 658.84 412.345 660.341 415.163C659.528 418.4 658.728 421.666 658.488 425.007L657.765 425.324Q656.544 420.813 655.974 416.175Q655.403 411.536 655.494 406.864Z"/>
	<path fill="#626261" d="M495.126 264.708C492.57 266.297 489.773 267.588 486.953 268.638C484.791 269.443 481.925 270.47 479.701 269.448L479.591 268.518C482.169 265.207 489.44 264.343 493.484 263.686L495.126 264.708Z"/>
	<path fill="#626261" d="M199.354 625.605C199.714 625.697 200.159 625.792 200.48 625.977C201.462 626.546 201.879 627.186 202.217 628.243C203.171 631.219 203.215 634.917 203.743 638.036C204.525 642.649 205.796 647.153 207.048 651.655C201.985 646.13 199.961 632.755 199.354 625.605Z"/>
	<path fill="#524944" d="M653.056 425.185C653.263 425.151 653.472 425.128 653.678 425.085C654.526 424.907 654.998 424.611 655.704 424.141C656.183 425.038 656.536 425.915 656.877 426.872C657.651 425.921 657.36 426.44 657.765 425.324L658.488 425.007Q657.711 431.505 656.653 437.964C654.318 435.327 652.622 432.427 651.759 428.993C652.347 428.005 652.139 428.53 652.393 427.28C652.551 426.506 652.699 425.902 653.056 425.185Z"/>
	<path fill="#524944" d="M615.997 215.948C619.687 216.008 623.28 216.315 626.888 217.138C626.767 217.225 626.629 217.292 626.524 217.398C625.769 218.161 625.396 218.796 624.441 219.369C618.659 219.335 608.342 219.895 603.361 217.137C607.581 216.461 611.728 216.128 615.997 215.948Z"/>
	<path fill="#524944" d="M454.876 396.063C456.158 395.957 457.196 395.871 458.472 396.112C458.925 397.493 457.414 398.837 457.562 400.526C458.564 401.348 458.585 401.567 459.857 401.525C460.722 400.676 461.248 400.038 462.412 399.61C462.541 401.23 461.643 402.953 461.073 404.477C460.221 405.179 459.728 405.549 458.527 405.519C456.55 405.471 454.223 403.88 453.05 402.368C452.045 401.072 451.781 399.911 452.024 398.282C452.874 396.877 453.425 396.662 454.876 396.063Z"/>
	<path fill="#A27A4B" d="M592.903 215.592C598.428 215.648 603.846 214.101 609.352 214.121L609.246 214.724C611.47 215.032 613.667 214.976 615.905 214.957L615.997 215.948C611.728 216.128 607.581 216.461 603.361 217.137Q594.443 219.386 585.558 221.766C587.513 218.412 589.559 217.268 592.903 215.592Z"/>
	<path fill="#626261" d="M738.701 355.28C741.078 355.047 743.49 355.047 745.877 354.978C746.945 364.066 748.805 373.09 748.797 382.269C746.846 377.255 746.28 371.47 744.383 366.343C743.029 362.685 740.364 359.545 738.949 355.931L738.701 355.28Z"/>
	<path fill="#626261" d="M531.729 133.158L532.61 133.209C543.307 133.846 559.884 138.715 567.146 146.923L566.734 147.593C558.74 143.133 550.912 139.579 542.038 137.198C538.458 136.237 534.003 136.979 530.844 135.218L530.616 134.363L531.729 133.158Z"/>
	<path fill="#626261" d="M651.759 428.993C650.138 422.502 650.262 415.656 649.929 409.006Q649.492 398.529 647.963 388.155C647.418 384.598 646.662 380.884 645.362 377.522C644.481 375.244 642.824 373.093 642.507 370.675L643.156 370.948C646.598 376.337 650.56 388.236 651.524 394.802C652.242 399.686 651.366 405.177 651.509 410.162C651.653 415.213 652.565 420.166 653.056 425.185C652.699 425.902 652.551 426.506 652.393 427.28C652.139 428.53 652.347 428.005 651.759 428.993Z"/>
	<path fill="#F3E9D7" d="M461.975 395.75C464.729 395.315 467.654 394.928 470.217 396.313C472.219 397.395 474.012 399.136 474.6 401.391C474.982 402.857 475.017 403.938 474.272 405.255L473.073 405.27C469.778 405.888 466.406 406.238 463.082 406.677C463.729 404.745 464.915 402.102 464.854 400.076C464.824 399.074 463.575 397.552 462.783 396.989C462.191 396.57 462.246 396.432 461.975 395.75Z"/>
	<path fill="#F3E9D7" d="M438.743 259.144Q444.861 259.608 450.968 260.203C443.801 263.835 437.284 268.128 430.637 272.613C428.322 274.371 426.18 276.675 423.957 278.591Q425.452 275.915 427.132 273.351Q428.811 270.787 430.666 268.347Q432.521 265.908 434.543 263.604Q436.565 261.3 438.743 259.144Z"/>
	<path fill="#626261" d="M493.408 235.745C494.94 236.227 496.432 236.711 498.019 236.982C498.055 238.777 498.842 241.02 499.228 242.807C498.854 244.214 498.399 245.575 497.815 246.911C494.884 253.618 488.785 259.611 482.014 262.278C484.388 257.771 488.047 253.914 490.798 249.616C492.654 246.716 495.126 241.654 494.128 238.154C493.899 237.35 493.624 236.56 493.408 235.745Z"/>
	<path fill="#807F7D" d="M431.949 373.973C438.873 374.154 447.383 373.991 453.858 376.603C455.921 377.435 457.268 378.337 458.154 380.401C449.747 380.855 441.042 380.025 432.586 379.993L431.949 373.973Z"/>
	<path fill="#626261" d="M652.081 380.7C654.92 382.518 657.463 385.286 660.036 387.479C663.647 390.557 667.385 393.283 671.357 395.873L668.547 400.181C667.856 401.217 667.121 402.215 666.387 403.221C666.117 403.106 665.829 403.026 665.576 402.877C661.755 400.617 653.668 385.662 652.081 380.7Z"/>
	<path fill="#F3E9D7" d="M522.403 133.183C522.508 133.168 522.611 133.142 522.717 133.138C524.449 133.074 524.506 133.175 525.804 134.268C526.275 135.643 526.288 135.601 525.744 136.945C523.178 138.958 511.948 140.118 508.319 141.096C504.585 142.102 500.979 143.465 497.37 144.845C496.172 145.374 494.942 145.834 493.724 146.316L493.619 145.788C493.714 145.678 493.808 145.566 493.905 145.456C500.823 137.667 512.249 133.769 522.403 133.183Z"/>
	<path fill="#626261" d="M625.065 198.976C631.886 198.926 638.224 199.175 644.96 200.461C638.066 201.472 631.178 200.116 624.347 200.738C608.906 202.738 595.102 206.319 580.926 212.828C581.279 212.319 581.641 211.82 582 211.316C582.391 210.767 582.77 210.216 583.207 209.7C589.968 201.723 614.983 199.647 625.065 198.976Z"/>
	<path fill="#626261" d="M648.588 368.407C659.416 376.86 667.154 381.617 680.299 385.947L673.558 392.742C670.675 389.306 666.535 386.518 663.04 383.669C657.349 379.03 652.432 374.301 647.877 368.531L648.588 368.407Z"/>
	<path fill="#807F7D" d="M571.544 228.17C573.817 224.738 576.111 221.512 579.256 218.817C586.648 212.485 600.922 207.466 610.581 208.087C605.027 211.381 597.955 211.947 592.903 215.592C589.559 217.268 587.513 218.412 585.558 221.766C580.856 223.864 576.184 225.931 571.544 228.17Z"/>
	<path fill="#A27A4B" d="M678.215 277.434C685.166 279.546 707.072 299.386 715.041 305.031C722.987 310.66 732.291 314.369 739.422 321.136C724.561 319.159 705.634 300.372 694.161 290.518Q686.27 283.876 678.215 277.434Z"/>
	<path fill="#626261" d="M701.854 525.515C703.278 506.84 707.878 489.604 713.546 471.837L714.594 472.594C711.211 480.613 710.187 495.916 710.792 504.528C707.069 511.376 704.371 518.171 701.854 525.515Z"/>
	<path fill="#626261" d="M489.726 228.308C492.233 227.86 494.823 227.29 497.37 227.2C501.382 227.058 503.714 228.187 506.619 230.818C508.493 233.632 509.408 235.497 508.8 238.921C507.196 244.375 505.255 250.412 501.271 254.666C499.779 256.258 495.098 260.575 493.014 260.622C493.582 258.481 501.178 251.619 503.285 245.494C504.296 242.556 504.407 239.666 502.957 236.857C500.325 231.757 494.765 230.016 489.726 228.308Z"/>
	<path fill="#524944" d="M506.619 230.818C508.493 233.632 509.408 235.497 508.8 238.921C508.232 234.403 504.355 234.722 503.547 231.42C504.725 230.622 505.225 230.8 506.619 230.818Z"/>
	<path fill="#626261" d="M728.341 448.013L728.666 448.242C728.5 452.597 727.466 457.133 726.62 461.412C723.978 474.777 720.763 486.752 714.513 498.938L713.992 498.537C712.546 489.641 724.432 457.085 728.341 448.013Z"/>
	<path fill="#626261" d="M642.184 254.554C642.385 254.585 642.588 254.608 642.787 254.648C647.305 255.551 651.834 257.71 656.055 259.55C676.671 268.533 693.917 280.799 711.46 294.579C715.312 297.605 720.897 301.05 723.728 305.033C720.223 303.476 716.535 300.072 713.355 297.838C702.288 290.065 691.284 281.569 679.865 274.367C668.016 266.895 654.758 261.928 642.703 254.862L642.184 254.554Z"/>
	<path fill="#A27A4B" d="M726.253 386.196C732.061 409.889 727.029 429.37 717.433 451.227C714.388 458.162 710.844 465.129 708.998 472.498L708.865 473.009L708.07 472.904L708.811 473.332C709.225 472.287 709.016 473.085 708.983 471.732C708.794 464.006 712.393 455.51 715.372 448.568C724.43 427.456 730.862 411.004 725.588 387.822L726.253 386.196Z"/>
	<path fill="#F3E9D7" d="M469.024 165.571L469.477 166C468.017 170.287 461.916 177.321 458.819 180.992C454.451 182.196 450.038 183.091 445.602 183.994L444.961 183.537C444.888 182.65 445.073 181.962 445.494 181.175C450.005 172.747 460.377 168.151 469.024 165.571Z"/>
	<path fill="#5A896D" d="M335.787 745.846L336.341 746.551C336.077 750.029 335.122 753.375 334.274 756.745C326.338 764.32 320.031 774.035 313.42 782.773C312.567 779.03 312.537 775.095 312.461 771.276C320.883 763.202 328.991 755.389 335.787 745.846Z"/>
	<path fill="#5A896D" d="M332.786 762.411C333.356 763.327 333.242 764.145 333.102 765.189C332.101 772.66 321.416 796.165 315.713 800.766C314.694 796.476 314.429 791.903 313.8 787.528C321.184 779.79 327.065 771.399 332.786 762.411Z"/>
	<path fill="#626261" d="M487.295 243.939L488.635 244.099L488.862 245.291C484.654 257.757 470.274 258.517 460.926 265.065C458.579 266.709 456.726 269.088 454.867 271.243L454.448 271.741L453.946 271.603C461.446 256.616 472.218 249.685 487.295 243.939Z"/>
	<path fill="#F3E9D7" d="M400.158 303.371C400.301 303.565 400.48 303.737 400.586 303.953C401.667 306.143 401.821 310.363 402.237 312.81C404.576 326.575 407.547 339.876 405.165 353.867C397.642 339.528 396.448 318.941 400.158 303.371Z"/>
	<path fill="#626261" d="M617.094 271.754C619.606 272.744 621.702 274.282 623.735 276.031C632.244 283.351 640.044 291.991 647.983 299.939C655.171 307.134 663.693 314.437 669.722 322.624C659.254 317.495 621.751 281.529 617.094 271.754Z"/>
	<path fill="#FEFEFD" d="M615.905 214.957C645.639 216.731 667.312 221.031 692.994 236.864C690.04 237.229 670.735 229.414 666.024 227.888C657.143 225.01 648.167 222.835 639.078 220.719Q633.098 218.536 626.888 217.138C623.28 216.315 619.687 216.008 615.997 215.948L615.905 214.957Z"/>
	<path fill="#626261" d="M485.145 235.956L489.637 236.947C489.551 237.057 489.474 237.174 489.378 237.276C489.064 237.608 454.785 255.128 453.487 255.498C449.323 256.686 444.744 256.482 440.466 256.482C450.858 248.476 461.838 241.962 475.007 239.853C478.412 239.308 481.86 239.571 485.218 239.033C485.836 237.882 485.406 237.192 485.145 235.956Z"/>
	<path fill="#5A896D" d="M852.141 738.643C852.093 737.996 852.06 737.413 852.149 736.767C852.727 732.55 864.127 709.603 867.019 707.619C867.688 707.159 868.4 707.459 869.154 707.548C869.138 708.979 868.199 709.9 868.15 711.35L872.062 709.736L879.69 713.55C869.531 721.258 860.884 729.355 852.141 738.643Z"/>
	<path fill="#626261" d="M708.945 453.449C707.398 460.449 706.472 467.507 705.149 474.543C702.182 490.328 698.755 505.377 698.482 521.533C698.436 524.306 698.121 527.424 698.416 530.17L697.27 529.067C695.633 523.695 695.453 517.346 695.413 511.756C695.26 490.555 700.113 472.534 708.945 453.449Z"/>
	<path fill="#5A896D" d="M310.697 758.301C313.193 754.63 317.674 751.532 320.973 748.517C324.317 745.462 327.582 742.2 330.559 738.785C333.03 735.95 336.853 728.927 340.184 727.642L337.767 740.253C329.031 749.245 320.937 758.866 312.237 767.923C311.742 764.812 311.557 761.304 310.697 758.301Z"/>
	<path fill="#F3E9D7" d="M571.765 143.24C576.439 140.161 589.998 131.834 595.358 131.777C601.458 132.918 608.749 132.793 614.402 135.342Q612.717 135.371 611.032 135.373C597.422 135.505 590.284 143.386 581.463 152.404C578.503 149.112 575.04 146.214 571.765 143.24Z"/>
	<path fill="#626261" d="M622.867 191.709C646.994 189.872 670.912 197.623 690.64 211.155C678.66 206.559 666.331 201.752 654.102 197.908Q653.431 197.745 652.758 197.591C631.868 192.807 602.858 192.3 584.119 204.053C584.249 202.411 584.39 201.02 584.962 199.469C590.144 195.225 615.354 192.302 622.867 191.709Z"/>
	<path fill="#626261" d="M732.629 358.198C733.428 358.31 734.035 358.498 734.792 358.759C737.967 361.844 739.656 366.099 741.073 370.228C745.613 383.457 745.753 401.955 744.396 415.85C742.711 433.102 736.47 459.372 728.859 474.912L728.709 474.963C728.951 470.996 730.073 467.057 730.755 463.147C731.935 456.387 732.875 449.51 734.514 442.843C738.025 428.562 743.202 414.608 743.544 399.735Q743.636 396.878 743.489 394.023Q743.341 391.168 742.956 388.335Q742.571 385.503 741.95 382.712Q741.329 379.922 740.477 377.193C738.923 372.199 731.965 362.694 732.629 358.198Z"/>
	<path fill="#5A896D" d="M435.778 566.779C437.637 568.667 439.479 570.538 441.181 572.574C428.212 579.196 419.397 587.449 410.001 598.441C406.692 602.312 403.535 606.538 399.82 610.022C398.009 610.598 396.366 611.231 394.681 612.113C403.288 594.344 419.008 576.988 435.778 566.779Z"/>
	<path fill="#FEFEFD" d="M545.905 145.436C548.651 145.425 551.528 146.529 554.089 147.438C564.473 151.126 573.679 155.511 578.556 166.071C584.793 179.578 581.907 195.722 577.054 209.137L575.878 211.533C575.149 205.288 579.046 195.761 577.131 187.205C572.86 168.114 562.138 155.654 545.905 145.436Z"/>
	<path fill="#807F7D" d="M649.913 364.421C665.976 369.569 682.73 375.261 699.753 371.551C705.842 370.224 711.843 367.92 717.727 365.883C718.749 365.998 719.344 365.725 720.309 365.419C721.269 372.551 723.48 379.574 726.253 386.196L725.588 387.822C725.193 386.764 724.811 385.691 724.286 384.689C721.76 379.863 716.627 376.057 711.508 374.403C701.74 371.247 693.881 376.466 685.655 380.894L683.755 380.657C671.78 379.227 659.097 372.512 649.892 364.924L649.913 364.421Z"/>
	<path fill="#F3E9D7" d="M450.27 265.88C450.818 268.716 440.877 285.961 439.296 290.29C433.066 307.348 438.075 328.731 431.585 346.683C428.853 354.24 424.477 358.77 417.234 362.118C416.736 358.418 422.508 348.309 423.771 344.16C431.666 318.207 433.617 288.327 450.27 265.88Z"/>
	<path fill="#FEFEFD" d="M713.546 471.837C719.78 453.354 732.019 428.817 732.346 409.868Q732.387 406.031 732.153 402.201Q731.919 398.372 731.412 394.568Q730.905 390.765 730.128 387.008Q729.35 383.25 728.306 379.558C727.288 375.942 722.012 364.178 723.168 361.572C724.282 361.076 725.173 360.742 726.405 361.17C730.595 362.629 732.944 368.932 734.449 372.741C743.786 396.378 737.504 417.922 727.688 440.222C723.114 450.613 717.326 461.56 714.594 472.594L713.546 471.837Z"/>
	<path fill="#FEFEFD" d="M610.581 208.087Q614.584 207.109 618.658 206.491Q622.732 205.874 626.845 205.621Q630.958 205.369 635.077 205.484Q639.196 205.599 643.288 206.08C649.2 205.904 655.444 206.252 661.079 208.212C660.696 208.726 660.151 209.103 660.268 209.779C660.444 210.794 661.059 211.69 661.564 212.572C667.768 215.201 680.318 219.305 684.643 224.41C684.632 225.569 684.744 225.087 684.46 225.885C661.386 214.468 634.691 212.293 609.352 214.121C603.846 214.101 598.428 215.648 592.903 215.592C597.955 211.947 605.027 211.381 610.581 208.087Z"/>
	<path fill="#A27A4B" d="M643.288 206.08C649.2 205.904 655.444 206.252 661.079 208.212C660.696 208.726 660.151 209.103 660.268 209.779C660.444 210.794 661.059 211.69 661.564 212.572C655.608 210.275 649.482 207.584 643.288 206.08Z"/>
	<path fill="#FEFEFD" d="M460.886 201.696C463.805 201.437 466.79 201.525 469.721 201.496C450.65 209.921 432.527 217.34 417.001 231.903L412.093 235.564C412.746 225.421 414.329 216.894 420.238 208.431C433.828 205.725 447.091 203.147 460.886 201.696Z"/>
	<path fill="#5A896D" d="M796.325 830.693C794.901 824.111 799.426 813.695 801.728 807.633C809.718 786.594 824.885 748.593 840.456 732.923C843.851 729.505 847.504 727.16 851.88 725.191C850.155 728.57 843.682 745.448 842.339 746.732C836.82 748.412 818.45 779.216 814.878 785.916C810.623 793.895 806.291 802.082 803.238 810.605C800.874 817.204 799.42 824.409 796.325 830.693Z"/>
	<path fill="#626261" d="M701.137 218.003C710.807 220.404 719.499 227.244 726.96 233.55C735.878 241.087 749.236 252.808 751.209 264.835C752.189 270.812 751.616 277.189 752.05 283.242C752.694 292.238 754.622 301.139 755.354 310.153C752.898 308.164 752.232 297.574 751.437 294.266Q749.594 286.466 746.854 278.935Q744.113 271.403 740.512 264.243C733.948 251.152 724.611 239.787 713.938 229.839C709.842 226.022 705.211 222.553 701.475 218.389C701.361 218.262 701.25 218.132 701.137 218.003Z"/>
	<path fill="#FEFEFD" d="M411.936 206.429C412.732 207.41 412.04 208.573 411.657 209.722C410.794 212.318 409.431 214.729 408.63 217.35C406.652 223.819 406.307 231.018 405.752 237.734C395.094 243.652 384.826 253.553 373.676 256.474C373.229 256.005 373.211 255.635 373.056 255.021C373.597 251.927 375.18 249.073 376.559 246.274C384.683 229.785 397.947 217.86 411.936 206.429Z"/>
	<path fill="#FEFEFD" d="M475.794 183.498C494.384 181.336 515.664 180.559 531.189 192.977C537.157 197.75 541.253 204.598 542.116 212.244C543.244 222.243 538.656 232.885 532.357 240.456C522.648 252.125 508.738 258.729 495.126 264.708L493.484 263.686C509.572 255.927 525.992 245.025 532.152 227.361C534.805 219.754 535.671 210.716 532.013 203.265C528.203 195.504 520.733 191.458 512.854 188.893C500.649 184.919 488.295 185.316 475.794 183.498Z"/>
	<path fill="#FEFEFD" d="M859.768 702.82C861.169 703.603 861.87 703.787 862.656 705.215L862.552 706.56C862.049 707.592 861.696 708.174 860.864 708.961C857.969 711.697 857.09 716.154 853.868 719.129C851.263 721.533 847.624 723.148 844.625 725.065C839.89 728.089 835.503 732.625 831.974 736.957C826.604 743.547 821.655 756.395 816.173 761.101C813.522 765.69 812.093 771.184 809.646 775.964C807.779 772.365 809.5 766.446 810.558 762.722C816.353 742.31 828.68 722.64 846.316 710.435C850.532 707.517 855.284 705.299 859.768 702.82Z"/>
	<path fill="#5A896D" d="M816.173 761.101C816.998 754.727 819.576 748.608 822.565 742.963C829.996 728.934 847.075 711.309 862.552 706.56C862.049 707.592 861.696 708.174 860.864 708.961C857.969 711.697 857.09 716.154 853.868 719.129C851.263 721.533 847.624 723.148 844.625 725.065C839.89 728.089 835.503 732.625 831.974 736.957C826.604 743.547 821.655 756.395 816.173 761.101Z"/>
	<path fill="#FEFEFD" d="M434.295 565.704L435.778 566.779C419.008 576.988 403.288 594.344 394.681 612.113C392.241 615.456 390.193 619.081 388.076 622.635C380.471 633.834 370.467 649.308 367.63 662.596C365.055 666.324 363.765 672.635 362.627 676.958C372.042 668.197 380.495 658.543 389.694 649.577C405.724 633.951 422.414 618.898 438.744 603.577C438.647 605.128 437.724 606.085 436.767 607.219C432.13 612.714 426.485 617.635 421.373 622.694C406.399 637.512 390.734 651.589 376.008 666.656C368.783 674.048 362.826 682.729 355.043 689.565C354.659 689.902 354.264 690.227 353.862 690.542C354.435 688.327 355.157 686.154 355.847 683.974C359.595 677.739 361.273 669.104 363.863 662.221C373.349 637.01 395.801 598.258 415.147 579.211C420.898 573.549 426.948 569.047 434.295 565.704Z"/>
	<path fill="#807F7D" d="M502.261 157.2C509.674 156.494 517.65 157.045 524.908 158.719C536.793 161.46 547.841 168.298 554.29 178.814C562.778 192.656 561.389 203.774 557.886 218.722C557.068 204.999 552.698 195.121 544.161 184.456C538.703 178.328 531.987 173.666 525.447 168.774C536.831 171.571 545.048 178.252 553.732 185.723C545.243 172.455 532.818 170.102 518.818 165.922C509.564 163.159 500.525 160.477 491.085 158.379Q496.661 157.679 502.261 157.2Z"/>
	<path fill="#F3E9D7" d="M467.358 152.669C472.675 152.068 477.737 152.577 483.033 153.194L477.639 158.324C474.683 158.737 471.81 159.335 468.924 160.097C453.964 164.047 446.378 173.743 438.97 186.578C436.375 187.8 433.554 188.704 430.861 189.703C426.697 191.475 422.68 193.655 418.644 195.699C421.329 188.221 424.049 181.51 428.693 174.984C438.473 161.241 451.065 155.408 467.358 152.669Z"/>
	<path fill="#626261" d="M610.964 315.511C613.654 322.326 617.93 328.249 623.33 333.187C648.279 355.999 685.099 363.574 717.949 362.224C719.27 363.096 719.663 364.044 720.309 365.419C719.344 365.725 718.749 365.998 717.727 365.883C708.928 363.62 700.059 368.212 691.321 368.391C667.052 368.887 637.409 355.484 620.26 338.662C613.033 331.573 611.081 325.477 610.964 315.511Z"/>
	<path fill="#626261" d="M621.851 166.303C632.878 165.392 643.686 165.912 654.527 168.201C686.203 174.889 709.69 191.436 727.292 218.584L726.547 218.713L727.511 219.025L727.399 219.299L727.439 218.961C724.763 217.928 720.714 211.828 718.38 209.627C714.537 206.002 710.264 202.727 706.174 199.383C702.484 197.319 698.998 194.181 695.453 191.797C687.191 186.242 678.313 182.174 668.858 179.079C647.623 172.128 615.328 169.178 594.031 176.332C591.399 177.216 589.009 178.682 586.541 179.937C587.287 178.924 588.034 177.889 588.854 176.933C596.514 167.998 610.983 167.157 621.851 166.303Z"/>
	<path fill="#F3E9D7" d="M444.933 265.411L444.964 266.489C434.901 284.324 426.913 297.574 422.485 318.183C420.61 326.913 418.224 350.22 412.137 355.752C409.547 344.868 410.764 323.406 412.267 312.103C415.601 287.038 426.105 279.827 444.933 265.411Z"/>
	<path fill="#626261" d="M617.043 300.799C620.704 304.059 623.626 308.859 626.781 312.657C634.498 321.947 644.316 330.515 654.59 336.791Q661.298 340.872 668.441 344.132Q675.583 347.392 683.061 349.787C687.627 351.259 706.152 355.14 708.388 357.153L707.552 357.493C696.167 357.628 685.125 356.714 674.081 353.832C656.115 349.144 627.354 336.463 617.866 319.511C614.236 313.025 615.086 307.553 617.043 300.799Z"/>
	<path fill="#626261" d="M661.079 208.212C666.756 209.242 672.354 210.272 677.819 212.185C698.404 219.389 716.061 235.454 728.305 253.166C738.8 268.348 744.498 284.842 748.35 302.721C734.265 277.478 724.901 256.597 701.414 237.713C695.987 233.349 690.06 229.953 684.46 225.885C684.744 225.087 684.632 225.569 684.643 224.41C680.318 219.305 667.768 215.201 661.564 212.572C661.059 211.69 660.444 210.794 660.268 209.779C660.151 209.103 660.696 208.726 661.079 208.212Z"/>
	<path fill="#626261" d="M619.52 282.914C625.088 286.79 628.695 293.973 633.206 299.03C642.77 309.752 655.551 319.808 667.802 327.292C680.062 334.783 693.289 342.326 706.975 346.819C711.458 348.29 724.5 350.747 727.293 353.762C726.138 353.983 725.04 354.058 723.861 354.041C716.878 353.94 709.664 351.812 702.908 350.15C675.729 343.464 652.036 332.619 632.243 312.203C622.097 301.737 619.304 297.798 619.52 282.914Z"/>
	<path fill="#FEFEFD" d="M606.957 140.554C609.994 140.393 613.33 140.684 616.272 141.446C622.321 143.013 627.559 147.044 633.512 148.999C639.267 150.889 645.332 150.466 650.87 153.309C656.937 156.423 662.189 161.103 667.345 165.498C649.821 160.808 637.24 160.982 619.416 161.501C622.721 156.733 629.98 153.667 631.586 150.923L631.035 150.136C628.043 149.798 624.42 152.216 621.864 153.609C618.544 156.189 616.961 158.687 615.03 162.323C608.815 163.542 602.72 164.698 596.601 166.352C601.283 161.496 609.087 156.961 611.89 150.772L611.452 150.232C602.291 151.813 593.203 165.216 587.909 172.287C586.79 167.253 585.704 162.3 583.949 157.438C590.327 149.342 596.984 143.527 606.957 140.554Z"/>
	<path fill="#FEFEFD" d="M478.33 166.24C486.364 165.954 494.613 166.153 502.536 167.597C519.608 170.709 536.436 180.381 546.388 194.799C552.163 203.168 555.539 213.755 553.588 223.925C551.422 235.217 543.085 243.124 533.883 249.234C531.061 251.108 520.517 257.859 517.614 257.272C519.588 255.562 522.5 254.316 524.808 253.036C530.424 249.015 535.79 244.119 539.709 238.398C546.124 229.032 549.2 217.762 547.045 206.48C545.488 198.326 540.62 191.781 533.783 187.285C513.149 173.716 485.038 175.623 461.97 180.458C466.742 175.039 470.592 167.701 478.33 166.24Z"/>
	<path fill="#626261" d="M623.245 232.194C642.879 230.249 661.49 233.921 678.582 243.824C701.729 257.234 731.431 280.818 744.895 304.222C749.192 311.692 751.861 319.539 754.064 327.818C739.804 300.712 724.847 273.383 697.074 257.826C688.411 252.974 679.205 249.511 669.864 246.23C640.04 237.204 610.555 232.961 580.043 242.099C572.448 244.374 565.095 247.761 557.718 250.656C552.168 252.833 546.272 254.263 540.841 256.693C522.329 264.978 512.22 270.666 491.071 270.839C504.213 264.127 519.658 261.886 533.612 257.29C541.72 254.619 548.664 249.821 556.555 246.769C575.105 239.596 603.377 234.085 623.245 232.194Z"/>
	<path fill="#FEFEFD" d="M407.64 310.879C406.995 296.975 405.412 283.156 407.752 269.3C409.444 259.277 413.956 249.919 422.466 243.99C437 233.864 469.893 230.485 487.049 233.452C488.224 234.343 489.556 235.131 490.23 236.481L490.197 236.931L489.637 236.947L485.145 235.956C473.103 234.759 461.71 237.558 451.154 243.34C434.526 252.448 419.809 267.227 414.022 285.589C411.418 293.849 410.064 302.531 407.64 310.879Z"/>
	<path fill="#FEFEFD" d="M477.733 186.715C488.56 186.077 500.088 187.24 510.241 191.229C517.761 194.184 525.022 199.582 528.138 207.272C532.725 218.596 527.19 229.963 522.711 240.244C523.774 234.461 524.808 228.98 523.217 223.154C520.605 213.585 513.343 208.413 505.203 203.806C475.862 192.504 451.496 197.503 422.213 205.212C439.264 194.486 457.69 188.443 477.733 186.715Z"/>
	<path fill="#FEFEFD" d="M608.932 243.22C631.525 243.654 653.048 246.272 674.491 253.764C700.939 263.005 717.195 278.18 733.279 300.45C738.614 307.837 743.883 315.492 747.837 323.72C741.12 318.576 735.998 311.171 729.964 305.227C724.816 299.863 719.13 294.867 713.605 289.888C694.406 272.588 671.65 256.256 645.837 251.21C638.209 249.719 630.4 249.554 622.661 249.092C606.382 248.12 590.722 248.256 574.446 249.108C585.71 246.095 597.269 243.794 608.932 243.22Z"/>
	<path fill="#807F7D" d="M639.078 220.719C648.167 222.835 657.143 225.01 666.024 227.888C670.735 229.414 690.04 237.229 692.994 236.864C707.816 243.134 729.315 272.726 735.625 287.664C730.507 281.836 725.505 275.705 720.055 270.193C708.875 258.888 694.691 247.745 680.726 240.145C642.76 219.484 598.439 229.642 559.346 241.257C576.754 226.999 598.455 221.788 620.638 221.566C625.191 221.52 635.308 223.049 639.078 220.719Z"/>
	<path fill="#5A896D" d="M390.2 625.372C394.521 622.186 398.272 618.019 401.911 614.08C410.926 604.321 421.279 590.366 432.007 582.922C435.659 580.389 439.665 578.663 443.751 576.962C446.407 578.576 448.853 580.404 451.331 582.274C439.009 598.835 421.809 612.299 406.161 625.607Q393.66 636.429 381.524 647.658C376.648 652.212 373.135 658.904 367.63 662.596C370.467 649.308 380.471 633.834 388.076 622.635L389.732 625.267L390.2 625.372Z"/>
	<path fill="#524944" d="M437.353 589.977C437.924 590.798 437.996 590.532 437.806 591.399C437.278 593.815 434.677 595.407 433.024 597.059C431.424 598.658 431.144 601.077 429.846 602.823C428.456 604.692 417.961 610.526 415.246 612.249L414.848 611.29C419.145 604.478 430.267 594.309 437.353 589.977Z"/>
	<path fill="#FEFEFD" d="M524.483 143.722C532.568 143.509 540.108 144.777 547.229 148.78C558.642 155.196 568.317 168.298 571.758 180.852C575.921 196.041 573.407 214.605 565.488 228.215C557.282 242.319 541.813 252.456 526.244 256.581C534.351 252.323 541.789 247.587 548.897 241.813C552.758 238.097 556.163 234.123 558.899 229.5Q559.559 228.371 560.162 227.211Q560.766 226.051 561.311 224.863Q561.857 223.674 562.343 222.461Q562.829 221.247 563.255 220.01Q563.68 218.774 564.045 217.518Q564.409 216.262 564.71 214.99Q565.012 213.718 565.251 212.432Q565.49 211.147 565.664 209.851Q565.839 208.555 565.95 207.252Q566.061 205.949 566.107 204.642Q566.154 203.336 566.135 202.028Q566.117 200.721 566.035 199.416Q565.952 198.111 565.805 196.812Q565.658 195.512 565.447 194.222Q565.237 192.931 564.962 191.653Q564.688 190.374 564.351 189.111C561.079 176.773 553.308 166.199 542.17 159.861C523.451 149.209 504.443 151.234 484.593 156.673C496.331 149.442 510.835 145.106 524.483 143.722Z"/>
	<path fill="#FEFEFD" d="M481.446 203.732C486.835 204.216 491.992 204.792 497.023 206.914C504.926 210.247 509.866 216.098 513.092 223.874C502.568 216.753 492.567 213.52 479.792 213.338C490.951 216.369 503.085 219.528 511.376 227.984C509.464 226.907 507.712 225.482 505.613 224.794C499.017 222.63 492.507 225.191 485.97 226.19C483.26 226.604 480.458 226.63 477.72 226.71C464.746 226.867 451.576 226.877 439.287 231.567C431.928 234.375 424.91 237.972 417.388 240.359C434.602 222.86 456.155 205.985 481.446 203.732Z"/>
	<path fill="#626261" d="M622.717 178.272C633.651 177.971 644.419 178.335 655.178 180.548C688.478 187.398 721.008 211.058 739.684 239.325C731.187 231.382 721.688 224.508 712.358 217.587C701.182 210.472 689.969 203.875 677.938 198.285C644.709 182.844 619.363 182.141 585.174 194.633C585.682 191.35 585.706 185.65 588.046 183.292C592.7 178.602 615.682 178.531 622.717 178.272Z"/>
	<path fill="#FEFEFD" d="M607.103 260.508C644.301 264.488 667.158 299.796 695.031 320.522C707.772 329.995 720.997 336.519 736.471 340.046C740.475 340.958 745.447 339.349 749.592 339.221C751.654 339.157 752.979 339.111 754.524 340.56C754.533 342.538 753.449 343.514 752.148 344.884C749.973 346.116 747.671 347.322 745.23 347.905C738.758 349.449 732.017 348.006 725.672 346.548C684.848 337.167 661.529 301.58 631.553 275.917C623.986 269.438 615.525 265.544 607.103 260.508Z"/>
	<path fill="#FEFEFD" d="M796.325 830.693C799.42 824.409 800.874 817.204 803.238 810.605C806.291 802.082 810.623 793.895 814.878 785.916C818.45 779.216 836.82 748.412 842.339 746.732C836.45 755.242 830.504 764.035 826.082 773.405C826.047 781.877 818.38 796.231 815.814 805.191C813.178 814.395 813.007 824.765 808.855 833.427C807.955 835.862 806.786 838.44 806.156 840.945C802.782 848.307 794.828 864.667 797.263 872.696C797.465 873.362 797.856 873.899 798.227 874.476C798.293 874.579 798.355 874.685 798.419 874.789C796.397 879.742 795.702 885.535 793.489 890.248C792.04 890.133 790.634 890.257 789.187 890.342C780.266 881.135 778.416 861.483 775.659 849.441C780.293 846.952 785.476 845.266 790.216 842.89C789.773 846.489 788.871 851.761 790.515 855.133C794.532 851.884 794.816 836.712 796.158 831.326C796.211 831.114 796.269 830.904 796.325 830.693Z"/>
	<path fill="#5A896D" d="M801.776 836.362C804.303 813.412 812.714 792.184 826.082 773.405C826.047 781.877 818.38 796.231 815.814 805.191C813.178 814.395 813.007 824.765 808.855 833.427C806.188 833.376 803.944 835.01 801.776 836.362Z"/>
	<path fill="#FEFEFD" d="M591.718 250.692C601.202 249.893 611.238 250.94 620.5 253.035C658.844 261.71 682.245 291.678 713.058 313.041C718.469 316.792 724.244 320.754 730.368 323.23C735.466 325.292 741.03 326.654 745.87 329.268C747.353 330.068 749.496 330.815 750.376 332.309C749.732 332.576 749.717 332.608 748.918 332.787C733.314 336.273 715.68 327.683 702.697 320.029C684.939 309.214 670.75 292.627 654.518 279.728C627.513 258.27 599.529 252.704 565.673 257.56C555.804 258.976 545.957 261.652 536.098 262.768C552.908 254.791 573.388 252.346 591.718 250.692Z"/>
	<path fill="#5A896D" d="M852.141 738.643C860.884 729.355 869.531 721.258 879.69 713.55L883.502 715.408C887.177 717.349 890.839 719.293 894.611 721.042C897.252 722.287 900.253 723.38 902.447 725.332L902.659 726.343L901.654 727.178C895.654 734.41 883.441 740.622 875.854 746.779C850.432 767.409 828.874 795.715 814.764 825.119C819.102 794.717 834.464 768.739 850.271 743.031C850.907 741.547 851.221 739.996 852.141 738.643Z"/>
	<path fill="#FEFEFD" d="M852.141 738.643C860.884 729.355 869.531 721.258 879.69 713.55L883.502 715.408C879.611 718.22 875.783 721.083 872.139 724.213C867.861 727.888 854.586 742.132 850.271 743.031C850.907 741.547 851.221 739.996 852.141 738.643Z"/>
	<path fill="#FEFEFD" d="M901.654 727.178C887.524 729.398 858.264 755.225 848.749 766.653C845.807 770.186 841.811 779.475 838.323 781.386L838.331 780.162L838.191 780.769C845.026 759.575 875.718 732.454 894.611 721.042C897.252 722.287 900.253 723.38 902.447 725.332L902.659 726.343L901.654 727.178Z"/>
	<path fill="#626261" d="M336.711 510.865C347.003 528.05 348.532 551.558 343.707 570.651C336.159 600.516 301.801 637.34 275.785 652.666C262.917 660.246 252.208 663.379 237.754 665.738L237.638 665.338L238.59 665.211L238.724 664.855C276.101 652.2 311.806 622.584 329.308 586.97C335.836 573.687 338.663 561.057 341.223 546.646L340.31 544.958C339.19 551.643 337.963 558.175 335.78 564.611C324.665 597.372 298.394 626.115 270.644 646.027C257.483 655.471 241.01 665.902 224.071 663.242C221.884 662.898 219.766 662.213 217.664 661.539C251.921 655.486 286.537 633.362 306.534 604.769C324.645 578.873 339.005 542.751 336.711 510.865Z"/>
	<path fill="#524944" d="M340.31 544.958C339.554 538.403 339.633 531.427 340.445 524.885C341.504 532.131 342.051 539.344 341.223 546.646L340.31 544.958Z"/>
	<path fill="#5A896D" d="M805.576 855.733C807.561 850.685 809.857 845.764 811.728 840.673C813.553 835.707 814.902 830.565 817.229 825.795C820.224 819.659 824.332 813.926 827.945 808.134C848.816 774.683 873.179 750.17 906.627 728.978C910.766 732.741 915.148 736.96 917.93 741.862C919.82 744.518 921.717 747.16 923.476 749.905C926.655 753.211 932.426 760.976 933.267 765.435C935.391 768.896 937.381 772.334 939.158 775.987C917.224 785.024 883.608 798.828 867.928 816.879C861.896 822.865 855.285 828.041 849.704 834.536C846.569 838.185 840.213 850.44 836.515 851.981C823.72 861.074 811.769 882.141 805.518 896.309C804.767 898.011 803.597 902.637 801.642 902.754C799.538 902.62 797.466 902.439 795.376 902.154C794.982 901.844 794.72 901.665 794.378 901.265C792.106 898.616 792.977 893.374 793.489 890.248C795.702 885.535 796.397 879.742 798.419 874.789C798.355 874.685 798.293 874.579 798.227 874.476C797.856 873.899 797.465 873.362 797.263 872.696C794.828 864.667 802.782 848.307 806.156 840.945C808.301 844.715 806.324 851.632 805.576 855.733Z"/>
	<path fill="#FEFEFD" d="M831.925 804.974C842.35 791.049 857.699 775.442 872.208 765.866C881.145 759.966 890.733 755.343 900.287 750.562C905.997 747.704 911.921 743.9 917.93 741.862C919.82 744.518 921.717 747.16 923.476 749.905C918.527 752.956 912.411 754.524 906.925 756.394C895.284 760.363 883.36 763.979 872.595 770.041C862.263 775.859 853.706 784.328 845.421 792.674C841.343 796.783 837.329 801.187 832.572 804.525L831.925 804.974Z"/>
	<path fill="#2E2B29" d="M798.419 874.789C803.258 867.396 807.26 859.471 812.156 852.093C820.444 839.603 829.982 827.843 839.321 816.128C846.773 806.781 854.141 797.104 862.472 788.517Q867.61 783.233 873.475 778.769C877.936 775.396 895.132 764.309 900.495 764.218C901.707 764.757 901.758 764.694 902.321 765.879C900.646 770.459 890.719 772.92 886.631 775.331C882.882 777.543 879.129 780.04 875.692 782.706C865.921 790.283 849.837 806.739 843.972 817.533C843.887 817.688 843.807 817.846 843.725 818.002C828.907 836.466 813.118 853.814 803.28 875.7C799.748 883.557 799.289 896.351 795.376 902.154C794.982 901.844 794.72 901.665 794.378 901.265C792.106 898.616 792.977 893.374 793.489 890.248C795.702 885.535 796.397 879.742 798.419 874.789Z"/>
	<path fill="#FEFEFD" d="M843.725 818.002C851.416 814.701 858.9 810.065 866.431 806.291C880.902 799.04 927.284 778.691 933.267 765.435C935.391 768.896 937.381 772.334 939.158 775.987C917.224 785.024 883.608 798.828 867.928 816.879C861.896 822.865 855.285 828.041 849.704 834.536C846.569 838.185 840.213 850.44 836.515 851.981C823.72 861.074 811.769 882.141 805.518 896.309C804.767 898.011 803.597 902.637 801.642 902.754C799.538 902.62 797.466 902.439 795.376 902.154C799.289 896.351 799.748 883.557 803.28 875.7C813.118 853.814 828.907 836.466 843.725 818.002Z"/>
	<path fill="#5A896D" d="M348.639 520.669C351.396 521.786 353.9 523.145 356.483 524.609C357.898 525.291 359.508 526.291 361.01 526.713C366.126 528.018 370.803 530.091 375.64 532.164C380.058 542.66 383.544 555.126 384.975 566.405Q385.725 572.219 385.91 578.079C386.049 583.295 384.604 594.341 386.697 598.682C388.785 596.898 389.926 590.228 390.148 587.474C391.687 568.431 388.583 551.596 380.351 534.334C391.044 539.911 402.111 544.768 412.906 550.16C414.17 550.748 415.599 551.213 416.475 552.341L416.848 552.518C420.393 553.067 426.282 557.71 428.575 560.457C429.083 561.065 429.269 561.571 429.55 562.301C431.059 563.463 432.593 564.843 434.295 565.704C426.948 569.047 420.898 573.549 415.147 579.211C395.801 598.258 373.349 637.01 363.863 662.221C361.273 669.104 359.595 677.739 355.847 683.974C352.014 685.55 350.162 689.861 348.664 693.511C346.223 699.459 341.299 715.578 341.615 721.632C341.429 723.733 341.027 725.696 340.184 727.642C336.853 728.927 333.03 735.95 330.559 738.785C327.582 742.2 324.317 745.462 320.973 748.517C317.674 751.532 313.193 754.63 310.697 758.301C310.536 757.221 310.561 756.232 310.58 755.146C310.226 751.492 309.739 748.006 308.907 744.429L308.667 743.166Q308.487 742.143 308.249 741.133C306.326 733.116 300.96 726.062 295.808 719.834C278.698 699.149 257.557 684.237 235.005 670.102C239.37 669.939 243.686 669.581 247.986 668.787C283.167 662.287 311.776 634.615 331.306 606.013Q326.587 637.21 319.71 668.004C317.496 677.947 314.658 687.763 312.515 697.712C312.006 700.073 312.063 703.245 313.388 705.315C314.016 705.557 314.241 705.846 314.899 705.507C316.417 704.723 317.521 702.78 318.138 701.243C321.532 692.792 323.303 682.897 325.29 674.018C328.781 658.419 332.226 642.518 334.652 626.712C336.058 617.557 336.332 608.142 338.366 599.105C339.569 593.758 342.055 588.618 343.917 583.469C346.236 577.058 348.095 570.287 349.926 563.712C350.621 558.322 351.144 553.024 351.135 547.584L351.009 546.437L351.515 545.837C352.863 546.149 353.841 546.639 354.763 547.686C357.99 551.347 358.612 558.088 359.403 562.725C362.583 581.381 363.127 599.159 362.573 618.027C363.518 614.302 364.427 610.533 365.147 606.757C369.841 582.129 365.608 557.504 351.585 536.701C351.616 530.959 350.534 526.065 348.639 520.669Z"/>
	<path fill="#524944" d="M416.848 552.518C420.393 553.067 426.282 557.71 428.575 560.457C429.083 561.065 429.269 561.571 429.55 562.301C426.971 560.889 424.656 559.26 422.405 557.375C419.9 563.279 417.411 569.136 413.758 574.44C414.726 567.028 416.048 561.918 421.437 556.459C419.767 555.234 418.278 554.021 416.848 552.518Z"/>
	<path fill="#524944" d="M341.452 708.146C337.272 718.592 319.661 739.68 309.441 744.21C309.265 744.288 309.085 744.356 308.907 744.429L308.667 743.166C321.562 733.284 329.821 719.212 341.452 708.146Z"/>
	<path fill="#524944" d="M310.58 755.146C315.563 749.469 321.168 744.357 326.259 738.773C331.344 733.195 335.809 726.453 341.615 721.632C341.429 723.733 341.027 725.696 340.184 727.642C336.853 728.927 333.03 735.95 330.559 738.785C327.582 742.2 324.317 745.462 320.973 748.517C317.674 751.532 313.193 754.63 310.697 758.301C310.536 757.221 310.561 756.232 310.58 755.146Z"/>
	<path fill="#524944" d="M412.906 550.16C414.17 550.748 415.599 551.213 416.475 552.341C414.503 554.25 412.893 564.153 411.773 567.398C408.935 575.622 405.244 583.575 401.612 591.468C403.76 577.362 407.86 563.49 412.906 550.16Z"/>
	<path fill="#524944" d="M401.061 548.158L401.958 548.796C406.55 558.472 398.639 581.034 395.848 591.262C394.341 596.784 393.027 602.343 391.331 607.814L390.468 607.871L390.007 607.056C390.959 593.737 395.547 581.177 398.04 568.155C399.307 561.534 398.867 554.576 401.061 548.158Z"/>
	<path fill="#2E2B29" d="M281.115 666.369C282.197 666.962 283.546 667.968 284.234 669.027C286.769 672.934 291.794 688.104 294.444 693.823C296.579 698.433 300.619 702.372 302.272 707.139C302.839 708.774 302.49 710.159 302.164 711.799C301.557 711.716 301.188 711.688 300.625 711.548C297.698 710.821 295.407 707.178 293.913 704.765C288.264 695.646 278.607 677.345 281.115 666.369Z"/>
	<path fill="#FEFEFD" d="M327.502 707.755C346.971 689.357 371.054 619.763 374.144 592.562C376.421 572.519 373.022 551.374 362.244 534.06C360.859 531.835 358.951 530.102 357.46 527.993C356.587 526.756 356.228 526.098 356.483 524.609C357.898 525.291 359.508 526.291 361.01 526.713C375.572 544.595 380.863 567.611 378.465 590.345C376.236 611.476 368.369 631.335 361.014 651.085C357.045 661.743 353.308 672.64 347.991 682.722C340.502 696.923 327.608 715.91 315.078 725.774C314.667 726.097 314.236 726.395 313.809 726.697C317.287 710.215 325.788 694.229 331.411 678.346C345.229 639.31 349.387 604.883 349.926 563.712C350.621 558.322 351.144 553.024 351.135 547.584C351.498 547.663 351.769 547.972 352.074 548.183C354.493 553.703 354.327 561.886 354.604 567.921C356.768 615.043 343.382 663.851 327.502 707.755Z"/>
	<path fill="#5A896D" d="M348.639 520.669C351.396 521.786 353.9 523.145 356.483 524.609C356.228 526.098 356.587 526.756 357.46 527.993C358.951 530.102 360.859 531.835 362.244 534.06C373.022 551.374 376.421 572.519 374.144 592.562C371.054 619.763 346.971 689.357 327.502 707.755C343.382 663.851 356.768 615.043 354.604 567.921C354.327 561.886 354.493 553.703 352.074 548.183C351.769 547.972 351.498 547.663 351.135 547.584L351.009 546.437L351.515 545.837C352.863 546.149 353.841 546.639 354.763 547.686C357.99 551.347 358.612 558.088 359.403 562.725C362.583 581.381 363.127 599.159 362.573 618.027C363.518 614.302 364.427 610.533 365.147 606.757C369.841 582.129 365.608 557.504 351.585 536.701C351.616 530.959 350.534 526.065 348.639 520.669Z"/>
	<path fill="#626261" d="M362.736 545.226L364.14 546.209C368.037 553.837 370.135 569.381 369.261 577.858L368.409 577.079C367.401 573.17 367.463 568.913 366.76 564.909C365.672 558.712 362.776 551.4 362.736 545.226Z"/>
	<path fill="#F3E9D7" d="M401.761 356.859Q402.901 359.201 404.074 361.527C400.415 368.642 395.989 373.371 390.009 378.651C399.054 376.117 404.667 371.932 411.324 365.47C411.433 365.608 411.541 365.749 411.652 365.886C414.152 368.965 418.278 370.199 420.611 372.936C421.054 373.456 420.968 373.905 420.926 374.516C420.64 378.681 419.842 382.936 420.303 387.113C421.644 399.275 431.755 409.124 434.377 421.014C436.861 432.276 433.778 444.76 434.218 456.296C434.86 473.125 438.778 490.404 442.347 506.813Q446.213 524.258 452.308 541.054C457.244 554.284 465.399 568.322 466.603 582.491L464.953 582.195C461.128 580.936 458.992 580.527 454.951 581.487C445.964 573.515 438.611 564.066 429.288 556.437C412.937 543.056 393.517 535.148 374.424 526.633C365.069 522.461 355.763 517.952 346.018 514.759C343.249 510.438 340.698 506.194 337.247 502.36C333.156 497.815 328.107 494.255 323.514 490.246C312.318 480.475 301.39 470.621 289.391 461.804C283.3 457.328 276.67 453.413 270.822 448.636L270.464 448.339C277.82 443.974 284.867 438.93 291.976 434.166Q322.89 413.323 352.816 391.085C368.902 379.37 385.53 368.385 401.761 356.859Z"/>
	<path fill="#F3E9D7" d="M377.95 260.183Q375.139 262.858 372.431 265.637C361.888 276.594 360.202 288.561 360.528 303.343C360.602 306.692 360.636 314.943 363.122 317.31C364.218 316.702 364.507 315.581 364.757 314.387C365.47 310.992 365.366 307.232 365.566 303.759C366.014 295.961 367.202 288.399 370.129 281.121C378.102 261.297 392.061 256.342 410.32 248.523C406.836 253.473 404.464 258.592 402.488 264.295C394.939 264.697 387.518 266.368 380.826 269.959C379.327 270.763 377.474 271.677 376.956 273.403L377.454 274.058C379.679 273.581 381.309 271.549 383.334 270.569C388.438 268.099 395.312 267.42 400.881 266.788C399.941 275.342 398.835 283.831 397.714 292.359C395.974 295.511 393.642 299.025 392.853 302.556C394.042 303.515 394.216 304.856 394.596 306.262L395.71 306.492C394.889 312.651 394.398 318.848 393.58 325.001C384.279 332.626 371.838 343.268 361.296 348.692C368.918 339.677 382.615 323.557 381.863 311.023C381.831 310.474 381.773 310.253 381.674 309.675L381.019 309.446C378.973 311.426 378.076 314.005 377.062 316.595C371.627 330.471 367.647 335.042 358.448 346.443C358.101 347.033 357.835 347.552 357.686 348.226C357.553 348.825 357.456 349.439 357.271 350.026C356.045 353.909 352.372 355.131 349.051 356.848C352.211 351.888 355.244 346.576 358.801 341.905C360.252 339.087 363.295 333.429 362.304 330.335C360.514 330.12 358.849 333.365 357.873 334.81Q353.665 340.98 350.006 347.491C347.592 351.851 345.55 356.884 342.344 360.713C336.967 367.134 328.047 372.388 321.059 377.009C326.492 368.607 332.978 358.719 334.488 348.615C334.759 346.807 334.818 345.308 333.715 343.802L332.544 343.809C331.481 344.594 330.844 345.321 330.317 346.524C328.815 349.96 328.183 354.26 326.792 357.883C323.918 365.37 320.021 371.521 318.31 379.519C303.516 392.695 257.493 424.713 239.219 430.948Q237.357 431.567 235.466 432.091Q233.575 432.615 231.66 433.042Q229.745 433.47 227.81 433.801Q225.876 434.132 223.928 434.365Q221.979 434.597 220.022 434.732Q218.064 434.866 216.102 434.901Q214.14 434.937 212.179 434.873Q210.218 434.809 208.262 434.647C202.698 434.233 185.753 429.802 182.194 431.266L182.205 432.111C182.804 432.728 183.346 433.214 184.121 433.608C187.555 435.356 191.831 436.411 195.555 437.349C213.264 441.81 229.241 439.46 246.39 434.014Q252.328 440.314 259.18 445.606C276.215 458.893 323.125 487.887 329.686 507.965C336.96 530.231 324.151 561.587 314.081 581.771C302.54 604.905 286.917 622.511 265.507 637.054C257.784 642.3 249.783 647.016 240.898 649.992C223.237 636.854 204.696 625.578 188.038 611.054C170.985 596.185 156.394 578.877 142.867 560.799C120.829 531.346 101.94 500.36 86.8412 466.769C81.2749 454.386 76.7846 441.573 71.4175 429.118C68.6136 422.612 65.2444 416.35 62.4451 409.84C57.4874 398.311 54.416 383.955 59.6275 371.924C67.6823 353.328 125.238 322.248 145.243 314.559C141.406 318.647 136.775 322.056 132.638 325.845C130.096 328.172 123.196 334.075 123.047 337.6L123.724 338.125C129.65 337.003 146.413 316.229 152.377 311.929C157.645 308.131 165.943 306.143 172.058 303.97C165.261 309.56 148.918 320.435 144.601 327.468C144.008 328.434 143.916 328.506 144.191 329.639C147.49 330.187 155.786 322.189 158.532 319.767C181.785 299.249 179.335 300.784 208.698 292.11C200.681 298.193 169.528 317.53 167.925 326.8L168.515 327.285C173.285 325.686 177.476 320.642 181.29 317.456C188.455 311.471 213.776 291.971 221.185 288.973C229.088 285.775 238.191 284.386 246.554 282.843C234.351 292.417 209.268 305.667 201.216 317.156C200.555 318.099 199.762 319.062 199.966 320.219C200.151 320.192 200.34 320.182 200.522 320.138C203.984 319.308 240.685 292.097 245.045 288.518C247.582 286.436 249.752 284.316 251.719 281.686C258.024 280.861 264.279 279.507 270.601 278.658C257.853 287.234 241.532 298.504 231.521 309.928C244.853 304.371 265.099 289.068 274.358 278.028C280.873 275.84 287.853 275.037 294.616 273.882C287.684 279.597 279.305 284.783 273.212 291.385C271.601 293.13 270.157 295.122 270.273 297.603L271.185 297.757C278.204 294.583 293.728 279.394 299.525 273.276C308.299 271.743 316.887 270.624 325.781 270.063C317.146 275.689 308.473 281.314 300.152 287.398C297.418 289.397 290.46 293.731 289.949 297.03C290.478 297.169 290.59 297.235 291.217 297.195C296.417 296.864 318.964 279.897 324.18 275.492C326.558 273.484 328.685 271.242 330.783 268.949Q348.14 266.352 365.393 263.139C364.187 265.78 362.714 268.234 361.233 270.726C348.253 277.682 333.595 279.192 321.472 288.163Q323.248 287.893 324.999 287.494C340.72 283.858 361.321 276.253 370.201 261.859C372.795 261.367 375.372 260.75 377.95 260.183Z"/>
	<path fill="#2E2B29" d="M345.954 338.802C346.767 339.473 347.421 340.081 347.637 341.168C349.048 348.268 338.918 361.099 334.586 366.355C333.96 366.103 333.532 365.833 332.979 365.458C333.027 363.085 335.47 359.883 336.696 357.788C338.418 354.846 340.178 351.921 341.561 348.798C343.034 345.471 343.887 341.82 345.954 338.802Z"/>
	<path fill="#2E2B29" d="M392.853 302.556C394.042 303.515 394.216 304.856 394.596 306.262C394.061 308.431 393.371 310.623 392.611 312.724C390.359 318.957 384.603 330.435 378.4 333.38L377.786 333.039C377.909 331.594 378.386 330.477 379.016 329.175C380.736 325.621 383.205 322.44 384.995 318.913C387.736 313.513 390.013 307.931 392.853 302.556Z"/>
	<path fill="#2E2B29" d="M246.027 385.833L247.181 387.018C247.941 390.011 247.021 392.433 245.653 395.126C241.05 404.189 232.848 415.752 222.756 419.04L221.98 418.229C221.7 416.245 227.965 411.013 229.524 409.482C236.65 402.481 240.428 393.922 246.027 385.833Z"/>
	<path fill="#2E2B29" d="M257.33 380.289C258.202 380.998 258.49 381.356 258.706 382.502C260.146 390.139 241.797 413.28 236.406 419.927L235.76 419.826C235.31 419.379 234.86 419.212 234.905 418.521C234.973 417.465 235.481 416.459 235.984 415.546C238.56 410.871 241.857 406.549 244.553 401.93C248.304 395.504 252.491 385.567 257.33 380.289Z"/>
	<path fill="#2E2B29" d="M268.319 374.16C269.496 374.884 270.488 375.178 270.792 376.687C272.107 383.211 256.724 408.018 252.915 415.035C251.558 414.687 250.76 414.727 249.852 413.628C250.163 409.127 257.24 398.641 259.398 394.084C262.508 387.514 265.409 380.822 268.319 374.16Z"/>
	<path fill="#2E2B29" d="M321.265 346.131C321.424 346.203 321.593 346.256 321.741 346.348C322.936 347.096 323.544 347.925 323.7 349.371C324.734 358.958 311.327 381.198 305.076 388.257C303.864 388.173 303.758 388.43 302.897 387.487C303.974 381.739 308.285 378.024 310.633 372.909C314.64 364.179 317.885 355.115 321.265 346.131Z"/>
	<path fill="#2E2B29" d="M302.946 357.738L303.463 357.959C303.989 358.62 304.284 359.062 304.428 359.92C305.594 366.854 289.675 396.578 284.966 402.318C284.171 402.029 284.016 401.856 283.453 401.263C283.465 399.199 300.411 360.898 302.946 357.738Z"/>
	<path fill="#2E2B29" d="M284.059 360.666C284.111 360.697 284.167 360.723 284.217 360.759C285.392 361.599 286.11 362.019 286.359 363.503C288.167 374.277 270.731 404.292 264.362 413.723C263.514 413.777 263.531 413.548 262.908 413.025C262.62 411.143 263.827 408.731 264.519 406.984C267.768 398.785 272.233 391.205 275.626 383.053C278.705 375.656 280.545 367.89 284.059 360.666Z"/>
	<path fill="#2E2B29" d="M104.426 352.418C105.105 352.928 105.721 353.538 106.351 354.107C106.625 355.375 106.516 355.756 106.135 357.005C105.235 359.951 103.558 362.845 102.383 365.714C99.2996 373.247 96.7044 381.384 95.7922 389.486C94.8878 397.519 95.8346 407.887 100.561 414.739C102.329 417.303 105.583 419.577 108.121 421.348C110.301 422.869 114.174 424.635 115.691 426.739C116.257 427.524 116.12 427.145 115.981 428.167L114.873 428.786Q111.225 427.854 107.902 426.085C100.337 422.015 95.1487 415.117 92.7129 406.924C87.4509 389.223 95.9533 367.783 104.426 352.418Z"/>
	<path fill="#F3E9D7" d="M479.309 261.958C476.403 265.672 472.774 269.465 470.6 273.635C470.887 274.532 470.628 274.298 471.451 274.709C483.19 280.58 545.646 264.403 561.654 261.639C569.582 260.27 578.054 259.128 586.098 259.593C594.668 260.087 602.538 262.627 610.156 266.487C612.188 271.925 614.504 277.428 615.263 283.221C617.434 299.811 604.316 313.168 607.68 329.955C610.327 343.165 621.523 347.987 629.28 357.459C635.276 364.78 639.783 375.029 642.27 384.15C643.924 390.214 644.598 396.536 644.917 402.798C645.527 414.775 643.306 437.513 656.565 443.71C657.189 444.002 657.787 444.059 658.464 444.083C659.627 443.42 660.036 443.069 660.383 441.728C661.579 437.106 660.489 431.697 661.328 426.881C664.215 410.313 675.863 392.441 689.838 383.121C695.154 379.576 701.849 376.944 708.302 378.267C713.064 379.243 716.973 382.063 719.488 386.208C724.819 394.995 724.249 406.766 721.644 416.325C718.104 429.318 710.652 440.668 704.744 452.628C701.634 458.921 698.967 466.12 695.147 471.974C693.09 475.126 690.614 478.286 687.309 480.196C684.741 481.68 681.691 482.333 678.809 481.435C671.876 479.276 671.927 472.354 668.282 470.306C667.469 472.054 668.022 474.071 668.685 475.825C670.092 479.541 672.959 482.753 676.605 484.374C681.961 486.755 687.31 484.915 692.372 482.782Q692.927 482.548 693.474 482.296C691.622 490.527 690.097 498.544 689.974 507.023C689.522 538.415 701.544 593.198 718.368 619.613C725.07 630.136 734.764 640.211 746.334 645.279C744.134 650.322 741.851 655.228 738.828 659.843C731.578 670.912 714.77 690.163 702.531 694.91C694.13 698.169 684.096 698.516 675.195 699.349C644.728 702.203 602.109 702.48 577.966 722.965C592.06 721.026 606.444 712.302 621.913 709.444C632.607 707.469 643.569 706.953 654.399 706.198C668.177 705.238 681.881 704.127 695.497 701.736C688.797 707.436 680.196 711.983 672.485 716.182C642.453 732.532 616.62 740.353 581.998 737.592C559.777 735.82 536.843 727.197 522.096 709.884C507.496 692.743 501.267 670.051 503.164 647.812Q503.451 644.419 503.975 641.055C506.523 662.806 512.057 684.964 527.775 701.104C513.041 672.864 508.473 649.641 504.359 618.432C504.503 616.902 504.311 616.294 505.408 615.169C510.607 616.202 516.026 616.457 521.303 616.975C522.089 628.846 524.952 640.683 530.353 651.322C536.685 663.798 545.337 671.999 558.64 676.41C537.758 659.935 530.928 640.989 522.409 617.019C559.243 616.385 575.588 595.66 603.878 576.702C616.205 568.442 629.774 561.618 640.839 551.624C656.64 537.353 660.61 520.471 663.782 500.241C665.177 491.346 666.418 482.499 666.889 473.502C662.533 483.693 661.331 494.611 659.14 505.384C652.738 536.86 638.958 546.345 613.736 563.064C610.196 558.661 607.235 554.191 604.631 549.174C606.639 550.145 608.603 551.217 610.577 552.256C610.629 551.662 610.545 551.127 610.477 550.537L609.503 550.256C606.48 548.712 603.862 546.481 600.762 545.128C602.477 550.786 608.563 559.255 612.514 563.753C608.864 566.253 605.245 568.82 601.544 571.244C600.957 569.907 600.475 568.217 599.292 567.304C599.625 568.857 600.048 570.102 600.692 571.554L596.493 574.761C593.429 569.404 590.459 565.279 586.084 560.944Q590.353 568.607 595.057 576.011Q585.598 582.925 576.351 590.121C572.933 592.324 569.207 594.405 566 596.892L565.086 597.378C560.327 599.634 555.761 602.215 551.167 604.784L550.059 605.388L545.689 607.261C542.8 608.667 539.586 609.617 536.555 610.69C536.501 607.932 536.147 605.34 535.709 602.624L534.603 601.715C533.88 604.914 534.951 608.918 532.673 611.417C531.459 611.792 530.956 611.714 529.752 611.331C526.88 606.753 532.351 594.023 529.944 587.779L529.276 587.68C528.322 589.569 528.407 601.107 528.123 604.035C527.404 601.01 527.687 597.95 526.66 594.961C524.194 598.836 528.811 606.027 526.601 610.767C526.253 611.512 525.782 611.516 525.08 611.823C522.705 610.635 524.979 602.276 523.411 599.054C523.267 598.759 523.112 598.47 522.962 598.177L521.683 598.149C522.1 601.774 522.473 608.402 520.439 611.485L519.461 611.554L518.533 610.585C517.27 605.678 519.28 600.808 519.746 595.898L519.799 595.29C518.736 597.156 517.533 599.089 516.893 601.147C516.033 603.91 516.645 609.006 514.925 611.003C513.685 611.324 513.274 611.421 512.123 610.61C506.454 606.615 514.671 586.244 513.391 579.561C513.363 579.416 513.33 579.272 513.299 579.128L511.98 579.245C512.363 582.611 508.252 605.426 507.027 609.56L506.16 609.826C504.982 609.202 504.597 608.784 503.951 607.595C503.45 606.672 503.479 606.529 502.547 605.959C501.236 606.946 499.923 607.744 498.484 608.532L490.422 606.871C491.039 600.8 490.464 594.379 491.761 588.413C492.877 583.278 495.346 578.722 496.14 573.432C492.74 579.886 487.767 594.143 488.44 601.477C488.596 603.174 489.215 604.945 489.7 606.575C485.94 606.127 482.366 605.277 479.088 603.286C468.768 597.014 471.883 580.3 468.739 570.035C465.008 557.853 459.517 546.262 455.293 534.244C447.708 512.668 442.623 489.894 439.497 467.255C437.386 451.976 441.195 436.431 438.256 421.343C436.042 409.973 428.651 400.016 425.612 388.253C435.932 383.012 446.207 384.082 457.354 385.789C461.24 386.384 470.815 387.72 473.051 391.249C473.515 391.981 473.344 391.841 473.19 392.806C467.073 393.904 459.649 385.838 448.291 391.322C443.608 393.583 441.876 397.213 440.334 401.859C439.382 402.576 438.565 403.3 437.735 404.155L438.193 404.501C439.26 404.351 440.215 404.171 441.291 404.315C440.531 406.227 438.038 407.957 436.516 409.339C449.459 413.52 461.986 410.707 475.041 408.474C473.483 419.033 471.723 429.897 467.682 439.827C464.053 448.747 456.768 457.066 455.689 466.84C454.099 481.237 467.744 480.236 473.656 488.613C474.725 490.128 474.437 491.104 474.074 492.769C473.389 494.215 473.529 495.132 473.729 496.65C473.327 497.292 472.97 497.92 472.466 498.487L472.43 499.119L473.314 499.892C473.956 499.583 474.561 499.286 475.17 498.913C477.589 495.131 479.825 491.467 481.514 487.296C475.951 484.392 463.175 479.293 461.015 472.968C457.895 463.835 467.9 451.54 471.287 443.478C475.934 432.42 482.356 409.821 478.249 397.99C476.746 393.659 472.938 391.092 470.707 387.281C468.339 383.237 468.449 377.319 463.936 374.807C455.033 369.851 428.121 371.817 423.207 366.517C423.193 365.206 423.809 364.784 424.666 363.867C427.563 360.77 430.618 358.091 432.957 354.512C444.782 336.414 438.627 311.501 443.92 291.465C443.588 308.328 444.784 324.495 457.181 337.334C465.705 346.162 476.526 349.243 488.492 349.661C474.573 346.012 463.158 340.391 455.577 327.601C448.667 315.943 447.496 301.7 450.941 288.718C453.217 280.139 457.879 272.546 463.813 266.004C468.959 264.459 474.053 263.088 479.309 261.958Z"/>
	<path fill="#2E2B29" d="M522.723 587.104C523.387 585.286 523.939 584.024 525.232 582.57L526.365 582.107C527.013 582.781 526.996 582.494 526.914 583.43C526.764 585.139 525.659 586.566 524.653 587.896L522.723 587.104Z"/>
	<path fill="#524944" d="M509.048 579.424C509.655 577.635 510.017 576.125 511.481 574.861L512.708 574.638C513.869 575.572 514.023 576.186 514.444 577.554L514.178 578.698L513.299 579.128L511.98 579.245L510.927 579.936L509.048 579.424Z"/>
	<path fill="#524944" d="M519.338 581.331C519.728 581.702 519.969 582.21 520.249 582.669C520.466 585.971 519.065 587.757 517.2 590.331C516.635 589.444 515.84 588.59 515.803 587.515C515.717 584.996 517.811 583.122 519.338 581.331Z"/>
	<path fill="#2E2B29" d="M602.643 543.82C607.11 545.659 612.169 548.998 614.639 553.25L614.593 553.612L613.699 554.164C612.524 553.843 611.365 553.176 610.577 552.256C610.629 551.662 610.545 551.127 610.477 550.537L609.503 550.256Q606.045 547.068 602.643 543.82Z"/>
	<path fill="#524944" d="M522.723 587.104L524.653 587.896C522.869 591.203 522.07 594.42 522.962 598.177L521.683 598.149C521.155 596.98 520.73 595.911 520.592 594.623C520.303 591.907 521.023 589.24 522.723 587.104Z"/>
	<path fill="#524944" d="M552.408 585.964C556.193 588.725 557.468 593.585 558.677 597.9C557.54 597.258 556.587 596.696 555.783 595.623C553.974 593.206 552.05 589.068 552.408 585.964Z"/>
	<path fill="#524944" d="M626.802 528.079Q627.787 528.445 628.74 528.89C631.436 530.175 636.185 533.138 637.239 535.973C634.181 535.338 631.564 534.208 629.202 532.107C627.857 530.91 626.886 529.87 626.802 528.079Z"/>
	<path fill="#524944" d="M640.623 458.42C641.919 459.583 642.478 461.247 643.728 462.483C646.473 465.199 649.62 467.156 652.113 470.179C650.017 469.83 648.197 469.211 646.404 468.044C642.862 465.738 641.523 462.377 640.623 458.42Z"/>
	<path fill="#524944" d="M545.119 606.388C544.165 604.908 543.364 603.426 542.995 601.685C542.531 599.495 542.313 596.331 543.616 594.382C544.611 594.649 544.81 594.888 545.537 595.577C545.695 599.26 545.928 602.76 545.119 606.388Z"/>
	<path fill="#2E2B29" d="M459.917 513.581L459.283 516.435C458.418 517.236 457.618 518.061 456.53 518.556C455.801 518.887 455.695 518.649 455.014 518.375C454.78 517.898 454.577 517.558 454.496 517.004C454.117 514.417 456.385 510.611 457.588 508.425C457.703 509.91 457.566 511.793 458.509 513.007L459.917 513.581Z"/>
	<path fill="#2E2B29" d="M546.761 502.145C549.913 503.636 555.151 506.545 556.955 509.564C555.346 510.142 554.291 510.992 552.979 512.073C550.668 509.046 548.822 505.378 546.761 502.145Z"/>
	<path fill="#2E2B29" d="M569.264 545.435C570.813 545.898 572.244 547.033 573.504 548.034C576.318 550.27 584.1 556.463 584.517 560.036L583.727 560.418C581.66 559.225 578.206 557.735 576.767 555.918C577.283 555.576 577.024 555.708 577.707 555.462C577.883 555.399 578.06 555.339 578.236 555.278C577.567 551.986 571.783 547.757 569.264 545.435Z"/>
	<path fill="#2E2B29" d="M639.904 450.783C644.879 452.024 649.513 457.127 653.17 460.555C651.865 460.519 650.694 460.372 649.447 459.959C644.841 458.435 641.962 455.01 639.904 450.783Z"/>
	<path fill="#524944" d="M493.253 561.489C494.315 561.459 495.356 561.383 496.411 561.53L495.651 562.246C495.574 565.767 496.325 571.672 493.729 574.162C492.139 575.686 491.808 576.366 491.312 578.581L490.332 576.614C491.659 572.407 494.55 566.349 494.456 562.031L493.253 561.489Z"/>
	<path fill="#2E2B29" d="M613.137 536.288C618.053 537.519 625.866 541.665 629.597 545.027L629.401 545.372L627.594 544.975C626.047 544.258 624.523 543.518 622.903 542.977L623.911 545.068L623.308 545.132C619.634 543.629 614.847 539.874 613.137 536.288Z"/>
	<path fill="#524944" d="M552.979 512.073C554.291 510.992 555.346 510.142 556.955 509.564L556.58 510.749C559.902 516.381 565.133 521.578 570.101 525.788C563.254 522.263 558.418 517.404 552.979 512.073Z"/>
	<path fill="#2E2B29" d="M635.307 463.832C635.824 464.034 636.039 464.089 636.543 464.453C640.57 467.354 648.589 475.867 649.581 480.47C649.157 480.36 648.731 480.259 648.315 480.121C644.516 478.863 637.081 467.551 635.307 463.832Z"/>
	<path fill="#524944" d="M565.086 597.378Q564.182 596.654 563.363 595.834Q562.545 595.014 561.823 594.109Q561.1 593.203 560.483 592.223Q559.866 591.243 559.361 590.2C558.362 588.115 557.136 585.253 557.974 582.989C558.119 583.035 558.273 583.062 558.41 583.129C561.823 584.778 564.516 593.294 566 596.892L565.086 597.378Z"/>
	<path fill="#524944" d="M635.51 473.446C639.431 476.688 647.129 486.76 650.724 491.187C648.873 490.794 647.348 489.812 645.849 488.679C640.906 484.942 636.33 479.757 635.51 473.446Z"/>
	<path fill="#524944" d="M600.057 520.476C603.896 521.777 604.541 524.876 607.601 526.96C609.901 528.526 613.226 529.445 615.796 530.676L617.934 534.584C616.145 534.69 614.731 533.769 613.211 532.954C608.212 530.275 601.77 526.173 600.057 520.476Z"/>
	<path fill="#2E2B29" d="M564.176 565.815C564.747 565.993 565.254 566.151 565.772 566.459C571.103 569.624 576.451 575.705 577.919 581.733C572.767 579.216 566.404 571.044 564.176 565.815Z"/>
	<path fill="#2E2B29" d="M490.332 576.614L491.312 578.581C489.838 582.855 487.288 596.829 483.888 598.944C483.316 597.301 484.305 595.703 484.336 593.97C484.339 593.812 484.322 593.654 484.315 593.496L484.55 593.315C483.723 594.194 483.419 594.659 482.29 595.115C482.14 594.259 482.121 593.779 482.438 592.957C483.18 591.036 484.748 589.335 485.721 587.502C487.538 584.076 488.878 580.213 490.332 576.614Z"/>
	<path fill="#524944" d="M561.035 575.491C565.654 577.107 573.891 584.378 575.927 588.933C576.191 589.524 576.193 589.582 576.351 590.121C570.898 589.137 566.073 583.855 562.939 579.502C562.04 578.253 561.519 576.94 561.035 575.491Z"/>
	<path fill="#524944" d="M509.048 579.424L510.927 579.936Q509.633 582.496 508.697 585.208Q507.76 587.92 507.199 590.733C506.461 594.337 506.926 599.478 504.802 602.535C503.808 602.403 503.773 602.093 503.098 601.398C500.793 594.353 507.053 586.399 508.878 580.042C508.937 579.836 508.991 579.63 509.048 579.424Z"/>
	<path fill="#524944" d="M534.603 601.715C535.061 599.833 535.581 597.895 535.74 595.96C536.014 592.639 534.398 587.735 536.642 585.023L537.413 585.105C538.292 586.576 540.275 605.947 539.657 607.701C539.569 607.948 539.409 608.164 539.285 608.395L538.442 608.125C537.443 606.11 537.718 600.685 536.212 599.781C535.903 600.779 535.734 601.578 535.709 602.624L534.603 601.715Z"/>
	<path fill="#524944" d="M627.793 497.725C627.985 497.771 628.185 497.792 628.369 497.865C633.219 499.771 641.195 513.712 643.884 518.227C641.326 516.971 638.929 515.414 636.503 513.923Q634.029 512.346 631.592 510.714C634.264 511.842 636.965 512.814 639.702 513.77C637.534 511.543 635.332 509.377 633.097 507.218C630.263 504.48 627.851 501.849 627.793 497.725Z"/>
	<path fill="#524944" d="M630.364 484.953C634.157 487.739 647.952 500.241 648.764 503.964C644.965 503.09 636.814 495.875 633.948 492.739C631.974 490.578 630.243 487.985 630.364 484.953Z"/>
	<path fill="#524944" d="M598.551 508.418C599.201 508.544 599.754 508.712 600.35 509.014C602.716 510.213 605.824 514.532 607.774 516.471C610.639 519.32 614.185 521.693 616.831 524.716C617.487 525.466 617.699 526.178 617.931 527.126C616.914 527.003 616.212 526.823 615.305 526.317C608.915 522.755 600.711 515.532 598.551 508.418Z"/>
	<path fill="#524944" d="M590.736 524.52C591.413 524.465 592.22 524.352 592.874 524.595C593.713 524.907 609.453 538.193 610.818 539.644C611.953 540.849 612.702 541.851 613.3 543.393C610.813 542.13 608.527 540.675 606.229 539.094C602.086 536.243 591.677 529.619 590.736 524.52Z"/>
	<path fill="#524944" d="M564.513 551.885C573.247 556.896 583.77 570.476 586.539 580.127C585.439 579.518 584.554 578.602 583.765 577.635C581.274 574.58 579.352 570.967 576.96 567.81C572.86 562.4 568.097 557.701 564.513 551.885Z"/>
	<path fill="#524944" d="M546.995 593.227C546.668 590.793 545.431 584.309 546.668 582.377C548.153 582.919 548.88 583.819 549.511 585.221C551.934 590.605 551.976 599.035 551.167 604.784L550.059 605.388C548.21 601.858 547.749 597.136 546.995 593.227Z"/>
	<path fill="#2E2B29" d="M515.202 489.768C520.418 491.293 524.39 493.925 528.374 497.521C526.855 500.819 525.15 504.054 523.534 507.307C523.957 505.541 524.422 503.759 524.737 501.97C525.125 499.77 524.841 497.704 523.563 495.838L522.742 495.841C522.301 496.385 522.206 496.457 521.839 497.141C520.414 499.792 521.722 503.252 522.525 505.897C522.969 506.662 523.23 507.176 523.224 508.097C523.208 510.575 520.717 512.198 519.023 513.702C519.929 510.25 520.991 506.622 521.117 503.032C521.157 501.891 521.111 501.206 520.33 500.34C519.65 500.464 519.006 500.598 518.342 500.795C518.155 500.851 517.969 500.911 517.782 500.969C517.279 498.641 520.75 496.373 520.588 493.635C519.793 492.747 519.663 492.678 518.515 492.349C516.943 493.498 516.371 495.756 515.622 497.54C515.532 494.949 515.348 492.357 515.202 489.768Z"/>
	<path fill="#524944" d="M475.17 498.913C476.477 499.012 476.716 498.815 477.757 499.693C477.195 501.708 463.623 522.953 461.805 525.344C462.193 524.329 462.551 523.308 462.915 522.284C464.836 516.88 463.782 509.527 467.595 505.31L468.191 505.74C468.068 506.708 468.005 507.58 468.058 508.554L468.768 508.573C475.555 501.543 471.205 503.249 472.43 499.119L473.314 499.892C473.956 499.583 474.561 499.286 475.17 498.913Z"/>
	<path fill="#524944" d="M614.485 503.632C619.44 505.912 620.977 512.521 624.89 516.227C629.675 520.758 637.013 523.001 640.753 528.58C638.117 528.662 636.763 528.068 634.518 526.784C625.989 521.906 617.168 513.292 614.485 503.632Z"/>
	<path fill="#524944" d="M577.915 535.817C579.316 536.06 580.561 536.365 581.802 537.087C588.716 541.112 601.495 555.428 603.69 563.002C602.562 562.568 601.477 561.745 600.671 560.846C598.376 558.286 596.764 555.124 594.376 552.551C589.301 547.081 581.195 542.641 577.915 535.817Z"/>
	<path fill="#2E2B29" d="M492.486 476.761C495.086 476.535 497.751 476.336 500.279 477.163C501.725 477.637 503.355 478.635 504.003 480.052C504.365 480.844 504.057 481.117 503.791 481.878C501.269 483.619 498.571 482.763 495.76 482.326C491.624 481.244 486.227 483.438 482.591 481.804L482.991 480.791C485.67 478.647 489.195 477.56 492.486 476.761Z"/>
	<path fill="#524944" d="M457.588 508.425C457.924 505.423 468.436 495.294 471.007 492.209C471.55 491.558 471.17 491.836 472.153 491.525L474.074 492.769C473.389 494.215 473.529 495.132 473.729 496.65C473.327 497.292 472.97 497.92 472.466 498.487C469.807 499.287 463.257 509.629 460.781 512.337C460.179 512.995 460.421 512.693 459.917 513.581L458.509 513.007C457.566 511.793 457.703 509.91 457.588 508.425Z"/>
	<path fill="#524944" d="M488.876 496.243L489.509 496.605C491.13 499.788 491.011 504.958 490.247 508.348C487.849 510.85 483.559 515.934 480.087 516.492C479.255 516.625 479.124 516.33 478.481 515.905C478.04 514.083 478.507 513.296 479.06 511.533L478.427 510.841C476.893 510.879 475.738 512.438 474.609 513.47C474.867 512.054 486.932 498.549 488.876 496.243Z"/>
	<path fill="#2E2B29" d="M524.513 700.192C538.728 705.983 551.947 704.992 562.06 718.617C555.231 718.566 548.968 711.933 542.573 709.679C537.783 707.991 528.693 708.252 525.268 704.159C524.201 702.885 524.495 701.732 524.513 700.192Z"/>
	<path fill="#2E2B29" d="M500.023 454.61C506.183 454.12 511.977 455.124 517.212 458.571C520.84 460.96 524.101 464.552 524.878 468.955C525.488 472.418 524.29 475.681 522.202 478.417C520.233 480.997 517.314 483.561 513.998 484.015L513.519 483.59L513.988 482.167C516.724 478.698 519.704 474.587 519.641 469.955C519.605 467.236 518.33 464.888 516.333 463.097C509.237 456.73 497.87 457.851 489.066 458.268C492.707 456.647 496.137 455.489 500.023 454.61Z"/>
	<path fill="#2E2B29" d="M463.348 536.532C473.858 546.25 483.661 555.6 499.033 554.899C509.532 554.42 512.449 546.286 516.189 546.79C516.642 547.216 517.066 547.37 517.075 548.047C517.12 551.466 512.055 557.118 509.467 559.235C506.438 561.712 500.204 561.698 496.411 561.53C495.356 561.383 494.315 561.459 493.253 561.489C487.62 561.597 484.752 558.648 480.919 554.956C474.761 549.024 468.022 543.767 463.348 536.532Z"/>
	<path fill="#2E2B29" d="M702.968 386.496C705.973 386.478 708.252 386.632 710.584 388.708C714.774 392.438 715.71 399.238 716.168 404.563C717.318 417.919 714.243 430.36 705.509 440.634C697.825 442.782 691.405 444.7 685.54 450.403C683.779 452.115 681.916 454.62 679.976 456.019C678.935 456.769 678.573 456.496 677.449 456.173C676.837 455.514 676.494 455.291 676.236 454.398C673.92 446.354 683.603 438.846 685.05 431.603C685.887 427.415 683.174 421.092 685.165 417.285C685.975 417.9 685.877 417.67 686.283 418.455C687.617 421.034 688.076 423.81 688.166 426.685C688.529 438.353 680.853 444.036 677.701 454.415C682.688 449.468 686.002 444.51 692.357 441.033C700.21 437.437 707.144 433.47 710.362 424.907C713.343 416.973 714.009 403.088 710.304 395.3C709.438 393.48 708.109 391.915 706.124 391.325C703.835 390.644 701.397 391.311 699.354 392.408C694.908 394.797 689.163 400.817 687.833 405.785C687.577 406.743 687.515 407.927 688.063 408.782C689.535 411.079 693.172 411.531 695.645 412.188C698.626 416.095 700.16 419.866 701.676 424.523C700.309 426.878 697.576 431.646 694.908 432.421L694.345 431.861C694.75 429.34 696.577 427.551 697.486 425.247C698.044 423.833 697.756 421.889 697.125 420.56C696.624 421.305 696.739 420.996 696.533 421.734C696.416 422.152 696.32 422.578 696.177 422.988C695.754 424.202 694.914 425.241 693.765 425.803C696.261 409.516 688.312 418.186 684.649 410.708C683.602 408.572 683.935 406.321 684.798 404.18C687.855 396.595 695.545 389.598 702.968 386.496Z"/>
	<path fill="#2E2B29" d="M669.175 561.841C669.455 562.558 669.732 563.255 669.909 564.006C671.145 569.227 669.792 575.585 669.026 580.845C663.489 618.856 637.311 646.165 616.082 676.256C608.21 687.415 601.31 699.122 594.394 710.883L593.65 710.681C591.481 698.686 628.625 652.321 637.026 640.285C642.578 632.332 647.873 624.193 652.278 615.542C661.022 598.37 665.127 580.484 669.175 561.841Z"/>
	<path fill="#2E2B29" d="M499.459 519.137C509.128 518.139 518.496 524.631 528.016 525.578C534.825 526.255 541.245 523.788 547.975 523.39C548.19 523.377 548.406 523.37 548.621 523.36C536.159 532.092 521.208 533.731 506.62 536.588C502.892 537.247 498.891 538.204 495.109 538.318C485.82 538.598 473.092 534.632 464.783 530.647C463.29 529.932 460.654 529.044 460.107 527.495L461.027 526.941L461.852 527.085C462.217 527.146 462.587 527.182 462.948 527.265C466.811 528.149 471.868 524.951 476.016 524.473C480.569 523.948 485.011 524.806 489.479 525.58C489.761 524.718 490.03 523.792 490.551 523.035C492.542 520.144 496.276 519.66 499.459 519.137Z"/>
	<path fill="#FEFEFD" d="M498.955 522.627C504.679 522.431 509.625 524.626 514.72 526.932L505.876 526.596Q497.414 526.276 488.97 525.644C492.286 524.391 495.491 523.387 498.955 522.627Z"/>
	<path fill="#F3E9D7" d="M473.112 528.652C480.723 527.998 491.32 529.681 499.429 529.88C504.875 530.014 510.473 529.032 515.854 529.509L515.619 529.993L513.886 530.399C498.541 534.16 487.776 536.842 473.112 528.652Z"/>
	<path fill="#2E2B29" d="M516.302 401.147C515.92 397.809 516.12 396.004 518.25 393.308C521.977 388.59 528.801 386.946 534.536 386.446C547.215 385.34 559.645 388.706 571.164 393.676C573.68 394.761 576.693 395.636 578.848 397.361C579.721 398.061 580.018 398.415 580.159 399.557C577.997 400.809 575.673 399.174 573.414 399.755C570.773 400.434 568.338 402.001 565.694 402.798C553.157 406.575 536.887 409.61 524.022 406.173C521.96 405.622 520.793 404.859 519.334 403.325L516.302 401.147Z"/>
	<path fill="#F3E9D7" d="M516.302 401.147C519.232 396.933 522.153 392.419 527.12 390.453L527.326 390.895C524.288 395.194 521.068 398.172 519.334 403.325L516.302 401.147Z"/>
	<path fill="#FEFEFD" d="M529.21 396.25C529.821 396.69 529.64 396.488 530.06 397.039C532.112 399.734 534.949 401.981 536.812 404.689L535.875 404.972C532.616 404.57 529.885 403.866 526.864 402.638L529.21 396.25Z"/>
	<path fill="#5A896D" d="M534.26 391.025C535.545 390.986 536.588 391.016 537.861 391.268C537.631 392.818 537.273 394.877 537.82 396.37C538.095 397.123 538.549 397.155 539.206 397.502C540.8 397.434 541.394 397.249 542.728 396.375C543.627 394.704 543.037 393.818 542.573 392.012L543.279 391.085L544.241 391.063C545.296 392.024 545.556 392.932 545.98 394.239C545.637 395.467 545.243 396.707 544.745 397.883C544.085 399.439 542.975 400.671 541.326 401.194C540.013 401.61 538.615 401.453 537.4 400.833C535.618 399.924 534.306 398.212 533.681 396.332C532.984 394.231 533.252 392.904 534.26 391.025Z"/>
	<path fill="#F3E9D7" d="M549.543 391.367C557.474 391.954 564.063 394.3 571.302 397.485C567.773 399.173 564.182 400.448 560.48 401.703C554.547 403.203 548.573 403.984 542.496 404.596C543.929 403.722 545.469 402.862 546.642 401.644C549.468 398.709 549.507 395.182 549.543 391.367Z"/>
	<path fill="#2E2B29" d="M553.512 357.648C557.719 357.103 562.135 357.073 566.337 357.674C576.428 359.117 596.112 365.651 602.286 373.817C585.155 373.167 567.362 369.608 550.418 373.392C542.701 375.115 535.269 378.171 527.871 380.913C520.414 383.652 512.838 385.674 504.944 386.625C501.293 384.656 497.12 382.184 495.744 378.009C495.013 375.792 495.091 373.214 496.19 371.149L496.998 370.953L497.747 372.271L498.414 372.412C499.068 371.201 499.67 370.119 500.588 369.077C503.487 370.744 500.779 375.3 502.08 377.637C503.666 375.34 502.362 371.932 504.422 369.627C505.01 368.969 504.897 369.178 505.889 369.069C506.294 369.671 506.664 370.257 507.004 370.9C507.102 371.086 507.196 371.274 507.292 371.462C508.121 370.647 509.181 369.401 510.223 368.892C513.023 367.527 518.177 368.22 521.418 367.346C532.287 364.416 542.321 359.661 553.512 357.648Z"/>
	<path fill="#626261" d="M516.334 371.811C517.004 372.601 517.03 372.324 517.003 373.24C516.897 376.919 513.325 379.99 510.836 382.351L510.3 381.321C511.454 377.636 513.937 374.756 516.334 371.811Z"/>
	<path fill="#626261" d="M553.846 362.181C565.068 360.329 576.178 364.339 586.617 367.924C571.399 367.723 556.925 367.23 541.978 370.83C533.419 372.957 525.334 377.273 516.844 379.808C531.54 367.008 533.726 365.081 553.846 362.181Z"/>
	<path fill="#5A896D" d="M464.953 582.195L466.603 582.491C466.499 586.743 466.766 590.895 467.111 595.132C459.137 611.426 436.535 658.943 440.162 675.514L440.692 675.464C444.54 669.605 448.791 653.154 451.811 645.544C457.523 631.152 464.514 617.146 469.783 602.611C481.212 612.497 491.574 611.351 505.408 615.169C504.311 616.294 504.503 616.902 504.359 618.432C497.394 629.112 497.27 665.421 499.849 677.501Q500.243 679.335 500.726 681.147Q501.21 682.959 501.782 684.745Q502.354 686.531 503.013 688.287Q503.673 690.043 504.418 691.764Q505.163 693.486 505.992 695.168Q506.821 696.85 507.732 698.49Q508.642 700.129 509.633 701.722Q510.623 703.315 511.691 704.857Q512.759 706.399 513.901 707.886Q515.044 709.374 516.258 710.803Q517.472 712.233 518.755 713.601Q520.038 714.969 521.387 716.272Q522.736 717.575 524.148 718.81Q525.559 720.045 527.03 721.209Q528.501 722.373 530.027 723.463Q531.553 724.553 533.131 725.567C559.531 742.662 596.178 746.207 626.381 739.499C667.895 730.278 721.253 696.689 743.978 660.546C747.397 655.108 752.414 646.258 752.004 639.676L751.337 638.504C749.829 638.128 749.463 638.365 748.103 639.204Q747.292 639.711 746.492 640.235C741.05 636.998 736.571 633.112 732.34 628.408C739.782 630.364 747.354 632.046 754.655 634.48C757.912 638.332 760.143 642.643 762.43 647.113C752.479 681.56 717.861 707.511 687.552 724.193C648.185 745.859 603.192 757.81 558.873 744.758C537.043 738.33 515.732 724.939 504.646 704.497C491.461 680.183 491.755 653.756 494.72 627.16C494.948 625.115 495.749 620.171 493.829 619.006C491.062 621.344 489.885 635.509 489.551 639.416C487.239 666.431 491.406 698.904 509.407 720.307C527.909 742.306 558.407 753.499 586.469 755.688C636.548 759.594 694.8 732.088 732.159 699.951C748.671 685.746 760.316 670.591 765.77 649.344C771.2 651.542 776.652 653.598 781.559 656.853C789.783 662.307 796.576 669.451 805.208 674.499C815.465 680.498 826.168 686.206 836.832 691.437C844.48 695.189 852.39 698.546 859.768 702.82C855.284 705.299 850.532 707.517 846.316 710.435C828.68 722.64 816.353 742.31 810.558 762.722C809.5 766.446 807.779 772.365 809.646 775.964L808.355 780.121C805.023 790.955 799.406 801.019 796.086 811.946C792.957 822.247 792.544 832.541 790.216 842.89C785.476 845.266 780.293 846.952 775.659 849.441C778.416 861.483 780.266 881.135 789.187 890.342C789.874 891.648 790.276 892.54 790.495 894.026L789.937 894.733C788.567 894.797 787.663 894.231 786.6 893.433C777.17 886.353 772.919 862.129 771.323 850.56C742.189 863.154 712.6 874.759 683.39 887.204C630.956 909.543 578.383 932.698 522.866 946.322C507.377 950.123 491.31 953.599 475.357 954.62C456.718 955.812 438.108 954.286 420.618 947.32C387.392 934.086 364.858 903.053 343.452 875.905C338.724 869.909 331.891 859.458 325.997 854.977C317.76 841.799 317.07 821.831 315.866 806.6C337.494 776.222 341.326 753.808 348.053 718.372C349.835 708.989 350.79 699.632 353.862 690.542C354.264 690.227 354.659 689.902 355.043 689.565C362.826 682.729 368.783 674.048 376.008 666.656C390.734 651.589 406.399 637.512 421.373 622.694C426.485 617.635 432.13 612.714 436.767 607.219C437.724 606.085 438.647 605.128 438.744 603.577C440.109 601.625 442.369 599.863 444.016 598.066C448.207 593.493 452.16 588.723 456.486 584.272C459.289 583.796 462.4 583.472 464.953 582.195Z"/>
	<path fill="#2E2B29" d="M771.323 850.56C772.044 843.727 770.872 834.556 770.967 827.382C771.324 800.329 777.283 773.072 791.217 749.678C793.591 745.694 796.138 740.864 799.582 737.733C800.487 736.911 800.035 737.091 801.166 737.112C802.085 739.092 800.868 741.273 799.945 743.105C796.729 749.494 792.563 755.344 789.536 761.854C776.803 789.244 774.134 819.719 775.659 849.441C778.416 861.483 780.266 881.135 789.187 890.342C789.874 891.648 790.276 892.54 790.495 894.026L789.937 894.733C788.567 894.797 787.663 894.231 786.6 893.433C777.17 886.353 772.919 862.129 771.323 850.56Z"/>
	<path fill="#2E2B29" d="M471.57 729.728C472.688 730.556 473.364 731.367 474.033 732.579C476.832 737.645 478.625 743.441 480.9 748.769C484.621 757.483 489.069 766.258 493.894 774.418Q497.092 779.729 500.574 784.858Q504.055 789.987 507.811 794.919Q511.567 799.851 515.586 804.571Q519.604 809.292 523.874 813.786C544.095 835.24 568.524 855.295 594.593 869.219C601.007 872.644 630.623 886.013 633.116 888.333C633.287 888.492 633.45 888.659 633.617 888.823C595.502 883.303 549.938 847.58 524.009 819.917C503.46 797.993 489.458 777.256 477.648 749.516C475.155 743.658 471.37 736.211 471.57 729.728Z"/>
	<path fill="#2E2B29" d="M422.122 675.364C422.713 675.995 423.035 676.732 423.199 677.58C423.983 681.643 423.661 686.329 423.787 690.477Q424.094 700.103 424.819 709.706C427.03 739.14 432.265 768.048 442.583 795.776C457.614 836.169 481.855 872.556 517.404 897.631C521.382 900.436 525.526 903.139 529.779 905.515C534.155 907.959 543.603 911.797 546.67 915.145L546.086 915.522Q539.339 913.186 532.819 910.277C487.948 889.966 456.31 845.462 439.242 800.551C426.724 767.611 421.042 732.922 420.267 697.766C420.115 690.86 419.268 681.724 422.122 675.364Z"/>
	<path fill="#2E2B29" d="M485.712 618.254L486.361 618.494C487.725 620.328 484.219 643.168 484.167 647.974C483.835 678.735 489.691 708.67 512.068 731.377C534.139 753.771 566.55 764.123 597.565 764.273C607.849 764.323 618.58 763.406 628.649 761.303C670.605 752.541 720.932 724.895 750.829 694.2C755.444 689.462 760.104 684.103 763.666 678.523C767.024 673.261 769.048 666.675 773.664 662.372C774.82 661.294 775.668 660.724 777.257 660.802C777.896 661.957 777.82 662.619 777.547 663.909C776.524 668.743 773.364 673.526 770.691 677.596C757.848 697.152 740.17 711.508 721.198 724.757C689.656 745.899 653.917 764.32 615.748 768.897C586.746 772.375 553.429 766.884 528.48 751.374C523.178 748.079 518.647 743.61 513.741 739.764C516.009 761.296 521.726 783.285 535.017 800.744C538.755 805.655 543.395 809.667 547.187 814.455C547.422 815.768 547.348 815.889 546.803 817.119L545.727 817.53C543.706 817.098 542.239 815.796 540.73 814.443C537.829 811.844 535.282 808.65 532.82 805.63C516.572 785.701 510.61 761.369 509.15 736.193C493.078 722.423 484.134 700.38 480.061 680.11C476.195 660.866 474.378 635.193 485.712 618.254Z"/>
</svg>
