<?xml version="1.0" encoding="utf-8" ?>
<svg xmlns="http://www.w3.org/2000/svg" xmlns:xlink="http://www.w3.org/1999/xlink" width="329" height="350">
	<path fill="#B3C550" transform="scale(4.16456 4.16667)" d="M62.0517 14.2248L62.4248 14.4098C62.2069 15.5611 59.8633 16.4564 58.8805 17.1394C52.3866 21.6523 47.5726 27.0796 44.7389 34.5425C40.8203 44.8625 39.8382 55.5576 40.1296 66.5108C40.2324 70.3749 43.003 75.959 41.5422 79.5874C41.3522 80.0595 40.9953 80.5326 40.5109 80.7289C39.7369 81.0425 38.8453 80.9832 38.0935 80.6608C37.8332 80.7767 37.5568 80.7127 37.2837 80.6787C36.629 80.3261 36.2376 79.9309 35.9256 79.2493C34.6703 76.507 35.6905 72.1126 35.8146 69.1555C36.2807 58.0496 35.7777 48.0947 39.7154 37.3772C44.3199 24.8448 50.3114 19.656 62.0517 14.2248Z"/>
	<path fill="#B3C550" transform="scale(4.16456 4.16667)" d="M63.341 22.9159C63.711 23.0127 63.7165 23.0334 63.9415 23.346C63.5306 24.0787 60.5926 25.6021 59.6897 26.3053C51.0821 33.0101 48.5363 43.9738 48.1691 54.3837C48.0419 57.9889 48.3847 61.6952 47.9406 65.2726C52.298 61.9267 57.1808 56.4025 58.9389 51.1507C61.0111 44.9608 59.8837 38.6259 57.0523 32.9361C57.634 32.0374 58.1902 30.9914 59.0878 30.378C59.7295 30.2445 60.0002 30.165 60.5887 30.5379C62.4199 31.6981 63.6324 37.4729 64.1376 39.5586C65.3359 45.0881 64.2664 51.5931 61.3991 56.4631C60.3543 58.2377 59.0638 59.907 57.7264 61.4696C55.9647 63.5277 46.5579 73.5291 44.8537 73.9734C44.7182 73.8642 44.6056 73.7307 44.5278 73.5745C43.9701 72.4548 44.1029 70.5658 43.9669 69.3043C43.1715 61.9281 43.2181 56.7738 44.3783 49.412C44.7717 46.9155 45.1615 44.3945 45.953 41.9871C49.3691 31.5972 53.96 27.646 63.341 22.9159Z"/>
	<path fill="#B3C550" transform="scale(4.16456 4.16667)" d="M38.3215 7.92616C40.7625 8.17568 47.6576 16.4283 49.7129 18.6342C48.606 19.5127 47.3716 20.1825 46.1462 20.8775C43.4553 18.5802 40.9245 15.8616 38.5161 13.272C37.2263 15.1338 35.4901 16.7137 33.8925 18.311C27.491 24.7116 18.304 31.9191 17.7418 41.646C17.105 52.6617 20.9115 56.01 27.6571 63.5702Q27.5643 62.4623 27.5178 61.3516Q27.4713 60.2408 27.4711 59.129Q27.4709 58.0173 27.517 56.9065Q27.5632 55.7957 27.6555 54.6878Q27.7479 53.5799 27.8863 52.4768Q28.0248 51.3737 28.2091 50.2773Q28.3934 49.181 28.6232 48.0932Q28.853 47.0055 29.128 45.9283Q29.4029 44.8511 29.7225 43.7862Q30.0421 42.7214 30.4057 41.6708Q30.7694 40.6203 31.1766 39.5857Q31.5837 38.5512 32.0336 37.5346Q32.4835 36.5179 32.9753 35.5209Q33.4672 34.5239 34.0001 33.5482Q34.5331 32.5725 35.1063 31.6199Q35.6794 30.6673 36.2918 29.7394C36.3166 29.6843 36.3388 29.6369 36.3728 29.5867C36.6951 29.1113 37.1695 28.4001 37.7608 28.3022C38.4962 29.1022 36.5881 32.2389 36.1487 33.2238C31.2098 44.2953 32.0967 61.4385 32.0017 73.4698C28.3573 70.6267 24.8097 67.2997 21.7625 63.8241C16.3934 57.7 12.5947 50.7289 13.1473 42.3495C13.8972 30.9777 22.2633 24.4638 29.655 16.9464C32.5888 13.9626 35.1616 10.6976 38.3215 7.92616Z"/>
</svg>
