<?xml version="1.0" encoding="utf-8" ?>
<svg xmlns="http://www.w3.org/2000/svg" xmlns:xlink="http://www.w3.org/1999/xlink" width="1024" height="1024">
	<path fill="#FAF2E4" d="M0 0L1024 0L1024 1024L0 1024L0 0Z"/>
	<path fill="#F9E7CB" d="M199.393 603.603Q207.649 631.609 216.283 659.501C194.714 670.95 174.549 685.092 153.665 697.727Q142.91 704.239 131.874 710.264C126.572 713.178 120.999 715.921 115.981 719.296C113.545 720.935 110.151 722.982 109.212 725.915C107.531 731.168 108.962 749.422 111.632 753.881C111.979 754.461 112.051 754.476 112.49 754.858C113.748 754.636 114.19 754.065 114.847 753.012C117.659 748.506 114.914 736.126 114.33 730.93C125.243 736.154 136.492 740.739 147.59 745.556Q180.477 759.845 213.544 773.71C232.015 781.491 250.033 790.355 268.5 798.153C311.021 816.109 354.032 833.229 396.057 852.318C393.158 857.808 382.533 862.799 377.181 865.409C364.169 871.755 350.192 876.809 335.724 878.4C308.257 881.42 245.125 868.986 217.903 859.534C192.163 850.596 168.759 836.599 146.363 821.256C121.631 804.312 94.8591 784.707 81.5446 756.994C71.4178 735.916 68.9373 710.468 76.9319 688.23C92.6731 644.444 133.359 627.719 173.588 612.769C180.585 610.169 192.55 606.948 198.606 603.996C198.87 603.868 199.131 603.734 199.393 603.603Z"/>
	<path fill="#F9E7CB" d="M629.261 217.618C629.474 217.682 629.685 217.754 629.901 217.809C634.04 218.862 657.048 212.173 662.878 210.776C692.868 203.587 722.54 195.934 753.083 191.386C797.557 184.765 832.016 184.509 872.56 206.426C892.647 217.285 909.49 231.991 922.25 250.978Q923.253 252.467 924.218 253.981Q925.184 255.494 926.111 257.031Q927.039 258.568 927.928 260.128Q928.817 261.687 929.667 263.269Q930.517 264.85 931.328 266.452Q932.138 268.053 932.909 269.675Q933.679 271.296 934.41 272.936Q935.14 274.576 935.829 276.234Q936.518 277.892 937.166 279.566Q937.813 281.24 938.42 282.93Q939.026 284.62 939.589 286.324Q940.153 288.029 940.675 289.747Q941.196 291.464 941.675 293.195Q942.153 294.925 942.589 296.667Q943.024 298.408 943.416 300.16Q943.808 301.912 944.157 303.673Q944.505 305.434 944.81 307.203Q945.114 308.973 945.375 310.749Q945.636 312.525 945.852 314.307Q946.069 316.089 946.241 317.876Q946.413 319.663 946.541 321.454Q946.668 323.244 946.751 325.038Q946.835 326.831 946.873 328.626Q946.912 330.421 946.906 332.216Q946.9 334.011 946.85 335.806Q946.799 337.6 946.704 339.393Q946.609 341.186 946.47 342.975Q946.33 344.765 946.146 346.551Q945.962 348.337 945.734 350.117Q945.506 351.898 945.234 353.673Q944.962 355.447 944.645 357.214Q944.329 358.981 943.969 360.74C937.445 393.52 923.672 424.21 913.087 455.744C910.948 462.114 902.918 491.037 900.095 494.63C877.964 473.047 844.44 461.574 814.616 456.438C815.573 431.135 817.058 389.414 802.853 367.719C787.137 343.717 740.067 322.014 713.591 309.97C702.083 304.735 689.668 300 678.934 293.291C674.43 290.476 670.944 286.279 667.491 282.312C653.312 266.022 647.141 257.289 624.878 252.747C622.799 247.371 620.824 242.054 619.234 236.507C625.065 231.057 627.522 225.261 629.261 217.618Z"/>
	<path fill="#2E2925" d="M482.364 130.563C500.987 110.821 522.549 95.3827 550.677 94.5559C560.985 94.2529 571.148 96.2686 578.794 103.707C579.85 104.735 580.822 105.863 581.782 106.981C596.262 108.353 604.276 110.048 613.91 121.806C625.476 135.923 629.966 156.84 628.088 174.729C627.652 178.884 626.816 182.966 625.976 187.053C630.303 197.718 630.359 206.267 629.261 217.618C627.522 225.261 625.065 231.057 619.234 236.507C620.824 242.054 622.799 247.371 624.878 252.747C647.141 257.289 653.312 266.022 667.491 282.312C670.944 286.279 674.43 290.476 678.934 293.291C689.668 300 702.083 304.735 713.591 309.97C740.067 322.014 787.137 343.717 802.853 367.719C817.058 389.414 815.573 431.135 814.616 456.438C844.44 461.574 877.964 473.047 900.095 494.63C903.501 498.33 906.825 501.964 909.542 506.221C920.266 523.017 922.232 544.957 921.448 564.401C919.599 610.252 904.474 692.412 881.439 732.368C870.834 750.764 855.819 764.614 841.939 780.348C832.745 790.77 824.216 801.929 813.957 811.361C808.525 816.355 802.545 820.855 795.237 822.531C795.38 829.888 795.741 862.145 793.212 866.864C791.966 867.581 791.774 867.503 790.319 867.389C787.518 864.547 787.977 845.142 788.017 840.25C788.148 824.479 789.891 808.76 791 793.039Q779.987 803.107 769.092 813.302Q768.455 832.618 768.405 851.944C768.347 859.22 768.689 866.748 767.988 873.976C767.851 875.395 767.754 876.582 766.859 877.746C765.861 877.543 765.755 877.286 765.194 876.464C764.273 875.116 763.655 872.992 763.52 871.36C763.226 867.813 763.636 864.002 763.621 860.419C763.562 846.089 764.318 831.813 764.378 817.505C753.956 827.425 668.359 909.204 663.473 910.313C662.3 909.823 662.092 909.749 661.35 908.734C661.33 907.398 661.896 906.478 662.804 905.54C664.329 903.965 666.209 902.584 667.873 901.144C667.675 900.854 667.132 900.325 666.807 900.209C664.956 899.546 662 899.663 660.019 899.466C653.763 898.844 644.829 898.446 639.031 896.218Q631.747 902.855 624.894 909.937C622.357 912.58 619.875 915.835 617.065 918.151C616.181 918.88 615.855 918.885 614.754 918.982C613.873 918.457 613.189 917.993 612.477 917.253L611.848 916.825C608.941 916.879 594.866 915.873 593.836 916.571C593.789 917.043 593.733 917.684 593.651 918.135C593.403 919.502 593.423 919.692 592.326 920.43C586.498 920.46 566.248 913.32 559.406 911.243L523.054 900.131C509.252 896.043 495.384 892.158 481.834 887.273Q450.591 875.798 419.948 862.805C411.935 859.416 404.113 855.599 396.057 852.318C354.032 833.229 311.021 816.109 268.5 798.153C250.033 790.355 232.015 781.491 213.544 773.71Q180.477 759.845 147.59 745.556C136.492 740.739 125.243 736.154 114.33 730.93C114.914 736.126 117.659 748.506 114.847 753.012C114.19 754.065 113.748 754.636 112.49 754.858C112.051 754.476 111.979 754.461 111.632 753.881C108.962 749.422 107.531 731.168 109.212 725.915C110.151 722.982 113.545 720.935 115.981 719.296C120.999 715.921 126.572 713.178 131.874 710.264Q142.91 704.239 153.665 697.727C174.549 685.092 194.714 670.95 216.283 659.501Q207.649 631.609 199.393 603.603C195.997 592.784 193.103 581.812 189.569 571.042C176.84 575.972 164.965 582.049 150.961 582.229C138.81 582.385 127.687 577.639 119.077 569.13C114.324 564.434 103.575 548.478 103.571 541.994C105.044 540.706 115.503 544.614 118.199 545.079C136.868 548.301 159.732 540.001 177.628 534.503C176.814 532.168 175.771 529.926 174.771 527.667C144.876 533.582 126.231 537.407 97.4752 524.245C91.796 494.8 104.209 438.519 117.294 411.827C119.749 414.946 121.672 417.427 125.18 419.424C137.042 419.875 148.985 420.133 160.762 421.728C184.045 424.882 209.349 436.906 223.746 456.014C230.898 465.506 233.07 475.357 231.426 487.034C243.267 489.178 255.269 491.783 267.201 493.27C268.391 493.419 268.25 493.638 269.232 492.871C267.241 487.181 257.246 477.709 253.182 472.205C239.614 453.833 224.447 435.601 204.448 423.893C181.34 410.363 138.743 407.954 123.716 385.819C109.091 364.278 105.804 307.614 110.675 282.261C120.872 229.18 173.46 193.672 215.313 165.432C240.37 148.525 274.607 128.017 305.238 128.131C314.415 128.165 323.459 130.273 332.429 132.009C347.361 128.106 395.585 140.553 412.107 145.348C420.46 147.772 428.72 150.751 436.954 153.555C442.842 155.56 449.895 157.445 455.283 160.543Q456.649 161.335 457.951 162.228L459.609 161.631C460.351 159.713 460.051 157.118 460.31 155.048C461.476 145.724 465.634 136.883 474.71 132.969C477.113 131.933 479.843 131.301 482.364 130.563Z"/>
	<path fill="#7F7F7A" d="M559.871 157.411C561.112 158.854 562.607 161.835 562.714 163.723L561.938 162.95C560.441 162.01 558.7 161.391 557.076 160.692C557.245 159.389 558.888 158.316 559.871 157.411Z"/>
	<path fill="#F9E7CB" d="M464.756 722.119C465.824 722.622 465.984 722.774 466.668 723.739C466.61 725.655 464.949 727.417 463.87 728.934L463.562 729.38C462.802 728.55 462.723 726.89 462.712 725.768C462.694 723.749 463.379 723.334 464.756 722.119Z"/>
	<path fill="#4F453E" d="M559.135 296.954C560.956 296.459 562.295 296.048 564.05 297.075C564.876 297.558 564.895 297.873 565.313 298.675C565.066 299.672 565.126 300.231 564.095 300.696C563.269 301.069 562.14 301.217 561.249 301.421C561.333 301.038 561.506 300.334 561.5 299.957C561.479 298.521 560.114 297.807 559.135 296.954Z"/>
	<path fill="#FAF2E4" d="M444.016 606.688C444.828 606.586 445.661 606.459 446.48 606.441C447.718 606.413 448.282 606.459 449.193 607.3C449.268 608.985 448.242 610.427 447.477 611.873L446.808 612.337C446.428 611.983 446.235 611.83 445.904 611.362C444.986 610.061 443.735 608.23 444.016 606.688Z"/>
	<path fill="#F9E7CB" d="M460.324 712.623C460.648 712.693 460.973 712.757 461.295 712.832C462.878 713.2 464.376 714.106 465.11 715.617C465.61 716.647 465.518 717.504 465.096 718.5C464.063 719.101 463.749 719.51 462.526 719.46C461.789 718.77 461.59 718.346 461.419 717.385C461.132 715.772 460.73 714.209 460.324 712.623Z"/>
	<path fill="#5A896D" d="M531.904 364.388L534.062 365.893C531.967 368.66 530.176 371.749 527.822 374.282L527.166 373.649C527.342 371.275 527.579 369.535 529.331 367.792C530.292 366.837 530.951 365.977 531.651 364.817C531.737 364.675 531.82 364.531 531.904 364.388Z"/>
	<path fill="#F9E7CB" d="M566.294 745.497C567.326 746.889 567.988 748.906 568.718 750.496C564.461 750.323 560.183 750.425 555.923 750.442L554.611 749.965C557.023 748.443 563.024 747.049 566.294 745.497Z"/>
	<path fill="#D3CBC1" d="M557.301 741.274L556.966 741.308C557.667 741.238 558.06 741.142 558.733 741.39C555.487 743.416 545.416 745.305 541.37 745.965C540.282 745.712 539.573 745.52 538.674 744.845C538.781 744.728 538.875 744.596 538.997 744.494C541.729 742.223 553.581 741.382 557.301 741.274Z"/>
	<path fill="#5A896D" d="M634.598 279.652C638.119 280.844 643.777 282.335 645.484 285.981C646.454 288.053 645.68 289.963 644.927 291.941C642.874 287.647 637.803 283.156 634.598 279.652Z"/>
	<path fill="#FAF2E4" d="M546.356 730.061C547.396 729.849 547.32 729.899 548.237 730.184L548.309 729.675L549.024 729.72C546.547 732.379 540.462 733.768 537.223 736.015C534.62 737.82 532.181 740.086 531.744 743.382C531.53 744.999 531.651 746.591 532.785 747.857C533.378 748.518 534.058 749.149 534.678 749.789C531.954 748.791 529.697 748.173 528.219 745.545C528.07 744.501 528.026 743.882 528.393 742.862C530.444 737.165 541.212 732.554 546.356 730.061Z"/>
	<path fill="#96C294" d="M556.677 732.651C559.186 732.161 562.01 732.292 564.571 732.191C557.394 734.895 549.838 736.468 542.609 739.043L537.391 740.942C543.249 735.128 548.79 733.969 556.677 732.651Z"/>
	<path fill="#FAF2E4" d="M581.234 677.484L582.292 676.602C583.265 676.953 583.022 676.659 583.439 677.528C584.943 680.655 580.443 701.078 578.714 704.356C578.58 704.611 578.364 704.814 578.189 705.042C578.015 703.65 579.704 694.471 579.995 692.064C580.104 687.474 581.996 681.902 581.234 677.484Z"/>
	<path fill="#7F7F7A" d="M585.201 116.29C585.309 116.407 585.415 116.525 585.524 116.64C585.707 116.832 585.896 117.017 586.077 117.21C589.819 121.186 595.748 123.823 600.163 127.139C602.404 128.822 606.44 131.66 606.836 134.516C602.855 130.563 597.296 125.916 591.937 124.071C589.317 123.169 586.674 122.865 584.35 121.239C583.76 119.994 584.808 117.669 585.201 116.29Z"/>
	<path fill="#D3CBC1" d="M549.203 685.902C551.638 685.697 553.39 686.012 555.498 687.238C561.364 690.652 563.942 696.852 565.522 703.111C563.119 701.236 560.821 696.984 558.676 694.542C555.84 691.313 552.506 688.631 549.203 685.902Z"/>
	<path fill="#96C294" d="M548.866 691.703C549.514 691.933 550.138 692.155 550.686 692.584C554.704 695.726 560.308 708.531 561.187 713.665C556.342 709.892 550.482 697.76 548.866 691.703Z"/>
	<path fill="#D3CBC1" d="M586.51 738.054C590.767 737.648 604.575 738.567 608.063 740.233C609.012 740.687 609.254 740.706 609.599 741.734C606.074 742.559 600.797 741.229 597.001 741.121L596.519 741.206C597.117 741.597 596.877 741.536 597.522 741.63C600.286 742.031 602.995 742.558 605.734 743.112C601.961 743.688 596.69 743.089 593.273 741.425C590.9 740.27 588.624 739.736 586.51 738.054Z"/>
	<path fill="#D3CBC1" d="M575.292 699.589C575.822 692.531 576.704 683.265 581.234 677.484C581.996 681.902 580.104 687.474 579.995 692.064L578.906 692.412C578.334 695.127 577.933 697.817 577.581 700.567C577.129 705.498 576.964 710.468 576.591 715.41C575.301 710.501 574.509 704.635 575.292 699.589Z"/>
	<path fill="#D3CBC1" d="M601.562 722.258C606.089 720.378 611.169 717.616 615.96 716.705L616.509 717.159C615.757 719.299 614.361 721.089 612.299 722.093C611.517 722.473 610.701 722.785 609.888 723.091C602.502 726.209 592.192 727.586 584.2 728.57C589.875 726.221 595.832 724.508 601.562 722.258Z"/>
	<path fill="#D3CBC1" d="M540.491 712.102C549.788 711.798 557.917 717.135 565.19 722.408C555.909 719.748 547.494 714.947 537.572 715.131L537.878 716.264C541.657 720.427 547.858 722.264 552.678 725.029L552.702 725.326C547.863 723.614 537.999 720.873 535.173 716.566C534.969 715.053 534.995 715.03 535.765 713.707C537.259 712.623 538.702 712.431 540.491 712.102Z"/>
	<path fill="#7F7F7A" d="M605.616 140.281C606.117 140.613 606.292 140.697 606.758 141.192C616.378 151.431 617.263 168.877 617.986 182.059C616.689 182.25 615.709 182.351 614.392 182.175C613.331 179.246 614.047 174.704 613.948 171.527C613.604 160.42 610.902 150.038 605.616 140.281Z"/>
	<path fill="#F9E7CB" d="M608.814 692.027C609.618 692.213 610.353 692.527 611.121 692.823C611.615 693.891 611.738 694.157 611.45 695.359C609.368 704.047 592.219 715.09 585.184 719.556C587.296 715.896 597.529 708.785 601.175 705.856Q602.459 704.908 603.697 703.901C605.716 702.247 607.703 700.584 608.002 697.841L607.296 697.164C598.776 696.945 591 706.252 585.336 711.401Q585.804 710.546 586.312 709.714Q586.82 708.882 587.367 708.076Q587.914 707.269 588.499 706.489Q589.084 705.709 589.705 704.958Q590.326 704.207 590.982 703.486Q591.638 702.765 592.328 702.076Q593.017 701.387 593.739 700.732Q594.46 700.077 595.212 699.456Q595.964 698.836 596.744 698.252Q597.524 697.668 598.332 697.122Q599.139 696.575 599.971 696.068Q600.804 695.561 601.659 695.093Q602.514 694.626 603.391 694.2Q604.268 693.774 605.164 693.39Q606.06 693.006 606.973 692.665Q607.886 692.324 608.814 692.027Z"/>
	<path fill="#FAF2E4" d="M120.093 420.651C124.584 422.152 128.909 422.669 133.592 423.181C133.544 428.432 132.623 432.797 131.081 437.808L129.869 440.452C126.417 437.364 121.845 425.286 120.093 420.651Z"/>
	<path fill="#F9E7CB" d="M557.508 295.733L559.135 296.954C560.114 297.807 561.479 298.521 561.5 299.957C561.506 300.334 561.333 301.038 561.249 301.421C558.74 304.477 558.447 309.12 555.494 312.049C553.932 313.598 551.186 314.793 548.975 314.728C547.821 314.694 547.711 314.548 546.966 313.762C546.385 308.024 553.626 303.353 555.22 297.957C555.278 297.76 555.324 297.56 555.376 297.362L557.508 295.733Z"/>
	<path fill="#7F7F7A" d="M570.144 144.739C572.071 146.301 574.06 147.855 575.807 149.62C584.293 158.192 593.033 177.773 592.943 189.756L592.515 189.994C586.779 177.552 582.398 159.247 571.515 150.416C570.533 149.618 569.737 148.934 568.928 147.961C568.736 146.347 569.256 146.053 570.144 144.739Z"/>
	<path fill="#F9E7CB" d="M515.292 630.185C515.608 630.134 515.922 630.065 516.241 630.032C521.334 629.506 524.566 636.787 527.491 640.161C528.642 641.49 530.04 642.626 531.38 643.758C527.591 642.444 523.624 641.524 519.75 640.481Q509.395 637.351 498.909 634.695C504.226 631.859 509.387 631.009 515.292 630.185Z"/>
	<path fill="#FAF2E4" d="M650.196 269.223C655.831 276.066 668.533 287.541 670.67 295.383C671.446 298.228 671.126 301.7 670.893 304.603C668.453 301.652 667.256 297.628 665.049 294.46C661.487 289.348 656.191 285.771 651.808 281.425C652.2 276.95 651.385 273.47 650.196 269.223Z"/>
	<path fill="#7F7F7A" d="M626.617 258.286C631.946 259.552 637.398 261.434 641.642 265.016C646.286 268.936 648.087 273.529 648.577 279.394C648.11 279.276 647.959 279.25 647.455 279.052C635.598 274.397 631.822 269.767 626.617 258.286Z"/>
	<path fill="#7F7F7A" d="M565.599 142.131C565.73 142.599 565.538 142.988 565.24 143.381C563.542 145.617 560.105 147.548 557.725 148.975C541.325 158.803 520.435 163.448 501.418 164.247L501.449 163.979C503.705 162.238 508.582 161.562 511.448 160.78C530.154 155.676 548.05 150.495 565.599 142.131Z"/>
	<path fill="#FAF2E4" d="M520.687 305.95C520.802 304.842 520.854 303.586 521.149 302.514C521.597 300.888 522.826 300.062 524.276 299.403C531.618 296.065 549.941 292.752 557.508 295.733L555.376 297.362C550.917 299.308 546.469 300.865 541.692 301.851C538.042 302.604 531.995 302.683 528.798 304.221C528.414 304.406 528.198 304.825 527.898 305.127C527.81 307.514 530.85 311.1 532.19 313.171C530.415 313.488 522.664 307.224 520.687 305.95Z"/>
	<path fill="#FAF2E4" d="M542.376 683.428L542.921 684.195C542.479 684.986 542.649 684.914 542.058 685.348C531.416 693.175 519.339 699.669 508.222 706.837C495.981 714.73 484.192 723.464 471.764 731.034C468.292 733.149 464.8 734.897 461.046 736.453L460.701 736.153C467.497 727.151 528.271 691.761 542.376 683.428Z"/>
	<path fill="#D3CBC1" d="M358.942 358.786C366.003 358.736 373.085 358.934 380.147 359.015C375.972 364.069 369.076 367.591 363.835 371.566Q358.171 376.093 352.441 380.535C353.749 373.103 356.602 365.941 358.942 358.786Z"/>
	<path fill="#7F7F7A" d="M566.004 150.393C566.034 150.414 566.066 150.433 566.095 150.456Q567.321 151.46 568.454 152.568Q569.587 153.676 570.618 154.879Q571.649 156.082 572.57 157.372Q573.492 158.661 574.296 160.026C579.595 168.943 582.053 179.04 586.378 188.402C587.993 191.897 592.408 198.674 592.705 202.149L591.892 201.745C587.937 196.799 584.19 191.843 581.062 186.313C574.931 175.469 570.56 164 562.516 154.324L566.004 150.393Z"/>
	<path fill="#D3CBC1" d="M236.506 293.934C240.477 300.918 244.956 307.311 249.737 313.746C245.345 320.097 241.83 326.573 235.185 330.87Q236.152 312.413 236.506 293.934Z"/>
	<path fill="#FAF2E4" d="M613.52 746.24C613.625 746.136 613.732 746.034 613.836 745.929C615.014 744.736 615.862 743.533 615.807 741.752C615.76 740.275 614.72 739.141 613.579 738.335C606.106 733.058 593.654 735.398 588.384 732.829C596.377 731.398 611.667 733.332 618.458 737.937C619.631 738.732 620.258 739.455 620.893 740.706C620.877 742.227 620.779 743.11 619.68 744.237C618.207 745.748 615.76 746.671 613.874 747.578C609.481 749.692 605.078 751.493 600.403 752.895C580.043 758.996 553.769 759.711 534.637 749.34C540.571 750.542 546.313 752.574 552.232 753.831C559.652 755.406 567.829 755.993 575.415 756.26C577.979 756.351 582.876 756.554 584.631 754.313C586.088 752.454 585.119 748.286 584.872 746.092C594.498 749.514 603.969 749.98 613.52 746.24Z"/>
	<path fill="#7F7F7A" d="M579.249 130.719C584.425 134.354 587.707 139.385 590.179 145.123C595.411 157.27 597.413 170.541 599.341 183.517C599.777 186.455 601.055 190.335 599.963 193.096L599.687 193.179L599.076 192.448C598.091 186.53 597.509 180.714 595.892 174.894C592.872 164.024 583.55 144.702 575.312 136.464C576.732 134.623 577.974 132.662 579.249 130.719Z"/>
	<path fill="#7F7F7A" d="M587.316 111.607C589.064 111.486 590.843 111.435 592.558 111.86C600.564 113.843 607.989 120.519 612.13 127.485C619.774 140.345 626.188 163.615 622.402 178.392C621.893 176.809 621.964 175.038 621.89 173.377C621.21 162.805 619.405 152.198 614.179 142.837C612.466 139.769 609.825 136.994 608.512 133.777L608.703 133.637L611.349 134.477L611.881 134.153C610.013 128.083 600.307 121.946 595.116 118.591C592.751 117.063 589.18 115.672 587.558 113.353C586.965 112.506 587.159 112.536 587.316 111.607Z"/>
	<path fill="#7F7F7A" d="M603.374 375.826C607.176 378.196 611.127 380.929 614.541 383.828C603.416 389.912 589.177 405.091 580.578 414.757C578.338 417.712 575.93 420.564 573.6 423.451C582.923 407.192 592.094 390.823 603.374 375.826Z"/>
	<path fill="#7F7F7A" d="M723.473 567.229C740.81 574.174 755.355 585.584 763.665 602.608C759.824 611.543 764.555 618.83 755.799 629.966C756.351 622.277 757.111 614.661 755.705 607.013C752.345 588.733 737.882 577.175 723.473 567.229Z"/>
	<path fill="#FAF2E4" d="M763.665 602.608C767.013 608.698 769.654 615.502 773.425 621.291C769.696 625.883 765.407 630.118 760.255 633.119C754.01 636.757 728.212 644.007 720.809 644.295C720.323 644.314 720.169 644.259 719.746 644.167C719.939 643.148 720.183 642.466 720.699 641.566C728.179 641.859 736.044 640.194 742.908 637.272C746.684 629.901 747.337 621.769 749.712 613.993L750.53 615.999C750.533 620.678 751.07 626.236 749.751 630.736C749.404 631.917 747.943 635.069 748.479 636.034C750.35 635.901 752.315 635.652 753.674 634.191C754.678 633.11 755.368 631.354 755.799 629.966C764.555 618.83 759.824 611.543 763.665 602.608Z"/>
	<path fill="#D3CBC1" d="M378.452 364.935C379.459 371.389 377.443 382.618 377.505 389.97C367.587 391.783 357.548 391.005 347.617 389.771L346.799 389.427C347.375 387.835 374.783 367.624 378.452 364.935Z"/>
	<path fill="#FAF2E4" d="M781.819 674.239C783.784 670.873 786.458 668.003 787.639 664.214C792.416 648.886 787.936 630.699 787.172 615.028C787.134 614.248 787.361 613.727 787.747 613.072Q793.247 635.498 797.722 658.151C799.131 665.208 800.908 672.365 801.84 679.489C795.123 677.855 788.503 675.982 781.819 674.239Z"/>
	<path fill="#7F7F7A" d="M405.406 466.739C422.832 475.044 443.425 499.144 452.104 516.497C450.179 514.545 448.456 512.378 446.683 510.289C442.822 505.482 438.589 500.593 434.071 496.398C423.723 486.787 410.157 482.482 396.199 482.942C398.852 477.1 401.56 471.887 405.406 466.739Z"/>
	<path fill="#7F7F7A" d="M397.193 487.048Q400.475 486.962 403.734 487.35Q406.994 487.738 410.164 488.591C425.61 492.698 438.219 503.759 446.148 517.433C442.856 514.85 439.683 512.08 436.49 509.375C434.351 507.828 432.229 506.393 429.85 505.235C415.721 498.353 401.194 499.154 386.668 504.139C389.648 498.643 392.698 491.41 397.193 487.048Z"/>
	<path fill="#7F7F7A" d="M583.025 124.973C585.37 125.479 587.599 126.074 589.84 126.937C593.885 128.496 599.421 131.29 601.24 135.429C600.922 136.188 600.151 137.671 600.181 138.48C600.282 141.157 605.427 149.927 606.491 154.151C608.953 163.926 609.528 173.882 610.266 183.893C608.811 184.631 607.443 185.494 606.058 186.351L602.359 189.893C603.531 175.549 599.834 147.466 590.858 135.919C589.246 133.845 581.62 128.119 581.361 127.487L583.025 124.973Z"/>
	<path fill="#D3CBC1" d="M251.252 315.255C255.953 319.599 260.649 324.498 264.868 329.316C255.54 340.146 244.83 349.842 234.246 359.424L235.408 340.768C235.538 338.499 235.274 335.899 235.651 333.696C243.38 329.495 247.055 322.611 251.252 315.255Z"/>
	<path fill="#D3CBC1" d="M331.458 360.236L331.814 360.684C330.652 363.624 329.082 366.44 327.728 369.301C322.835 379.641 320.195 393.653 324.146 404.694C322.341 406.81 319.232 411.345 316.515 412.073L315.57 411.151C310.521 397.301 309.287 378.723 312.168 364.312C318.503 362.428 324.927 361.214 331.458 360.236Z"/>
	<path fill="#FAF2E4" d="M497.433 241.21C499.085 241.01 500.368 240.829 501.979 241.31C503.76 242.593 504.386 244.694 505.244 246.645C500.575 247.522 494.911 247.838 490.546 249.46L490.385 250.137C494.486 252.684 500.788 250.268 505.465 251.509L505.461 251.914C502.52 252.757 498.676 251.879 496.068 253.231C496.65 254.436 497.69 255.197 498.963 255.574C501.562 256.345 503.926 255.096 506.202 253.974C506.846 259.238 507.737 264.515 508.06 269.809C508.315 273.996 508.059 278.166 508.322 282.358C509.493 284.526 510.766 285.852 512.647 287.452C511.475 288.994 509.622 291.108 509.21 292.984C508.885 294.465 509.531 292.56 508.763 294.558C504.735 293.429 492.283 265.127 490.291 259.807C488.163 254.122 488.266 246.724 484.067 242.189C488.523 241.977 492.984 241.55 497.433 241.21Z"/>
	<path fill="#FAF2E4" d="M403.637 504.706C415.539 503.803 426.055 507.122 435.665 514.146C445.111 521.051 452.516 531.619 456.14 542.703C456.69 544.384 457.6 546.53 457.716 548.296C457.811 549.726 457.449 551.052 456.567 552.197C455.105 550.193 454.374 546.987 453.33 544.668C451.922 541.54 450.245 538.621 448.473 535.688C443.075 527.394 435.16 520.504 425.875 516.953C416.684 513.437 402.65 511.348 393.482 515.424Q385.748 514.604 378.052 513.483C386.312 508.486 393.989 505.565 403.637 504.706Z"/>
	<path fill="#FAF2E4" d="M514.341 320.327L520.264 327.889C519.392 329.39 518.695 330.974 517.967 332.549C494.591 340.136 468.185 342.598 451.697 362.972C450.896 363 451.153 363.147 450.816 362.895C457.527 346.362 465.587 340.662 481.632 333.86C487.217 331.492 492.79 329.048 498.486 326.955C503.604 325.074 509.175 323.621 513.795 320.684C513.979 320.568 514.159 320.446 514.341 320.327Z"/>
	<path fill="#D3CBC1" d="M278.333 374.923C278.538 376.907 278.041 378.835 277.521 380.74C273.282 396.25 264.182 406.617 250.226 414.535C247.933 415.836 243.446 418.417 240.883 417.716L240.397 416.682L237.388 402.852C251.787 395.054 266.886 386.749 278.333 374.923Z"/>
	<path fill="#D3CBC1" d="M279.302 475.31C298.09 483.142 317.098 486.676 337.133 482.081C330.684 490.612 295.506 492.732 292.426 497.716C285.595 496.876 278.212 495.911 271.615 493.941C274.898 487.946 277.157 481.772 279.302 475.31Z"/>
	<path fill="#D3CBC1" d="M427.692 608.6C427.741 608.339 427.797 608.079 427.839 607.817C428.379 604.387 426.349 598.548 425.409 595.107L425.767 594.791L426.64 595.795L427.792 595.637C431.046 599.055 429.728 605.927 432.629 608.832C434.164 612.569 434.724 617.66 435.638 621.665C438.284 633.258 440.749 644.857 443.212 656.487C447.967 678.945 453.871 701.511 457.502 724.166C457.859 726.395 458.618 730.016 457.787 732.104C456.348 735.716 450.406 737.337 447.172 738.63C448.694 737.199 450.183 735.68 451.359 733.944C452.961 731.578 453.494 729.077 453.275 726.252C452.345 714.271 447.457 698.503 444.64 686.52C441.497 673.145 439.132 659.586 436.164 646.169C433.395 633.646 429.942 621.228 427.692 608.6Z"/>
	<path fill="#7F7F7A" d="M558.912 153.018C559.128 153.156 558.976 153.036 559.116 153.562C553 157.9 547.581 163.084 540.742 166.343C538.415 167.452 535.04 169.049 532.505 168.029C532.346 167.965 532.197 167.878 532.041 167.807C531.183 167.413 530.468 167.178 529.507 167.232C525.946 167.431 522.185 168.308 518.656 168.868C509.901 170.258 501.065 171.805 492.218 172.47C488.897 172.719 485.286 173.037 481.997 172.433C477.54 171.616 466.294 166.106 463.423 167.152L463.27 168.224C464.303 170.593 465.95 172.28 467.924 173.92C481.081 184.851 498.774 180.225 514.229 178.861C504.402 182.857 492.407 184.12 481.887 183.45C478.501 182.939 475.191 182.386 471.916 181.355C467.302 179.903 459.277 174.811 454.616 175.917C453.665 176.142 452.686 176.785 452.239 177.661C451.553 179.007 451.66 180.317 452.109 181.709C453.553 186.185 457.086 187.68 460.991 189.573L454.175 188.316C452.628 187.13 451.035 185.747 449.856 184.192C448.241 182.059 447.409 179.343 447.938 176.683C449.424 169.226 459.475 164.614 466.263 163.975C474.376 163.212 482.328 166.468 490.312 167.501C510.652 170.133 541.26 163.894 558.912 153.018Z"/>
	<path fill="#FAF2E4" d="M116.561 422.283C118.932 424.71 122.58 434.524 124.375 438.157C129.395 448.316 135.689 457.752 140.871 467.816L131.892 465.927C122.619 463.981 114.177 460.342 105.086 458.013Q109.898 439.851 116.561 422.283Z"/>
	<path fill="#FAF2E4" d="M498.575 580.098C503.096 580.559 507.366 581.817 511.704 583.115C501.147 585.507 490.209 591.134 480.717 596.327C462.887 606.08 456.875 617.859 451.293 636.619L448.876 646.868L448.69 646.046C447.615 641.181 446.163 634.912 446.366 629.959C446.695 621.89 452.553 608.953 456.906 602.199C458.405 599.874 459.983 598.199 462.254 596.625C467.923 592.698 492.003 581.465 498.575 580.098Z"/>
	<path fill="#7F7F7A" d="M703.951 556.271C715.596 555.062 722.499 554.189 733.929 557.885C748.254 562.517 765.978 571.327 773.153 585.419C770.346 589.988 770.552 599.436 770.997 604.726C765.594 595.991 762.048 588 754.596 580.616C739.571 565.728 722.81 561.477 702.168 561.479L703.951 556.271Z"/>
	<path fill="#D3CBC1" d="M343.609 359.285C347.767 358.97 351.982 358.993 356.151 358.891C353.328 366.555 350.372 373.954 349.977 382.202C343.9 386.712 338.264 391.875 332.653 396.94C330.347 398.99 328.136 401.17 325.89 403.286C324.043 383.256 328.52 377.196 335.758 359.557C338.374 359.494 340.993 359.377 343.609 359.285Z"/>
	<path fill="#D3CBC1" d="M276.884 352.467C279.447 355.955 279.009 365.476 279.186 369.919C266.538 382.607 252.332 390.884 236.812 399.464C235.829 393.642 235.112 387.77 234.319 381.92C250.948 376.556 267.153 367.269 276.884 352.467Z"/>
	<path fill="#D3CBC1" d="M177.493 377.452C191.318 393.691 213.942 403.527 234.751 406.866C235.472 410.868 236.444 414.848 237.308 418.823C222.376 419.916 204.995 414.87 193.211 405.573C183.961 398.275 178.902 389.102 177.493 377.452Z"/>
	<path fill="#D3CBC1" d="M299.509 437.837C301.115 439.063 302.496 440.605 304.16 441.745C313.683 448.271 354.607 444.487 366.846 442.547C365.357 446.082 363.342 452.4 360.415 454.88C342.327 455.831 328.546 460.905 309.961 456.625C303.55 455.149 297.721 453.008 292.183 449.431L299.509 437.837Z"/>
	<path fill="#D3CBC1" d="M266.477 331.843C270.597 334.484 274.905 345.211 276.592 349.76C272.944 352.325 270.201 356.323 267.024 359.438C259.609 366.708 250.439 371.771 241.136 376.204L234.258 379.219C233.892 373.726 233.969 368.237 233.997 362.736C246.051 354.401 257.016 342.971 266.477 331.843Z"/>
	<path fill="#D3CBC1" d="M343.025 391.847C354.529 394.015 365.352 394.35 376.961 393.17C375.871 400.02 375.659 406.988 374.43 413.832C369.136 415.573 364.179 416.382 358.624 416.764C347.097 417.929 334.064 414.553 323.773 409.549C329.913 403.423 336.518 397.579 343.025 391.847Z"/>
	<path fill="#D3CBC1" d="M308.334 365.518C309.337 366.604 307.608 375.365 307.501 377.339Q307.392 379.81 307.397 382.283Q307.402 384.756 307.522 387.226Q307.642 389.696 307.877 392.158Q308.112 394.62 308.46 397.069Q308.809 399.517 309.27 401.947Q309.732 404.376 310.306 406.782Q310.88 409.187 311.565 411.564Q312.25 413.94 313.045 416.282C308.76 420.949 304.754 425.699 300.9 430.724L298.534 426.258C293.301 416.542 289.738 405.005 288.492 394.044C287.943 389.211 287.878 384.316 287.16 379.506L287.085 379.028C293.51 373.263 300.482 369.047 308.334 365.518Z"/>
	<path fill="#FAF2E4" d="M104.67 460.594C117.533 465.548 129.932 468.704 143.391 471.489C147.741 478.287 152.131 485.619 155.42 492.982L154.98 493.449L153.382 493.157C136.779 491.659 115.575 491.286 101.062 482.265C101.826 474.916 102.983 467.783 104.67 460.594Z"/>
	<path fill="#F9E7CB" d="M485.855 524.523C489.027 528.483 498.102 564.948 499.448 571.87C491.468 570.404 483.567 568.094 475.708 566.073Q466.314 563.823 457.014 561.21C458.965 556.936 460.496 552.474 462.701 548.314C467.935 538.441 477.566 531.698 485.855 524.523Z"/>
	<path fill="#FAF2E4" d="M612.981 187.518C615.93 187.338 618.003 187.179 620.503 189C623.733 191.351 625.009 195.136 625.652 198.921C627.221 208.148 625.76 222.483 620.048 230.191C616.322 235.218 611.565 236.206 605.731 236.984C604.694 238.397 605.053 241.632 605.014 243.388L604.423 245.647C604.009 244.798 604.079 245.085 603.91 244.286C603.349 241.641 602.86 238.99 602.1 236.392C601.248 233.482 599.516 230.078 599.286 227.109L601.13 227.966C601.4 226.388 599.456 224.267 598.565 222.89C598.151 217.159 597.447 211.226 598.967 205.599C600.936 198.312 606.412 191.178 612.981 187.518Z"/>
	<path fill="#2E2925" d="M618.003 193.114C619.02 193.379 619.084 193.383 619.781 194.051C617.845 196.857 609.915 197.823 606.399 206.495C604.692 210.706 605.266 215.381 607.142 219.445C608.155 221.639 609.594 224.175 611.961 224.963C612.332 224.734 612.579 224.614 612.877 224.25C616.348 220.021 611.435 216.033 611.034 211.851Q611.261 211.466 611.521 211.103Q611.782 210.74 612.074 210.402Q612.366 210.065 612.688 209.754Q613.009 209.444 613.357 209.164Q613.705 208.883 614.077 208.636Q614.448 208.388 614.841 208.174Q615.234 207.961 615.644 207.784Q616.054 207.607 616.478 207.467L616.783 208.166L615.887 209.246C615.279 210.02 614.849 210.727 614.427 211.616C614.604 214.196 616.186 215.94 616.989 218.305C617.648 220.249 617.394 222.248 616.451 224.05C615.552 225.768 614.127 227.002 612.248 227.519C610.639 227.961 609.028 227.775 607.614 226.871C604.619 224.958 603.225 220.743 602.584 217.446C601.437 211.549 602.817 205.856 606.206 200.93C609.16 196.634 612.871 193.99 618.003 193.114Z"/>
	<path fill="#D3CBC1" d="M255.868 415.599C258.568 418.36 260.387 422.946 262.798 426.118C270.157 435.798 278.379 442.482 288.103 449.549C285.39 454.128 280.336 467.241 277.338 470.278L276.256 469.967L276.006 469.834C255.202 458.585 248.26 443.55 241.787 421.658C246.923 420.097 251.375 418.575 255.868 415.599Z"/>
	<path fill="#FAF2E4" d="M405.005 517.124C413.784 517.692 422.778 519.246 430.478 523.738C442.93 531.002 450.219 544.237 453.843 557.711C451.051 561.322 447.823 564.554 444.665 567.842C440.454 571.982 436.157 574.784 430.837 577.296C427.572 562.767 424.374 547.27 419.455 533.246C416.377 524.475 413.481 521.221 405.005 517.124Z"/>
	<path fill="#FAF2E4" d="M675.566 303.364C675.454 301.271 675.425 299.135 675.137 297.059C688.208 303.929 701.766 309.588 715.17 315.745C739.491 326.918 768.184 341.251 788.804 358.527C784.657 359.828 780.748 361.275 776.949 363.406C754.82 345.384 729.418 333.269 703.515 321.767C694.404 317.721 684.657 314.469 676.018 309.485C675.962 307.433 675.765 305.405 675.566 303.364Z"/>
	<path fill="#D3CBC1" d="M186.222 347.867C188.386 350.732 190.055 354.135 192.274 357.074C202.088 370.07 214.591 380.494 231.178 382.858C231.926 389.873 232.913 396.874 233.771 403.877L226 401.568C206.927 395.346 189.394 388.28 177.081 371.582C178.108 363.207 182.102 355.118 186.222 347.867Z"/>
	<path fill="#FAF2E4" d="M454.144 564.517C457.399 565.851 461.201 566.612 464.612 567.504C476.982 570.739 489.775 572.716 502.024 576.189C488.263 577.479 474.936 585.671 462.626 591.521C455.7 595.145 455.913 598.128 451.72 600.846C448.748 602.771 441.4 604.803 437.267 606.971C434.895 598.711 433.556 589.92 431.86 581.486C440.99 577.624 447.329 571.533 454.144 564.517Z"/>
	<path fill="#7F7F7A" d="M524.403 333.339C528.972 334.094 532.929 335.296 537.127 337.253C537.988 345.158 538.324 353.091 540.256 360.843C543.053 372.071 548.827 382.714 552.953 393.503C555.848 401.074 557.987 408.949 561.064 416.442C556.321 409.221 551.51 402.361 545.558 396.048C540.116 390.275 534.064 385.037 528.894 379.025C531.577 375.335 538.715 367.959 539.269 363.76L538.641 363.111C536.3 363.347 535.586 364.212 534.062 365.893L531.904 364.388C525.561 364.775 508.13 375.725 502.031 379.596Q507.13 368.832 511.698 357.832C514.466 351.127 516.872 343.818 520.654 337.611C521.682 335.923 522.933 334.644 524.403 333.339Z"/>
	<path fill="#D3CBC1" d="M290.506 452.02C290.849 452.29 291.191 452.563 291.546 452.818C310.945 466.756 337.801 460.995 359.433 457.368C355.602 463.787 351.353 468.695 345.642 473.515Q343.781 474.87 341.763 475.979Q339.745 477.088 337.603 477.933C320.405 484.654 296.369 479.541 280.093 472.406C283.22 465.415 286.539 458.579 290.506 452.02Z"/>
	<path fill="#7F7F7A" d="M738.913 662.256C761.068 650.06 776.739 634.169 786.478 610.701L786.7 610.153C787.577 610.823 787.528 612.009 787.747 613.072C787.361 613.727 787.134 614.248 787.172 615.028C787.936 630.699 792.416 648.886 787.639 664.214C786.458 668.003 783.784 670.873 781.819 674.239C776.368 673.144 770.81 671.105 765.449 669.563C756.631 667.026 747.754 664.712 738.913 662.256Z"/>
	<path fill="#FAF2E4" d="M528.532 650.141C537.737 649.747 547.744 650.477 556.791 652.144C561.844 653.075 566.744 654.542 571.833 655.383C554.934 666.96 536.187 676.048 518.504 686.374C506.981 693.103 495.476 700.161 484.197 707.295C480.613 709.561 477.296 712.174 473.644 714.351C473.253 714.331 472.861 714.301 472.469 714.31C470.732 714.35 470.02 715.569 468.876 716.748C466.971 715.428 465.017 710.084 463.681 707.844C462.059 707.497 460.586 707.194 459.094 706.454L459.114 705.737C462.479 706.332 468.999 708.96 471.926 706.356C473.527 704.932 474.764 703.053 476.592 701.882C478.21 700.846 480.169 700.212 481.866 699.263C483.304 698.46 484.41 697.795 484.857 696.169C482.747 693.84 480.078 696.536 477.463 696.189C477.986 695.468 478.108 695.241 478.321 694.334C475.699 692.61 468.969 690.894 465.907 690.759C465.369 690.805 464.807 690.636 464.277 690.54L464.318 690.012C468.223 689.269 483.932 694.6 488.671 695.939C494.964 692.104 502.292 687.84 507.565 682.692C501.53 680.095 495.204 678.015 488.898 676.175C482.836 674.407 453.078 668.31 450.641 666.099C450.305 664.851 450.091 664.079 450.293 662.773C453.661 662.621 460.892 665.498 464.556 666.431C471.783 668.272 479.119 669.677 486.334 671.551C496.254 674.127 505.847 677.237 515.919 679.258C524.16 673.969 537.39 667.773 544.218 661.55C544.958 660.875 545.404 660.682 545.442 659.635C541.82 654.655 532.954 654.946 528.976 650.655C528.822 650.489 528.68 650.312 528.532 650.141Z"/>
	<path fill="#D3CBC1" d="M322.378 411.299Q323.728 412.383 325.165 413.349C338.66 422.262 358.845 420.722 373.795 417.47C371.907 424.802 370.358 432.238 368.045 439.453C364.265 440.115 360.433 440.465 356.618 440.873C342.883 442.507 327.792 443.09 314.053 441.123C308.71 440.358 305.244 438.979 301.987 434.582C308.411 426.453 315.352 418.899 322.378 411.299Z"/>
	<path fill="#D3CBC1" d="M233.224 293.855C234.257 299.467 232.921 306.561 232.637 312.295Q232.07 323.207 232.175 334.133C226.798 328.783 222.8 322.718 217.824 317.119L216.942 317.157L216.579 317.933C217.585 325.788 226.67 334.002 232.426 338.882C231.301 347.453 230.633 356.453 230.552 365.093C222.077 360.783 213.574 355.917 208.563 347.531C206.6 344.245 205.029 340.719 203.05 337.457C202.129 335.939 201.168 335.515 199.505 335.145L199.316 335.65C199.936 341.357 203.992 347.349 206.976 352.113C212.355 360.443 221.689 364.581 230.499 368.235L230.85 380.146C211.465 375.29 198.399 361.59 188.277 345.082C193.658 338.405 200.572 332.703 206.621 326.599C216.713 316.415 225.316 305.792 233.224 293.855Z"/>
	<defs>
		<linearGradient id="gradient_0" gradientUnits="userSpaceOnUse" x1="297.87454" y1="586.62592" x2="305.81918" y2="491.55603">
			<stop offset="0" stop-color="#D3C5AF"/>
			<stop offset="1" stop-color="#FFF3E3"/>
		</linearGradient>
	</defs>
	<path fill="url(#gradient_0)" d="M176.562 480.085C189.628 481.333 202.748 485.961 215.72 488.358Q272.49 499.067 329.391 509.056Q353.424 513.404 377.502 517.494C385.673 518.821 394.234 519.412 402.261 521.353C404.969 522.008 408.461 522.811 410.287 525.044C412.514 527.768 413.892 531.658 414.996 534.964C420.88 552.587 424.604 571.483 428.62 589.632C429.982 595.785 432.209 602.624 432.629 608.832C429.728 605.927 431.046 599.055 427.792 595.637L426.64 595.795L425.767 594.791L425.409 595.107C426.349 598.548 428.379 604.387 427.839 607.817C427.797 608.079 427.741 608.339 427.692 608.6C425.593 599.374 411.037 532.286 407.844 530.041C402.949 526.601 366.556 521.771 357.867 520.188Q293.856 508.812 230.045 496.359L195.763 489.927C188.063 488.492 180.177 487.237 172.638 485.086C173.877 483.354 175.05 481.595 176.562 480.085Z"/>
	<path fill="#7F7F7A" d="M698.579 565.651C700.315 565.379 702.107 565.05 703.866 565.01C715.583 564.742 728.419 574.886 736.224 582.621C745.497 591.812 750.415 602.878 750.53 615.999L749.712 613.993C747.337 621.769 746.684 629.901 742.908 637.272C736.044 640.194 728.179 641.859 720.699 641.566C725.881 629.731 728.111 616.74 724.159 604.139C719.142 588.144 706.376 579.508 692.299 572.035L698.579 565.651Z"/>
	<path fill="#FAF2E4" d="M177.881 537.605L178.312 537.746C181.012 540.341 187.03 562.865 188.515 567.991C178.904 572.577 168.999 577.01 158.41 578.716C146.679 580.606 135.893 578.334 126.225 571.422C117.65 564.724 111.659 555.864 108.129 545.613C132.559 553.112 154.433 543.585 177.881 537.605Z"/>
	<path fill="#FAF2E4" d="M100.903 486.106C108.838 488.917 116.139 491.589 124.517 492.944C135.41 494.705 146.529 494.693 157.382 496.738C163.125 505.532 167.812 515.606 172.72 524.908L167.379 526.043C144.173 530.175 121.922 533.649 100.129 521.933C98.3961 510.023 99.2932 497.966 100.903 486.106Z"/>
	<path fill="#FAF2E4" d="M622.048 341.442L622.284 341.681C622.57 346.134 603.935 368.213 599.854 373.516C587.725 389.272 578.299 407.395 568.373 424.567C563.772 414.043 560.276 401.568 556.232 390.625C549.575 374.186 542.23 358.987 541.376 340.955C543.4 343.396 545.414 345.875 547.557 348.213C555.13 356.48 563.783 360.542 575.005 361.001C592.844 361.73 609.235 353.233 622.048 341.442Z"/>
	<path fill="#7F7F7A" d="M615.5 458.193C645.121 463.184 674.636 462.241 704.522 461.029C702.908 467.164 701.775 473.585 700.72 479.841Q695.811 482.613 690.828 485.25C680.83 490.559 670.365 495.823 659.75 499.775C651.252 496.987 644.124 492.553 636.323 488.307Q625.18 482.308 613.934 476.503C614.942 470.475 615.352 464.297 615.5 458.193Z"/>
	<path fill="#FAF2E4" d="M792.006 362.631C795.401 366.244 798.298 369.819 800.608 374.227C812.056 396.071 810.932 429.095 810.209 453.208C809.891 463.841 808.603 474.425 807.509 485C806.419 495.534 805.519 506.122 804.03 516.607C801.722 532.863 798.518 548.906 795.192 564.974C792.964 575.737 791.437 586.737 787.822 597.159C785.698 603.283 780.906 612.917 776.355 617.408C776.169 617.591 775.95 617.737 775.747 617.901C775.729 617.681 775.714 617.461 775.692 617.242C775.245 612.616 772.738 608.932 770.997 604.726C770.552 599.436 770.346 589.988 773.153 585.419C774.623 588.067 778.265 596.296 780.291 597.887C781.328 597.57 780.973 597.876 781.511 596.866C782.741 594.559 782.358 592.506 781.864 590.043C781.997 574.437 789.53 552.012 792.324 535.675C796.808 509.455 798.41 482.808 799.402 456.262C800.496 427.027 800.485 389.002 779.517 366.353C783.704 364.369 787.427 363.28 792.006 362.631Z"/>
	<path fill="#7F7F7A" d="M609.88 391.972L610.193 392.562C601.778 403.843 591.929 422.473 588.66 436.021C585.868 447.59 585.971 460.345 585.884 472.191Q585.572 493.546 586.869 514.864C587.494 523.842 588.84 532.787 589.701 541.749Q592.187 568.761 593.568 595.852C588.055 596.954 582.449 597.739 576.911 598.73C578.656 591.2 577.845 582.949 577.358 575.299C576.712 565.16 576.095 554.829 574.777 544.758C573.405 534.282 571.359 523.954 570.625 513.395C568.857 487.97 568.87 461.888 569.48 436.397C575.716 430.75 579.953 422.397 585.313 415.863C592.625 406.948 601.247 399.537 609.88 391.972Z"/>
	<path fill="#2E2925" d="M575.585 442.449C575.755 442.447 575.925 442.442 576.095 442.442C578.241 442.441 580.042 442.757 581.548 444.417C582.674 445.659 583.118 447.305 582.962 448.955C582.7 451.727 581.193 453.469 579.179 455.23C578.423 455.295 577.506 455.426 576.758 455.305C575.397 455.086 574.081 454.313 573.208 453.24C572.1 451.878 571.814 450.084 572.01 448.38C572.321 445.684 573.573 444.148 575.585 442.449Z"/>
	<path fill="#2E2925" d="M584.655 575.432C585.398 575.49 586.025 575.626 586.743 575.853C588.538 576.421 589.993 578.027 590.686 579.745C591.354 581.399 591.214 583.37 590.399 584.949C589.378 586.927 587.624 587.395 585.647 588.014C585.048 587.988 584.446 587.961 583.853 587.87C582.349 587.639 581.16 586.643 580.372 585.369C579.346 583.713 579.377 581.75 579.952 579.94C580.754 577.414 582.374 576.521 584.655 575.432Z"/>
	<path fill="#2E2925" d="M577.315 512.985C579.951 512.863 581.987 512.932 584.086 514.727C585.275 515.744 585.921 517.137 585.947 518.703C585.994 521.446 584.314 523.117 582.431 524.852C581.557 525.054 580.636 525.287 579.737 525.33C578.39 525.395 576.983 524.666 576.081 523.694C574.87 522.391 574.423 520.662 574.484 518.916C574.573 516.368 575.537 514.733 577.315 512.985Z"/>
	<path fill="#7F7F7A" d="M579.121 516.361C580.388 517.11 580.55 517.369 581.293 518.654C581.422 520.221 581.259 520.902 580.636 522.346C579.459 521.882 579.081 521.528 578.361 520.493C578.085 518.825 578.51 517.866 579.121 516.361Z"/>
	<path fill="#7F7F7A" d="M651.808 281.425C656.191 285.771 661.487 289.348 665.049 294.46C667.256 297.628 668.453 301.652 670.893 304.603C670.073 328.664 663.779 368.753 652.699 390C639.638 381.199 626.76 371.829 612.516 365.01C624.761 350.486 640.397 319.738 646.684 301.547C648.967 294.942 650.462 288.264 651.808 281.425Z"/>
	<path fill="#7F7F7A" d="M462.814 160.413C463.345 155.858 463.969 151.097 465.744 146.835C467.937 141.569 471.701 138.17 476.928 136.015C490.036 130.61 506.208 131.464 520.167 129.487C536.559 127.166 551.859 121.103 567.865 117.166C571.612 116.245 576.258 116.687 579.652 115.312L579.838 114.84C579.419 114.118 579.078 113.506 578.332 113.061C573.42 110.125 562.415 115.095 557.503 116.748C549.144 119.56 507.968 129.445 501.357 126.137C502.018 125.457 502.727 125.167 503.565 124.722C498.969 123.455 493.246 129.565 488.902 128.438C489.944 126.575 491.839 124.742 493.385 123.268C499.021 117.894 505.291 114.028 512.071 110.304C527.248 101.968 538.116 98.4587 555.598 98.9494C558.17 99.0216 564.169 99.1216 565.96 101.026C556.582 101.541 515.334 115.481 508.685 121.735C509.322 122.554 508.973 122.441 509.906 122.528C512.719 122.791 516.761 120.967 519.44 120.084Q529.954 116.615 540.318 112.721C549.385 109.342 557.889 105.462 567.671 104.912C573.857 106.333 577.9 108.099 582.022 113.062C581.655 115.526 581.016 117.688 580.195 120.021C570.281 124.667 558.491 129.049 547.687 131.001C544.459 131.584 541.205 131.447 537.958 131.777C533.191 132.261 528.491 133.361 523.707 133.831C508.512 135.324 492.315 134.734 478.784 142.852C476.118 144.452 472.394 146.569 471.614 149.764C472.321 150.499 472.022 150.481 472.97 150.486C476.662 150.505 480.343 145.705 483.694 144.224C486.17 143.129 489.334 142.54 491.983 141.978C499.965 140.285 507.968 140.016 516.081 139.676C532.714 138.979 545.57 137.93 561.336 131.818C568.507 129.037 575.104 125.78 580.913 120.698C577.836 125.725 573.081 133.213 568.275 136.591C562.882 140.38 556.109 142.935 549.947 145.157C538.511 149.28 526.426 152.04 514.689 155.183C507.165 157.198 499.047 160.148 491.311 160.786C481.33 161.609 473.069 157.798 462.814 160.413Z"/>
	<path fill="#FAF2E4" d="M136.494 423.017C147.1 423.403 157.998 423.964 168.399 426.176C184.349 429.567 196.783 436.152 209.437 446.31C214.664 450.506 219.685 455.034 223.325 460.721C228.55 468.884 229.659 476.615 227.536 486.066Q214.804 483.997 202.158 481.452C206.24 472.713 209.396 462.763 209.195 452.999C209.155 451.061 208.7 448.65 207.13 447.349C206.443 446.781 206.607 446.975 205.625 447.117C204.332 449.11 205.888 456.057 205.485 458.931C204.442 466.387 202.047 474.084 199.014 480.96C192.341 479.568 185.782 477.623 179.009 476.767C183.118 467.823 187.251 458.796 187.536 448.781C187.658 444.482 187.202 436.788 183.98 433.679C183.146 432.874 182.98 432.842 181.892 432.862L181.328 433.981C181.303 436.08 182.399 437.9 183.265 439.766C186.585 450.978 182.329 463.991 176.487 473.711C173.031 479.46 169.017 483.762 168.333 490.827C167.322 501.265 173.113 511.165 174.618 521.334L174.751 522.27C170.574 515.238 167.017 507.681 163.131 500.465C158.229 491.363 152.986 482.457 148.053 473.372C151.96 464.744 155.895 454.32 157.248 444.941C158.001 439.724 158.112 429.796 154.68 425.507C153.969 424.619 153.84 424.597 152.775 424.498C151.01 427.477 154.738 435.244 154.655 439.068C154.429 449.488 150.848 460.943 145.823 470.002Q139.198 457.589 131.838 445.598C134.265 438.139 136.533 430.943 136.494 423.017Z"/>
	<path fill="#F9E7CB" d="M608.009 240.99C610.442 240.649 612.691 240.039 615.037 239.344C620.05 253.009 625.183 268.392 634.598 279.652C637.803 283.156 642.874 287.647 644.927 291.941C641.608 304.266 635.279 321.865 626.912 331.806C623.566 335.782 619.238 339.129 615.137 342.302C602.815 351.835 585.854 358.963 569.997 356.835C556.442 355.017 548.733 343.684 541.064 333.609C542.746 333.603 544.306 333.576 545.918 334.108Q547.549 334.648 549.169 335.219L549.908 334.237C551.774 334.489 553.672 334.591 555.552 334.428C566.802 333.458 572.684 321.472 579.834 314.341C581.815 312.365 584.649 311.123 586.831 309.331C590.279 306.5 593.558 301.976 596.307 298.465C608.762 282.559 610.438 260.436 608.009 240.99Z"/>
	<path fill="#F9E7CB" d="M639.031 896.218C659.358 877.398 679.98 859.052 700.684 840.657C713.462 829.305 726.084 817.724 739.174 806.731C759.935 789.295 781.558 772.992 802.494 755.794C814.725 745.746 826.809 735.455 838.845 725.175C844.257 720.553 849.719 714.819 855.614 710.892C856.011 716.454 856.079 722.614 854.822 728.075Q797.647 779.304 742.134 832.331Q714.938 858.597 686.844 883.9C680.809 889.418 674.684 896.721 667.873 901.144C667.675 900.854 667.132 900.325 666.807 900.209C664.956 899.546 662 899.663 660.019 899.466C653.763 898.844 644.829 898.446 639.031 896.218Z"/>
	<path fill="#FAF2E4" d="M622.027 749.04L622.457 749.702C622.769 757.104 620.779 765.446 619.552 772.738Q616.248 792.637 612.454 812.448C611.418 818.042 611.077 824.001 609.653 829.484C609.215 831.172 608.707 832.841 607.567 834.201C601.392 841.564 587.005 843.336 578.087 844.114C567.308 845.054 553.374 843.493 544.816 836.311C543.954 830.55 541.902 824.814 540.82 819.033C535.206 796.114 529.118 772.847 525.765 749.49C535.139 755.121 544.799 759.007 555.611 760.819C577.293 764.454 603.675 762.192 622.027 749.04Z"/>
	<path fill="#F9E7CB" d="M553.596 163.352C560.266 166.192 565.253 192.38 570.451 200.277C575.923 208.59 582.944 208.339 587.532 213.922C589.342 216.125 589.403 218.714 589.174 221.421C588.913 224.493 590.3 226.626 590.668 229.541C591.714 237.842 591.475 245.914 590.61 254.193C593.92 259.789 593.8 263.005 593.217 269.335C592.447 265.482 591.36 261.682 590.361 257.882C587.373 262.934 586.178 268.46 584.35 273.973C582.426 279.774 580.123 284.973 576.999 290.228C565.262 283.837 543.895 280.636 530.868 283.705C527.297 284.705 524.066 285.421 520.333 285.142C517.402 284.922 513.463 284.291 511.645 281.658C509.906 279.14 510.838 273.193 510.738 270.164C510.474 262.178 509.277 247.418 506.344 240.303C505.424 238.071 504.049 236.354 502.48 234.546C495.162 234.256 487.329 235.648 479.996 236.244C477.228 221.246 475.774 206.175 473.293 191.165C479.929 190.882 486.293 189.557 492.786 188.261C514.185 183.99 536.373 177.347 553.596 163.352Z"/>
	<path fill="#2E2925" d="M536.002 271.401L536.522 271.935L536.488 273.176C534.136 276.116 525.508 279.557 521.698 280.226C521.863 278.484 522.12 277.134 523.268 275.753C526.275 272.136 530.655 273.498 534.684 273.208L536.002 271.401Z"/>
	<path fill="#2E2925" d="M555.574 234.488L556.182 235.071L555.982 236.141C551.934 240.811 544.594 241.753 539.015 243.74L541.081 244.059C540.607 244.936 538.855 245.331 537.912 245.719C540.806 245.145 544.154 244.926 546.898 243.891C548.947 243.118 552.292 239.669 554.14 239.819C553.745 242.023 551.729 243.278 550.046 244.518C549.044 245.053 548.02 245.469 546.951 245.848C542.048 247.588 536.616 247.923 531.838 245.688C532.523 244.72 534.792 244.822 536.018 244.325L535.986 243.781C534.046 243.672 531.583 243.858 529.752 243.293C528.683 242.963 528.589 242.744 528.067 241.831L528.886 241.839L528.673 241.4C529.704 241.721 531.503 241.245 532.596 241.157C541.169 240.463 547.802 237.959 555.574 234.488Z"/>
	<path fill="#2E2925" d="M560.043 218.607C561.439 218.509 562.845 218.416 564.245 218.44C566.902 218.483 572.961 218.628 574.862 220.563C574.09 221.612 571.523 221.449 570.289 221.44C567.643 221.421 564.831 221.156 562.229 221.698C557.821 222.615 553.152 225.303 549.001 227.092Q539.625 231.221 529.947 234.58C526.268 235.605 522.387 236.976 518.591 237.342C518.3 236.993 517.999 236.653 517.735 236.284C516.813 234.997 516.794 234.038 517.027 232.522C519.82 228.596 553.308 220.156 560.043 218.607Z"/>
	<path fill="#F9E7CB" d="M814.556 460.117C842.119 464.461 882.818 481.076 900.807 502.428C900.728 502.561 900.647 502.692 900.569 502.826C896.121 510.489 893.682 519.5 890 527.576C881.71 545.757 871.089 563.952 859.244 580.064C853.081 588.447 846.029 596.825 838.863 604.387C833.91 609.614 800.984 640.617 799.65 643.895C797.592 634.149 790.971 612.127 791.017 603.718C791.042 599.188 794.534 590.335 795.724 585.395C798.561 573.612 801.006 561.561 803.24 549.643C808.817 519.88 811.799 490.234 814.556 460.117Z"/>
	<path fill="#7F7F7A" d="M729.722 436.793C731.619 430.458 734.434 424.303 737.232 418.317C747.214 396.963 759.939 379.828 779.517 366.353C800.485 389.002 800.496 427.027 799.402 456.262C798.41 482.808 796.808 509.455 792.324 535.675C789.53 552.012 781.997 574.437 781.864 590.043C780.505 586.875 778.55 583.696 776.646 580.823C766.13 564.964 747.624 556.32 729.428 552.55C735.631 549.86 742.407 548.053 748.8 545.834C758.775 542.372 768.021 537.904 777.004 532.371C761.411 534.874 740.698 545.075 724.508 549.874C718.326 551.706 711.46 552.074 705.117 553.475C705.983 543.095 707.663 532.82 709.327 522.546C721.633 517.203 770.691 482.133 775.648 470.596L775.374 469.978C766.961 472.003 725.729 511.377 710.355 518.776C710.155 518.872 709.953 518.964 709.753 519.058C710.863 508.557 712.758 497.795 715.897 487.711C720.054 483.987 723.86 479.928 727.513 475.713C740.959 460.197 752.95 443.3 766.818 428.152C768.795 425.992 774.756 420.988 775.297 418.3L774.548 417.511C763.332 418.708 726.658 469.423 717.296 479.859C718.98 471.873 724.471 454.115 728.182 447.215C730.976 442.021 736.063 437.157 739.925 432.688C748.048 423.288 756.042 413.665 764.423 404.499C769.121 399.363 774.449 394.79 778.912 389.443L779.382 388.874C764.34 393.423 739.918 424.068 729.722 436.793Z"/>
	<path fill="#FAF2E4" d="M689.116 575.215C701.219 581.32 713.224 589.738 718.541 602.723C724.85 618.13 719.657 630.927 713.739 645.317C703.129 646.081 692.559 648.179 681.961 649.26Q664.449 651.062 646.847 651.281Q629.244 651.499 611.693 650.132C605.002 649.569 596.712 649.251 590.461 646.994C587.574 645.953 585.244 643.682 582.517 642.322C581.304 641.716 580.615 641.579 579.354 642.008C578.847 643.257 578.607 644.064 577.512 644.917C568.346 646.289 558.724 647.95 549.453 646.88C530.638 644.71 526.38 627.137 518.994 625.697C516.281 625.169 511.956 626.139 509.218 626.558C506.107 627.033 502.347 627.566 499.533 629.021C493.363 632.211 488.44 642.785 484.848 648.606C483.404 650.946 481.883 653.631 479.604 655.247C478.335 656.147 476.742 656.571 475.209 656.12C473.796 655.705 471.979 654.315 471.501 652.893C470.799 650.806 471.741 648.43 472.552 646.525C475.29 640.088 485.759 621.607 491.064 617.666C495.38 614.46 501.145 612.752 506.132 610.818C509.405 609.528 512.681 608.16 516.004 607.008C517.884 606.356 519.931 606.022 521.753 605.247C523.272 604.6 524.902 603.475 525.537 601.919C525.285 601.433 525.4 601.454 524.792 601.258C520.635 599.921 511.577 603.64 507.47 604.965C497.595 608.151 487.059 611.45 479.048 618.323C470.772 625.425 464.354 650.637 458.394 653.934C457.223 654.582 456.517 654.54 455.256 654.245C453.795 653.32 453.399 651.789 452.771 650.26C452.951 647.747 453.451 645.258 454.088 642.823C462.269 611.547 473.312 603.267 502.047 590.032C505.971 588.225 511.107 587.911 514.703 585.672C514.988 585.495 515.264 585.306 515.545 585.124C525.04 589.154 534.099 594.153 543.682 598.069C550.748 600.955 559.649 604.703 567.274 605.403C569.368 605.596 570.604 603.834 573.012 603.535C601.196 600.031 628.442 593.4 655.741 585.725C666.986 582.564 678.327 579.759 689.116 575.215Z"/>
	<path fill="#FAF2E4" d="M900.807 502.428C921.463 528.994 917.631 565.463 913.695 596.856C909.278 632.086 902.089 666.662 890.228 700.177C886.195 711.573 881.801 723.242 875.29 733.474C864.913 749.781 850.534 764.313 837.573 778.579C827.39 789.789 817.992 802.867 806.005 812.171C802.653 814.772 799.361 816.704 795.399 818.269C795.804 808.232 796.439 798.174 796.466 788.13C811.531 773.69 826.583 759.016 842.152 745.133C847.831 740.069 853.598 734.125 860.136 730.231C861.773 719.954 862.792 707.607 861.755 697.231C854.422 692.661 844.301 691.121 835.996 688.9Q820.892 684.962 805.881 680.683C806.286 668.474 801.747 655.876 799.65 643.895C800.984 640.617 833.91 609.614 838.863 604.387C846.029 596.825 853.081 588.447 859.244 580.064C871.089 563.952 881.71 545.757 890 527.576C893.682 519.5 896.121 510.489 900.569 502.826C900.647 502.692 900.728 502.561 900.807 502.428Z"/>
	<path fill="#7F7F7A" d="M450.816 362.895C451.153 363.147 450.896 363 451.697 362.972C468.185 342.598 494.591 340.136 517.967 332.549C512.525 349.047 503.754 363.941 497.204 379.909C496.655 381.248 496.478 382.317 496.475 383.757C496.801 384.3 496.887 384.818 497.564 384.96C501.612 385.811 520.018 373.594 524.016 371.213C524.102 374.485 524.282 377.793 524.117 381.063C537.935 396.772 553.967 409.982 561.663 430.214C563.029 433.803 564.056 437.332 564.343 441.177C566.135 465.253 564.656 489.53 566.394 513.633C567.123 523.746 568.9 533.671 570.164 543.717C571.459 554.018 572.208 564.485 572.909 574.847C573.399 582.093 573.921 589.508 573.421 596.764C573.357 597.682 573.27 598.567 573.132 599.475C553.854 598.845 537.175 589.741 519.887 582.045C514.635 579.707 509.36 577.26 503.81 575.709C501.109 560.73 497.878 546.351 493.379 531.768C491.154 524.558 488.392 517.517 486.001 510.361C481.53 496.98 477.484 482.841 474.812 468.99C471.823 453.5 468.925 437.982 467.847 422.225C466.471 402.095 467.05 381.805 463.431 361.88C459.847 388.454 458.425 414.525 462.818 441.109L462.564 440.555C457.352 428.942 454.105 415.536 451.369 403.119C450.729 400.213 449.775 388.649 448.285 387.19C447.167 388.038 446.756 388.764 446.521 390.165C445.839 394.213 446.686 399.036 447.038 403.139C448.357 418.517 452.02 432.452 456.484 447.148C458.254 452.977 460.865 459.005 461.834 465.002C456.191 452.194 451.065 438.69 444.683 426.258C446.8 450.227 460.419 471.381 464.13 494.925C461.202 491.046 457.25 483.273 452.971 481.165L451.739 481.232C450.972 482.777 451.3 483.958 451.83 485.552C456.836 500.589 461.233 511.465 461.55 527.716C452.557 503.949 431.229 474.806 407.665 464.197L406.894 463.852C419.994 443.32 428.86 422.311 436.917 399.403C440.759 388.479 445.17 372.524 450.816 362.895Z"/>
	<path fill="#7F7F7A" d="M675.566 303.364C675.765 305.405 675.962 307.433 676.018 309.485C684.657 314.469 694.404 317.721 703.515 321.767C729.418 333.269 754.82 345.384 776.949 363.406C770.967 366.977 765.283 372.719 760.472 377.717C737.501 401.587 727.892 426.333 716.585 456.538L715.913 456.594L715.434 458.433L715.894 458.131L715.499 458.882L715.028 458.845C713.602 456.174 713.72 451.835 713.732 448.837C713.809 429.76 720.182 411.879 724.355 393.507C725.453 388.67 727.199 382.901 727.257 377.945C727.26 377.737 727.254 377.53 727.252 377.322C724.685 384.672 722.785 392.296 720.405 399.719C714.574 417.905 706.844 436.42 707.72 455.896C700.558 456.515 693.325 456.563 686.14 456.804C670.774 457.319 655.338 457.631 639.987 456.456C632.981 455.92 626.053 454.584 619.063 453.914C617.565 453.77 614.126 453.392 613.049 454.536C610.21 457.55 610.322 473.729 610.071 478.625C616.947 484.936 626.819 488.546 634.987 493.016C640.717 496.151 646.283 499.861 652.332 502.353C654.623 503.297 656.909 504.037 659.414 503.971C671.296 503.661 687.727 491.465 698.811 487.033C698.993 486.96 699.178 486.891 699.362 486.82C694.965 503.863 690.217 533.725 681.626 548.122C678.15 553.947 672.896 559.705 666.052 561.266Q665.369 561.417 664.677 561.518Q663.985 561.619 663.288 561.668Q662.59 561.717 661.891 561.714Q661.191 561.712 660.494 561.658Q659.797 561.604 659.105 561.499Q658.414 561.393 657.732 561.237Q657.051 561.081 656.382 560.875Q655.714 560.669 655.063 560.414C644.79 556.501 626.479 539.736 615.795 532.998C613.937 531.825 611.148 530.373 608.892 531.075C608.104 531.32 608.072 531.745 607.685 532.406C608.104 540.019 634.793 557.267 640.723 562.795C638.297 562.821 636.234 559.793 633.477 559.963L633.359 560.975C635.817 565.579 648.238 573.122 653.348 574.966L654.008 575.197C651.433 577.483 641.424 576.627 637.72 577.117L636.844 577.236L645.144 580.098C642.319 581.544 639.501 582.947 636.854 584.706C637.491 585.314 638.941 585.084 639.831 585.108C638.043 586.083 635.288 585.643 633.244 586.16C628.279 587.415 623.41 589.158 618.456 590.488C611.5 592.354 604.425 593.746 597.37 595.177C597.511 568.323 593.698 541.715 591.441 515.016C590.316 501.704 589.946 488.197 589.886 474.841C589.824 461.081 589.899 446.257 594.04 433.037C599.666 415.078 610.407 399.5 621.568 384.619C621.493 384.511 621.42 384.402 621.343 384.296L620.954 383.767C617.311 378.764 611.709 375.464 606.705 371.944C607.614 370.768 608.378 369.666 609.674 368.881C618.125 373.054 626.344 377.959 634.229 383.117C640.54 387.247 646.903 392.267 653.86 395.212C654.968 395.099 654.616 395.317 655.361 394.61C658.355 391.768 659.967 384.866 661.275 380.985C669.807 355.682 675.311 330.132 675.566 303.364Z"/>
	<path fill="#F9E7CB" d="M332.429 132.009C347.361 128.106 395.585 140.553 412.107 145.348C420.46 147.772 428.72 150.751 436.954 153.555C442.842 155.56 449.895 157.445 455.283 160.543Q456.649 161.335 457.951 162.228C452.383 164.509 447.212 168.329 444.821 174.029C443.312 177.626 443.221 181.566 444.891 185.124C446.911 189.431 451.063 192.404 455.493 193.866C459.147 195.071 462.606 195.235 466.391 194.891C467.333 194.805 468.689 194.334 469.352 195.03C470.803 206.872 472.438 230.542 477.858 240.341C478.986 242.382 480.502 243.681 482.308 245.104Q482.85 245.529 483.397 245.946C483.631 250.535 484.392 254.709 485.659 259.124C488.629 269.469 504.411 311.002 510.84 318.118C505.729 320.256 500.399 321.708 495.175 323.529C489.703 325.436 484.369 327.884 479.058 330.202C460.433 338.329 452.61 345.413 444.708 364.62C434.818 388.658 428.569 413.93 417.67 437.627C411.108 451.895 401.976 462.63 395.295 475.834C393.316 479.744 392.178 483.976 390.471 487.996C388.279 493.156 381.838 505.107 377.92 508.816C376.465 510.194 374.305 511.244 372.576 512.259C362.425 511.152 352.214 508.708 342.162 506.831L292.426 497.716C295.506 492.732 330.684 490.612 337.133 482.081C339.773 480.957 342.359 479.902 344.801 478.377C364.354 466.171 371.039 440.141 375.916 419.12C376.517 417.978 377.01 416.846 377.43 415.623C384.879 393.904 389.129 371.426 394.228 349.089C399.277 326.972 404.317 304.998 408.314 282.656C410.986 267.72 413.552 252.474 413.671 237.263C413.794 221.519 411.461 205.505 404.335 191.318C388.998 160.783 364.148 142.629 332.429 132.009Z"/>
	<path fill="#FAF2E4" d="M171 489.238C188.46 492.507 205.85 496.516 223.302 499.923L340.834 521.746C361.998 525.539 383.01 529.86 404.331 532.741C405.969 536.765 406.94 541.226 407.984 545.445C412.304 562.909 416 580.569 420.011 598.111Q429.639 639.578 438.488 681.219C441.222 694.547 446.512 711.662 447.513 724.547C447.776 727.931 446.872 730.123 445.149 732.983C444.44 733.572 443.6 734.261 442.755 734.632C440.281 735.716 435.48 734.497 432.869 733.833C418.973 730.295 405.226 725.661 391.49 721.537L312.839 697.902Q284.988 689.827 257.248 681.374C249.057 678.899 240.409 676.896 232.457 673.775L231.509 673.397C229.205 672.492 227.646 670.722 226.151 668.795C223.981 665.998 222.485 662.86 221.29 659.548C216.881 647.333 213.569 634.522 209.8 622.089Q199.892 590.43 190.383 558.65L176.343 513.767C174.535 507.825 172.383 501.789 170.97 495.745C170.449 493.519 170.697 491.479 171 489.238Z"/>
	<path fill="#4F453E" d="M295.917 593.068C300.491 592.8 304.395 593.498 308.553 595.463C316.617 599.275 323.731 607.005 326.621 615.476C328.015 619.56 328.251 624.158 326.175 628.062C323.956 632.234 320.364 634.124 316.08 635.546C309.865 635.993 303.748 634.94 298.266 631.903C291.376 628.087 286.229 621.134 284.257 613.528C283.064 608.931 283.064 603.843 285.686 599.721C288.094 595.934 291.676 594.084 295.917 593.068Z"/>
	<path fill="#D3CBC1" d="M269.232 492.871C267.241 487.181 257.246 477.709 253.182 472.205C239.614 453.833 224.447 435.601 204.448 423.893C181.34 410.363 138.743 407.954 123.716 385.819C109.091 364.278 105.804 307.614 110.675 282.261C120.872 229.18 173.46 193.672 215.313 165.432C240.37 148.525 274.607 128.017 305.238 128.131C314.415 128.165 323.459 130.273 332.429 132.009C364.148 142.629 388.998 160.783 404.335 191.318C411.461 205.505 413.794 221.519 413.671 237.263C413.552 252.474 410.986 267.72 408.314 282.656C404.317 304.998 399.277 326.972 394.228 349.089C389.129 371.426 384.879 393.904 377.43 415.623C377.01 416.846 376.517 417.978 375.916 419.12L375.94 418.472C376.355 409.595 378.081 400.565 379.189 391.737C380.122 384.306 380.52 376.799 381.064 369.331C381.336 365.595 382.209 361.436 381.662 357.748C377.255 353.858 346.556 355.815 339.744 356.245C320.819 357.439 304.316 361.533 289.297 373.468C287.203 375.132 284.308 376.959 282.597 378.979C282.302 379.327 282.125 379.632 281.871 380.023L282.06 380.82L284.526 380.981C285.094 382.111 285.012 382.311 284.98 383.546C284.499 402.117 289.606 417.857 298.663 433.899C295.164 437.803 292.776 442.472 289.77 446.734C277.345 437.617 265.934 427.496 258.397 413.805C263.042 409.621 268.16 405.516 272.106 400.651C278.429 392.854 282.071 380.138 282.6 370.235C283.5 353.354 278.084 338.614 266.739 326.151C259.365 318.05 251.497 310.551 245.048 301.637C241.956 297.362 239.826 291.634 237.06 287.991C236.338 287.04 236.323 286.832 235.101 286.641C231.293 289.689 228.514 295.996 225.594 300.077Q220.965 306.454 215.902 312.493C205.567 324.808 191.454 334.925 182.658 348.376C178.278 355.075 174.748 363.291 173.834 371.292C172.631 381.823 176.502 392.642 183.032 400.822C193.284 413.666 210.331 420.119 226.259 421.874Q232.202 422.541 238.171 422.186C246.97 448.755 251.206 460.393 276.949 473.689C274.884 479.846 273.103 486.233 269.986 491.951L269.232 492.871Z"/>
	<path fill="#F9E7CB" d="M579.771 647.639C584.569 649.524 589.301 651.385 594.357 652.479C612.198 656.338 645.499 656.355 663.867 655.253C671.853 654.773 680.735 652.727 688.646 653.25C696.359 653.761 705.826 657.431 713.503 659.539L751.477 669.702Q801.501 682.856 850.986 697.911C848.483 700.679 845.236 703.638 844.398 707.404C844.598 708.154 844.485 708.536 845.228 708.941C846.354 709.556 847.999 709.596 849.203 709.154C852.65 707.891 854.293 703.145 857.457 701.299L857.998 701.682C854.275 710.018 760.343 783.018 745.521 795.568Q696.886 836.964 650.194 880.54C637.531 892.378 623.587 903.963 612.477 917.253L611.848 916.825C608.941 916.879 594.866 915.873 593.836 916.571C585.537 916.075 567.35 909.112 558.456 906.395C534.721 899.142 510.854 892.37 487.351 884.37Q444.624 869.364 403.462 850.483C387.579 844.23 372.184 836.711 356.403 830.186Q234.628 780.056 114.499 726.102C121.549 719.185 137.831 712.338 146.958 706.839C170.225 692.821 192.565 676.188 217.111 664.522C219.603 668.539 222.237 672.341 224.65 676.444C225.768 678.346 226.253 679.662 228.374 680.582C236.151 683.954 245.105 686.06 253.247 688.487L300.874 702.672L386.737 728.982C400.557 733.176 414.427 737.941 428.42 741.492C437.413 743.775 453.245 743.379 462.004 740.485C473.655 736.634 486.234 726.531 496.652 719.612C512.149 709.318 527.624 698.701 543.621 689.205C546.927 697.796 550.915 705.057 556.656 712.251C550.605 709.74 544.046 707.61 537.403 708.521C535.07 708.841 532.154 709.765 530.842 711.895C529.966 713.317 529.958 714.906 530.497 716.435C532.58 722.355 539.848 725.401 545.111 727.75C544.907 727.781 544.703 727.817 544.498 727.843C544.04 727.901 543.579 727.934 543.122 727.997C536.809 728.865 528.934 733.751 525.305 738.91C523.5 741.478 522.475 744.387 522.187 747.508C521.076 759.53 528.288 781.58 530.808 794.312C532.944 803.436 537.957 829.811 541.276 836.691C542.55 839.329 544.777 841.382 547.236 842.91C559.458 850.502 579.693 849.454 593.043 846.01C599.361 844.38 608.074 841.604 611.7 835.743C614.716 830.87 617.905 804.018 619.428 795.853C621.45 785.783 630.092 745.579 625.618 738.732C620.988 731.645 607.854 730.001 600.172 728.502C606.423 727.485 613.344 726.741 618.154 722.172C619.838 720.573 620.805 719.034 620.817 716.692C620.238 715.179 619.661 714.44 618.133 713.789C610.57 710.569 602.562 714.3 595.582 717.049C598.241 715.135 601.142 713.507 603.722 711.503C608.237 707.995 615.096 700.09 615.595 694.283C615.722 692.801 615.364 691.3 614.26 690.233C613.022 689.034 611.145 688.614 609.475 688.605C601.122 688.561 590.069 697.3 584.426 702.954C585.394 699.565 586.386 696.166 587.088 692.71C588.115 687.655 589.471 679.112 586.274 674.691C585.439 673.536 584.144 672.752 582.697 672.731C580.994 672.706 579.339 673.665 578.143 674.808C571.544 681.112 570.38 694.84 570.328 703.367C569.57 700.637 568.636 697.855 567.345 695.324C563.769 688.318 557.753 682.875 550.25 680.449C556.585 676.512 573.671 668.704 575.87 661.743C576.915 658.433 576.047 655.765 574.594 652.802C571.762 651.86 568.829 651.545 565.885 651.129C570.602 650.3 575.184 648.998 579.771 647.639Z"/>
</svg>
