<?xml version="1.0" encoding="utf-8" ?>
<svg xmlns="http://www.w3.org/2000/svg" xmlns:xlink="http://www.w3.org/1999/xlink" width="1820" height="1024">
	<path fill="#FEFCF9" d="M0 0L1818.44 0C1820.58 3.35778 1819.99 8.22266 1820 12.0828L1820 742.336L1820.01 943.951L1820 997.417C1819.99 1004.76 1820.98 1013.76 1819.75 1020.9C1819.56 1022.02 1819.05 1023.05 1818.44 1024L0 1024L0 0Z"/>
	<path fill="#62615F" d="M961.569 157.358C963.047 157.293 964.553 157.238 966.017 157.489C969.24 158.041 972.036 159.889 973.731 162.698C975.434 165.519 975.464 168.943 974.544 172.035C973.097 176.896 969.965 179.012 965.756 181.364C964.253 181.381 962.834 181.25 961.375 180.866C958.096 180.002 955.342 178.269 953.696 175.191C952.238 172.465 952.102 169.204 953.08 166.293C954.61 161.736 957.435 159.485 961.569 157.358Z"/>
	<path fill="#2E2925" d="M865.51 142.306C867.568 142.207 869.956 141.956 871.98 142.36C875.109 142.985 877.871 144.857 879.492 147.624C880.906 150.037 881.105 152.874 880.167 155.501C878.463 160.271 874.669 162.318 870.298 164.252C867.67 164.175 864.813 163.962 862.326 163.035C859.595 162.018 857.034 159.592 855.886 156.894C854.932 154.653 854.997 152.21 855.945 149.979C857.753 145.725 861.523 143.997 865.51 142.306Z"/>
	<path fill="#4F453E" d="M866.537 147.911C867.841 148.056 869.664 148.157 870.873 148.676C873.143 149.65 873.685 150.771 874.779 152.818C874.947 155.378 874.122 156.609 872.698 158.671C870.742 159.012 868.794 158.986 866.817 159.003C864.569 157.733 864.41 157.739 863.504 155.346C863.839 152.129 864.739 150.505 866.537 147.911Z"/>
	<path fill="#2E2925" d="M727.698 235.71C730.14 235.381 733.112 234.979 735.538 235.442C738.615 236.03 741.53 238.192 743.255 240.775C744.953 243.317 745.436 246.291 744.731 249.26C743.529 254.316 740.306 256.616 736.033 259.049C733.683 259.438 731.189 259.943 728.804 259.887C726.018 259.822 723.468 258.958 721.591 256.824C719.649 254.616 719.044 251.601 719.401 248.74C720.11 243.07 723.306 239.073 727.698 235.71Z"/>
	<path fill="#FAF2E4" d="M727.809 242.18C730.712 242.616 732.974 242.972 734.974 245.298C736.045 247.864 735.384 250.074 734.85 252.675C734.144 252.756 733.339 252.894 732.622 252.81C730.408 252.549 729.754 251.69 728.31 250.159C727.36 247.217 727.451 245.192 727.809 242.18Z"/>
	<path fill="#4F453E" d="M366.936 461.332C369.186 461.048 372.017 460.793 374.228 461.417C377.229 462.264 379.807 464.578 381.201 467.337C382.754 470.409 382.799 474.077 381.631 477.286C379.89 482.067 376.844 484.18 372.379 486.23C370.608 486.208 368.771 486.196 367.02 485.915C363.728 485.386 360.334 483.157 358.547 480.361C356.782 477.598 356.501 474.367 357.361 471.241C358.762 466.151 362.614 463.755 366.936 461.332Z"/>
	<path fill="#2E2925" d="M817.022 104.751L817.257 104.237C821.518 94.7318 824.622 87.8842 835.363 83.6442C839.109 82.1655 842.842 82.0177 846.547 83.7135C849.84 85.2204 854.256 88.9002 855.602 92.3173C856.423 94.4016 856.041 96.3592 855.001 98.2817C850.785 106.073 844.177 109.279 846.623 119.659C847.24 122.28 848.254 124.116 850.052 126.128L851.75 126.493C852.613 124.637 852.33 123.048 852.308 121.054C852.225 113.416 855.767 109.451 860.703 104.026C861.663 106.248 862.594 108.334 863.088 110.719C856.568 117.788 861.49 124.449 860.596 132.566C859.832 133.166 859.018 133.776 858.114 134.152C854.528 135.643 849.788 134.297 846.497 132.606C842.377 130.489 839.299 127.178 837.948 122.699C834.332 110.708 846.017 104.644 850.285 95.4113C851.03 93.8002 851.298 91.907 850.638 90.2479C849.638 87.7319 847.261 86.1159 844.81 85.1572C842.202 84.1372 839.691 84.3342 837.17 85.4903C828.535 89.4495 825.034 98.3589 821.704 106.386C820.789 108.589 818.831 109.238 816.753 110.02L815.941 110.321L817.022 104.751Z"/>
	<path fill="#2E2925" d="M323.464 393.858C326.273 393.707 329.526 393.679 332.214 394.584Q332.96 394.838 333.676 395.168Q334.393 395.497 335.072 395.898Q335.75 396.299 336.384 396.768Q337.019 397.236 337.601 397.767Q338.184 398.298 338.71 398.886Q339.235 399.474 339.698 400.113Q340.16 400.751 340.555 401.434Q340.949 402.117 341.272 402.836Q341.582 403.533 341.822 404.258Q342.062 404.983 342.229 405.727Q342.396 406.472 342.49 407.23Q342.583 407.987 342.601 408.75Q342.619 409.513 342.562 410.275Q342.504 411.036 342.372 411.788Q342.24 412.539 342.035 413.275Q341.83 414.01 341.553 414.721C339.509 419.849 336.456 422.42 331.492 424.56C329.566 424.258 327.579 423.961 325.726 423.343C320.601 421.634 315.924 417.736 313.599 412.82C312.084 409.616 311.676 405.951 313.082 402.624C315.075 397.907 318.965 395.749 323.464 393.858Z"/>
	<path fill="#FAF2E4" d="M325.538 397.475C327.388 397.615 329.378 397.709 331.154 398.272C333.96 399.162 336.237 401.211 337.564 403.813Q337.847 404.363 338.072 404.94Q338.296 405.517 338.459 406.114Q338.621 406.711 338.721 407.322Q338.82 407.933 338.854 408.551Q338.889 409.168 338.859 409.787Q338.829 410.405 338.734 411.016Q338.639 411.628 338.481 412.226Q338.323 412.825 338.103 413.403C336.414 417.933 333.423 420.083 329.101 421.879C327.113 421.281 325.1 420.668 323.229 419.757C319.402 417.895 316.198 414.433 314.979 410.298C314.336 408.119 314.605 405.846 315.7 403.858C317.742 400.152 321.737 398.642 325.538 397.475Z"/>
	<path fill="#FEFCF9" d="M817.022 104.751C814.601 102.329 812.587 100.515 812.517 96.8487C812.386 90.0481 818.798 83.0286 823.339 78.6715C829.518 72.7429 836.062 67.5173 845.028 67.6551C851.151 67.7493 857.128 70.1316 861.365 74.5998Q861.724 74.9755 862.063 75.3686Q862.403 75.7618 862.722 76.1714Q863.042 76.581 863.34 77.006Q863.639 77.431 863.916 77.8705Q864.193 78.3099 864.448 78.7626Q864.703 79.2152 864.935 79.6801Q865.167 80.1449 865.375 80.6208Q865.583 81.0966 865.768 81.5823Q865.952 82.0679 866.112 82.5622Q866.272 83.0565 866.407 83.5581Q866.542 84.0597 866.652 84.5674Q866.762 85.0752 866.847 85.5878Q866.931 86.1004 866.99 86.6166Q867.049 87.1327 867.082 87.6512Q867.115 88.1697 867.122 88.6891Q867.129 89.2086 867.11 89.7278C866.93 95.3766 864.129 99.7465 860.703 104.026C855.767 109.451 852.225 113.416 852.308 121.054C852.33 123.048 852.613 124.637 851.75 126.493L850.052 126.128C848.254 124.116 847.24 122.28 846.623 119.659C844.177 109.279 850.785 106.073 855.001 98.2817C856.041 96.3592 856.423 94.4016 855.602 92.3173C854.256 88.9002 849.84 85.2204 846.547 83.7135C842.842 82.0177 839.109 82.1655 835.363 83.6442C824.622 87.8842 821.518 94.7318 817.257 104.237L817.022 104.751Z"/>
	<path fill="#4F453E" d="M815.941 110.321C810.287 108.83 805.917 107.2 802.751 101.986C800.15 97.7033 800.122 92.7518 801.356 88.0139C803.834 78.5014 810.747 69.8134 819.282 65.0369C829.79 59.1558 844.907 56.6564 856.588 59.996C865.391 62.513 874.486 68.4902 878.833 76.755Q879.091 77.2342 879.323 77.726Q879.556 78.2177 879.763 78.7207Q879.97 79.2237 880.152 79.7366Q880.333 80.2496 880.488 80.7711Q880.643 81.2927 880.771 81.8214Q880.899 82.3502 881 82.8848Q881.101 83.4194 881.174 83.9585Q881.248 84.4976 881.294 85.0397Q881.339 85.5819 881.357 86.1256Q881.375 86.6694 881.366 87.2133Q881.356 87.7573 881.318 88.3001Q881.281 88.8428 881.216 89.383Q881.151 89.9231 881.058 90.4592Q880.965 90.9953 880.845 91.526Q880.725 92.0567 880.578 92.5805Q880.431 93.1044 880.258 93.62C877.416 102.011 870.739 107.033 863.088 110.719C862.594 108.334 861.663 106.248 860.703 104.026C864.129 99.7465 866.93 95.3766 867.11 89.7278Q867.129 89.2086 867.122 88.6891Q867.115 88.1697 867.082 87.6512Q867.049 87.1327 866.99 86.6166Q866.931 86.1004 866.847 85.5878Q866.762 85.0752 866.652 84.5675Q866.542 84.0597 866.407 83.5581Q866.272 83.0565 866.112 82.5622Q865.952 82.0679 865.768 81.5823Q865.583 81.0966 865.375 80.6208Q865.166 80.1449 864.935 79.6801Q864.703 79.2152 864.448 78.7626Q864.193 78.3099 863.916 77.8705Q863.639 77.431 863.34 77.006Q863.042 76.581 862.722 76.1714Q862.403 75.7618 862.063 75.3686Q861.724 74.9755 861.365 74.5998C857.128 70.1316 851.151 67.7493 845.028 67.6551C836.062 67.5173 829.518 72.7429 823.339 78.6715C818.798 83.0286 812.386 90.0481 812.517 96.8487C812.587 100.515 814.601 102.329 817.022 104.751L815.941 110.321Z"/>
	<path fill="#2E2925" d="M657.422 656.294C663.355 655.963 669.201 656.574 674.251 659.969C679.123 663.244 682.083 668.466 683.075 674.188C684.481 682.3 682.043 690.645 677.292 697.26C672.188 704.365 666.097 707.663 657.617 709.069C651.99 708.659 646.677 707.561 641.903 704.389C636.226 700.618 632.447 694.956 631.203 688.247Q631.082 687.598 630.994 686.944Q630.905 686.29 630.848 685.632Q630.792 684.974 630.768 684.314Q630.743 683.655 630.751 682.995Q630.759 682.334 630.799 681.676Q630.84 681.017 630.912 680.36Q630.985 679.704 631.089 679.052Q631.194 678.401 631.33 677.755Q631.466 677.109 631.634 676.47Q631.802 675.832 632.001 675.202Q632.2 674.573 632.429 673.954Q632.658 673.335 632.918 672.728Q633.177 672.121 633.466 671.527Q633.755 670.933 634.072 670.355Q634.39 669.776 634.735 669.214Q635.08 668.651 635.453 668.106C640.887 660.254 648.418 657.835 657.422 656.294Z"/>
	<path fill="#FEFCF9" d="M655.066 660.474C660.774 659.603 666.011 659.785 670.775 663.408C675.265 666.822 677.906 672.175 678.621 677.709C679.389 683.66 678.058 690.947 674.274 695.755C674.142 695.923 674.003 696.085 673.867 696.25L672.554 695.057Q673.325 692.886 673.904 690.656C675.415 684.614 675.719 677.265 672.333 671.759C669.057 666.434 664.092 664.654 658.288 663.343C656.347 662.415 655.982 662.511 655.066 660.474Z"/>
	<path fill="#FAF2E4" d="M673.867 696.25C670.772 700.228 665.782 703.427 660.812 704.373C655.825 705.323 650.87 703.683 646.82 700.777C641.427 696.908 637.569 690.846 636.549 684.271C635.706 678.836 636.821 672.503 640.26 668.105C643.771 663.616 649.538 661.168 655.066 660.474C655.982 662.511 656.347 662.415 658.288 663.343C664.092 664.654 669.057 666.434 672.333 671.759C675.719 677.265 675.415 684.614 673.904 690.656Q673.325 692.886 672.554 695.057L673.867 696.25Z"/>
	<path fill="#2E2925" d="M658.288 663.343C664.092 664.654 669.057 666.434 672.333 671.759C675.719 677.265 675.415 684.614 673.904 690.656Q673.325 692.886 672.554 695.057C671.74 695.858 671.111 696.317 670.072 696.795C670.446 694.396 670.809 691.987 671.027 689.568C671.568 683.571 671.772 676.308 667.434 671.529C661.747 665.265 655.28 668.724 648.15 668.276L648.679 667.19C651.93 664.987 654.43 664.054 658.288 663.343Z"/>
	<path fill="#4F453E" d="M330.605 368.127C338.588 367.345 346.247 367.995 353.436 371.847Q354.09 372.192 354.727 372.568Q355.363 372.945 355.98 373.353Q356.597 373.761 357.193 374.2Q357.788 374.638 358.362 375.105Q358.935 375.573 359.484 376.068Q360.033 376.563 360.557 377.085Q361.081 377.607 361.579 378.155Q362.076 378.702 362.545 379.274Q363.015 379.845 363.455 380.439Q363.896 381.034 364.306 381.649Q364.716 382.264 365.096 382.9Q365.475 383.535 365.822 384.188Q366.169 384.841 366.483 385.51Q366.798 386.18 367.078 386.865Q367.359 387.549 367.605 388.247Q367.851 388.944 368.062 389.653C373.133 407.1 362.493 420.842 354.681 435.221C355.647 437.901 356.981 440.377 358.171 442.96C359.619 446.101 359.565 447.291 358.387 450.468C357.568 451.289 356.748 451.988 355.622 452.349C352.849 453.24 349.658 452.729 347.154 451.3C344.207 449.618 342.205 446.792 341.339 443.546C338.395 432.508 348.102 421.873 353.268 412.972C357.919 404.96 358.999 397.924 356.621 389.015C353.635 384.665 348.841 379.711 343.419 378.712C333.328 376.853 322.586 380.632 314.32 386.222C288.872 403.43 312.146 413.216 309.817 425.066C309.285 425.582 308.82 426.05 308.134 426.362C305.607 427.51 300.149 427.928 297.656 426.554C293.18 424.087 289.889 418.626 288.541 413.837C286.513 406.634 287.738 399.53 291.522 393.139C300.03 378.766 315.136 372.012 330.605 368.127Z"/>
	<path fill="#62615F" d="M971.94 59.7167C984.629 58.8199 997.744 61.6724 1008.05 69.4286C1014.66 74.4093 1019.72 81.4486 1020.77 89.809C1021.82 98.1434 1018.72 106.637 1013.61 113.158C1004.76 124.446 989.094 126.445 980.147 137.144C977.234 140.627 973.305 147.788 968.352 148.108C965.384 148.3 962.92 145.728 960.873 143.892C962.629 125.322 973.325 120.778 984.385 108.433C986.401 106.183 988.565 102.942 988.147 99.777C987.592 95.589 985.116 90.0361 981.729 87.3629C977.815 84.274 972.725 83.7216 967.904 84.2755C957.287 85.4955 951.109 92.1821 944.919 100.073C945.288 91.1281 946.593 82.7896 951.179 74.888C956.117 66.3785 962.64 62.2488 971.94 59.7167Z"/>
	<path fill="#2E2925" d="M690.404 122.984C698.25 122.116 707.048 123.397 714.52 125.92C724.014 129.125 732.761 135.098 737.239 144.307C748.468 167.403 728.487 180.538 721.927 199.89C723.462 203.782 725.178 207.777 726.266 211.817C727.238 215.431 726.864 218.714 724.97 221.961C722.67 225.905 718.606 228.456 714.261 229.606C708.465 231.14 701.859 230.792 696.637 227.668C692.191 225.008 689.141 220.519 687.997 215.492C685.092 202.73 691.847 189.646 698.285 179.08C699.988 176.637 701.64 174.099 701.733 171.007C701.805 168.598 700.993 166.246 699.302 164.508C697.117 162.263 693.97 161.289 690.905 161.212C667.193 160.62 670.702 188.785 662.044 196.777C656.279 202.098 647.115 200.991 639.892 200.803Q637.88 199.683 636.046 198.289C630.826 194.391 626.897 188.562 626.046 182.016C624.65 171.285 630.384 160.67 636.67 152.393C649.875 135.005 669.17 125.942 690.404 122.984Z"/>
	<path fill="#FEFCF9" d="M689.188 129.172C698.577 128.263 711.755 133.148 719.098 138.921C748.091 161.716 717.538 182.238 713.483 200.152C712.177 205.923 716.638 212.1 717.017 217.76C717.137 219.555 716.838 221.693 715.516 223.039C713.976 224.605 712.114 225.31 709.921 225.081C705.831 224.652 701.626 220.402 699.384 217.227C687.074 199.797 708.667 184.258 711.282 168.45C710.077 163.896 708.243 159.884 704.095 157.288C698.889 154.03 690.822 154.966 685.198 156.451C672.649 159.763 663.74 168.981 660.352 181.363C659.204 185.56 658.491 190.858 656.09 194.542C654.488 197.001 653.304 197.517 650.62 198.121C648.789 197.79 647.415 197.13 645.928 196.049C641.045 192.496 636.624 186.991 635.736 180.871C634.355 171.348 638.905 161.596 644.543 154.208C655.846 139.395 670.844 131.694 689.188 129.172Z"/>
	<path fill="#2E2925" d="M574.836 495.417C583.929 494.179 594.009 494.663 602.844 497.031C617.804 501.041 628.632 511.014 636.234 524.212C645.155 539.701 646.521 555.666 638.007 571.506C634.793 577.487 630.922 583.528 629.227 590.152C626.856 599.411 629.507 604.519 634.005 612.324C637.416 618.243 639.588 624.05 637.635 630.898C635.929 636.876 631.5 641.656 626.071 644.528C619.928 647.779 612.178 648.348 605.594 646.159C593.866 642.259 586.06 631.077 580.689 620.545C562.748 577.534 591.07 566.244 585.235 544.54C583.994 539.923 580.998 535.428 576.762 533.086C572.359 530.651 565.527 529.847 560.699 531.304C548.538 534.974 552.593 551.318 547.328 559.905C545.755 562.471 543.677 563.864 540.75 564.495C536.215 565.471 530.391 564.114 526.609 561.494C522.236 558.465 520.268 554.138 519.471 548.997C517.949 539.177 520.723 529.542 526.602 521.624C537.719 506.651 556.802 498 574.836 495.417Z"/>
	<path fill="#FAF2E4" d="M567.795 521.131C558.929 525.075 551.294 531.47 547.645 540.675C545.107 547.077 547.154 556.215 541.329 560.225C537.193 560.642 532.94 559.785 529.613 557.172C526.202 554.492 524.609 550.249 524.249 546.037C523.418 536.309 527.427 527.178 533.712 519.934C544.623 507.361 561.098 500.615 577.494 499.646C592.383 498.766 607.861 501.339 619.27 511.669C629.563 520.989 638.264 536.294 638.929 550.208C639.739 567.174 626.058 576.751 624.137 592.284C622.275 607.339 632.973 616.416 632.722 628.616C632.649 632.161 630.955 635.325 628.593 637.903Q628.032 638.526 627.412 639.091Q626.791 639.655 626.118 640.155Q625.444 640.655 624.725 641.085Q624.005 641.516 623.246 641.872Q622.487 642.229 621.696 642.508Q620.905 642.788 620.09 642.987Q619.276 643.186 618.445 643.303Q617.615 643.42 616.777 643.454C608.864 643.717 601.52 639.82 595.938 634.454C584.739 623.689 578.661 605.936 578.565 590.487C578.45 572.203 601.719 550.473 584.273 533.412C580.185 529.414 574.81 527.493 569.188 527.199C567.736 527.124 566.284 526.993 564.833 526.901C565.618 525.384 568.175 524.653 569.735 523.901C579.053 521.004 586.865 520.462 596.302 523.339C601.359 526.202 605.543 529.086 608.672 534.098C620.59 553.192 606.167 571.58 602.006 590.184C600.265 597.966 599.703 609.295 604.381 616.242C607.897 621.462 613.583 623.432 619.478 624.658L620.477 623.622L619.865 622.239C618.21 621.685 616.524 621.128 614.943 620.382C602.588 614.554 603.422 596.749 606.964 585.841C609.76 577.231 614.737 569.506 616.755 560.591C618.426 553.21 618.324 545.291 615.694 538.143C612.651 529.874 606.89 524.139 598.92 520.545C588.229 516.349 578.398 517.015 567.795 521.131Z"/>
	<path fill="#2E2925" d="M419.128 181.644C448.516 165.83 488.678 159.975 520.911 169.758C544.093 176.794 560.817 190.902 572.1 212.298C583.659 234.217 591.752 266.08 583.974 290.434C573.607 322.897 534.162 338.608 527.022 377.268C522.393 402.326 554.584 439.68 528.29 453.302C518.415 458.418 505.587 460.37 494.918 456.825C485.699 453.763 478.809 447.007 474.61 438.342C465.135 418.788 465.01 392.603 472.249 372.356C488.749 326.214 548.198 299.83 522.566 245.56Q522.038 244.425 521.454 243.319Q520.87 242.212 520.233 241.135Q519.595 240.058 518.905 239.015Q518.214 237.971 517.473 236.963Q516.732 235.954 515.942 234.984Q515.151 234.014 514.314 233.084Q513.477 232.154 512.594 231.267Q511.712 230.38 510.787 229.537Q509.861 228.695 508.896 227.899Q507.93 227.104 506.926 226.357Q505.922 225.61 504.882 224.914Q503.842 224.218 502.769 223.575Q501.696 222.931 500.592 222.342Q499.489 221.752 498.357 221.218Q497.226 220.684 496.069 220.206Q494.913 219.729 493.734 219.309C476.38 213.175 458.31 217.776 442.346 225.585C438.481 227.476 434.466 229.672 430.959 232.163C428.99 243.058 425.809 254.59 418.45 263.186C419.607 281.146 421.39 299.206 408.334 313.784C401.446 321.475 390.661 326.367 380.366 326.765Q379.721 326.795 379.075 326.792Q378.429 326.789 377.784 326.752Q377.139 326.716 376.497 326.647Q375.854 326.578 375.217 326.476Q374.579 326.374 373.947 326.24Q373.315 326.106 372.691 325.939Q372.067 325.773 371.452 325.575Q370.837 325.376 370.233 325.147Q369.629 324.918 369.038 324.658Q368.447 324.398 367.869 324.108Q367.292 323.818 366.73 323.499Q366.168 323.18 365.624 322.833Q365.079 322.486 364.553 322.111Q364.026 321.737 363.52 321.336Q363.013 320.935 362.528 320.508Q362.043 320.082 361.58 319.631C351.309 309.812 348.76 293.633 348.324 280.014C348.723 271.477 349.65 263.03 352.064 254.809C362.34 219.82 388.281 198.433 419.128 181.644Z"/>
	<path fill="#F9E7CB" d="M430.959 232.163C428.99 243.058 425.809 254.59 418.45 263.186C417.947 259.509 417.188 255.479 417.71 251.783C418.941 243.071 424.126 237.249 430.959 232.163Z"/>
	<path fill="#62615F" d="M476.996 171.036C477.261 170.989 477.523 170.925 477.79 170.895C500.141 168.358 524.782 173.29 542.737 187.283C564.144 203.967 574.16 231.341 577.241 257.529C582.668 303.666 556.17 313.234 531.907 344.324C512.182 369.598 512.163 388.669 524.789 417.386C527.55 423.668 531.364 430.847 532.133 437.725C532.565 441.587 531.703 445.081 529.181 448.09C526.003 451.881 517.185 456.283 512.239 456.724C503.667 457.488 497.621 454.928 491.106 449.464C480.232 440.345 475.765 426.124 474.455 412.421C470.743 373.596 490.242 349.061 513.62 320.565C517.155 316.536 520.617 312.477 523.718 308.1C534.041 293.531 539.028 277.569 535.782 259.601C532.958 243.971 523.958 228.331 510.714 219.366C495.921 209.352 478.238 208.105 461.138 211.444C448.815 213.85 435.563 218.79 424.934 225.526C380.873 253.45 413.893 288.591 396.55 313.539C393.493 317.937 387.411 322.706 381.945 323.375C378.092 323.846 372.764 321.926 369.771 319.54C361.337 312.818 358.285 296.234 357.255 286.026C354.704 260.744 365.799 235.593 381.584 216.358C405.16 187.63 440.891 174.487 476.996 171.036Z"/>
	<path fill="#2E2925" d="M513.139 353.707C513.773 356.729 507.659 368.972 506.471 372.732C500.386 391.992 502.477 403.861 511.604 421.489L510.869 422.362C505.335 416.251 501.554 409.737 500.087 401.543C497.175 385.274 503.877 366.983 513.139 353.707Z"/>
	<path fill="#2E2925" d="M510.481 342.23C510.796 345.166 488.027 376.926 487.425 397.378C487.047 410.204 491.812 413.586 492.808 421.916L491.434 421.441C486.518 413.824 483.056 406.579 483.12 397.248C483.253 377.864 496.882 355.388 510.481 342.23Z"/>
	<path fill="#2E2925" d="M493.152 174.402C493.879 174.31 494.597 174.238 495.332 174.215C510.76 173.743 531.099 186.063 541.813 196.581C558.483 212.947 568.704 241.302 568.791 264.438C568.918 297.926 546.955 316.931 525.089 338.893L523.932 338.962C524.949 332.968 544.736 313.865 549.45 307.572C554.006 301.493 558.039 294.794 561.09 287.829C569.298 269.096 563.403 241.953 556.116 223.87C547.427 202.306 531.09 189.261 510.119 180.66C504.53 178.367 498.712 176.788 493.152 174.402Z"/>
	<path fill="#D3CBC1" d="M180.834 389.093C163.065 365.875 147.639 345.19 146.819 314.752C145.805 277.111 163.53 240.826 189.094 214.064C225.883 175.551 283.052 150.821 336.223 149.78C367.359 149.17 396.655 159.95 419.128 181.644C388.281 198.433 362.34 219.82 352.064 254.809C349.65 263.03 348.723 271.477 348.324 280.014C333.274 281.698 318.55 283.771 303.942 287.935C244.905 304.761 210.157 336.352 180.834 389.093Z"/>
	<path fill="#D3CBC1" d="M492.789 831.052C488.599 843.827 484.007 854.61 474.997 864.784C447.885 895.398 406.087 913.838 365.536 916.207C308.849 919.519 243.338 879.998 201.985 843.251C149.518 796.63 109.004 733.789 105.001 662.077C102.992 626.083 112.558 593.841 136.934 566.761C164.371 536.28 208.514 515.119 249.514 513.004C270.762 511.907 288.333 516.255 304.509 530.787C336.126 523.053 372.203 526.936 400.306 543.939C418.194 554.763 433.276 570.128 438.352 590.99C448.229 631.587 405.44 671.528 429.356 711.264C448.993 743.891 519.037 762.785 516.95 801.491C516.648 807.104 515.215 812.901 512.178 817.678C507.835 824.506 500.582 829.16 492.789 831.052Z"/>
	<path fill="#2E2925" d="M304.509 530.787C336.126 523.053 372.203 526.936 400.306 543.939C418.194 554.763 433.276 570.128 438.352 590.99C448.229 631.587 405.44 671.528 429.356 711.264C448.993 743.891 519.037 762.785 516.95 801.491C516.648 807.104 515.215 812.901 512.178 817.678C507.835 824.506 500.582 829.16 492.789 831.052C487.341 831.617 482.408 831.427 476.98 830.922C459.256 827.274 443.97 819.783 431.192 806.81C401.623 776.79 398.879 736.798 399.095 696.976C393.373 689.967 388.706 679.605 384.13 671.705C369.513 646.466 356.289 620.406 342.879 594.511C337.047 583.249 330.695 572.261 324.991 560.935C326.193 559.766 330.942 559.962 332.792 559.844C324.541 558.364 315.863 559.578 307.875 561.941C290.284 567.146 274.445 580.576 265.8 596.77C242.039 641.276 286.603 644.098 294.884 671.915C297.765 681.593 296.368 691.516 291.487 700.297C287.915 706.723 283.906 710.426 276.752 712.43C265.707 715.525 253.726 712.704 243.974 707.102C228.514 698.22 217.487 682.233 212.893 665.146C206.292 640.6 212.077 613.116 224.635 591.459C239.684 565.507 265.676 541.45 295.198 533.55C298.169 532.252 301.377 531.581 304.509 530.787Z"/>
	<path fill="#FEFCF9" d="M332.792 559.844C353.03 562.148 371.64 574.002 384.232 589.834C402.664 613.008 403.022 638.334 401.279 666.641C400.702 676.026 400.416 685.621 399.347 694.954Q399.231 695.966 399.095 696.976C393.373 689.967 388.706 679.605 384.13 671.705C369.513 646.466 356.289 620.406 342.879 594.511C337.047 583.249 330.695 572.261 324.991 560.935C326.193 559.766 330.942 559.962 332.792 559.844Z"/>
	<path fill="#D3CBC1" d="M405.225 704.001C415.963 720.958 429.573 737.684 444.282 751.41C472.117 777.385 492.87 783.173 493.909 826.376C489.547 827.242 485.383 827.628 480.94 827.778C463.68 825.083 449.696 818.125 437.381 805.685C410.05 778.076 405.159 741.085 405.225 704.001Z"/>
	<path fill="#D3CBC1" d="M297.375 536.713C300.262 536.235 303.312 534.973 306.115 534.068C311.124 539.796 314.815 546.013 318.257 552.779C321.559 552.763 325.932 552.239 329.008 553.371C313.856 555.481 307.517 553.844 292.816 561.383C275.807 570.104 259.734 587.37 253.948 605.749C249.107 621.127 252.95 638.329 265.946 648.649C272.455 653.818 281.362 657.622 285.271 665.351C289.538 673.788 288.829 685.205 285.978 693.937C284.085 699.735 280.648 705.125 275.004 707.879C269.639 710.497 262.23 710.178 256.741 708.138C242.223 702.744 231.126 691.554 224.843 677.503C215.266 656.085 216.488 629.058 224.83 607.459C237.781 573.925 265.216 550.967 297.375 536.713Z"/>
	<path fill="#FEFCF9" d="M306.115 534.068Q307.529 533.725 308.951 533.416Q310.372 533.107 311.801 532.833Q313.23 532.558 314.665 532.318Q316.099 532.078 317.54 531.872Q318.98 531.667 320.425 531.496Q321.87 531.325 323.318 531.189Q324.767 531.053 326.218 530.952Q327.669 530.851 329.123 530.785Q330.576 530.719 332.03 530.687Q333.485 530.656 334.94 530.66Q336.395 530.664 337.849 530.703Q339.303 530.742 340.756 530.815Q342.209 530.889 343.66 530.998Q345.111 531.107 346.559 531.25Q348.006 531.394 349.45 531.572Q350.894 531.751 352.333 531.964Q353.772 532.177 355.206 532.424Q356.64 532.672 358.067 532.954Q359.494 533.236 360.914 533.552Q362.334 533.869 363.746 534.219Q365.158 534.57 366.562 534.954Q367.965 535.338 369.358 535.756Q370.752 536.174 372.135 536.625Q373.518 537.076 374.89 537.561Q376.262 538.045 377.622 538.563Q378.981 539.08 380.328 539.63Q381.675 540.18 383.009 540.762Q384.342 541.344 385.661 541.958Q386.98 542.572 388.284 543.218Q389.588 543.863 390.876 544.54Q392.164 545.217 393.435 545.924Q394.706 546.632 395.96 547.37C411.699 556.788 426.75 572.096 431.329 590.303C441.68 631.465 397.935 673.715 423.556 713.95C430.409 724.712 442.366 734.346 452.599 741.759C471.533 755.477 527.194 783.615 509.001 813.466C505.31 819.522 500.083 823.17 493.909 826.376C492.87 783.173 472.117 777.385 444.282 751.41C429.573 737.684 415.963 720.958 405.225 704.001C405.051 660.915 418.674 624.974 389.092 587.532C373.576 567.894 353.836 556.337 329.008 553.371C325.932 552.239 321.559 552.763 318.257 552.779C314.815 546.013 311.124 539.796 306.115 534.068Z"/>
	<path fill="#D3CBC1" d="M1474.17 270.965C1482.12 273.818 1492.28 284.128 1499.58 289.292C1509.32 296.185 1519.56 302.713 1530.11 308.302C1552.65 320.24 1577.4 328.53 1600.75 338.784C1655.54 362.841 1701.82 401.17 1727.54 456.044C1744.33 491.847 1746.52 529.493 1733.04 566.699C1714.62 617.498 1673.41 658.85 1647.8 706.488Q1640.26 720.408 1633.62 734.778Q1626.98 749.147 1621.26 763.908C1610.66 790.608 1602.17 818.539 1585.19 842.1C1569.01 864.56 1547.98 881.38 1523 893.039C1473.06 916.346 1416.18 923.351 1361.54 919.674Q1347.82 918.834 1334.24 916.703C1328.74 915.89 1322.18 914.11 1316.66 914.324C1316.27 917.07 1316.2 920.335 1314.77 922.745C1314.83 922.583 1314.9 922.425 1314.95 922.259C1318.57 909.504 1308.67 881.374 1302.14 870.015C1277.43 827.059 1213.78 812.954 1169.4 800.969C1178.95 796.447 1189 786.565 1198.23 780.544C1250.02 746.78 1333.42 691.311 1355.94 632.608Q1358.64 625.512 1360.55 618.162Q1362.46 610.812 1363.55 603.296C1365.35 591.187 1368.98 523.716 1364.95 514.652C1363.67 511.759 1359.38 508.215 1357.34 505.574C1353.32 500.387 1352.28 494.532 1352.09 488.064C1351.22 459.816 1374.6 444.307 1375.59 436.542C1379.7 425.148 1377.63 406.192 1378.16 393.706C1378.64 382.308 1380.66 370.553 1384.31 359.738C1392.84 334.483 1417.36 294.371 1442 282.173C1452.12 277.16 1464.07 276.099 1473.81 271.156C1473.93 271.094 1474.05 271.028 1474.17 270.965Z"/>
	<path fill="#2E2925" d="M1409.66 755.11Q1410.57 755.003 1411.48 754.91C1421.82 753.854 1431.59 755.767 1439.74 762.572C1447.34 768.914 1452.25 778.781 1453.05 788.621C1454.01 800.451 1448.39 812.702 1440.71 821.44C1432.92 830.322 1423.63 834.635 1411.95 835.501Q1410.71 835.594 1409.47 835.604Q1408.22 835.612 1406.98 835.537Q1405.74 835.462 1404.51 835.302Q1403.27 835.142 1402.05 834.899Q1400.83 834.656 1399.63 834.331Q1398.43 834.005 1397.26 833.599Q1396.08 833.193 1394.94 832.708Q1393.79 832.223 1392.68 831.661C1382.53 826.46 1375.33 817.047 1372.07 806.203C1369.14 796.423 1369.53 785.528 1374.5 776.468C1381.85 763.099 1396.05 759.208 1409.66 755.11Z"/>
	<path fill="#F9E7CB" d="M1413.36 758.666C1418.96 758.274 1424.35 758.806 1429.55 761.041C1438.57 764.918 1445 773.913 1448.29 782.951C1449.64 786.665 1450.44 793.76 1448.79 797.367L1447.12 796.891C1447.3 794.422 1446.44 791.959 1445.52 789.691C1441.59 779.978 1431.84 768.224 1422.37 763.439C1419.14 761.813 1415.43 761.072 1412.08 759.641L1413.36 758.666Z"/>
	<path fill="#F9E7CB" d="M1379.62 774.66C1381.36 776.939 1378.22 787.028 1378.47 790.883C1379.04 800.07 1384.84 809.775 1391.75 815.614C1399.74 822.373 1411.57 825.889 1421.96 824.456C1426.25 823.866 1430.25 822.319 1434.61 821.99C1433.75 823.733 1431.35 824.506 1429.67 825.333C1428.56 827.208 1425.24 828.503 1423.27 829.284Q1422.46 829.599 1421.64 829.875Q1420.82 830.15 1419.98 830.384Q1419.15 830.619 1418.31 830.812Q1417.46 831.005 1416.61 831.156Q1415.75 831.308 1414.89 831.417Q1414.03 831.526 1413.17 831.593Q1412.31 831.659 1411.44 831.683Q1410.57 831.707 1409.71 831.689Q1408.84 831.67 1407.98 831.609Q1407.11 831.548 1406.25 831.444Q1405.39 831.34 1404.54 831.194Q1403.68 831.048 1402.84 830.86Q1401.99 830.672 1401.15 830.443Q1400.32 830.214 1399.49 829.944Q1398.67 829.674 1397.86 829.363Q1397.05 829.053 1396.26 828.703Q1395.45 828.337 1394.66 827.931Q1393.87 827.526 1393.1 827.082Q1392.33 826.637 1391.58 826.156Q1390.84 825.674 1390.12 825.157Q1389.39 824.639 1388.7 824.086Q1388 823.534 1387.34 822.947Q1386.67 822.361 1386.03 821.742Q1385.39 821.124 1384.79 820.475Q1384.18 819.825 1383.61 819.147Q1383.03 818.469 1382.49 817.763Q1381.96 817.057 1381.45 816.326Q1380.95 815.594 1380.48 814.839Q1380.01 814.083 1379.58 813.305Q1379.15 812.528 1378.76 811.73Q1378.37 810.932 1378.02 810.116Q1377.67 809.299 1377.36 808.467C1372.79 796.536 1374.64 785.931 1379.62 774.66Z"/>
	<path fill="#D3CBC1" d="M1403.41 763.111C1406.3 762.995 1409.54 763.221 1412.35 763.88C1423.57 766.509 1433.38 776.174 1439.29 785.654C1442.68 791.099 1446.38 799.545 1444.85 806.07C1444.62 807.333 1444.11 808.329 1443.36 809.375C1439.08 815.365 1429.76 818.599 1422.83 819.557C1422.7 819.585 1422.57 819.618 1422.44 819.641C1413.66 821.154 1403.53 819.129 1396.27 813.946C1389.15 808.872 1384.5 800.858 1383.21 792.252C1382.15 785.169 1383.34 777.131 1387.83 771.365C1391.94 766.099 1396.95 763.93 1403.41 763.111Z"/>
	<path fill="#2E2925" d="M1375.59 436.542C1375.76 436.465 1375.92 436.392 1376.09 436.31C1384.21 432.283 1395.28 419.95 1403.83 414.041C1433.6 393.456 1458.22 385.266 1494.3 386.638C1508.56 387.18 1523.13 389.149 1536.77 393.471C1561.55 401.322 1586.13 417.571 1598.33 441.122C1610.54 464.689 1609.89 502.627 1601.89 527.472C1589.19 566.941 1555.85 588.084 1522.47 608.96C1511.25 615.982 1499.79 622.746 1489.79 631.51C1482.41 637.985 1476.31 644.915 1471.38 653.429C1462.46 668.836 1454.97 701.159 1439.23 709.269C1430.67 713.678 1420.04 714.419 1410.9 711.438C1402.91 708.831 1396.37 703.353 1392.63 695.801C1386.38 683.213 1389.21 668.23 1393.63 655.512C1408.27 613.468 1447.71 591.168 1485.63 572.659C1497.48 566.872 1511.29 561.421 1520.34 551.501C1529.59 541.356 1534.6 525.064 1537.22 511.778C1539.73 499.099 1540.68 485.045 1534.99 473.061C1529.28 461.039 1517.37 452.594 1505.02 448.392Q1503.61 447.926 1502.18 447.529Q1500.75 447.132 1499.3 446.804Q1497.85 446.476 1496.38 446.219Q1494.92 445.961 1493.45 445.774Q1491.97 445.588 1490.49 445.472Q1489.01 445.357 1487.53 445.313Q1486.04 445.269 1484.56 445.297Q1483.07 445.324 1481.59 445.424Q1480.11 445.523 1478.63 445.693Q1477.15 445.864 1475.69 446.106Q1474.22 446.347 1472.77 446.659Q1471.32 446.971 1469.88 447.353Q1468.44 447.734 1467.03 448.185Q1465.61 448.635 1464.22 449.153Q1462.83 449.671 1461.46 450.256Q1460.1 450.84 1458.76 451.49C1422.07 469.623 1433.59 513.719 1398.3 519.847C1390.23 521.248 1381.12 520.343 1373.37 517.75Q1369.13 516.291 1364.95 514.652C1363.67 511.759 1359.38 508.215 1357.34 505.574C1353.32 500.387 1352.28 494.532 1352.09 488.064C1351.22 459.816 1374.6 444.307 1375.59 436.542Z"/>
	<path fill="#D3CBC1" d="M1526.67 586.684C1527.09 586.568 1527.71 586.414 1528.14 586.237C1532.45 584.449 1537.15 580.612 1540.87 577.784C1558.44 564.459 1572.74 548.667 1581.67 528.304C1597.35 492.538 1589.53 450.66 1566.18 420.104C1562.73 415.579 1552.43 408.943 1551.01 405.337C1558.7 406.44 1578.16 424.774 1583.46 431.448C1599.08 451.127 1602.65 477.847 1599.85 502.167C1595.51 539.876 1570.09 569.294 1539.16 589.455C1515.71 604.736 1489.4 617.625 1471.14 639.432C1464.87 646.925 1459.93 655.168 1455.85 664.037C1451.15 674.264 1446.41 696.551 1437.88 703.14C1432.47 707.32 1424.59 708.004 1418.03 707.055C1411.81 706.156 1405.03 703.264 1401.22 698.06C1395.71 690.532 1395.68 678.223 1397.14 669.437C1404.24 626.784 1445.53 602.635 1480.42 584.412C1491.99 578.372 1504.95 572.725 1515.42 564.976C1533.33 551.731 1542.17 527.464 1545.51 506.15C1547.8 491.553 1545.45 477.772 1536.48 465.746C1524.68 449.937 1505.54 441.677 1486.44 439.133Q1484.15 438.826 1481.84 438.671Q1479.53 438.517 1477.21 438.516Q1474.9 438.515 1472.59 438.668Q1470.28 438.821 1467.98 439.127Q1465.69 439.433 1463.42 439.89Q1461.15 440.347 1458.92 440.954Q1456.68 441.561 1454.49 442.315Q1452.3 443.069 1450.17 443.967C1411.61 460.349 1417.87 494.227 1397.22 509.618C1392.5 513.142 1386.74 514.696 1380.89 513.799C1374.28 512.784 1366.61 508.961 1362.74 503.369C1358.07 496.635 1358.41 487.486 1359.89 479.792C1365.05 452.983 1388.96 430.502 1410.72 416.067C1444.87 393.411 1479.17 387.609 1519.14 395.75C1540.09 400.017 1555.91 409.99 1567.69 427.992C1582.68 450.892 1589.31 480.997 1583.66 507.913C1576.41 542.461 1552.39 565.328 1523.87 583.886C1499.54 603.304 1471.38 614.667 1449.17 637.277C1447.96 639.699 1446.4 641.857 1444.96 644.14C1439.4 652.983 1430.42 672.797 1432.81 683.191L1433.87 683.044C1437.45 678.021 1441.13 658.883 1445.65 650.447C1448.27 645.575 1456.47 638.917 1457.22 633.872C1463.05 631.986 1470.68 624.374 1475.84 620.743C1485.2 614.151 1523.33 592.699 1526.67 586.684Z"/>
	<path fill="#2E2925" d="M1406.22 459.995C1408.63 459.702 1410.29 459.39 1412.58 460.458L1412.72 462.107L1410.73 464.448L1409.28 464.342C1407.19 462.855 1407.12 462.438 1406.22 459.995Z"/>
	<path fill="#2E2925" d="M1418.9 423.55C1419.64 423.401 1420.36 423.239 1421.12 423.234C1423.22 423.22 1424.37 423.745 1425.87 425.14C1425.91 427.326 1425.55 427.325 1424.15 428.894L1422.28 428.897C1420.07 427.187 1419.85 426.093 1418.9 423.55Z"/>
	<path fill="#2E2925" d="M1475.6 411.998C1477.03 412.053 1478.58 412.251 1479.77 413.08C1481.33 414.16 1481.36 414.447 1481.75 416.293L1480.01 418.25C1477.57 418.059 1477.07 417.861 1475.04 416.493C1474.41 414.154 1474.49 414.161 1475.6 411.998Z"/>
	<path fill="#2E2925" d="M1389.38 467.108C1389.58 467.084 1389.78 467.04 1389.98 467.037C1392.52 466.995 1393.94 468.035 1395.54 469.752L1395.18 471.716L1392.76 473.231C1392.71 473.244 1392.66 473.268 1392.6 473.27C1390.42 473.348 1389.97 473.327 1388.3 471.893C1388.06 469.439 1388.13 469.238 1389.38 467.108Z"/>
	<path fill="#2E2925" d="M1544.13 551.551L1545.4 551.715L1545.36 553.194Q1544.86 554.136 1544.32 555.059Q1543.33 556.794 1542.16 558.418C1521.32 587.187 1469.51 602.255 1441.14 629.555C1435.33 635.145 1430.76 642.13 1427.37 649.426C1424.62 655.352 1420.74 673.955 1416.6 676.895C1415.95 676.44 1415.63 675.472 1415.55 674.703C1414.93 669.324 1417.68 661.255 1419.44 656.127C1438.73 599.74 1512.26 596.376 1544.13 551.551Z"/>
	<path fill="#F9E7CB" d="M961.09 210.807C970.471 199.328 980.004 188.011 990.636 177.654C1021.39 147.697 1077.41 106.673 1116.74 90.0096Q1123.73 87.0199 1130.92 84.5705Q1138.11 82.1211 1145.47 80.2262Q1152.83 78.3312 1160.32 77.0016Q1167.8 75.6721 1175.36 74.9156C1247.27 67.714 1298.68 93.2164 1352.97 137.834Q1371.1 152.767 1387.37 169.717C1411.18 194.978 1431.69 222.734 1454.23 249.062C1457.56 252.954 1473.56 268.037 1474.17 270.965C1474.05 271.028 1473.93 271.094 1473.81 271.156C1464.07 276.099 1452.12 277.16 1442 282.173C1417.36 294.371 1392.84 334.483 1384.31 359.738C1380.66 370.553 1378.64 382.308 1378.16 393.706C1377.63 406.192 1379.7 425.148 1375.59 436.542C1374.6 444.307 1351.22 459.816 1352.09 488.064C1352.28 494.532 1353.32 500.387 1357.34 505.574C1359.38 508.215 1363.67 511.759 1364.95 514.652C1368.98 523.716 1365.35 591.187 1363.55 603.296Q1362.46 610.812 1360.55 618.162Q1358.64 625.512 1355.94 632.608C1333.42 691.311 1250.02 746.78 1198.23 780.544C1189 786.565 1178.95 796.447 1169.4 800.969C1152.63 796.093 1136.41 790.452 1119.98 784.558C1120.03 784.358 1120.12 784.164 1120.15 783.958C1120.94 778.534 1109.55 756.511 1106.11 750.471C1093.58 728.499 1066.09 702.648 1041.39 695.893C1044.93 688.264 1047.39 652.108 1044.92 644.21C1052.16 641.581 1060.58 636.556 1066.56 631.692C1069.73 629.106 1074.4 624.808 1075.53 620.732C1080.59 602.55 1077.67 581.009 1078.89 562.231C1081.05 528.949 1089.41 495.209 1085.26 461.733C1082.26 437.569 1062.69 419.469 1063.04 393.963C1063.12 387.819 1065.84 381.445 1066.41 375.228C1066.71 371.982 1057.43 318.492 1055.95 313.005C1055.2 310.218 1054.1 308.143 1052.26 305.929C1066.85 321.301 1058.1 330.295 1063.32 343.227C1064.06 345.074 1064.37 345.886 1066.26 346.675C1066.53 346.34 1066.95 345.867 1067.16 345.458C1070.07 339.793 1069.38 325.744 1067.83 319.729C1062.58 299.304 1040.39 271.302 1024.12 257.954C1019.72 254.347 1014.65 251.571 1009.74 248.731C1015.27 250.459 1020.26 252.607 1024.91 256.106C1028.5 258.804 1034.15 266.978 1037.81 267.89C1039.55 270.758 1041.13 273.949 1044.29 275.405L1045.87 274.622C1046.47 272.527 1046.95 270.554 1047.16 268.383C1047.27 267.699 1047.34 267.073 1047.35 266.381C1047.51 255.937 1035.71 240.021 1028.47 232.956C1010.9 215.798 984.877 210.356 961.09 210.807Z"/>
	<path fill="#2E2925" d="M1150.72 677.776C1155.37 677.459 1160.03 678.121 1163.93 680.851Q1164.62 681.335 1165.25 681.884Q1165.89 682.433 1166.47 683.042Q1167.05 683.65 1167.56 684.312Q1168.08 684.974 1168.53 685.684Q1168.98 686.394 1169.36 687.144Q1169.74 687.894 1170.04 688.678Q1170.34 689.461 1170.57 690.271Q1170.79 691.08 1170.94 691.908C1171.7 696.379 1170.8 701.199 1168.1 704.895C1164.84 709.376 1160.74 711.163 1155.41 711.991C1151.98 712.275 1148.61 711.93 1145.47 710.448Q1144.78 710.117 1144.12 709.719Q1143.47 709.321 1142.86 708.86Q1142.25 708.399 1141.68 707.88Q1141.12 707.361 1140.61 706.788Q1140.1 706.216 1139.65 705.596Q1139.2 704.976 1138.81 704.315Q1138.43 703.653 1138.11 702.957Q1137.79 702.261 1137.54 701.536Q1137.38 701.08 1137.24 700.616Q1137.11 700.153 1137 699.683Q1136.88 699.213 1136.8 698.738Q1136.71 698.263 1136.64 697.784Q1136.58 697.305 1136.54 696.824Q1136.5 696.343 1136.49 695.86Q1136.47 695.377 1136.48 694.894Q1136.49 694.411 1136.53 693.929Q1136.56 693.447 1136.62 692.968Q1136.68 692.488 1136.76 692.012Q1136.85 691.536 1136.95 691.066Q1137.06 690.595 1137.19 690.13Q1137.32 689.665 1137.48 689.207Q1137.63 688.749 1137.81 688.3Q1137.99 687.851 1138.19 687.411Q1138.39 686.972 1138.61 686.543C1141.26 681.347 1145.38 679.457 1150.72 677.776Z"/>
	<path fill="#2E2925" d="M1152.38 463.083C1159.98 460.324 1166.22 460.716 1173.64 464.154C1178.05 466.202 1181.2 469.693 1183.54 473.876L1183.56 475.227C1185.32 476.183 1186.5 477.657 1187.48 479.364C1191.88 487.025 1193.33 496.153 1190.87 504.718C1187.69 515.836 1174.22 529.331 1164.26 534.766C1156.24 539.142 1146.94 541.107 1138.06 538.302C1129.31 535.54 1122.39 528.625 1118.38 520.513C1113.53 510.706 1112.94 498.89 1116.44 488.553C1119.97 478.119 1126.81 471.445 1136.5 466.658C1141.5 464.883 1147.88 465.609 1152.38 463.083Z"/>
	<path fill="#F9E7CB" d="M1156.94 465.901C1162.24 464.284 1166.52 465.055 1171.39 467.737C1174.67 469.545 1178.43 472.998 1179.76 476.533C1182.23 478.789 1183.68 481.691 1184.94 484.742C1187.4 490.647 1188.99 497.792 1186.39 503.914C1185.83 496.674 1184.39 490.53 1180.85 484.11C1177.63 478.27 1172.22 472.132 1165.63 470.236L1165.25 469.457C1162.91 467.45 1159.84 466.804 1156.94 465.901Z"/>
	<path fill="#F9E7CB" d="M1117.73 499.986C1119.17 500.65 1125.24 512.773 1127.53 515.597C1137.38 527.707 1147.49 528.761 1161.92 530.278L1161.56 531.137L1158.05 532.511C1156.25 534.393 1152.77 535.148 1150.23 535.461C1143.42 536.302 1135.66 533.982 1130.33 529.667C1121.37 522.402 1118.79 510.89 1117.73 499.986Z"/>
	<path fill="#F9E7CB" d="M1139 469.478C1146.9 469.393 1154.29 468.561 1161.59 472.011C1165.99 474.146 1169.81 476.739 1173.1 480.394C1178.8 486.728 1182.54 495.558 1181.99 504.17C1181.63 509.692 1179.63 515.378 1175.43 519.09C1175.24 519.501 1175.19 519.697 1174.82 520.054C1170.51 524.327 1162.68 526.479 1156.77 526.008Q1155.8 525.935 1154.83 525.814Q1153.86 525.692 1152.9 525.522Q1151.94 525.352 1150.99 525.133Q1150.04 524.915 1149.1 524.649Q1148.16 524.383 1147.24 524.07Q1146.31 523.758 1145.4 523.399Q1144.5 523.04 1143.61 522.635Q1142.72 522.231 1141.85 521.783Q1140.99 521.335 1140.15 520.843Q1139.3 520.352 1138.49 519.818Q1137.67 519.285 1136.88 518.711Q1136.09 518.137 1135.33 517.525Q1134.57 516.912 1133.84 516.262Q1133.12 515.612 1132.42 514.926Q1131.73 514.24 1131.07 513.519Q1130.41 512.799 1129.79 512.047C1124.64 505.808 1121.3 497.709 1122.23 489.523C1123.55 478.036 1130.67 476.018 1138.66 469.75L1139 469.478Z"/>
	<path fill="#2E2925" d="M1221.7 543.552C1222.45 543.57 1223.17 543.585 1223.92 543.681C1231.85 544.702 1270.34 562.046 1278.64 567.41Q1281.11 569.03 1283.28 571.041Q1285.44 573.051 1287.24 575.394C1292.94 582.757 1294.93 590.692 1293.64 599.881C1292.45 608.365 1288.66 615.827 1282.84 622.067C1263.37 642.93 1235.49 636.602 1211.11 646.126C1203.19 649.221 1196.96 655.169 1190.26 660.179C1189.32 663.445 1187.02 667.353 1184.59 669.741C1180.82 666.518 1175.54 663.928 1171.25 661.286C1178.77 652.442 1183.18 642.633 1192.22 634.665C1205.24 623.2 1223.08 615.784 1234.95 603.473C1238.48 599.811 1241.52 595.207 1241.24 589.898C1241.07 586.629 1239.59 583.889 1237.17 581.736C1226.74 572.439 1208.48 573.137 1195.42 574.003C1200.03 570.705 1220 548.465 1221.7 543.552Z"/>
	<path fill="#2E2925" d="M1218.41 129.329C1256.89 126.202 1299.01 131.594 1329.48 157.264C1349.96 174.518 1365.27 202.753 1367.44 229.55C1368.83 246.799 1366.7 265.234 1361.47 281.725C1342.03 343.031 1283.46 335.084 1242.51 371.688C1222.84 389.274 1224.55 414.74 1210.1 431.219C1205.96 435.944 1200.3 439.23 1193.94 439.537C1186.57 439.892 1178.83 436.543 1173.44 431.616C1159.2 418.607 1165.39 395.455 1171.17 379.741C1172.55 375.975 1175.68 370.195 1175.41 366.215C1175.4 366.074 1175.37 365.934 1175.36 365.793C1178.16 363.259 1179.86 358.908 1181.9 355.682C1188.75 344.859 1196.41 335.432 1206.87 327.898C1215.23 321.878 1224.47 316.555 1233.76 312.106C1252.71 303.027 1274.92 296.195 1287.81 278.456C1297.96 264.496 1299.46 248.067 1296.64 231.524C1293.86 215.179 1284.17 199.459 1270.53 190.038C1258.58 181.791 1243.95 179.246 1229.78 182.055C1205.32 186.905 1197.95 202.046 1185.41 220.436C1181.21 226.593 1173.87 233.64 1166.25 234.954C1154.78 236.932 1139.05 233.319 1129.81 226.46C1123.39 221.697 1119.51 214.736 1118.46 206.846C1116.69 193.597 1122.69 180.042 1130.64 169.751C1151.73 142.479 1185.8 133.385 1218.41 129.329Z"/>
	<path fill="#F9E7CB" d="M1223.13 133.774L1224.84 133.666C1258.75 131.613 1290.58 142.937 1315.87 165.492C1334.65 182.234 1344.96 201.958 1346.38 227.202C1352.27 332.17 1267.58 310.832 1218.57 365.923C1210.95 374.488 1199.48 394.147 1200.12 405.656L1201.37 405.237C1204.41 401.321 1205.34 395.374 1206.91 390.709C1210.52 379.995 1217.15 370.409 1225.32 362.669C1259.08 330.696 1318.61 326 1339.57 282.993C1350.97 259.593 1352.59 225.797 1344.03 201.28C1335.01 175.44 1311.52 154.924 1287.38 143.327C1296.07 144.734 1305.19 149.628 1312.63 154.215C1334.6 167.775 1352.04 191.514 1357.91 216.731C1360.08 226.069 1363.35 245.455 1358.12 253.802C1358.47 254.529 1358.83 255.224 1359.01 256.018C1360.28 261.632 1355.83 272.869 1353.96 278.3C1332.87 339.574 1278.21 329.429 1238.47 367.069C1225.2 379.643 1219.75 392.688 1213.79 409.601C1211.81 415.216 1210 421.033 1206.72 426.053C1204.09 430.071 1200.55 433.422 1195.69 434.318C1190.82 435.217 1184.53 433.277 1180.54 430.439C1175.43 426.8 1172.13 420.824 1171.14 414.705C1169.3 403.284 1173.31 390.241 1177.19 379.563C1192.32 337.882 1221.07 325.099 1258.74 307.601C1271.79 301.542 1284.29 294.988 1292.89 282.958C1303.4 268.248 1305.28 249.234 1302.23 231.803C1299.03 213.52 1287 195.901 1271.81 185.399C1257.8 175.718 1241.58 172.958 1225.02 175.952C1209.38 178.781 1193.13 186.27 1183.5 199.265C1178.88 205.492 1175.43 212.532 1170.96 218.872C1167.03 224.445 1161.6 228.854 1154.71 229.924C1147.64 231.021 1140.1 228.56 1134.51 224.233C1129.38 220.257 1125.45 214.203 1124.67 207.685C1123.16 194.953 1129.58 180.028 1137.51 170.273C1157.41 145.762 1193.21 136.851 1223.13 133.774Z"/>
	<path fill="#2E2925" d="M887.251 202.985C900.436 194.097 920.742 180.817 937.489 184.339C943.498 185.603 948.176 189.434 951.337 194.616C952.517 196.551 953.145 198.153 952.572 200.371C947.844 199.036 946.159 189.704 934.811 188.449C922.099 187.043 905.443 195.558 895.693 203.361C898.541 203.35 901.424 203.323 904.266 203.536C912.449 204.15 918.058 206.923 923.385 213.144L924.044 215.818C933.536 217.394 939.86 220.009 947.933 225.432C948.546 225.844 949.12 225.955 949.839 226.026C953.255 223.236 957.872 219.806 959.281 215.468L958.304 213.915C952.847 214.087 947.336 215.098 941.929 215.839C948.303 213.533 954.41 211.915 961.09 210.807C984.877 210.356 1010.9 215.798 1028.47 232.956C1035.71 240.021 1047.51 255.937 1047.35 266.381C1047.34 267.073 1047.27 267.699 1047.16 268.383C1046.95 270.554 1046.47 272.527 1045.87 274.622L1044.29 275.405C1041.13 273.949 1039.55 270.758 1037.81 267.89C1034.15 266.978 1028.5 258.804 1024.91 256.106C1020.26 252.607 1015.27 250.459 1009.74 248.731C1014.65 251.571 1019.72 254.347 1024.12 257.954C1040.39 271.302 1062.58 299.304 1067.83 319.729C1069.38 325.744 1070.07 339.793 1067.16 345.458C1066.95 345.867 1066.53 346.34 1066.26 346.675C1064.37 345.886 1064.06 345.074 1063.32 343.227C1058.1 330.295 1066.85 321.301 1052.26 305.929C1054.1 308.143 1055.2 310.218 1055.95 313.005C1057.43 318.492 1066.71 371.982 1066.41 375.228C1065.84 381.445 1063.12 387.819 1063.04 393.963C1062.69 419.469 1082.26 437.569 1085.26 461.733C1089.41 495.209 1081.05 528.949 1078.89 562.231C1077.67 581.009 1080.59 602.55 1075.53 620.732C1074.4 624.808 1069.73 629.106 1066.56 631.692C1060.58 636.556 1052.16 641.581 1044.92 644.21C1047.39 652.108 1044.93 688.264 1041.39 695.893C1066.09 702.648 1093.58 728.499 1106.11 750.471C1109.55 756.511 1120.94 778.534 1120.15 783.958C1120.12 784.164 1120.03 784.358 1119.98 784.558C1136.41 790.452 1152.63 796.093 1169.4 800.969C1213.78 812.954 1277.43 827.059 1302.14 870.015C1308.67 881.374 1318.57 909.504 1314.95 922.259C1314.9 922.425 1314.83 922.583 1314.77 922.745C1315.14 923.51 1315.5 924.32 1315.69 925.153C1317.48 932.927 1317.52 948.092 1313.59 954.738C1313.71 954.256 1313.81 953.771 1313.88 953.282C1314.68 948.221 1312.24 940.809 1311.19 935.772C1306.29 912.223 1301.56 889.763 1286.93 870.045C1268.93 845.785 1240.01 832.254 1212.36 822.139C1203.44 818.875 1194.13 815.429 1184.71 814.01L1184.54 815.426C1190.41 820.705 1206.18 831.01 1209.03 837.422C1223.29 839.978 1238.44 845.731 1247.12 858.006C1253.17 866.556 1254.74 876.822 1252.8 887C1251.54 893.601 1248.81 899.317 1245.77 905.226L1245.18 905.49C1249.46 890.263 1256.12 877.307 1247.51 861.841C1241.01 850.18 1227.31 843.389 1214.83 839.989Q1211.64 839.144 1208.43 838.418C1217.81 843.865 1225.9 853.599 1228.64 864.225C1231.18 874.059 1228.5 884.301 1223.37 892.837C1198.81 933.644 1119.54 950.957 1075.2 961.578Q1066.7 963.63 1058.12 965.361C1058.66 968.15 1057.84 970.565 1057.14 973.25L1056.02 974.221C1055.27 971.669 1057.13 968.555 1055.77 966.616Q1049.99 967.237 1044.25 968.141C1044.73 970.252 1044.75 973.893 1043.68 975.895C1043.3 976.596 1043.25 976.58 1042.75 977.038L1041.38 976.571C1041.03 974.567 1041.07 972.784 1041.19 970.757C1038.47 969.376 1032.31 971.309 1029.09 971.907C1029.1 975.369 1027.87 978.687 1026.9 981.975L1026.02 982.793C1024.99 980.371 1025.22 978.944 1025.62 976.405C1025.76 975.502 1025.87 974.593 1026 973.688C1023.86 972.969 1022.2 973.934 1020.08 974.576C1016.83 976.245 1012.94 976.67 1009.37 977.325C1013.7 938.39 1021.24 891.216 1033.98 854.316Q1038.25 841.611 1043.86 829.439C1050.36 815.549 1059.47 801.8 1061.39 786.312C1063.02 773.247 1058.47 760.365 1050.42 750.157C1046.73 745.489 1040.93 739.734 1035.39 737.38C1037.1 743.089 1034.62 769.783 1033.2 776.887C1032.36 781.123 1030.91 785.061 1028.88 788.87C1018.95 807.483 999.004 820.58 979.178 826.446C943.34 837.048 898.372 830.517 865.789 812.755C833.15 794.963 799.888 764.754 789.116 727.939C786.318 718.375 786.578 709.015 790.03 699.677C782.455 705.262 778.086 711.13 776.668 720.659C773.692 740.652 786.272 760.771 797.803 776.075C827.021 814.848 876.084 845.211 924.354 851.981C955.601 856.364 988.136 851.772 1013.84 832.412C1028.05 821.705 1039.57 806.478 1041.95 788.435C1042.66 783.006 1042.89 777.389 1040.77 772.267C1045.82 779.9 1045.83 789.049 1044.03 797.8C1039.97 817.431 1026.71 832.685 1010.28 843.331C983.309 860.801 948.586 864.525 917.571 857.848C884.043 850.63 855.561 832.068 827.046 813.985C838.664 827.433 850.611 838.349 865.088 848.659C873.632 854.743 882.961 860.433 890.812 867.387C893.989 870.2 894.452 876.271 895.527 877.025C901.901 881.498 910.079 883.107 916.772 887.332C941.174 902.737 951.661 932.267 960.464 958.34C963.42 967.095 970.719 984.241 969.88 992.862C969.728 994.423 969.471 994.544 968.421 995.718C966.282 995.682 964.573 995.049 963.091 993.429C961.553 991.747 960.275 989.457 959.159 987.47Q958.519 987.478 957.88 987.496C952.262 987.652 937.92 987.152 934.102 991.212C934.065 992.894 934.416 994.126 934.939 995.724L935.146 996.344L934.362 997.304C931.855 996.179 930.067 992.409 928.586 990.103C857.109 993.042 805.507 985.875 736.577 967.758C689.844 955.475 638.951 933.596 613.664 889.958C597.135 861.433 600.752 843.673 608.752 813.666C572.969 829.744 534.769 844.707 505.623 871.763C494.879 881.736 486.31 893.454 475.952 903.688C503.44 847.254 569.737 819.032 624.87 797.223C642.336 790.314 662.683 784.181 677.804 772.959C682.366 757.383 687.319 744.799 697.854 732.191C705.15 723.459 713.622 715.75 721.871 707.936C744.125 686.856 765.406 668.936 797.343 666.138L797.311 652.35C775.983 632.192 746.749 594.694 740.391 566.025L740.568 566.112C730.887 558.562 719.783 550.464 712.948 540.108C703.465 525.739 702.681 508.239 706 491.875C701.713 486.411 697.447 480.87 693.466 475.179C678.028 453.106 676.009 430.446 680.54 404.445Q678.847 401.401 677.322 398.27C671.06 385.216 668.689 367.95 673.63 354.196C676.599 345.931 681.683 340.709 689.487 336.944C694.914 315.78 704.645 297.766 722.903 284.986C737.01 275.112 757.001 267.456 774.308 270.458C771.787 264.162 770.167 257.89 770.533 251.051C771.074 240.949 776.199 232.212 783.731 225.67C797.691 213.542 834.484 203.531 853.187 202.085C864.545 201.207 875.918 202.188 887.251 202.985Z"/>
	<path fill="#FAF2E4" d="M729.219 433.599C729.812 439.135 726.081 446.51 726.201 452.567C726.308 458.031 729.666 463.643 729.34 468.999L726.457 470.959C725.366 469.436 724.664 467.791 724.157 465.991C721.068 455.026 723.672 443.286 729.219 433.599Z"/>
	<path fill="#FEFCF9" d="M795.072 701.718C797.044 701.802 798.25 701.823 799.888 702.984C802.483 709.999 798.172 723.18 796.925 730.644L796.646 730.656L795.288 729.261C792.824 720.188 790.909 710.573 795.072 701.718Z"/>
	<path fill="#FAF2E4" d="M733.591 390.804C734.553 391.356 735.137 391.894 735.955 392.635C734.516 395.734 731.244 398.094 728.818 400.475C717.744 411.347 710.89 423.132 709.552 438.838L709.316 439.414L708.69 439.074C708.283 433.789 708.882 428.1 709.997 422.913C712.765 410.032 722.827 397.915 733.591 390.804Z"/>
	<path fill="#F9E7CB" d="M995.264 276.372C995.393 276.377 995.523 276.377 995.652 276.386C995.866 276.401 996.079 276.427 996.293 276.445C1007 277.366 1020.59 287.703 1027.55 295.569C1030.46 298.848 1035.49 305.305 1035.17 309.835C1022.44 298.101 1009.92 285.702 995.264 276.372Z"/>
	<path fill="#F9E7CB" d="M687.173 344.601C687.577 345.638 687.101 376.207 686.767 379.646C686.352 383.93 685.261 388.277 684.461 392.512L683.228 393.205Q681.75 389.638 680.784 385.899Q679.819 382.16 679.384 378.323C678.018 366.476 679.68 354.159 687.173 344.601Z"/>
	<path fill="#F9E7CB" d="M822.618 286.468L823.943 286.686C821.916 289.595 810.168 293.29 806.451 295.064C789.411 303.197 776.43 316.092 770.061 334.009L769.639 334.804L769.069 334.303C770.005 325.459 772.42 319.418 777.523 312.027C788.044 296.788 805.038 289.556 822.618 286.468Z"/>
	<path fill="#FAF2E4" d="M711.606 385.656C711.65 385.704 711.707 385.743 711.739 385.8C712.503 387.181 713.51 391.401 713.321 392.912C712.718 397.754 705.402 404.466 703.225 409.303C699.254 418.125 697.185 427.912 694.838 437.262L694.582 437.297C693.492 435.936 693.606 434.211 693.528 432.542C692.651 413.772 699.313 399.331 711.606 385.656Z"/>
	<path fill="#F9E7CB" d="M793.896 305.84L793.986 306.57C791.275 312.073 787.497 316.947 785.835 322.962C784.277 328.598 784.235 335.152 783.736 340.988C782.041 360.836 779.017 380.139 764.206 394.867L763.905 393.513C767.861 386.812 772.341 379.063 774.537 371.605C781.197 348.988 776.734 324.315 793.896 305.84Z"/>
	<path fill="#4F453E" d="M798.885 683.468C799.814 686.977 801.64 691.561 800.825 695.134C799.546 696.563 799.497 696.703 797.612 696.876C795.209 697.096 792.016 696.104 789.598 695.712C780.951 694.312 772.869 697.005 766.986 703.625C764.498 706.424 762.55 709.667 760.667 712.889C760.587 708.564 759.891 704.265 759.322 699.982C766.973 693.098 774.49 694.108 782.917 689.915C784.721 689.017 784.932 689.027 785.543 687.125C783.705 685.176 782.573 685.266 780.018 684.785C786.172 683.979 792.657 684.067 798.885 683.468Z"/>
	<path fill="#FAF2E4" d="M835.688 225.72L836.49 226.245C834.328 229.487 831.488 231.962 829.523 235.399C825.478 242.478 824.134 251.502 826.41 259.381C830.153 272.336 841.155 278.221 852.065 284.353L852.253 285.191L849.321 284.497C842.425 281.54 835.182 280.465 827.831 279.276C826.258 277.444 824.64 275.574 823.324 273.547C818.387 265.945 816.351 256.138 818.391 247.264C820.728 237.098 827.261 231.085 835.688 225.72Z"/>
	<path fill="#FAF2E4" d="M760.48 341.186C762.693 343.681 763.979 349.392 765.183 352.632C762.125 363.758 755.671 378.976 745.965 385.962L743.852 383.584C742.597 381.08 741.756 379.203 739.229 377.726L740.752 379.377L738.271 377.386C737.937 375.719 741.447 371.781 742.6 370.169C749.32 360.784 755.205 351.473 760.48 341.186Z"/>
	<path fill="#F9E7CB" d="M973.693 251.957C981.876 251.44 988.924 251.318 996.922 253.664C1010.1 257.528 1024.2 267.645 1030.84 279.91C1032.79 283.514 1035.6 287.829 1034.39 292.028C1034.34 291.868 1034.31 291.706 1034.26 291.547C1034.18 291.282 1034.09 291.02 1034.01 290.756C1031.48 282.371 1023.59 276.857 1016.75 272.051C1005.92 266.116 992.199 261.606 979.649 262.422C976.579 262.622 973.972 264.052 970.906 264.214L973.448 262.128C973.028 260.598 967.535 259.884 965.763 258.281L966.432 256.813C971.808 253.105 982.59 254.51 989.025 254.363C982.172 252.634 972.3 252.424 965.353 253.8L964.946 253.885C967.589 252.818 970.875 252.488 973.693 251.957Z"/>
	<path fill="#F9E7CB" d="M876.548 288.868C868.583 286.924 860.57 283.526 854.798 277.519C850.189 272.723 847.923 266.612 848.152 259.978C848.579 247.578 856.712 235.232 865.613 227.102C876.435 217.217 891.664 211.398 906.298 211.678C912.02 211.787 917.665 212.861 923.385 213.144L924.044 215.818C904.201 214.679 885.092 218.704 869.881 232.237C861.93 239.312 855.248 249.351 854.671 260.255C854.321 266.864 856.387 272.835 860.859 277.724C865.344 282.629 870.775 285.206 876.698 287.902L876.548 288.868Z"/>
	<path fill="#F9E7CB" d="M941.535 233.981C958.014 232.043 983.635 234.881 997.904 243.546C982.149 239.919 967.986 239.176 952.164 243.099C934.058 248.802 923.913 260.14 903.715 253.442C913.777 242.19 927.052 236.723 941.535 233.981Z"/>
	<path fill="#F9E7CB" d="M958.304 213.915C973.03 210.355 995.051 218.511 1007.62 226.239C1019.18 233.344 1033.42 246.72 1036.35 260.425C1036.62 261.659 1036.43 262.707 1036.26 263.928C1033.49 258.298 1028.11 253.106 1023.38 249.023C1001.73 230.304 978.107 223.956 949.839 226.026C953.255 223.236 957.872 219.806 959.281 215.468L958.304 213.915Z"/>
	<path fill="#FAF2E4" d="M799.662 238.48C803.088 233.332 806.837 228.79 811.375 224.588C824.982 211.992 845.179 206.78 863.435 207.447C846.685 210.851 828.481 214.988 816.473 228.221C809.503 235.902 806.301 245.522 806.886 255.849C807.504 266.758 812.398 274.228 820.326 281.353Q813.431 281.82 806.66 283.204C763.049 292.048 758 336.032 736.181 368.835C735.382 364.859 734.567 360.868 733.958 356.858C731.272 339.164 735.282 319.725 746.002 305.257C757.777 289.366 773.327 283.503 791.965 280.65C791.848 280.631 791.732 280.592 791.614 280.593C773.01 280.735 754.048 287.802 741.867 302.237C727.237 319.577 726.356 339.097 728.23 360.62L719.997 369.682C717.832 353.096 719.683 340.513 725.443 324.845C724.904 325.437 724.397 326.05 723.938 326.707C714.567 340.098 714.892 355.683 717.518 371.034Q717.243 371.515 716.958 371.991C716.679 372.448 716.373 372.889 716.111 373.356C713.215 378.529 703.586 383.167 698.683 387.722C700.707 380.625 701.665 378.053 697.968 371.392L695.886 371.053C696.195 363.359 698.759 355.198 699.656 347.402C702.239 345.49 704.58 343.544 706.87 341.288C706.188 340.33 701.186 341.715 699.203 340.855C699.203 340.649 699.2 340.443 699.203 340.237C699.443 324.722 709.589 307.37 720.61 296.832C736.927 281.229 757.56 274.349 779.828 274.773C778.58 272.029 777.395 269.096 776.601 266.19C774.145 257.208 776.127 246.825 780.756 238.878C788.042 226.369 799.833 221.274 813.17 217.724C806.797 223.375 801.099 228.051 796.767 235.589C792.741 243.083 789.898 251.664 792.561 260.131C795.278 268.771 802.385 273.342 809.941 277.379C809.835 277.234 809.731 277.087 809.622 276.944C803.185 268.489 793.859 263.946 795.579 251.501C796.208 246.952 797.803 242.651 799.662 238.48Z"/>
	<path fill="#7F7F7A" d="M738.298 704.89C754.697 687.585 774.362 678.136 797.531 673.392L798.885 683.468C792.657 684.067 786.172 683.979 780.018 684.785C782.573 685.266 783.705 685.176 785.543 687.125C784.932 689.027 784.721 689.017 782.917 689.915C774.49 694.108 766.973 693.098 759.322 699.982C759.891 704.265 760.587 708.564 760.667 712.889C758.999 748.098 774.813 778.143 798.146 803.857C822.392 830.577 859.674 862.585 892.46 877.331C875.46 875.805 860.26 877.166 846.604 888.541C839.75 894.25 833.379 900.69 826.249 906.039C809.183 918.844 783.742 931.339 761.856 929.407C749.462 928.313 739.272 922.045 731.464 912.532C710.095 886.497 682.713 812.049 686.461 777.969C686.672 776.048 687.054 774.148 687.47 772.263C694.707 742.647 717.002 724.799 738.298 704.89Z"/>
	<path fill="#FEFCF9" d="M738.298 704.89C738.356 719.944 722.351 741.34 712.131 751.655C707.791 756.035 693.174 770.618 687.47 772.263C694.707 742.647 717.002 724.799 738.298 704.89Z"/>
	<path fill="#2E2925" d="M808.554 846.102C785.084 830.607 762.607 792.642 753.612 766.512C747.158 747.762 741.93 721.299 751.273 702.741C757.508 690.357 768.006 688.781 780.018 684.785C782.573 685.266 783.705 685.176 785.543 687.125C784.932 689.027 784.721 689.017 782.917 689.915C774.49 694.108 766.973 693.098 759.322 699.982C750.969 710.126 749.942 721.835 751.154 734.506C754.977 774.476 778.841 814.362 808.285 840.913C822.125 852.37 838.322 860.715 851.97 872.298C842.803 868.944 813.179 853.506 808.554 846.102Z"/>
	<path fill="#7F7F7A" d="M1041.33 698.688C1053.29 700.749 1078.8 722.162 1086.1 732.5C1086.87 733.59 1087.52 734.712 1087.4 736.083C1099.95 744.552 1113.25 790.263 1119.43 804.918C1122.01 811.039 1129.06 823.054 1130.18 828.648C1130.33 829.4 1130.25 829.591 1130.15 830.256C1130.81 830.672 1131.51 831.143 1132.04 831.714C1136.55 836.546 1150.95 860.128 1150.51 865.955C1150.35 867.974 1149.96 868.153 1148.53 869.407C1139.66 869.832 1123.03 851.841 1116.63 846.24C1106.42 837.295 1093.49 826.188 1078.99 827.367C1060.13 828.9 1051.85 850.992 1046.2 866.131C1044.74 870.027 1043.56 875.198 1040.77 878.335C1040.65 878.469 1040.53 878.594 1040.4 878.724C1053.33 869.736 1056.67 850.416 1070.4 841.471C1094.21 825.967 1121.99 876.03 1144.88 880.396C1149.07 881.195 1153.28 880.404 1156.81 877.974C1159.76 875.935 1161.57 873.064 1162.11 869.505C1164.53 853.34 1146.3 833.146 1138.82 819.602C1134.82 812.369 1132.18 803.714 1127.21 797.14C1137.36 799.684 1147.41 803.451 1157.5 806.329C1166.25 808.826 1176.43 810.361 1184.71 814.01L1184.54 815.426C1190.41 820.705 1206.18 831.01 1209.03 837.422C1223.29 839.978 1238.44 845.731 1247.12 858.006C1253.17 866.556 1254.74 876.822 1252.8 887C1251.54 893.601 1248.81 899.317 1245.77 905.226L1245.18 905.49C1249.46 890.263 1256.12 877.307 1247.51 861.841C1241.01 850.18 1227.31 843.389 1214.83 839.989Q1211.64 839.144 1208.43 838.418C1217.81 843.865 1225.9 853.599 1228.64 864.225C1231.18 874.059 1228.5 884.301 1223.37 892.837C1198.81 933.644 1119.54 950.957 1075.2 961.578Q1066.7 963.63 1058.12 965.361C1058.66 968.15 1057.84 970.565 1057.14 973.25L1056.02 974.221C1055.27 971.669 1057.13 968.555 1055.77 966.616Q1049.99 967.237 1044.25 968.141C1044.73 970.252 1044.75 973.893 1043.68 975.895C1043.3 976.596 1043.25 976.58 1042.75 977.038L1041.38 976.571C1041.03 974.567 1041.07 972.784 1041.19 970.757C1038.47 969.376 1032.31 971.309 1029.09 971.907C1029.1 975.369 1027.87 978.687 1026.9 981.975L1026.02 982.793C1024.99 980.371 1025.22 978.944 1025.62 976.405C1025.76 975.502 1025.87 974.593 1026 973.688C1023.86 972.969 1022.2 973.934 1020.08 974.576C1021.91 965.135 1022.21 954.716 1025.21 945.589C1029.83 931.547 1035.22 915.418 1041.61 902.072C1046.19 892.494 1052.9 883.133 1056.47 873.2C1057.29 870.909 1056.75 869.434 1056.33 867.119C1055.28 873.722 1047.8 880.71 1044.72 886.902C1038.53 899.345 1032.15 926.017 1025.33 934.338C1030.39 924.781 1031.3 911.967 1033.3 901.361C1036.08 886.65 1038.7 871.356 1043.33 857.105C1051.41 832.252 1071.08 809.226 1073.49 782.916C1075 766.485 1067.17 747.339 1054.15 736.833C1049.96 733.453 1043.43 730.048 1040.22 725.847C1039.03 724.301 1038.95 724.138 1039.17 722.228C1055.46 729.011 1069.6 749.507 1076.13 765.173C1083.48 782.827 1083.73 800.264 1076.45 818.041C1077.8 816.606 1079.1 815.141 1080.22 813.512C1087.1 803.47 1086.43 788.863 1084 777.48C1077.22 745.823 1060.8 730.184 1034.65 713.259C1037.77 713.365 1040.69 713.591 1043.68 714.548C1063.62 720.927 1074.42 737.263 1083.42 754.828C1083.36 753.977 1083.27 753.136 1083.19 752.287C1082.68 746.948 1080 741.608 1077.23 737.075C1068.64 723.009 1055.07 713.74 1039.2 709.898C1041.48 706.076 1042.13 703.098 1041.33 698.688Z"/>
	<path fill="#2E2925" d="M1070.37 875.065C1071.2 875.816 1071.18 876.109 1071.53 877.132C1065.13 888.112 1043.54 937.211 1037.48 942.546C1037.29 942.055 1037.18 941.873 1037.11 941.378C1036.02 932.892 1064.02 883.513 1070.37 875.065Z"/>
	<path fill="#FEFCF9" d="M1087.4 736.083C1099.95 744.552 1113.25 790.263 1119.43 804.918C1122.01 811.039 1129.06 823.054 1130.18 828.648C1130.33 829.4 1130.25 829.591 1130.15 830.256L1129.19 831.079C1122.91 831.784 1116.27 831.118 1110.42 828.635Q1109.22 828.127 1108.08 827.505C1106.81 826.803 1105.79 825.891 1104.8 824.841C1103.5 823.466 1104.07 820.764 1104.28 819.045C1104.89 814.034 1105.87 808.836 1105.83 803.794C1105.62 781.046 1095.57 757.025 1087.4 736.083Z"/>
	<path fill="#7F7F7A" d="M608.752 813.666C631.368 805.193 655.863 796.797 676.593 784.331C675.383 823.692 698.15 895.513 725.153 924.128C735.895 935.51 748.933 941.455 764.564 941.817C788.501 942.372 814.823 931.799 832.924 916.351C841.673 908.884 849.816 900.035 859.787 894.184C881.023 881.721 907.128 890.101 923.349 906.948C943.459 927.833 949.082 961.063 959.159 987.47Q958.519 987.478 957.88 987.496C952.262 987.652 937.92 987.152 934.102 991.212C934.065 992.894 934.416 994.126 934.939 995.724L935.146 996.344L934.362 997.304C931.855 996.179 930.067 992.409 928.586 990.103C857.109 993.042 805.507 985.875 736.577 967.758C689.844 955.475 638.951 933.596 613.664 889.958C597.135 861.433 600.752 843.673 608.752 813.666Z"/>
	<path fill="#2E2925" d="M924.811 935.63C925.697 935.919 926.535 936.327 927.199 937.004C932.343 942.254 943.459 969.597 942.857 976.821C942.713 976.739 942.563 976.665 942.425 976.574C942.197 976.425 941.982 976.257 941.76 976.101C941.293 975.773 940.794 975.431 940.419 974.995C938.166 972.384 924.946 942.199 924.419 938.64C924.307 937.881 924.706 936.44 924.811 935.63Z"/>
	<path fill="#2E2925" d="M896.392 899.644C899.581 899.466 903.044 900.013 905.976 901.308C910.102 903.129 913.476 906.397 915.076 910.658Q915.322 911.321 915.501 912.005Q915.681 912.689 915.792 913.387Q915.902 914.086 915.944 914.791Q915.985 915.497 915.957 916.204Q915.928 916.91 915.83 917.611Q915.731 918.311 915.564 918.998Q915.397 919.685 915.163 920.352Q914.929 921.019 914.63 921.66C912.3 926.592 908.491 928.888 903.535 930.676C900.287 930.723 897.443 930.657 894.468 929.149C889.843 926.805 885.889 922.411 884.358 917.431C883.257 913.851 883.37 910.067 885.252 906.738C887.765 902.294 891.794 900.923 896.392 899.644Z"/>
	<path fill="#7F7F7A" d="M895.574 907.312C898.515 907.632 901.33 908.409 903.58 910.402C905.398 912.012 906.454 914.001 906.425 916.458C906.386 919.775 904.499 921.49 902.303 923.645C899.115 923.539 896.361 922.722 894.027 920.442C892.274 918.73 891.317 916.65 891.393 914.182C891.495 910.853 893.271 909.358 895.574 907.312Z"/>
	<path fill="#FAF2E4" d="M800.096 560.573C808.943 570.153 812.285 599.813 820.989 612.765C838.088 638.209 897.713 666.463 927.277 672.548C963.964 680.099 1001.49 674.027 1032.91 653.402C1035.11 663.379 1026.18 723.843 1024.8 738.79Q1022.77 761.842 1023.29 784.977Q1017.05 791.109 1010.69 797.115Q1007.93 799.554 1004.98 801.766Q1002.04 803.977 998.927 805.948Q995.814 807.918 992.555 809.634Q989.296 811.35 985.911 812.801C953.438 827.037 915.532 822.217 883.338 809.639C851.852 797.337 814.037 769.624 800.192 738.026C808.088 711.297 809.617 695.175 807.663 667.639C805.188 632.758 796.801 607.872 784.936 575.221C793.032 572.313 796.455 568.2 800.096 560.573Z"/>
	<path fill="#2E2925" d="M986.845 692.225C987.43 692.555 987.915 692.925 988.362 693.431C994.372 700.229 995.095 714.057 994.177 722.571C993.07 732.837 988.799 744.11 980.505 750.707C974.599 755.404 970.248 755.298 962.975 754.467C961.66 753.948 960.447 753.164 959.225 752.459C959.036 750.162 974.907 748.564 980.294 741.923C991.688 727.876 988.591 708.771 986.845 692.225Z"/>
	<path fill="#2E2925" d="M847.507 668.121C858.061 674.011 880.729 737.41 886.607 751.949C891.109 763.085 896.103 774.013 900.462 785.207C900.261 785.132 900.057 785.065 899.859 784.982C886.343 779.323 867.075 718.897 861.566 704.1Q854.926 685.958 847.507 668.121Z"/>
	<path fill="#FAF2E4" d="M876.698 287.902C879.55 287.97 883.133 288.42 885.883 287.712C878.963 285.83 874.383 285.813 870.538 278.973C866.605 271.979 866.486 263.872 868.733 256.269C871.442 247.104 878.247 239.749 886.625 235.363C898.648 229.071 914.387 227.908 927.763 228.407C909.276 233.957 886.895 238.68 876.837 257.3C874.222 262.141 872.845 268.077 874.471 273.47Q874.712 274.264 875.031 275.03Q875.351 275.795 875.746 276.525Q876.141 277.254 876.608 277.94Q877.075 278.626 877.608 279.261Q878.141 279.897 878.736 280.475Q879.331 281.053 879.981 281.569Q880.631 282.084 881.329 282.531Q882.028 282.978 882.768 283.353C886.553 285.281 890.599 285.918 894.684 284.507C896.903 283.74 898.944 282.417 900.935 281.192C896.537 276.731 892.22 272.653 892.198 265.983C892.172 258.403 897.252 250.948 902.512 245.906C906.421 242.158 916.857 235.583 922.443 235.794C923.07 235.818 923.372 235.888 924.038 235.99L922.644 235.637L923.775 235.915L922.823 236.119L923.027 236.691C912.256 241.11 901.603 246.089 896.83 257.563C894.843 262.341 895.95 268.575 897.897 273.216C898.77 275.295 899.906 277.299 901.011 279.263C908.223 280.526 915.024 282.998 922.214 284.26C937.342 286.918 958.581 286.042 973.825 283.838C967.113 282.085 938.593 279.707 937.738 279.262L939.101 278.862L939.139 278.31C939.292 278.38 939.438 278.467 939.597 278.521C943.63 279.885 956.466 278.534 962.57 279.717C970.488 281.251 986 288.519 992.661 293.052C1000.66 298.498 1020.99 318.479 1025.83 326.845C1029.18 332.629 1029.93 339.836 1033.08 345.756C1037.59 354.276 1050.05 357.323 1047.62 369.161C1046.44 365.213 1040.94 361.119 1037.37 359.235C1015.84 347.875 985.916 369.225 975.751 362.391C972.605 360.277 970.125 354.493 968.255 351.187C969.315 358.532 969.96 375.688 976.126 380.169C980.559 383.391 987.351 382.552 992.35 381.5C1011.44 377.483 1027.96 365.803 1048.23 370.924C1053.92 380.333 1052.08 396.148 1054.66 406.951C1058.75 424.066 1070.19 438.023 1073.63 455.851C1074.92 462.539 1074.79 469.611 1074.54 476.392C1073.68 499.67 1070.42 523.288 1068.85 546.601C1067.59 565.133 1067.95 595.196 1063.94 612.277C1062.7 617.566 1058.02 621.11 1053.54 623.774C1041.78 630.758 1027.49 633.607 1014.54 637.667C979.037 648.8 954.594 659.888 916.98 649.966C886.369 641.891 842.952 620.324 826.416 592.059C822.174 584.808 818.978 576.765 815.492 569.129C806.966 550.451 798.072 531.595 785.074 515.554C788.837 529.058 794.903 541.648 799.163 554.943L798.554 555.54C795.769 558.297 793.955 561.574 791.366 564.42C786.897 569.332 776.153 570.471 769.932 570.427C752.926 570.309 742.297 558.943 731.252 547.544C720.109 536.042 713.038 522.568 713.468 506.152C713.7 497.337 716.467 489.194 722.941 483.028C726.168 479.954 729.835 478.362 733.938 476.764C743.309 479.031 750.942 482.448 757.992 489.289C772.702 503.562 773.211 515.413 796.53 502.298C793.226 494.77 788.939 487.774 785.567 480.292C775.04 456.935 774.451 434.185 783.799 410.372C787.005 402.205 805.949 367.61 802.885 361.477C798.347 352.394 795.45 352.164 798.573 339.944C802.125 326.042 812.692 315.01 824.829 307.97C833.705 302.82 843.331 299.291 853.049 296.094C858.709 294.231 872.94 293.975 876.548 289.651L876.548 288.868L876.698 287.902Z"/>
	<path fill="#2E2925" d="M990.462 505.476C992.399 507.225 992.961 509.424 993.447 511.901C994.082 515.135 994.261 518.595 992.358 521.428C990.492 521.093 989.81 520.741 988.503 519.358C987.765 515.035 989.836 509.857 990.462 505.476Z"/>
	<path fill="#2E2925" d="M1014.09 418.846C1017.24 418.454 1019.93 418.119 1023.07 418.8L1023.32 419.83C1020.45 421.848 1017.25 422.287 1013.87 422.955C1009.21 423.398 1004.42 423.195 999.731 423.202C1004.47 421.466 1009.21 420.116 1014.09 418.846Z"/>
	<path fill="#2E2925" d="M1026.09 473.701C1027.6 474.527 1028.51 474.855 1029.5 476.308C1032.69 481.003 1033.2 491.171 1032.16 496.638L1031.47 496.574C1025.75 491.725 1030.48 480.196 1026.09 473.701Z"/>
	<path fill="#2E2925" d="M948.969 349.683C949.863 350.27 950.837 350.686 951.369 351.631C954.712 357.568 954.259 365.437 952.51 371.827C952 371.391 951.613 371.101 951.337 370.469C949.318 365.847 947.641 354.469 948.969 349.683Z"/>
	<path fill="#2E2925" d="M905.578 441.904L907.55 441.586L908.617 442.512C908.086 443.45 907.554 444.316 906.786 445.085C901.194 450.683 892.746 451.607 885.33 451.49C884.007 451.107 882.923 450.528 881.728 449.866L882.141 448.583C888.739 445.139 898.312 443.852 905.578 441.904Z"/>
	<path fill="#2E2925" d="M950.951 424.411C954.691 426.556 958.212 431.357 959.601 435.423C961.959 442.325 960.116 447.674 956.988 453.887L954.821 456.068L953.747 456.059C952.964 453.002 954.316 448.937 954.611 445.753C955.341 437.898 953.692 431.613 950.951 424.411Z"/>
	<path fill="#2E2925" d="M934.141 324.826C948.427 324.182 960.335 327.05 973.013 333.638C966.326 332.137 959.661 330.463 952.81 329.943C938.271 327.537 922.522 328.909 907.779 328.482C916.57 326.671 925.186 325.453 934.141 324.826Z"/>
	<path fill="#2E2925" d="M810.164 501.078C810.701 501.291 811.27 501.527 811.762 501.829C821.054 507.512 846.693 535.52 849.616 545.104C838.241 541.659 818.122 511.469 810.164 501.078Z"/>
	<path fill="#2E2925" d="M1005.95 579.764Q1007.23 579.624 1008.51 579.65C1015.37 579.766 1025.59 582.518 1030.49 587.513L1029.71 588.387C1024.63 589.041 1019.43 587.031 1014.41 586.489C1011.14 586.137 1007.66 586.39 1004.37 586.494C995.944 588.303 989.279 592.618 981.986 596.992C982.993 595.248 984.018 593.507 985.14 591.833C989.953 584.649 997.778 581.416 1005.95 579.764Z"/>
	<path fill="#2E2925" d="M1029.26 558.586L1030.16 559.459L1029.79 561.34C1027.83 563.478 1025.72 564.974 1023.16 566.338C1008.3 574.269 989.766 576.691 973.627 571.929L972.015 570.456C975.46 568.413 984.298 569.871 988.582 569.509C1001.11 568.452 1018.66 565.819 1029.26 558.586Z"/>
	<path fill="#2E2925" d="M973.787 477.342C976.176 477.652 981.03 478.104 982.583 480.041C983.311 480.95 982.935 481.38 982.774 482.457C980.616 485.402 977.062 486.052 973.739 487.084C970.901 491.517 968.482 495.011 964.167 498.148C962.797 498.462 961.278 498.882 959.869 498.91C957.641 498.955 956.537 498.376 955.015 496.87C954.455 494.529 955.037 492.562 956.207 490.52C960.23 483.499 966.091 479.42 973.787 477.342Z"/>
	<path fill="#2E2925" d="M934.751 475.11C939.822 479.507 937.958 494.273 942.261 500.613C947.738 508.684 955.476 505.614 963.232 507.163C963.142 507.81 963.168 507.908 962.844 508.593C961.526 511.381 958.589 513.19 955.701 513.927C949.225 515.578 943.455 513.942 937.927 510.565C936.084 508.179 934.883 505.418 932.956 502.988C930.327 502.588 927.707 507.979 925.117 509.725C922.285 511.635 918.402 513.066 914.985 512.42C916.062 509.763 921.587 507.448 923.901 505.065C926.894 501.985 929.343 497.997 931.79 494.465C932.217 487.766 933.261 481.642 934.751 475.11Z"/>
	<path fill="#2E2925" d="M862.271 419.985C869.151 412.658 875.998 406.835 886.58 406.407C898.776 405.913 907.997 411.907 916.489 419.943L917.364 420.775C907.066 415.201 898.791 412.744 886.996 414.672C877.148 416.234 870.141 421.694 864.37 429.691C859.022 437.103 855.843 445.514 852.853 454.078L851.886 453.963C849.887 448.211 851.236 438.594 853.89 433.136C856.243 428.299 858.822 424.119 862.271 419.985Z"/>
	<path fill="#2E2925" d="M886.996 414.672C895.484 415.168 902.179 416.249 908.228 422.89C912.131 427.176 915.238 432.301 918.065 437.339C912.227 431.681 906.017 424.107 898.975 420.075C898.468 420.083 897.351 419.99 896.901 420.183C899.03 424.197 900.534 428.238 899.068 432.808C898.014 436.095 895.527 438.531 892.41 439.895C888.833 441.459 884.487 441.607 880.843 440.173C878.031 439.066 875.75 437.083 874.49 434.311C873.158 431.381 872.942 427.323 874.305 424.392C876.613 419.43 882.148 416.574 886.996 414.672Z"/>
	<path fill="#FEFCF9" d="M886.551 419.309C887.516 419.38 888.49 419.46 889.437 419.664C891.5 420.108 892.928 421.552 893.967 423.332C895.409 425.803 895.495 428.616 894.563 431.29C893.402 434.616 891.206 435.684 888.219 436.991Q887.1 436.903 885.984 436.778C882.7 436.404 880.625 435.736 878.532 433.025C877.734 431.992 877.549 430.236 877.815 428.988C878.843 424.179 882.747 421.805 886.551 419.309Z"/>
	<path fill="#2E2925" d="M883.943 423.501C885.043 423.535 886.287 423.527 887.35 423.817C889.787 424.483 890.334 425.403 891.431 427.45C891.428 429.981 890.589 431.351 889.252 433.4C888.929 433.354 888.605 433.313 888.283 433.262C885.674 432.843 883.662 432.183 882.119 429.957C882.006 427.045 882.657 426.031 883.943 423.501Z"/>
	<path fill="#2E2925" d="M727.919 491.539C735.4 491.314 741.235 494.99 747.057 499.42C753.244 504.127 764.931 514.653 765.814 522.38C766.775 530.784 769.871 532.602 775.191 538.476C777.142 540.631 777.044 542.145 776.906 544.869C775.746 546.619 775.283 547.503 773.121 548.095C765.428 550.204 756.35 545.805 750.013 541.932C758.706 542.146 766.778 543.513 775.309 545.109C772.654 542.353 768.871 539.784 766.856 536.524C762.094 528.815 761.107 520.091 754.744 512.83C752.28 510.017 750.104 507.603 746.258 507.348L744.543 509.956C739.124 528.982 745.923 526.145 746.631 540.363L745.441 540.066C742.265 537.053 739.664 533.538 738.217 529.359C734.867 519.679 738.118 509.693 742.438 500.98C738.685 499.1 733.612 496.416 729.287 497.046C727.065 497.37 725.441 498.557 724.336 500.501C719.374 509.224 726.735 525.478 728.662 534.6L726.692 534.857C724.581 532.144 722.472 529.402 720.738 526.427C716.867 519.784 715.249 511.135 717.396 503.664C719.137 497.606 722.529 494.482 727.919 491.539Z"/>
	<path fill="#2E2925" d="M971.037 387.314C972.562 389.313 971.128 409.297 975.83 417.2C985.386 433.264 1005.97 440.405 1013.57 458.088C1016.77 465.533 1017.51 475.895 1014.32 483.469C1011.95 489.095 1007.57 491.713 1002.09 493.833C1001.91 493.745 1001.72 493.665 1001.54 493.57C999.85 492.672 997.534 491.802 997.132 489.756C995.967 483.825 1001.05 478.602 1003.94 473.934C1018.41 450.5 970.604 437.841 964.928 412.705C962.907 403.755 966.223 394.782 971.037 387.314Z"/>
	<path fill="#2E2925" d="M1005.06 380.61C1011.96 380.211 1017.46 380.05 1023.97 382.649C1030.9 385.415 1038.15 390.685 1041.11 397.765C1043.06 402.438 1043.85 407.336 1041.9 412.095L1041.87 411.318C1041.59 405.453 1038.08 400.59 1033.81 396.778C1026.4 390.174 1018.61 386.384 1008.6 386.974C1011.84 387.436 1017.54 389.269 1019.85 391.65C1022.12 393.991 1023.3 398.448 1023.23 401.689C1023.16 404.828 1021.98 407.597 1019.66 409.754C1014.94 414.142 1009.27 414.365 1003.17 414.076C1002.4 413.672 1001.68 413.278 1000.96 412.786C995.829 409.275 995.093 405.272 993.866 399.456C992.799 402.143 990.393 411.182 988.264 412.556C987.497 403.461 992.91 396.921 997.395 389.754L995.673 389.045Q994.562 389.945 993.526 390.931C984.478 399.511 982.87 406.304 982.578 418.467L981.717 418.251C981.327 417.588 981.071 417.112 980.867 416.367C978.834 408.938 981.862 400.085 985.683 393.775C990.376 386.024 996.45 382.688 1005.06 380.61Z"/>
	<path fill="#FEFCF9" d="M1000.86 395.629C1003.67 393.186 1006.17 391.162 1010.16 391.321C1012.59 391.417 1014.54 392.385 1016.1 394.243C1018.5 397.098 1018.58 399.961 1018.46 403.465C1017.47 405.603 1016.1 407.428 1014.04 408.641C1011.65 410.041 1008.7 410.709 1005.99 409.953C1003.79 409.339 1001.74 407.652 1000.68 405.633C998.889 402.215 999.865 399.074 1000.86 395.629Z"/>
	<path fill="#2E2925" d="M1003.97 400.171C1004.35 399.258 1004.75 398.215 1005.34 397.423C1006.88 395.377 1008.03 395.168 1010.37 394.754C1013.19 395.607 1014.27 396.96 1016 399.169C1014.65 401.689 1013.75 403.58 1011.09 404.976C1009.15 405.18 1007.92 405.378 1006.34 403.883C1005.35 402.942 1004.59 401.382 1003.97 400.171Z"/>
	<path fill="#2E2925" d="M1013.83 524.603C1013.97 524.596 1014.11 524.585 1014.25 524.581C1024.1 524.256 1035.87 530.016 1042.79 536.802C1045.61 539.578 1048.71 543.129 1048.75 547.276C1028.83 542.576 993.582 546.585 974.538 553.755C969.823 555.531 965.373 558.418 961.039 560.969C951.881 565.88 943.164 569.184 933.101 571.762C941.145 560.387 949.873 550.027 960.968 541.504C974.585 531.045 984.592 526.698 1001.96 528.967C1005.92 527.021 1009.5 525.496 1013.83 524.603Z"/>
	<path fill="#FAF2E4" d="M1014.25 529.821Q1016.65 529.78 1019.03 530.177Q1021.4 530.574 1023.66 531.395C1028.7 533.184 1036.82 536.854 1039.23 541.893C1038.74 541.682 1038.25 541.484 1037.75 541.311C1014.56 533.328 988.429 539.6 967.386 550.658Q957.721 556.474 947.81 561.861C958.279 550.404 969.672 540.287 984.032 534.088C996.497 535.704 1002.73 535.001 1014.25 529.821Z"/>
	<path fill="#2E2925" d="M935.144 350.608C935.695 350.825 935.658 350.774 936.216 351.205C939.737 353.921 940.376 362.644 940.67 366.681C941.25 374.655 940.192 382.395 934.705 388.577C918.012 407.383 880.84 401.627 858.76 403.495C841.795 404.93 831.223 418.314 820.907 430.249L818.181 431.344L817.262 430.406C818.554 423.108 821.336 417.261 824.947 410.873C828.702 404.231 834.828 396.227 841.457 392.223C863.472 378.929 913.116 386.965 931.214 363.535C934.49 359.294 935.791 355.988 935.144 350.608Z"/>
</svg>
