<svg version="1.2" xmlns="http://www.w3.org/2000/svg" viewBox="0 0 1820 1024" width="1820" height="1024">
	<title>man-looking-up-with-many-question-marks-above-his-svg</title>
	<style>
		.s0 { fill: #62615f } 
		.s1 { fill: #2e2925 } 
		.s2 { fill: #4f453e } 
		.s3 { fill: #faf2e4 } 
		.s4 { fill: #fefcf9 } 
		.s5 { fill: #f9e7cb } 
		.s6 { fill: #d3cbc1 } 
		.s7 { fill: #7f7f7a } 
	</style>
	<g id="Layer 1">
		<path class="s0" d="m961.6 157.4c1.4-0.1 3-0.2 4.4 0.1 3.2 0.5 6 2.4 7.7 5.2 1.7 2.8 1.8 6.2 0.8 9.3-1.4 4.9-4.5 7-8.7 9.4-1.5 0-3-0.2-4.4-0.5-3.3-0.9-6.1-2.6-7.7-5.7-1.5-2.7-1.6-6-0.6-8.9 1.5-4.6 4.3-6.8 8.5-8.9z"/>
		<path class="s1" d="m865.5 142.3c2.1-0.1 4.5-0.3 6.5 0.1 3.1 0.6 5.9 2.5 7.5 5.2 1.4 2.4 1.6 5.3 0.7 7.9-1.7 4.8-5.5 6.8-9.9 8.8-2.6-0.1-5.5-0.3-8-1.3-2.7-1-5.3-3.4-6.4-6.1-1-2.2-0.9-4.7 0-6.9 1.9-4.3 5.6-6 9.6-7.7z"/>
		<path class="s2" d="m866.5 147.9c1.3 0.2 3.2 0.3 4.4 0.8 2.2 0.9 2.8 2.1 3.9 4.1 0.1 2.6-0.7 3.8-2.1 5.9-2 0.3-3.9 0.3-5.9 0.3-2.2-1.3-2.4-1.3-3.3-3.7 0.3-3.2 1.2-4.8 3-7.4z"/>
		<path class="s1" d="m727.7 235.7c2.4-0.3 5.4-0.7 7.8-0.3 3.1 0.6 6 2.8 7.8 5.4 1.7 2.5 2.1 5.5 1.4 8.5-1.2 5-4.4 7.3-8.7 9.7-2.3 0.4-4.8 0.9-7.2 0.9-2.8-0.1-5.3-0.9-7.2-3.1-2-2.2-2.6-5.2-2.2-8.1 0.7-5.6 3.9-9.6 8.3-13z"/>
		<path class="s3" d="m727.8 242.2c2.9 0.4 5.2 0.8 7.2 3.1 1 2.6 0.4 4.8-0.1 7.4-0.8 0.1-1.6 0.2-2.3 0.1-2.2-0.3-2.8-1.1-4.3-2.6-0.9-3-0.8-5-0.5-8z"/>
		<path class="s2" d="m366.9 461.3c2.3-0.3 5.1-0.5 7.3 0.1 3 0.9 5.6 3.2 7 5.9 1.6 3.1 1.6 6.8 0.4 10-1.7 4.8-4.8 6.9-9.2 8.9-1.8 0-3.6 0-5.4-0.3-3.3-0.5-6.7-2.7-8.5-5.5-1.7-2.8-2-6-1.1-9.2 1.4-5 5.2-7.4 9.5-9.9z"/>
		<path class="s1" d="m817 104.8l0.3-0.6c4.2-9.5 7.3-16.3 18.1-20.6 3.7-1.4 7.4-1.6 11.1 0.1 3.3 1.5 7.8 5.2 9.1 8.6 0.8 2.1 0.4 4.1-0.6 6-4.2 7.8-10.8 11-8.4 21.4 0.6 2.6 1.7 4.4 3.5 6.4l1.6 0.4c0.9-1.9 0.6-3.5 0.6-5.4-0.1-7.7 3.5-11.6 8.4-17.1 1 2.2 1.9 4.3 2.4 6.7-6.5 7.1-1.6 13.7-2.5 21.9-0.8 0.6-1.6 1.2-2.5 1.6-3.6 1.4-8.3 0.1-11.6-1.6-4.1-2.1-7.2-5.4-8.6-9.9-3.6-12 8.1-18.1 12.4-27.3 0.7-1.6 1-3.5 0.3-5.2-1-2.5-3.3-4.1-5.8-5-2.6-1.1-5.1-0.9-7.6 0.3-8.7 3.9-12.2 12.9-15.5 20.9-0.9 2.2-2.9 2.8-4.9 3.6l-0.9 0.3z"/>
		<path class="s1" d="m323.5 393.9c2.8-0.2 6-0.2 8.7 0.7q0.8 0.2 1.5 0.6 0.7 0.3 1.4 0.7 0.7 0.4 1.3 0.9 0.6 0.4 1.2 1 0.6 0.5 1.1 1.1 0.5 0.6 1 1.2 0.5 0.7 0.9 1.3 0.3 0.7 0.7 1.4 0.3 0.7 0.5 1.5 0.3 0.7 0.4 1.4 0.2 0.8 0.3 1.5 0.1 0.8 0.1 1.6 0 0.7 0 1.5-0.1 0.7-0.2 1.5-0.2 0.7-0.4 1.5-0.2 0.7-0.4 1.4c-2.1 5.1-5.1 7.7-10.1 9.9-1.9-0.3-3.9-0.6-5.8-1.3-5.1-1.7-9.8-5.6-12.1-10.5-1.5-3.2-1.9-6.8-0.5-10.2 2-4.7 5.9-6.9 10.4-8.7z"/>
		<path class="s3" d="m325.5 397.5c1.9 0.1 3.9 0.2 5.7 0.8 2.8 0.9 5 2.9 6.4 5.5q0.2 0.6 0.5 1.1 0.2 0.6 0.4 1.2 0.1 0.6 0.2 1.2 0.1 0.6 0.2 1.3 0 0.6 0 1.2-0.1 0.6-0.2 1.2-0.1 0.6-0.2 1.2-0.2 0.6-0.4 1.2c-1.7 4.5-4.7 6.7-9 8.5-2-0.6-4-1.2-5.9-2.1-3.8-1.9-7-5.4-8.2-9.5-0.7-2.2-0.4-4.5 0.7-6.4 2-3.7 6-5.3 9.8-6.4z"/>
		<path class="s4" d="m817 104.8c-2.4-2.5-4.4-4.3-4.5-8-0.1-6.8 6.3-13.8 10.8-18.1 6.2-6 12.8-11.2 21.7-11 6.2 0 12.1 2.4 16.4 6.9q0.3 0.4 0.7 0.8 0.3 0.4 0.6 0.8 0.3 0.4 0.6 0.8 0.3 0.4 0.6 0.9 0.3 0.4 0.5 0.9 0.3 0.4 0.5 0.9 0.3 0.4 0.5 0.9 0.2 0.5 0.4 1 0.2 0.5 0.3 1 0.2 0.5 0.3 1 0.1 0.5 0.3 1 0.1 0.5 0.1 1 0.1 0.5 0.2 1 0 0.5 0.1 1.1 0 0.5 0 1 0 0.5 0 1c-0.2 5.7-3 10-6.4 14.3-4.9 5.5-8.5 9.4-8.4 17.1 0 1.9 0.3 3.5-0.5 5.4l-1.7-0.4c-1.8-2-2.9-3.8-3.5-6.4-2.4-10.4 4.2-13.6 8.4-21.4 1-1.9 1.4-3.9 0.6-6-1.3-3.4-5.8-7.1-9.1-8.6-3.7-1.7-7.4-1.5-11.1-0.1-10.8 4.3-13.9 11.1-18.1 20.6z"/>
		<path class="s2" d="m815.9 110.3c-5.6-1.5-10-3.1-13.1-8.3-2.7-4.3-2.7-9.2-1.4-14 2.4-9.5 9.3-18.2 17.9-23 10.5-5.8 25.6-8.3 37.3-5 8.8 2.5 17.9 8.5 22.2 16.8q0.3 0.4 0.5 0.9 0.3 0.5 0.5 1 0.2 0.5 0.4 1 0.1 0.5 0.3 1.1 0.1 0.5 0.3 1 0.1 0.6 0.2 1.1 0.1 0.5 0.2 1.1 0 0.5 0.1 1 0 0.6 0.1 1.1 0 0.6 0 1.1 0 0.6-0.1 1.1 0 0.5-0.1 1.1 0 0.5-0.1 1.1-0.1 0.5-0.3 1-0.1 0.6-0.2 1.1-0.2 0.5-0.3 1c-2.9 8.4-9.6 13.4-17.2 17.1-0.5-2.4-1.4-4.5-2.4-6.7 3.4-4.3 6.2-8.6 6.4-14.3q0-0.5 0-1 0-0.5 0-1-0.1-0.6-0.1-1.1-0.1-0.5-0.2-1 0-0.5-0.1-1-0.2-0.5-0.3-1-0.1-0.5-0.3-1-0.1-0.5-0.3-1-0.2-0.5-0.4-1-0.2-0.5-0.5-0.9-0.2-0.5-0.5-0.9-0.2-0.5-0.5-0.9-0.3-0.5-0.6-0.9-0.3-0.4-0.6-0.8-0.3-0.4-0.6-0.8-0.4-0.4-0.7-0.8c-4.3-4.5-10.2-6.9-16.4-6.9-8.9-0.2-15.5 5-21.7 11-4.5 4.3-10.9 11.3-10.8 18.1 0.1 3.7 2.1 5.5 4.5 8z"/>
		<path class="s1" d="m657.4 656.3c6-0.3 11.8 0.3 16.9 3.7 4.8 3.2 7.8 8.5 8.8 14.2 1.4 8.1-1.1 16.4-5.8 23.1-5.1 7.1-11.2 10.4-19.7 11.8-5.6-0.4-10.9-1.5-15.7-4.7-5.7-3.8-9.5-9.4-10.7-16.2q-0.1-0.6-0.2-1.3-0.1-0.6-0.2-1.3 0-0.6 0-1.3-0.1-0.6 0-1.3 0-0.7 0-1.3 0-0.7 0.1-1.3 0.1-0.7 0.2-1.3 0.1-0.7 0.2-1.3 0.2-0.7 0.3-1.3 0.2-0.7 0.4-1.3 0.2-0.6 0.4-1.2 0.3-0.7 0.5-1.3 0.3-0.6 0.6-1.2 0.3-0.6 0.6-1.1 0.3-0.6 0.6-1.2 0.4-0.5 0.8-1.1c5.4-7.8 12.9-10.3 21.9-11.8z"/>
		<path class="s4" d="m655.1 660.5c5.7-0.9 10.9-0.7 15.7 2.9 4.5 3.4 7.1 8.8 7.8 14.3 0.8 6-0.5 13.2-4.3 18.1q-0.2 0.2-0.4 0.4l-1.3-1.1q0.7-2.2 1.3-4.4c1.5-6.1 1.8-13.4-1.6-18.9-3.2-5.4-8.2-7.1-14-8.5-2-0.9-2.3-0.8-3.2-2.8z"/>
		<path class="s3" d="m673.9 696.3c-3.1 3.9-8.1 7.1-13.1 8.1-5 0.9-9.9-0.7-14-3.6-5.4-3.9-9.2-10-10.3-16.5-0.8-5.5 0.3-11.8 3.8-16.2 3.5-4.5 9.2-6.9 14.8-7.6 0.9 2 1.2 1.9 3.2 2.8 5.8 1.4 10.8 3.1 14 8.5 3.4 5.5 3.1 12.8 1.6 18.9q-0.6 2.2-1.3 4.4z"/>
		<path class="s1" d="m658.3 663.3c5.8 1.4 10.8 3.1 14 8.5 3.4 5.5 3.1 12.8 1.6 18.9q-0.6 2.2-1.3 4.4c-0.9 0.8-1.5 1.2-2.5 1.7 0.3-2.4 0.7-4.8 0.9-7.2 0.6-6 0.8-13.3-3.6-18.1-5.7-6.2-12.1-2.8-19.2-3.2l0.5-1.1c3.2-2.2 5.7-3.1 9.6-3.9z"/>
		<path class="s2" d="m330.6 368.1c8-0.8 15.6-0.1 22.8 3.7q0.7 0.4 1.3 0.8 0.7 0.3 1.3 0.8 0.6 0.4 1.2 0.8 0.6 0.4 1.2 0.9 0.5 0.5 1.1 1 0.5 0.5 1.1 1 0.5 0.5 1 1.1 0.5 0.5 0.9 1.1 0.5 0.5 1 1.1 0.4 0.6 0.8 1.2 0.4 0.7 0.8 1.3 0.4 0.6 0.7 1.3 0.4 0.6 0.7 1.3 0.3 0.7 0.6 1.4 0.3 0.6 0.5 1.3 0.3 0.7 0.5 1.5c5 17.4-5.6 31.1-13.4 45.5 0.9 2.7 2.3 5.2 3.5 7.8 1.4 3.1 1.4 4.3 0.2 7.5-0.8 0.8-1.7 1.5-2.8 1.8-2.8 0.9-5.9 0.4-8.4-1-3-1.7-5-4.5-5.9-7.8-2.9-11 6.8-21.6 12-30.5 4.6-8 5.7-15.1 3.3-24-3-4.3-7.8-9.3-13.2-10.3-10.1-1.8-20.8 1.9-29.1 7.5-25.4 17.2-2.2 27-4.5 38.9-0.5 0.5-1 0.9-1.7 1.3-2.5 1.1-8 1.5-10.4 0.2-4.5-2.5-7.8-8-9.2-12.8-2-7.2-0.8-14.3 3-20.7 8.5-14.3 23.6-21.1 39.1-25z"/>
		<path class="s0" d="m971.9 59.7c12.7-0.9 25.8 2 36.1 9.7 6.7 5 11.7 12 12.8 20.4 1 8.3-2.1 16.8-7.2 23.4-8.8 11.2-24.5 13.2-33.5 23.9-2.9 3.5-6.8 10.7-11.7 11-3 0.2-5.5-2.4-7.5-4.2 1.7-18.6 12.4-23.1 23.5-35.5 2-2.2 4.2-5.5 3.7-8.6-0.5-4.2-3-9.8-6.4-12.4-3.9-3.1-9-3.7-13.8-3.1-10.6 1.2-16.8 7.9-23 15.8 0.4-9 1.7-17.3 6.3-25.2 4.9-8.5 11.4-12.7 20.7-15.2z"/>
		<path class="s1" d="m690.4 123c7.9-0.9 16.6 0.4 24.1 2.9 9.5 3.2 18.3 9.2 22.7 18.4 11.3 23.1-8.7 36.2-15.3 55.6 1.6 3.9 3.3 7.9 4.4 11.9 0.9 3.6 0.6 6.9-1.3 10.2-2.3 3.9-6.4 6.5-10.7 7.6-5.8 1.5-12.4 1.2-17.7-1.9-4.4-2.7-7.5-7.2-8.6-12.2-2.9-12.8 3.8-25.9 10.3-36.4 1.7-2.5 3.3-5 3.4-8.1 0.1-2.4-0.7-4.8-2.4-6.5-2.2-2.2-5.3-3.2-8.4-3.3-23.7-0.6-20.2 27.6-28.9 35.6-5.7 5.3-14.9 4.2-22.1 4q-2-1.1-3.9-2.5c-5.2-3.9-9.1-9.7-10-16.3-1.4-10.7 4.4-21.3 10.7-29.6 13.2-17.4 32.5-26.5 53.7-29.4z"/>
		<path class="s4" d="m689.2 129.2c9.4-0.9 22.6 3.9 29.9 9.7 29 22.8-1.6 43.3-5.6 61.3-1.3 5.7 3.1 11.9 3.5 17.6 0.1 1.8-0.2 3.9-1.5 5.2-1.5 1.6-3.4 2.3-5.6 2.1-4.1-0.4-8.3-4.7-10.5-7.9-12.3-17.4 9.3-32.9 11.9-48.8-1.2-4.5-3.1-8.5-7.2-11.1-5.2-3.3-13.3-2.3-18.9-0.8-12.6 3.3-21.5 12.5-24.8 24.9-1.2 4.2-1.9 9.5-4.3 13.1-1.6 2.5-2.8 3-5.5 3.6-1.8-0.3-3.2-1-4.7-2.1-4.9-3.5-9.3-9-10.2-15.1-1.3-9.6 3.2-19.3 8.8-26.7 11.3-14.8 26.3-22.5 44.7-25z"/>
		<path class="s1" d="m574.8 495.4c9.1-1.2 19.2-0.7 28 1.6 15 4 25.8 14 33.4 27.2 9 15.5 10.3 31.5 1.8 47.3-3.2 6-7.1 12-8.8 18.7-2.3 9.2 0.3 14.3 4.8 22.1 3.4 5.9 5.6 11.7 3.6 18.6-1.7 6-6.1 10.8-11.5 13.6-6.2 3.3-13.9 3.8-20.5 1.7-11.7-3.9-19.5-15.1-24.9-25.7-18-43 10.4-54.3 4.5-76-1.2-4.6-4.2-9.1-8.4-11.4-4.4-2.4-11.3-3.3-16.1-1.8-12.2 3.7-8.1 20-13.4 28.6-1.5 2.6-3.6 4-6.5 4.6-4.6 1-10.4-0.4-14.2-3-4.4-3-6.3-7.4-7.1-12.5-1.6-9.8 1.2-19.5 7.1-27.4 11.1-14.9 30.2-23.6 48.2-26.2z"/>
		<path class="s3" d="m567.8 521.1c-8.9 4-16.5 10.4-20.2 19.6-2.5 6.4-0.4 15.5-6.3 19.5-4.1 0.4-8.4-0.4-11.7-3-3.4-2.7-5-7-5.4-11.2-0.8-9.7 3.2-18.8 9.5-26.1 10.9-12.5 27.4-19.3 43.8-20.3 14.9-0.8 30.4 1.7 41.8 12.1 10.3 9.3 19 24.6 19.6 38.5 0.8 17-12.8 26.6-14.8 42.1-1.8 15 8.9 24.1 8.6 36.3-0.1 3.6-1.7 6.7-4.1 9.3q-0.6 0.6-1.2 1.2-0.6 0.6-1.3 1.1-0.7 0.5-1.4 0.9-0.7 0.4-1.5 0.8-0.7 0.3-1.5 0.6-0.8 0.3-1.6 0.5-0.8 0.2-1.7 0.3-0.8 0.1-1.6 0.2c-7.9 0.2-15.3-3.7-20.9-9-11.2-10.8-17.2-28.6-17.3-44-0.1-18.3 23.1-40 5.7-57.1-4.1-4-9.5-5.9-15.1-6.2-1.5-0.1-2.9-0.2-4.4-0.3 0.8-1.5 3.4-2.2 4.9-3 9.4-2.9 17.2-3.4 26.6-0.6 5.1 2.9 9.2 5.8 12.4 10.8 11.9 19.1-2.5 37.5-6.7 56.1-1.7 7.8-2.3 19.1 2.4 26 3.5 5.3 9.2 7.2 15.1 8.5l1-1.1-0.6-1.4c-1.7-0.5-3.4-1.1-5-1.8-12.3-5.8-11.5-23.7-7.9-34.6 2.8-8.6 7.7-16.3 9.8-25.2 1.6-7.4 1.5-15.3-1.1-22.5-3-8.2-8.8-14-16.8-17.6-10.7-4.2-20.5-3.5-31.1 0.6z"/>
		<path class="s1" d="m419.1 181.6c29.4-15.8 69.6-21.6 101.8-11.8 23.2 7 39.9 21.1 51.2 42.5 11.6 21.9 19.7 53.8 11.9 78.1-10.4 32.5-49.8 48.2-57 86.9-4.6 25 27.6 62.4 1.3 76-9.9 5.1-22.7 7.1-33.4 3.5-9.2-3-16.1-9.8-20.3-18.5-9.5-19.5-9.6-45.7-2.4-65.9 16.5-46.2 76-72.6 50.4-126.8q-0.6-1.2-1.1-2.3-0.6-1.1-1.3-2.2-0.6-1-1.3-2.1-0.7-1-1.4-2-0.8-1-1.6-2-0.7-1-1.6-1.9-0.8-0.9-1.7-1.8-0.9-0.9-1.8-1.8-0.9-0.8-1.9-1.6-1-0.8-2-1.5-1-0.8-2-1.5-1.1-0.7-2.1-1.3-1.1-0.7-2.2-1.3-1.1-0.5-2.2-1.1-1.2-0.5-2.3-1-1.2-0.5-2.4-0.9c-17.3-6.1-35.4-1.5-51.4 6.3-3.8 1.9-7.8 4.1-11.3 6.6-2 10.9-5.2 22.4-12.6 31 1.2 17.9 3 36-10.1 50.6-6.9 7.7-17.6 12.6-27.9 13q-0.7 0-1.3 0-0.7 0-1.3 0-0.7-0.1-1.3-0.2-0.6 0-1.3-0.1-0.6-0.1-1.3-0.3-0.6-0.1-1.2-0.3-0.6-0.1-1.2-0.3-0.7-0.2-1.3-0.5-0.6-0.2-1.2-0.4-0.6-0.3-1.1-0.6-0.6-0.3-1.2-0.6-0.5-0.3-1.1-0.7-0.5-0.3-1-0.7-0.6-0.4-1.1-0.8-0.5-0.4-1-0.8-0.5-0.4-0.9-0.9c-10.3-9.8-12.8-26-13.3-39.6 0.4-8.5 1.3-17 3.8-25.2 10.2-35 36.2-56.4 67-73.2z"/>
		<path class="s5" d="m431 232.2c-2 10.9-5.2 22.4-12.6 31-0.5-3.7-1.2-7.7-0.7-11.4 1.2-8.7 6.4-14.6 13.3-19.6z"/>
		<path class="s0" d="m477 171q0.4 0 0.8-0.1c22.3-2.5 47 2.4 64.9 16.4 21.4 16.7 31.5 44 34.5 70.2 5.5 46.2-21 55.7-45.3 86.8-19.7 25.3-19.7 44.4-7.1 73.1 2.7 6.3 6.6 13.4 7.3 20.3 0.5 3.9-0.4 7.4-2.9 10.4-3.2 3.8-12 8.2-17 8.6-8.5 0.8-14.6-1.8-21.1-7.2-10.9-9.2-15.3-23.4-16.6-37.1-3.8-38.8 15.7-63.3 39.1-91.8 3.6-4.1 7-8.1 10.1-12.5 10.3-14.6 15.3-30.5 12.1-48.5-2.8-15.6-11.8-31.3-25.1-40.2-14.8-10-32.5-11.3-49.6-8-12.3 2.5-25.5 7.4-36.2 14.1-44 27.9-11 63.1-28.3 88-3.1 4.4-9.2 9.2-14.7 9.9-3.8 0.4-9.1-1.5-12.1-3.9-8.5-6.7-11.5-23.3-12.5-33.5-2.6-25.3 8.5-50.4 24.3-69.6 23.6-28.8 59.3-41.9 95.4-45.4z"/>
		<path class="s1" d="m513.1 353.7c0.7 3-5.4 15.3-6.6 19-6.1 19.3-4 31.2 5.1 48.8l-0.7 0.9c-5.6-6.1-9.3-12.7-10.8-20.9-2.9-16.2 3.8-34.5 13-47.8z"/>
		<path class="s1" d="m510.5 342.2c0.3 3-22.5 34.7-23.1 55.2-0.4 12.8 4.4 16.2 5.4 24.5l-1.4-0.5c-4.9-7.6-8.3-14.8-8.3-24.2 0.2-19.3 13.8-41.8 27.4-55z"/>
		<path class="s1" d="m493.2 174.4q1-0.1 2.1-0.2c15.5-0.5 35.8 11.9 46.5 22.4 16.7 16.3 26.9 44.7 27 67.8 0.1 33.5-21.8 52.5-43.7 74.5l-1.2 0.1c1-6 20.8-25.1 25.6-31.4 4.5-6.1 8.5-12.8 11.6-19.8 8.2-18.7 2.3-45.8-5-63.9-8.7-21.6-25-34.6-46-43.2-5.6-2.3-11.4-3.9-16.9-6.3z"/>
		<path class="s6" d="m180.8 389.1c-17.7-23.2-33.2-43.9-34-74.3-1-37.7 16.7-74 42.3-100.7 36.8-38.5 94-63.3 147.1-64.3 31.2-0.6 60.5 10.1 82.9 31.8-30.8 16.8-56.8 38.2-67 73.2-2.5 8.2-3.4 16.7-3.8 25.2-15 1.7-29.7 3.8-44.4 7.9-59 16.9-93.7 48.5-123.1 101.2z"/>
		<path class="s6" d="m492.8 831.1c-4.2 12.7-8.8 23.5-17.8 33.7-27.1 30.6-68.9 49-109.5 51.4-56.7 3.3-122.2-36.2-163.5-72.9-52.5-46.7-93-109.5-97-181.2-2-36 7.6-68.3 31.9-95.3 27.5-30.5 71.6-51.7 112.6-53.8 21.3-1.1 38.8 3.3 55 17.8 31.6-7.7 67.7-3.9 95.8 13.1 17.9 10.9 33 26.2 38.1 47.1 9.8 40.6-33 80.5-9 120.3 19.6 32.6 89.6 51.5 87.6 90.2-0.4 5.6-1.8 11.4-4.8 16.2-4.4 6.8-11.6 11.5-19.4 13.4z"/>
		<path class="s1" d="m304.5 530.8c31.6-7.7 67.7-3.9 95.8 13.1 17.9 10.9 33 26.2 38.1 47.1 9.8 40.6-33 80.5-9 120.3 19.6 32.6 89.6 51.5 87.6 90.2-0.4 5.6-1.8 11.4-4.8 16.2-4.4 6.8-11.6 11.5-19.4 13.4-5.5 0.5-10.4 0.3-15.8-0.2-17.7-3.6-33-11.1-45.8-24.1-29.6-30-32.3-70-32.1-109.8-5.7-7-10.4-17.4-15-25.3-14.6-25.2-27.8-51.3-41.2-77.2-5.9-11.3-12.2-22.2-17.9-33.6 1.2-1.1 5.9-0.9 7.8-1.1-8.3-1.4-16.9-0.2-24.9 2.1-17.6 5.2-33.5 18.7-42.1 34.9-23.8 44.5 20.8 47.3 29.1 75.1 2.9 9.7 1.5 19.6-3.4 28.4-3.6 6.4-7.6 10.1-14.7 12.1-11.1 3.1-23.1 0.3-32.8-5.3-15.5-8.9-26.5-24.9-31.1-42-6.6-24.5-0.8-52 11.7-73.6 15.1-26 41.1-50 70.6-57.9 3-1.3 6.2-2 9.3-2.8z"/>
		<path class="s4" d="m332.8 559.8c20.2 2.3 38.8 14.2 51.4 30 18.5 23.2 18.8 48.5 17.1 76.8-0.6 9.4-0.9 19-2 28.4q-0.1 1-0.2 2c-5.7-7-10.4-17.4-15-25.3-14.6-25.2-27.8-51.3-41.2-77.2-5.9-11.3-12.2-22.2-17.9-33.6 1.2-1.1 5.9-0.9 7.8-1.1z"/>
		<path class="s6" d="m405.2 704c10.8 17 24.4 33.7 39.1 47.4 27.8 26 48.6 31.8 49.6 75-4.4 0.8-8.5 1.2-13 1.4-17.2-2.7-31.2-9.7-43.5-22.1-27.3-27.6-32.2-64.6-32.2-101.7z"/>
		<path class="s6" d="m297.4 536.7c2.9-0.5 5.9-1.7 8.7-2.6 5 5.7 8.7 11.9 12.2 18.7 3.3 0 7.6-0.6 10.7 0.6-15.1 2.1-21.5 0.4-36.2 8-17 8.7-33.1 26-38.9 44.3-4.8 15.4-0.9 32.6 12 42.9 6.6 5.2 15.5 9 19.4 16.8 4.2 8.4 3.5 19.8 0.7 28.5-1.9 5.8-5.4 11.2-11 14-5.4 2.6-12.8 2.3-18.3 0.2-14.5-5.4-25.6-16.5-31.9-30.6-9.5-21.4-8.3-48.4 0-70 13-33.6 40.4-56.5 72.6-70.8z"/>
		<path class="s4" d="m306.1 534.1q1.4-0.4 2.9-0.7 1.4-0.3 2.8-0.6 1.4-0.2 2.9-0.5 1.4-0.2 2.8-0.4 1.5-0.2 2.9-0.4 1.5-0.2 2.9-0.3 1.5-0.1 2.9-0.2 1.5-0.1 2.9-0.2 1.5-0.1 2.9-0.1 1.5 0 2.9 0 1.5 0 2.9 0 1.5 0 3 0.1 1.4 0.1 2.9 0.2 1.4 0.1 2.9 0.2 1.4 0.2 2.8 0.4 1.5 0.2 2.9 0.4 1.5 0.2 2.9 0.4 1.4 0.3 2.9 0.6 1.4 0.2 2.8 0.6 1.4 0.3 2.8 0.6 1.5 0.4 2.9 0.8 1.4 0.3 2.8 0.8 1.4 0.4 2.7 0.8 1.4 0.5 2.8 1 1.4 0.4 2.7 1 1.4 0.5 2.7 1 1.4 0.6 2.7 1.2 1.3 0.5 2.7 1.2 1.3 0.6 2.6 1.2 1.3 0.7 2.6 1.3 1.3 0.7 2.5 1.4 1.3 0.7 2.6 1.5c15.7 9.4 30.7 24.7 35.3 42.9 10.4 41.2-33.4 83.4-7.7 123.7 6.8 10.7 18.8 20.3 29 27.8 18.9 13.7 74.6 41.8 56.4 71.7-3.7 6-8.9 9.7-15.1 12.9-1-43.2-21.8-49-49.6-75-14.7-13.7-28.3-30.4-39.1-47.4-0.1-43.1 13.5-79-16.1-116.5-15.5-19.6-35.3-31.2-60.1-34.1-3.1-1.2-7.4-0.6-10.7-0.6-3.5-6.8-7.2-13-12.2-18.7z"/>
		<path class="s6" d="m1474.2 271c7.9 2.8 18.1 13.1 25.4 18.3 9.7 6.9 20 13.4 30.5 19 22.6 11.9 47.3 20.2 70.6 30.5 54.8 24 101.1 62.4 126.8 117.2 16.8 35.8 19 73.5 5.5 110.7-18.4 50.8-59.6 92.2-85.2 139.8q-7.5 13.9-14.2 28.3-6.6 14.3-12.3 29.1c-10.6 26.7-19.1 54.6-36.1 78.2-16.2 22.5-37.2 39.3-62.2 50.9-49.9 23.3-106.8 30.4-161.5 26.7q-13.7-0.9-27.3-3c-5.5-0.8-12-2.6-17.5-2.4-0.4 2.8-0.5 6-1.9 8.4q0.1-0.2 0.2-0.4c3.6-12.8-6.3-40.9-12.9-52.3-24.7-42.9-88.3-57-132.7-69 9.6-4.6 19.6-14.4 28.8-20.5 51.8-33.7 135.2-89.2 157.7-147.9q2.7-7.1 4.6-14.4 2-7.4 3-14.9c1.8-12.1 5.5-79.6 1.5-88.6-1.3-2.9-5.6-6.5-7.7-9.1-4-5.2-5-11.1-5.2-17.5-0.9-28.3 22.5-43.8 23.5-51.6 4.1-11.4 2-30.3 2.6-42.8 0.4-11.4 2.5-23.1 6.1-34 8.5-25.2 33.1-65.3 57.7-77.5 10.1-5 22.1-6.1 31.8-11q0.2-0.1 0.4-0.2z"/>
		<path class="s1" d="m1409.7 755.1q0.9-0.1 1.8-0.2c10.3-1 20.1 0.9 28.2 7.7 7.6 6.3 12.5 16.2 13.3 26 1 11.9-4.6 24.1-12.3 32.8-7.8 8.9-17.1 13.2-28.8 14.1q-1.2 0.1-2.4 0.1-1.3 0-2.5-0.1-1.3 0-2.5-0.2-1.2-0.2-2.5-0.4-1.2-0.2-2.4-0.6-1.2-0.3-2.3-0.7-1.2-0.4-2.4-0.9-1.1-0.5-2.2-1c-10.2-5.2-17.4-14.7-20.6-25.5-3-9.8-2.6-20.7 2.4-29.7 7.3-13.4 21.5-17.3 35.2-21.4z"/>
		<path class="s5" d="m1413.4 758.7c5.6-0.4 10.9 0.1 16.1 2.3 9.1 3.9 15.5 12.9 18.8 22 1.3 3.7 2.1 10.8 0.5 14.4l-1.7-0.5c0.2-2.5-0.7-4.9-1.6-7.2-3.9-9.7-13.7-21.5-23.1-26.3-3.3-1.6-7-2.3-10.3-3.8z"/>
		<path class="s5" d="m1379.6 774.7c1.8 2.2-1.4 12.3-1.1 16.2 0.5 9.2 6.3 18.9 13.3 24.7 7.9 6.8 19.8 10.3 30.2 8.9 4.3-0.6 8.3-2.2 12.6-2.5-0.8 1.7-3.2 2.5-4.9 3.3-1.1 1.9-4.5 3.2-6.4 4q-0.8 0.3-1.7 0.6-0.8 0.2-1.6 0.5-0.8 0.2-1.7 0.4-0.8 0.2-1.7 0.4-0.8 0.1-1.7 0.2-0.9 0.1-1.7 0.2-0.9 0.1-1.8 0.1-0.8 0-1.7 0-0.9 0-1.7-0.1-0.9-0.1-1.7-0.2-0.9-0.1-1.8-0.2-0.8-0.2-1.7-0.3-0.8-0.2-1.6-0.5-0.9-0.2-1.7-0.5-0.8-0.2-1.6-0.5-0.8-0.3-1.6-0.7-0.8-0.4-1.6-0.8-0.8-0.4-1.6-0.8-0.8-0.5-1.5-0.9-0.8-0.5-1.5-1-0.7-0.6-1.4-1.1-0.7-0.6-1.4-1.2-0.6-0.5-1.3-1.2-0.6-0.6-1.2-1.2-0.6-0.7-1.2-1.4-0.6-0.6-1.1-1.3-0.5-0.7-1-1.5-0.5-0.7-1-1.5-0.5-0.7-0.9-1.5-0.5-0.8-0.8-1.6-0.4-0.8-0.8-1.6-0.3-0.8-0.6-1.6c-4.6-12-2.8-22.6 2.2-33.8z"/>
		<path class="s6" d="m1403.4 763.1c2.9-0.1 6.1 0.1 8.9 0.8 11.3 2.6 21.1 12.3 27 21.8 3.4 5.4 7.1 13.8 5.5 20.4-0.2 1.2-0.7 2.2-1.4 3.3-4.3 6-13.6 9.2-20.6 10.2q-0.2 0-0.4 0c-8.7 1.6-18.9-0.5-26.1-5.7-7.1-5-11.8-13-13.1-21.6-1-7.1 0.1-15.2 4.6-20.9 4.1-5.3 9.1-7.5 15.6-8.3z"/>
		<path class="s1" d="m1375.6 436.5q0.2-0.1 0.5-0.2c8.1-4 19.2-16.4 27.7-22.3 29.8-20.5 54.4-28.7 90.5-27.4 14.3 0.6 28.8 2.5 42.5 6.9 24.8 7.8 49.3 24.1 61.5 47.6 12.2 23.6 11.6 61.5 3.6 86.4-12.7 39.4-46 60.6-79.4 81.5-11.2 7-22.7 13.7-32.7 22.5-7.4 6.5-13.5 13.4-18.4 21.9-8.9 15.4-16.4 47.8-32.2 55.9-8.5 4.4-19.2 5.1-28.3 2.1-8-2.6-14.5-8-18.3-15.6-6.2-12.6-3.4-27.6 1-40.3 14.7-42 54.1-64.3 92-82.8 11.9-5.8 25.7-11.3 34.7-21.2 9.3-10.1 14.3-26.4 16.9-39.7 2.5-12.7 3.5-26.8-2.2-38.7-5.7-12.1-17.6-20.5-30-24.7q-1.4-0.5-2.8-0.9-1.4-0.4-2.9-0.7-1.4-0.3-2.9-0.6-1.5-0.2-2.9-0.4-1.5-0.2-3-0.3-1.5-0.1-3-0.2-1.5 0-2.9 0-1.5 0-3 0.1-1.5 0.1-3 0.3-1.4 0.2-2.9 0.4-1.5 0.2-2.9 0.6-1.5 0.3-2.9 0.7-1.5 0.3-2.9 0.8-1.4 0.4-2.8 1-1.4 0.5-2.7 1.1-1.4 0.5-2.7 1.2c-36.7 18.1-25.2 62.2-60.5 68.3-8.1 1.4-17.2 0.5-24.9-2.1q-4.3-1.4-8.4-3c-1.3-2.9-5.6-6.5-7.7-9.1-4-5.2-5-11.1-5.2-17.5-0.9-28.3 22.5-43.8 23.5-51.6z"/>
		<path class="s6" d="m1526.7 586.7c0.4-0.1 1-0.3 1.4-0.5 4.3-1.8 9.1-5.6 12.8-8.4 17.5-13.3 31.8-29.1 40.8-49.5 15.6-35.8 7.8-77.6-15.5-108.2-3.5-4.5-13.8-11.2-15.2-14.8 7.7 1.1 27.2 19.5 32.5 26.1 15.6 19.7 19.2 46.4 16.3 70.8-4.3 37.7-29.7 67.1-60.6 87.3-23.5 15.2-49.8 28.1-68.1 49.9-6.2 7.5-11.2 15.8-15.3 24.6-4.6 10.3-9.4 32.6-17.9 39.1-5.4 4.2-13.3 4.9-19.9 4-6.2-0.9-13-3.8-16.8-9-5.5-7.6-5.5-19.9-4.1-28.7 7.1-42.6 48.4-66.8 83.3-85 11.6-6 24.5-11.7 35-19.4 17.9-13.3 26.8-37.5 30.1-58.9 2.3-14.5-0.1-28.3-9-40.4-11.8-15.8-31-24-50.1-26.6q-2.2-0.3-4.6-0.4-2.3-0.2-4.6-0.2-2.3 0-4.6 0.2-2.3 0.1-4.6 0.4-2.3 0.3-4.6 0.8-2.2 0.4-4.5 1.1-2.2 0.6-4.4 1.3-2.2 0.8-4.3 1.7c-38.6 16.3-32.3 50.2-53 65.6-4.7 3.5-10.5 5.1-16.3 4.2-6.6-1-14.3-4.8-18.2-10.4-4.6-6.8-4.3-15.9-2.8-23.6 5.1-26.8 29.1-49.3 50.8-63.7 34.2-22.7 68.5-28.5 108.4-20.4 21 4.3 36.8 14.3 48.6 32.3 15 22.9 21.6 53 16 79.9-7.3 34.6-31.3 57.4-59.8 76-24.4 19.4-52.5 30.8-74.7 53.4-1.2 2.4-2.8 4.6-4.2 6.8-5.6 8.9-14.6 28.7-12.2 39.1l1.1-0.2c3.5-5 7.2-24.1 11.8-32.6 2.6-4.8 10.8-11.5 11.5-16.5 5.8-1.9 13.5-9.5 18.6-13.2 9.4-6.5 47.5-28 50.9-34z"/>
		<path class="s1" d="m1406.2 460c2.4-0.3 4.1-0.6 6.4 0.5l0.1 1.6-2 2.3-1.4-0.1c-2.1-1.4-2.2-1.9-3.1-4.3z"/>
		<path class="s1" d="m1418.9 423.6c0.7-0.2 1.5-0.4 2.2-0.4 2.1 0 3.3 0.5 4.8 1.9 0 2.2-0.4 2.2-1.8 3.8h-1.8c-2.2-1.7-2.5-2.8-3.4-5.4z"/>
		<path class="s1" d="m1475.6 412c1.4 0.1 3 0.3 4.2 1.1 1.5 1.1 1.6 1.3 2 3.2l-1.8 1.9c-2.4-0.1-2.9-0.3-5-1.7-0.6-2.3-0.5-2.3 0.6-4.5z"/>
		<path class="s1" d="m1389.4 467.1q0.3 0 0.6-0.1c2.5 0 3.9 1 5.5 2.8l-0.3 1.9-2.4 1.5q-0.1 0.1-0.2 0.1c-2.2 0-2.6 0-4.3-1.4-0.2-2.5-0.2-2.7 1.1-4.8z"/>
		<path class="s1" d="m1544.1 551.6l1.3 0.1v1.5q-0.5 0.9-1.1 1.9-1 1.7-2.1 3.3c-20.9 28.8-72.7 43.9-101.1 71.2-5.8 5.5-10.3 12.5-13.7 19.8-2.8 6-6.7 24.6-10.8 27.5-0.6-0.5-1-1.4-1-2.2-0.7-5.4 2.1-13.4 3.8-18.6 19.3-56.4 92.9-59.7 124.7-104.5z"/>
		<path class="s5" d="m961.1 210.8c9.4-11.5 18.9-22.8 29.5-33.1 30.8-30 86.8-71 126.1-87.7q7-3 14.2-5.4 7.2-2.5 14.6-4.4 7.3-1.9 14.8-3.2 7.5-1.3 15.1-2.1c71.9-7.2 123.3 18.3 177.6 62.9q18.1 15 34.4 31.9c23.8 25.3 44.3 53 66.8 79.4 3.4 3.9 19.4 18.9 20 21.9q-0.2 0.1-0.4 0.2c-9.7 4.9-21.7 6-31.8 11-24.6 12.2-49.2 52.3-57.7 77.5-3.6 10.9-5.7 22.6-6.1 34-0.6 12.5 1.5 31.4-2.6 42.8-1 7.8-24.4 23.3-23.5 51.6 0.2 6.4 1.2 12.3 5.2 17.5 2.1 2.6 6.4 6.2 7.7 9.1 4 9 0.3 76.5-1.5 88.6q-1 7.5-3 14.9-1.9 7.3-4.6 14.4c-22.5 58.7-105.9 114.2-157.7 147.9-9.2 6.1-19.2 15.9-28.8 20.5-16.8-4.9-33-10.5-49.4-16.4 0-0.2 0.1-0.4 0.2-0.6 0.7-5.5-10.7-27.5-14.1-33.5-12.5-22-40-47.9-64.7-54.6 3.5-7.6 6-43.8 3.5-51.7 7.3-2.6 15.7-7.6 21.7-12.5 3.1-2.6 7.8-6.9 8.9-11 5.1-18.2 2.2-39.7 3.4-58.5 2.1-33.3 10.5-67 6.4-100.5-3-24.1-22.6-42.2-22.3-67.7 0.1-6.2 2.8-12.6 3.4-18.8 0.3-3.2-9-56.7-10.4-62.2-0.8-2.8-1.9-4.9-3.7-7.1 14.5 15.4 5.8 24.4 11 37.3 0.8 1.9 1.1 2.7 3 3.5 0.2-0.4 0.7-0.8 0.9-1.2 2.9-5.7 2.2-19.8 0.6-25.8-5.2-20.4-27.4-48.4-43.7-61.7-4.4-3.7-9.5-6.4-14.4-9.3 5.6 1.8 10.6 3.9 15.2 7.4 3.6 2.7 9.3 10.9 12.9 11.8 1.7 2.9 3.3 6 6.5 7.5l1.6-0.8c0.6-2.1 1.1-4 1.3-6.2 0.1-0.7 0.1-1.3 0.1-2 0.2-10.5-11.6-26.4-18.8-33.4-17.6-17.2-43.6-22.6-67.4-22.2z"/>
		<path class="s1" d="m1150.7 677.8c4.7-0.3 9.3 0.3 13.2 3.1q0.7 0.4 1.3 1 0.7 0.5 1.3 1.1 0.5 0.7 1.1 1.3 0.5 0.7 0.9 1.4 0.5 0.7 0.9 1.4 0.3 0.8 0.6 1.6 0.3 0.8 0.6 1.6 0.2 0.8 0.3 1.6c0.8 4.5-0.1 9.3-2.8 13-3.3 4.5-7.4 6.3-12.7 7.1-3.4 0.3-6.8-0.1-9.9-1.6q-0.7-0.3-1.4-0.7-0.6-0.4-1.2-0.8-0.7-0.5-1.2-1-0.6-0.5-1.1-1.1-0.5-0.6-0.9-1.2-0.5-0.6-0.9-1.3-0.4-0.6-0.7-1.3-0.3-0.7-0.6-1.5-0.1-0.4-0.3-0.9-0.1-0.4-0.2-0.9-0.1-0.5-0.2-1-0.1-0.4-0.2-0.9 0-0.5-0.1-1 0-0.5 0-0.9 0-0.5 0-1 0-0.5 0-1 0.1-0.5 0.1-0.9 0.1-0.5 0.2-1 0-0.5 0.1-0.9 0.2-0.5 0.3-1 0.1-0.4 0.3-0.9 0.1-0.5 0.3-0.9 0.2-0.4 0.4-0.9 0.2-0.4 0.4-0.9c2.7-5.2 6.8-7 12.1-8.7z"/>
		<path class="s1" d="m1152.4 463.1c7.6-2.8 13.8-2.4 21.2 1.1 4.4 2 7.6 5.5 9.9 9.7l0.1 1.3c1.7 1 2.9 2.5 3.9 4.2 4.4 7.6 5.8 16.8 3.4 25.3-3.2 11.1-16.7 24.6-26.6 30.1-8.1 4.3-17.4 6.3-26.2 3.5-8.8-2.8-15.7-9.7-19.7-17.8-4.9-9.8-5.5-21.6-2-31.9 3.6-10.5 10.4-17.2 20.1-21.9 5-1.8 11.4-1.1 15.9-3.6z"/>
		<path class="s5" d="m1156.9 465.9c5.3-1.6 9.6-0.8 14.5 1.8 3.3 1.8 7 5.3 8.4 8.8 2.4 2.3 3.9 5.2 5.1 8.2 2.5 5.9 4.1 13.1 1.5 19.2-0.6-7.2-2-13.4-5.6-19.8-3.2-5.8-8.6-12-15.2-13.9l-0.4-0.7c-2.3-2-5.4-2.7-8.3-3.6z"/>
		<path class="s5" d="m1117.7 500c1.5 0.6 7.5 12.8 9.8 15.6 9.9 12.1 20 13.2 34.4 14.7l-0.3 0.8-3.6 1.4c-1.8 1.9-5.2 2.6-7.8 3-6.8 0.8-14.5-1.5-19.9-5.8-8.9-7.3-11.5-18.8-12.6-29.7z"/>
		<path class="s5" d="m1139 469.5c7.9-0.1 15.3-0.9 22.6 2.5 4.4 2.1 8.2 4.7 11.5 8.4 5.7 6.3 9.4 15.2 8.9 23.8-0.4 5.5-2.4 11.2-6.6 14.9-0.2 0.4-0.2 0.6-0.6 1-4.3 4.2-12.1 6.4-18 5.9q-1-0.1-2-0.2-0.9-0.1-1.9-0.3-1-0.1-1.9-0.4-1-0.2-1.9-0.5-0.9-0.2-1.9-0.5-0.9-0.3-1.8-0.7-0.9-0.4-1.8-0.8-0.9-0.4-1.8-0.8-0.8-0.5-1.6-1-0.9-0.4-1.7-1-0.8-0.5-1.6-1.1-0.8-0.6-1.6-1.2-0.7-0.6-1.5-1.2-0.7-0.7-1.4-1.4-0.7-0.7-1.3-1.4-0.7-0.7-1.3-1.5c-5.2-6.2-8.5-14.3-7.6-22.5 1.3-11.5 8.5-13.5 16.5-19.8z"/>
		<path class="s1" d="m1221.7 543.6c0.8 0 1.5 0 2.2 0.1 7.9 1 46.4 18.3 54.7 23.7q2.5 1.6 4.7 3.6 2.1 2.1 3.9 4.4c5.7 7.4 7.7 15.3 6.4 24.5-1.2 8.5-4.9 15.9-10.8 22.2-19.4 20.8-47.3 14.5-71.7 24-7.9 3.1-14.1 9.1-20.8 14.1-1 3.2-3.3 7.2-5.7 9.5-3.8-3.2-9.1-5.8-13.4-8.4 7.6-8.9 12-18.7 21-26.6 13-11.5 30.9-18.9 42.8-31.2 3.5-3.7 6.5-8.3 6.2-13.6-0.1-3.3-1.6-6-4-8.2-10.5-9.3-28.7-8.6-41.8-7.7 4.6-3.3 24.6-25.5 26.3-30.4z"/>
		<path class="s1" d="m1218.4 129.3c38.5-3.1 80.6 2.3 111.1 28 20.5 17.2 35.8 45.5 37.9 72.3 1.4 17.2-0.7 35.6-5.9 52.1-19.5 61.3-78 53.4-119 90-19.7 17.6-18 43-32.4 59.5-4.1 4.7-9.8 8-16.2 8.3-7.3 0.4-15.1-3-20.5-7.9-14.2-13-8-36.1-2.2-51.9 1.3-3.7 4.5-9.5 4.2-13.5q0-0.2 0-0.4c2.8-2.5 4.5-6.9 6.5-10.1 6.8-10.8 14.5-20.3 25-27.8 8.3-6 17.6-11.3 26.9-15.8 18.9-9.1 41.1-15.9 54-33.6 10.2-14 11.7-30.4 8.8-47-2.7-16.3-12.4-32-26.1-41.5-11.9-8.2-26.6-10.8-40.7-7.9-24.5 4.8-31.9 19.9-44.4 38.3-4.2 6.2-11.5 13.2-19.2 14.6-11.4 1.9-27.2-1.7-36.4-8.5-6.4-4.8-10.3-11.8-11.3-19.7-1.8-13.2 4.2-26.8 12.1-37 21.1-27.3 55.2-36.4 87.8-40.5z"/>
		<path class="s5" d="m1223.1 133.8l1.7-0.1c34-2.1 65.8 9.2 91.1 31.8 18.8 16.7 29.1 36.5 30.5 61.7 5.9 105-78.8 83.6-127.8 138.7-7.6 8.6-19.1 28.2-18.5 39.8l1.3-0.5c3-3.9 3.9-9.8 5.5-14.5 3.6-10.7 10.3-20.3 18.4-28 33.8-32 93.3-36.7 114.3-79.7 11.4-23.4 13-57.2 4.4-81.7-9-25.9-32.5-46.4-56.6-58 8.7 1.4 17.8 6.3 25.2 10.9 22 13.6 39.4 37.3 45.3 62.5 2.2 9.4 5.5 28.8 0.2 37.1 0.4 0.7 0.7 1.4 0.9 2.2 1.3 5.6-3.2 16.9-5 22.3-21.1 61.3-75.8 51.1-115.5 88.8-13.3 12.5-18.7 25.6-24.7 42.5-2 5.6-3.8 11.4-7.1 16.5-2.6 4-6.1 7.3-11 8.2-4.9 0.9-11.2-1-15.2-3.9-5.1-3.6-8.4-9.6-9.4-15.7-1.8-11.4 2.2-24.5 6.1-35.1 15.1-41.7 43.9-54.5 81.5-72 13.1-6.1 25.6-12.6 34.2-24.6 10.5-14.8 12.4-33.8 9.3-51.2-3.2-18.3-15.2-35.9-30.4-46.4-14-9.7-30.2-12.4-46.8-9.4-15.6 2.8-31.9 10.3-41.5 23.3-4.6 6.2-8.1 13.2-12.5 19.6-4 5.5-9.4 10-16.3 11-7.1 1.1-14.6-1.3-20.2-5.7-5.1-3.9-9-10-9.8-16.5-1.5-12.7 4.9-27.7 12.8-37.4 19.9-24.5 55.7-33.4 85.6-36.5z"/>
		<path class="s1" d="m887.3 203c13.1-8.9 33.4-22.2 50.2-18.7 6 1.3 10.7 5.1 13.8 10.3 1.2 2 1.8 3.6 1.3 5.8-4.8-1.4-6.4-10.7-17.8-12-12.7-1.4-29.4 7.2-39.1 15 2.8-0.1 5.7-0.1 8.6 0.1 8.1 0.7 13.8 3.4 19.1 9.6l0.6 2.7c9.5 1.6 15.9 4.2 23.9 9.6 0.6 0.4 1.2 0.6 1.9 0.6 3.5-2.8 8.1-6.2 9.5-10.5l-1-1.6c-5.5 0.2-11 1.2-16.4 1.9 6.4-2.3 12.5-3.9 19.2-5 23.8-0.4 49.8 5 67.4 22.2 7.2 7 19 22.9 18.8 33.4 0 0.7 0 1.3-0.1 2-0.2 2.2-0.7 4.1-1.3 6.2l-1.6 0.8c-3.2-1.5-4.8-4.6-6.5-7.5-3.6-0.9-9.3-9.1-12.9-11.8-4.6-3.5-9.6-5.6-15.2-7.4 5 2.9 10 5.6 14.4 9.3 16.3 13.3 38.5 41.3 43.7 61.7 1.6 6 2.3 20.1-0.6 25.8-0.2 0.4-0.7 0.8-0.9 1.2-1.9-0.8-2.2-1.6-3-3.5-5.2-12.9 3.5-21.9-11-37.3 1.8 2.2 2.9 4.3 3.7 7.1 1.4 5.5 10.7 59 10.4 62.2-0.6 6.2-3.3 12.6-3.4 18.8-0.3 25.5 19.3 43.6 22.3 67.7 4.1 33.5-4.3 67.2-6.4 100.5-1.2 18.8 1.7 40.3-3.4 58.5-1.1 4.1-5.8 8.4-8.9 11-6 4.9-14.4 9.9-21.7 12.5 2.5 7.9 0 44.1-3.5 51.7 24.7 6.7 52.2 32.6 64.7 54.6 3.4 6 14.8 28 14.1 33.5-0.1 0.2-0.2 0.4-0.2 0.6 16.4 5.9 32.6 11.5 49.4 16.4 44.4 12 108 26.1 132.7 69 6.6 11.4 16.5 39.5 12.9 52.3q-0.1 0.2-0.2 0.4c0.3 0.8 0.7 1.6 0.9 2.5 1.8 7.7 1.8 22.9-2.1 29.5q0.2-0.7 0.3-1.4c0.8-5.1-1.7-12.5-2.7-17.5-4.9-23.6-9.6-46-24.3-65.8-18-24.2-46.9-37.7-74.5-47.9-9-3.2-18.3-6.7-27.7-8.1l-0.2 1.4c5.9 5.3 21.7 15.6 24.5 22 14.3 2.6 29.4 8.3 38.1 20.6 6.1 8.6 7.6 18.8 5.7 29-1.3 6.6-4 12.3-7 18.2l-0.6 0.3c4.3-15.2 10.9-28.2 2.3-43.7-6.5-11.6-20.2-18.4-32.7-21.8q-3.2-0.9-6.4-1.6c9.4 5.5 17.5 15.2 20.2 25.8 2.6 9.9-0.1 20.1-5.2 28.6-24.6 40.8-103.9 58.2-148.2 68.8q-8.5 2-17.1 3.8c0.6 2.7-0.3 5.2-1 7.8l-1.1 1c-0.7-2.5 1.1-5.6-0.2-7.6q-5.8 0.6-11.5 1.5c0.4 2.2 0.5 5.8-0.6 7.8-0.4 0.7-0.4 0.7-0.9 1.1l-1.4-0.4c-0.4-2-0.3-3.8-0.2-5.8-2.7-1.4-8.9 0.5-12.1 1.1 0 3.5-1.2 6.8-2.2 10.1l-0.9 0.8c-1-2.4-0.8-3.9-0.4-6.4q0.2-1.4 0.4-2.7c-2.1-0.7-3.8 0.2-5.9 0.9-3.3 1.6-7.2 2.1-10.7 2.7 4.3-38.9 11.8-86.1 24.6-123q4.3-12.7 9.9-24.9c6.5-13.9 15.6-27.6 17.5-43.1 1.6-13.1-2.9-25.9-11-36.1-3.7-4.7-9.5-10.5-15-12.8 1.7 5.7-0.8 32.4-2.2 39.5-0.8 4.2-2.3 8.2-4.3 12-9.9 18.6-29.9 31.7-49.7 37.5-35.9 10.6-80.8 4.1-113.4-13.6-32.6-17.8-65.9-48-76.7-84.9-2.8-9.5-2.5-18.9 0.9-28.2-7.5 5.6-11.9 11.4-13.3 21-3 20 9.6 40.1 21.1 55.4 29.2 38.7 78.3 69.1 126.6 75.9 31.2 4.4 63.7-0.2 89.4-19.6 14.2-10.7 25.8-25.9 28.2-44 0.7-5.4 0.9-11-1.2-16.1 5 7.6 5 16.7 3.2 25.5-4 19.6-17.3 34.9-33.7 45.5-27 17.5-61.7 21.2-92.7 14.5-33.6-7.2-62-25.7-90.6-43.8 11.7 13.4 23.6 24.3 38.1 34.7 8.5 6 17.9 11.7 25.7 18.7 3.2 2.8 3.7 8.9 4.7 9.6 6.4 4.5 14.6 6.1 21.3 10.3 24.4 15.4 34.9 45 43.7 71 2.9 8.8 10.2 25.9 9.4 34.6-0.2 1.5-0.4 1.6-1.5 2.8-2.1 0-3.8-0.7-5.3-2.3-1.5-1.7-2.8-3.9-3.9-5.9q-0.7 0-1.3 0c-5.6 0.2-20-0.3-23.8 3.7 0 1.7 0.3 2.9 0.8 4.5l0.2 0.6-0.7 1c-2.5-1.1-4.3-4.9-5.8-7.2-71.5 2.9-123.1-4.2-192-22.3-46.8-12.3-97.6-34.2-122.9-77.8-16.6-28.6-12.9-46.3-4.9-76.3-35.8 16-74 31-103.2 58.1-10.7 9.9-19.3 21.7-29.6 31.9 27.4-56.4 93.7-84.7 148.9-106.5 17.4-6.9 37.8-13 52.9-24.2 4.6-15.6 9.5-28.2 20.1-40.8 7.3-8.7 15.7-16.5 24-24.3 22.2-21 43.5-39 75.4-41.8v-13.8c-21.3-20.1-50.6-57.6-56.9-86.3l0.2 0.1c-9.7-7.5-20.8-15.6-27.7-26-9.4-14.4-10.2-31.9-6.9-48.2-4.3-5.5-8.6-11-12.5-16.7-15.5-22.1-17.5-44.8-13-70.8q-1.7-3-3.2-6.1c-6.2-13.1-8.6-30.4-3.7-44.1 3-8.3 8.1-13.5 15.9-17.3 5.4-21.1 15.1-39.1 33.4-51.9 14.1-9.9 34.1-17.5 51.4-14.5-2.5-6.3-4.1-12.6-3.8-19.4 0.6-10.2 5.7-18.9 13.2-25.4 14-12.2 50.8-22.2 69.5-23.6 11.3-0.9 22.7 0.1 34.1 0.9z"/>
		<path class="s3" d="m729.2 433.6c0.6 5.5-3.1 12.9-3 19 0.1 5.4 3.5 11 3.1 16.4l-2.8 2c-1.1-1.6-1.8-3.2-2.3-5-3.1-11-0.5-22.7 5-32.4z"/>
		<path class="s4" d="m795.1 701.7c1.9 0.1 3.1 0.1 4.8 1.3 2.6 7-1.7 20.2-3 27.6l-0.3 0.1-1.3-1.4c-2.5-9.1-4.4-18.7-0.2-27.6z"/>
		<path class="s3" d="m733.6 390.8c1 0.6 1.5 1.1 2.4 1.8-1.5 3.1-4.8 5.5-7.2 7.9-11.1 10.8-17.9 22.6-19.2 38.3l-0.3 0.6-0.6-0.3c-0.4-5.3 0.2-11 1.3-16.2 2.8-12.9 12.8-25 23.6-32.1z"/>
		<path class="s5" d="m995.3 276.4q0.2 0 0.4 0 0.3 0 0.6 0c10.7 1 24.3 11.3 31.3 19.2 2.9 3.2 7.9 9.7 7.6 14.2-12.8-11.7-25.3-24.1-39.9-33.4z"/>
		<path class="s5" d="m687.2 344.6c0.4 1-0.1 31.6-0.4 35-0.4 4.3-1.5 8.7-2.3 12.9l-1.3 0.7q-1.5-3.6-2.4-7.3-1-3.7-1.4-7.6c-1.4-11.8 0.3-24.1 7.8-33.7z"/>
		<path class="s5" d="m822.6 286.5l1.3 0.2c-2 2.9-13.7 6.6-17.4 8.4-17.1 8.1-30.1 21-36.4 38.9l-0.5 0.8-0.5-0.5c0.9-8.8 3.3-14.9 8.4-22.3 10.5-15.2 27.5-22.4 45.1-25.5z"/>
		<path class="s3" d="m711.6 385.7q0.1 0 0.1 0.1c0.8 1.4 1.8 5.6 1.6 7.1-0.6 4.9-7.9 11.6-10.1 16.4-3.9 8.8-6 18.6-8.4 28h-0.2c-1.1-1.4-1-3.1-1.1-4.8-0.8-18.7 5.8-33.2 18.1-46.8z"/>
		<path class="s5" d="m793.9 305.8l0.1 0.8c-2.7 5.5-6.5 10.3-8.2 16.4-1.5 5.6-1.6 12.2-2.1 18-1.7 19.8-4.7 39.1-19.5 53.9l-0.3-1.4c4-6.7 8.4-14.4 10.6-21.9 6.7-22.6 2.2-47.3 19.4-65.8z"/>
		<path class="s2" d="m798.9 683.5c0.9 3.5 2.7 8.1 1.9 11.6-1.3 1.5-1.3 1.6-3.2 1.8-2.4 0.2-5.6-0.8-8-1.2-8.6-1.4-16.7 1.3-22.6 7.9-2.5 2.8-4.5 6.1-6.3 9.3-0.1-4.3-0.8-8.6-1.4-12.9 7.7-6.9 15.2-5.9 23.6-10.1 1.8-0.9 2-0.9 2.6-2.8-1.8-1.9-2.9-1.8-5.5-2.3 6.2-0.8 12.7-0.7 18.9-1.3z"/>
		<path class="s3" d="m835.7 225.7l0.8 0.5c-2.2 3.3-5 5.8-7 9.2-4 7.1-5.4 16.1-3.1 24 3.8 12.9 14.8 18.8 25.7 25l0.2 0.8-3-0.7c-6.9-3-14.1-4-21.5-5.2-1.5-1.9-3.2-3.7-4.5-5.8-4.9-7.6-6.9-17.4-4.9-26.2 2.3-10.2 8.9-16.2 17.3-21.6z"/>
		<path class="s3" d="m760.5 341.2c2.2 2.5 3.5 8.2 4.7 11.4-3.1 11.2-9.5 26.4-19.2 33.4l-2.1-2.4c-1.3-2.5-2.1-4.4-4.7-5.9l1.6 1.7-2.5-2c-0.4-1.7 3.1-5.6 4.3-7.2 6.7-9.4 12.6-18.7 17.9-29z"/>
		<path class="s5" d="m973.7 252c8.2-0.6 15.2-0.7 23.2 1.7 13.2 3.8 27.3 13.9 33.9 26.2 2 3.6 4.8 7.9 3.6 12.1q-0.1-0.2-0.1-0.5-0.2-0.3-0.3-0.7c-2.5-8.4-10.4-13.9-17.3-18.7-10.8-6-24.5-10.5-37.1-9.7-3 0.2-5.6 1.7-8.7 1.8l2.5-2.1c-0.4-1.5-5.9-2.2-7.6-3.8l0.6-1.5c5.4-3.7 16.2-2.3 22.6-2.4-6.8-1.8-16.7-2-23.6-0.6l-0.5 0.1c2.7-1.1 6-1.4 8.8-1.9z"/>
		<path class="s5" d="m876.5 288.9c-7.9-2-15.9-5.4-21.7-11.4-4.6-4.8-6.9-10.9-6.6-17.5 0.4-12.4 8.5-24.8 17.4-32.9 10.8-9.9 26.1-15.7 40.7-15.4 5.7 0.1 11.4 1.2 17.1 1.4l0.6 2.7c-19.8-1.1-38.9 2.9-54.1 16.4-8 7.1-14.7 17.2-15.2 28.1-0.4 6.6 1.7 12.5 6.2 17.4 4.4 4.9 9.9 7.5 15.8 10.2z"/>
		<path class="s5" d="m941.5 234c16.5-2 42.1 0.9 56.4 9.5-15.8-3.6-29.9-4.3-45.7-0.4-18.1 5.7-28.3 17-48.5 10.3 10.1-11.2 23.4-16.7 37.8-19.4z"/>
		<path class="s5" d="m958.3 213.9c14.7-3.5 36.8 4.6 49.3 12.3 11.6 7.1 25.8 20.5 28.7 34.2 0.3 1.3 0.1 2.3 0 3.5-2.8-5.6-8.2-10.8-12.9-14.9-21.7-18.7-45.3-25-73.6-23 3.5-2.8 8.1-6.2 9.5-10.5z"/>
		<path class="s3" d="m799.7 238.5c3.4-5.2 7.1-9.7 11.7-13.9 13.6-12.6 33.8-17.8 52-17.2-16.7 3.5-34.9 7.6-46.9 20.8-7 7.7-10.2 17.3-9.6 27.6 0.6 11 5.5 18.4 13.4 25.6q-6.9 0.4-13.6 1.8c-43.7 8.8-48.7 52.8-70.5 85.6-0.8-3.9-1.6-7.9-2.2-11.9-2.7-17.7 1.3-37.2 12-51.6 11.8-15.9 27.3-21.8 46-24.7q-0.2 0-0.4 0c-18.6 0.1-37.6 7.2-49.7 21.6-14.7 17.4-15.5 36.9-13.7 58.4l-8.2 9.1c-2.2-16.6-0.3-29.2 5.4-44.9q-0.8 0.9-1.5 1.9c-9.3 13.4-9 29-6.4 44.3q-0.3 0.5-0.5 1c-0.3 0.4-0.6 0.9-0.9 1.4-2.9 5.1-12.5 9.8-17.4 14.3 2-7.1 3-9.6-0.7-16.3l-2.1-0.3c0.3-7.7 2.9-15.9 3.8-23.7 2.5-1.9 4.9-3.9 7.2-6.1-0.7-1-5.7 0.4-7.7-0.4q0-0.4 0-0.7c0.2-15.5 10.4-32.8 21.4-43.4 16.3-15.6 37-22.5 59.2-22-1.2-2.8-2.4-5.7-3.2-8.6-2.5-9-0.5-19.4 4.2-27.3 7.2-12.5 19-17.6 32.4-21.2-6.4 5.7-12.1 10.4-16.4 17.9-4.1 7.5-6.9 16.1-4.2 24.5 2.7 8.7 9.8 13.2 17.3 17.3q-0.1-0.2-0.3-0.5c-6.4-8.4-15.7-13-14-25.4 0.6-4.5 2.2-8.8 4.1-13z"/>
		<path class="s7" d="m738.3 704.9c16.4-17.3 36.1-26.8 59.2-31.5l1.4 10.1c-6.2 0.6-12.7 0.5-18.9 1.3 2.6 0.5 3.7 0.4 5.5 2.3-0.6 1.9-0.8 1.9-2.6 2.8-8.4 4.2-15.9 3.2-23.6 10.1 0.6 4.3 1.3 8.6 1.4 12.9-1.7 35.2 14.1 65.2 37.4 91 24.3 26.7 61.6 58.7 94.4 73.4-17-1.5-32.2-0.1-45.9 11.2-6.8 5.8-13.2 12.2-20.4 17.5-17 12.8-42.5 25.3-64.3 23.4-12.4-1.1-22.6-7.4-30.4-16.9-21.4-26-48.8-100.5-45-134.5 0.2-2 0.6-3.9 1-5.7 7.2-29.7 29.5-47.5 50.8-67.4z"/>
		<path class="s4" d="m738.3 704.9c0.1 15-15.9 36.4-26.2 46.8-4.3 4.3-18.9 18.9-24.6 20.6 7.2-29.7 29.5-47.5 50.8-67.4z"/>
		<path class="s1" d="m808.6 846.1c-23.5-15.5-46-53.5-55-79.6-6.4-18.7-11.7-45.2-2.3-63.8 6.2-12.3 16.7-13.9 28.7-17.9 2.6 0.5 3.7 0.4 5.5 2.3-0.6 1.9-0.8 1.9-2.6 2.8-8.4 4.2-15.9 3.2-23.6 10.1-8.3 10.1-9.4 21.8-8.1 34.5 3.8 40 27.6 79.9 57.1 106.4 13.8 11.5 30 19.8 43.7 31.4-9.2-3.4-38.8-18.8-43.4-26.2z"/>
		<path class="s7" d="m1041.3 698.7c12 2 37.5 23.5 44.8 33.8 0.8 1.1 1.4 2.2 1.3 3.6 12.6 8.5 25.9 54.2 32 68.8 2.6 6.1 9.7 18.2 10.8 23.7 0.1 0.8 0.1 1 0 1.7 0.6 0.4 1.3 0.8 1.8 1.4 4.6 4.8 19 28.4 18.5 34.3-0.2 2-0.5 2.2-2 3.4-8.8 0.4-25.5-17.6-31.9-23.2-10.2-8.9-23.1-20-37.6-18.8-18.9 1.5-27.2 23.6-32.8 38.7-1.5 3.9-2.6 9.1-5.4 12.2q-0.2 0.2-0.4 0.4c12.9-9 16.3-28.3 30-37.2 23.8-15.5 51.6 34.5 74.5 38.9 4.2 0.8 8.4 0 11.9-2.4 3-2.1 4.8-4.9 5.3-8.5 2.4-16.2-15.8-36.4-23.3-49.9-4-7.2-6.6-15.9-11.6-22.5 10.2 2.6 20.2 6.4 30.3 9.2 8.8 2.5 18.9 4.1 27.2 7.7l-0.2 1.4c5.9 5.3 21.7 15.6 24.5 22 14.3 2.6 29.4 8.3 38.1 20.6 6.1 8.6 7.6 18.8 5.7 29-1.3 6.6-4 12.3-7 18.2l-0.6 0.3c4.3-15.2 10.9-28.2 2.3-43.7-6.5-11.6-20.2-18.4-32.7-21.8q-3.2-0.9-6.4-1.6c9.4 5.5 17.5 15.2 20.2 25.8 2.6 9.9-0.1 20.1-5.2 28.6-24.6 40.8-103.9 58.2-148.2 68.8q-8.5 2-17.1 3.8c0.6 2.7-0.3 5.2-1 7.8l-1.1 1c-0.7-2.5 1.1-5.6-0.2-7.6q-5.8 0.6-11.5 1.5c0.4 2.2 0.5 5.8-0.6 7.8-0.4 0.7-0.4 0.7-0.9 1.1l-1.4-0.4c-0.4-2-0.3-3.8-0.2-5.8-2.7-1.4-8.9 0.5-12.1 1.1 0 3.5-1.2 6.8-2.2 10.1l-0.9 0.8c-1-2.4-0.8-3.9-0.4-6.4q0.2-1.4 0.4-2.7c-2.1-0.7-3.8 0.2-5.9 0.9 1.8-9.5 2.1-19.9 5.1-29 4.6-14.1 10-30.2 16.4-43.5 4.6-9.6 11.3-19 14.9-28.9 0.8-2.3 0.3-3.8-0.2-6.1-1 6.6-8.5 13.6-11.6 19.8-6.2 12.4-12.5 39.1-19.4 47.4 5.1-9.5 6-22.3 8-32.9 2.8-14.8 5.4-30 10-44.3 8.1-24.8 27.8-47.9 30.2-74.2 1.5-16.4-6.3-35.6-19.3-46.1-4.2-3.3-10.8-6.8-14-11-1.2-1.5-1.2-1.7-1-3.6 16.3 6.8 30.4 27.3 36.9 43 7.4 17.6 7.6 35.1 0.4 52.8 1.3-1.4 2.6-2.9 3.7-4.5 6.9-10 6.2-24.6 3.8-36-6.8-31.7-23.2-47.3-49.3-64.2 3.1 0.1 6 0.3 9 1.2 19.9 6.4 30.7 22.8 39.7 40.3q-0.1-1.2-0.2-2.5c-0.5-5.4-3.2-10.7-6-15.2-8.6-14.1-22.1-23.4-38-27.2 2.3-3.8 2.9-6.8 2.1-11.2z"/>
		<path class="s1" d="m1070.4 875.1c0.8 0.7 0.8 1 1.1 2-6.4 11-28 60.1-34 65.4-0.2-0.4-0.3-0.6-0.4-1.1-1.1-8.5 26.9-57.9 33.3-66.3z"/>
		<path class="s4" d="m1087.4 736.1c12.5 8.5 25.8 54.2 32 68.8 2.6 6.1 9.7 18.2 10.8 23.7 0.1 0.8 0 1-0.1 1.7l-0.9 0.8c-6.3 0.7-12.9 0-18.8-2.5q-1.2-0.5-2.3-1.1c-1.3-0.7-2.3-1.6-3.3-2.7-1.3-1.3-0.7-4-0.5-5.8 0.6-5 1.6-10.2 1.5-15.2-0.2-22.8-10.2-46.8-18.4-67.7z"/>
		<path class="s7" d="m608.8 813.7c22.6-8.5 47.1-16.9 67.8-29.4-1.2 39.4 21.6 111.2 48.6 139.8 10.7 11.4 23.7 17.4 39.4 17.7 23.9 0.6 50.2-10 68.3-25.4 8.8-7.5 16.9-16.4 26.9-22.2 21.2-12.5 47.3-4.1 63.5 12.7 20.2 20.9 25.8 54.2 35.9 80.6q-0.7 0-1.3 0c-5.6 0.2-20-0.3-23.8 3.7 0 1.7 0.3 2.9 0.8 4.5l0.2 0.6-0.7 1c-2.5-1.1-4.3-4.9-5.8-7.2-71.5 2.9-123.1-4.2-192-22.3-46.8-12.3-97.6-34.2-122.9-77.8-16.6-28.6-12.9-46.3-4.9-76.3z"/>
		<path class="s1" d="m924.8 935.6c0.9 0.3 1.7 0.7 2.4 1.4 5.1 5.3 16.3 32.6 15.7 39.8q-0.3-0.1-0.5-0.2-0.3-0.3-0.6-0.5c-0.5-0.3-1-0.7-1.4-1.1-2.2-2.6-15.5-32.8-16-36.4-0.1-0.7 0.3-2.2 0.4-3z"/>
		<path class="s1" d="m896.4 899.6c3.2-0.1 6.6 0.4 9.6 1.7 4.1 1.8 7.5 5.1 9.1 9.4q0.2 0.6 0.4 1.3 0.2 0.7 0.3 1.4 0.1 0.7 0.1 1.4 0.1 0.7 0.1 1.4-0.1 0.7-0.2 1.4-0.1 0.7-0.2 1.4-0.2 0.7-0.4 1.4-0.3 0.6-0.6 1.3c-2.3 4.9-6.1 7.2-11.1 9-3.2 0-6.1 0-9-1.6-4.7-2.3-8.6-6.7-10.1-11.7-1.1-3.5-1-7.3 0.9-10.7 2.5-4.4 6.5-5.8 11.1-7.1z"/>
		<path class="s7" d="m895.6 907.3c2.9 0.3 5.7 1.1 8 3.1 1.8 1.6 2.9 3.6 2.8 6.1 0 3.3-1.9 5-4.1 7.1-3.2-0.1-5.9-0.9-8.3-3.2-1.7-1.7-2.7-3.7-2.6-6.2 0.1-3.3 1.9-4.8 4.2-6.9z"/>
		<path class="s3" d="m800.1 560.6c8.8 9.6 12.2 39.2 20.9 52.2 17.1 25.4 76.7 53.7 106.3 59.7 36.7 7.6 74.2 1.5 105.6-19.1 2.2 10-6.7 70.4-8.1 85.4q-2 23-1.5 46.2-6.3 6.1-12.6 12.1-2.8 2.5-5.7 4.7-3 2.2-6.1 4.1-3.1 2-6.3 3.7-3.3 1.7-6.7 3.2c-32.5 14.2-70.4 9.4-102.6-3.2-31.4-12.3-69.3-40-83.1-71.6 7.9-26.7 9.4-42.8 7.5-70.4-2.5-34.8-10.9-59.7-22.8-92.4 8.1-2.9 11.6-7 15.2-14.6z"/>
		<path class="s1" d="m986.8 692.2c0.6 0.4 1.1 0.7 1.6 1.2 6 6.8 6.7 20.7 5.8 29.2-1.1 10.2-5.4 21.5-13.7 28.1-5.9 4.7-10.3 4.6-17.5 3.8-1.3-0.6-2.6-1.3-3.8-2-0.2-2.3 15.7-3.9 21.1-10.6 11.4-14 8.3-33.1 6.5-49.7z"/>
		<path class="s1" d="m847.5 668.1c10.6 5.9 33.2 69.3 39.1 83.8 4.5 11.2 9.5 22.1 13.9 33.3q-0.3-0.1-0.6-0.2c-13.6-5.7-32.8-66.1-38.3-80.9q-6.7-18.1-14.1-36z"/>
		<path class="s3" d="m876.7 287.9c2.8 0.1 6.4 0.5 9.2-0.2-6.9-1.9-11.5-1.9-15.4-8.7-3.9-7-4-15.1-1.8-22.7 2.7-9.2 9.5-16.6 17.9-20.9 12-6.3 27.8-7.5 41.2-7-18.5 5.6-40.9 10.3-51 28.9-2.6 4.8-4 10.8-2.3 16.2q0.2 0.8 0.5 1.5 0.4 0.8 0.7 1.5 0.4 0.8 0.9 1.4 0.5 0.7 1 1.4 0.5 0.6 1.1 1.2 0.6 0.6 1.3 1.1 0.6 0.5 1.3 0.9 0.7 0.5 1.5 0.9c3.8 1.9 7.8 2.5 11.9 1.1 2.2-0.8 4.2-2.1 6.2-3.3-4.4-4.5-8.7-8.5-8.7-15.2 0-7.6 5.1-15.1 10.3-20.1 3.9-3.7 14.4-10.3 19.9-10.1 0.7 0 1 0.1 1.6 0.2l-1.4-0.4 1.2 0.3-1 0.2 0.2 0.6c-10.7 4.4-21.4 9.4-26.2 20.9-2 4.7-0.9 11 1.1 15.6 0.9 2.1 2 4.1 3.1 6.1 7.2 1.2 14 3.7 21.2 5 15.1 2.6 36.4 1.7 51.6-0.5-6.7-1.7-35.2-4.1-36.1-4.5l1.4-0.4v-0.6q0.3 0.1 0.5 0.2c4 1.4 16.9 0 23 1.2 7.9 1.6 23.4 8.8 30.1 13.4 8 5.4 28.3 25.4 33.1 33.7 3.4 5.8 4.1 13 7.3 19 4.5 8.5 16.9 11.5 14.5 23.4-1.2-4-6.7-8.1-10.2-10-21.6-11.3-51.5 10-61.6 3.2-3.2-2.1-5.7-7.9-7.5-11.2 1 7.3 1.7 24.5 7.8 29 4.5 3.2 11.3 2.4 16.2 1.3 19.1-4 35.7-15.7 55.9-10.6 5.7 9.4 3.9 25.2 6.5 36.1 4 17.1 15.5 31 18.9 48.9 1.3 6.6 1.2 13.7 0.9 20.5-0.8 23.3-4.1 46.9-5.7 70.2-1.2 18.5-0.8 48.6-4.9 65.7-1.2 5.3-5.9 8.8-10.4 11.5-11.7 7-26 9.8-39 13.9-35.5 11.1-59.9 22.2-97.5 12.3-30.6-8.1-74-29.7-90.6-57.9-4.2-7.3-7.4-15.3-10.9-23-8.5-18.6-17.4-37.5-30.4-53.5 3.7 13.5 9.8 26 14.1 39.3l-0.6 0.6c-2.8 2.8-4.6 6.1-7.2 8.9-4.5 4.9-15.2 6.1-21.5 6-17-0.1-27.6-11.5-38.6-22.9-11.2-11.5-18.3-24.9-17.8-41.3 0.2-8.9 3-17 9.4-23.2 3.3-3 6.9-4.6 11-6.2 9.4 2.2 17 5.6 24.1 12.5 14.7 14.3 15.2 26.1 38.5 13-3.3-7.5-7.6-14.5-10.9-22-10.6-23.4-11.1-46.1-1.8-69.9 3.2-8.2 22.1-42.8 19.1-48.9-4.6-9.1-7.5-9.3-4.3-21.6 3.5-13.9 14.1-24.9 26.2-31.9 8.9-5.2 18.5-8.7 28.2-11.9 5.7-1.9 19.9-2.1 23.5-6.4v-0.8z"/>
		<path class="s1" d="m990.5 505.5c1.9 1.7 2.5 3.9 2.9 6.4 0.7 3.2 0.9 6.7-1 9.5-1.9-0.3-2.6-0.7-3.9-2-0.7-4.4 1.3-9.5 2-13.9z"/>
		<path class="s1" d="m1014.1 418.8c3.1-0.3 5.8-0.7 9 0l0.2 1c-2.8 2-6.1 2.5-9.4 3.2-4.7 0.4-9.5 0.2-14.2 0.2 4.8-1.7 9.5-3.1 14.4-4.4z"/>
		<path class="s1" d="m1026.1 473.7c1.5 0.8 2.4 1.2 3.4 2.6 3.2 4.7 3.7 14.9 2.7 20.3h-0.7c-5.7-4.9-1-16.4-5.4-22.9z"/>
		<path class="s1" d="m949 349.7c0.9 0.6 1.8 1 2.4 1.9 3.3 6 2.9 13.8 1.1 20.2-0.5-0.4-0.9-0.7-1.2-1.3-2-4.7-3.7-16-2.3-20.8z"/>
		<path class="s1" d="m905.6 441.9l1.9-0.3 1.1 0.9c-0.5 1-1 1.8-1.8 2.6-5.6 5.6-14.1 6.5-21.5 6.4-1.3-0.4-2.4-1-3.6-1.6l0.4-1.3c6.6-3.5 16.2-4.7 23.5-6.7z"/>
		<path class="s1" d="m951 424.4c3.7 2.2 7.2 7 8.6 11 2.4 6.9 0.5 12.3-2.6 18.5l-2.2 2.2h-1.1c-0.7-3.1 0.6-7.2 0.9-10.3 0.7-7.9-0.9-14.2-3.6-21.4z"/>
		<path class="s1" d="m934.1 324.8c14.3-0.6 26.2 2.3 38.9 8.8-6.7-1.5-13.3-3.1-20.2-3.7-14.5-2.4-30.3-1-45-1.4 8.8-1.8 17.4-3 26.3-3.7z"/>
		<path class="s1" d="m810.2 501.1c0.5 0.2 1.1 0.4 1.6 0.7 9.3 5.7 34.9 33.7 37.8 43.3-11.4-3.4-31.5-33.6-39.4-44z"/>
		<path class="s1" d="m1006 579.8q1.2-0.2 2.5-0.1c6.9 0.1 17.1 2.8 22 7.8l-0.8 0.9c-5.1 0.6-10.3-1.4-15.3-1.9-3.3-0.4-6.7-0.1-10 0-8.5 1.8-15.1 6.1-22.4 10.5 1-1.8 2-3.5 3.1-5.2 4.9-7.2 12.7-10.4 20.9-12z"/>
		<path class="s1" d="m1029.3 558.6l0.9 0.9-0.4 1.8c-2 2.2-4.1 3.7-6.6 5-14.9 8-33.4 10.4-49.6 5.6l-1.6-1.4c3.5-2.1 12.3-0.6 16.6-1 12.5-1 30.1-3.7 40.7-10.9z"/>
		<path class="s1" d="m973.8 477.3c2.4 0.4 7.2 0.8 8.8 2.7 0.7 0.9 0.3 1.4 0.2 2.5-2.2 2.9-5.7 3.6-9.1 4.6-2.8 4.4-5.2 7.9-9.5 11-1.4 0.4-2.9 0.8-4.3 0.8-2.3 0.1-3.4-0.5-4.9-2-0.5-2.4 0-4.3 1.2-6.4 4-7 9.9-11.1 17.6-13.2z"/>
		<path class="s1" d="m934.8 475.1c5 4.4 3.2 19.2 7.5 25.5 5.4 8.1 13.2 5 20.9 6.6-0.1 0.6 0 0.7-0.4 1.4-1.3 2.8-4.2 4.6-7.1 5.3-6.5 1.7-12.2 0-17.8-3.3-1.8-2.4-3-5.2-4.9-7.6-2.7-0.4-5.3 5-7.9 6.7-2.8 1.9-6.7 3.4-10.1 2.7 1.1-2.6 6.6-5 8.9-7.3 3-3.1 5.4-7.1 7.9-10.6 0.4-6.7 1.5-12.9 3-19.4z"/>
		<path class="s1" d="m862.3 420c6.9-7.3 13.7-13.2 24.3-13.6 12.2-0.5 21.4 5.5 29.9 13.5l0.9 0.9c-10.3-5.6-18.6-8.1-30.4-6.1-9.9 1.5-16.9 7-22.6 15-5.4 7.4-8.6 15.8-11.5 24.4l-1-0.1c-2-5.8-0.7-15.4 2-20.9 2.3-4.8 4.9-9 8.4-13.1z"/>
		<path class="s1" d="m887 414.7c8.5 0.5 15.2 1.5 21.2 8.2 3.9 4.3 7 9.4 9.9 14.4-5.9-5.6-12.1-13.2-19.1-17.2-0.5 0-1.6-0.1-2.1 0.1 2.1 4 3.6 8 2.2 12.6-1.1 3.3-3.6 5.7-6.7 7.1-3.6 1.6-7.9 1.7-11.6 0.3-2.8-1.1-5-3.1-6.3-5.9-1.3-2.9-1.6-7-0.2-9.9 2.3-5 7.8-7.8 12.7-9.7z"/>
		<path class="s4" d="m886.6 419.3c0.9 0.1 1.9 0.2 2.8 0.4 2.1 0.4 3.5 1.9 4.6 3.6 1.4 2.5 1.5 5.3 0.6 8-1.2 3.3-3.4 4.4-6.4 5.7q-1.1-0.1-2.2-0.2c-3.3-0.4-5.4-1.1-7.5-3.8-0.8-1-1-2.8-0.7-4 1-4.8 4.9-7.2 8.8-9.7z"/>
		<path class="s1" d="m883.9 423.5c1.1 0 2.4 0 3.5 0.3 2.4 0.7 2.9 1.6 4 3.6 0 2.6-0.8 4-2.1 6q-0.5-0.1-1-0.1c-2.6-0.5-4.6-1.1-6.2-3.3-0.1-3 0.6-4 1.8-6.5z"/>
		<path class="s1" d="m727.9 491.5c7.5-0.2 13.3 3.5 19.2 7.9 6.1 4.7 17.8 15.3 18.7 23 1 8.4 4.1 10.2 9.4 16.1 1.9 2.1 1.8 3.6 1.7 6.4-1.2 1.7-1.6 2.6-3.8 3.2-7.7 2.1-16.7-2.3-23.1-6.2 8.7 0.2 16.8 1.6 25.3 3.2-2.6-2.7-6.4-5.3-8.4-8.6-4.8-7.7-5.8-16.4-12.2-23.7-2.4-2.8-4.6-5.2-8.4-5.5l-1.8 2.7c-5.4 19 1.4 16.1 2.1 30.4l-1.2-0.3c-3.1-3-5.7-6.6-7.2-10.7-3.3-9.7-0.1-19.7 4.2-28.4-3.7-1.9-8.8-4.6-13.1-4-2.2 0.4-3.9 1.6-5 3.5-4.9 8.7 2.4 25 4.4 34.1l-2 0.3c-2.1-2.8-4.2-5.5-6-8.5-3.8-6.6-5.5-15.3-3.3-22.7 1.7-6.1 5.1-9.2 10.5-12.2z"/>
		<path class="s1" d="m971 387.3c1.6 2 0.1 22 4.8 29.9 9.6 16.1 30.2 23.2 37.8 40.9 3.2 7.4 3.9 17.8 0.7 25.4-2.3 5.6-6.7 8.2-12.2 10.3q-0.3-0.1-0.6-0.2c-1.6-0.9-4-1.8-4.4-3.8-1.1-6 3.9-11.2 6.8-15.9 14.5-23.4-33.3-36.1-39-61.2-2-8.9 1.3-17.9 6.1-25.4z"/>
		<path class="s1" d="m1005.1 380.6c6.9-0.4 12.4-0.6 18.9 2 6.9 2.8 14.2 8.1 17.1 15.2 2 4.6 2.7 9.5 0.8 14.3v-0.8c-0.3-5.8-3.8-10.7-8.1-14.5-7.4-6.6-15.2-10.4-25.2-9.8 3.2 0.4 8.9 2.3 11.2 4.6 2.3 2.4 3.5 6.8 3.4 10.1 0 3.1-1.2 5.9-3.5 8.1-4.8 4.3-10.4 4.6-16.5 4.3-0.8-0.4-1.5-0.8-2.2-1.3-5.2-3.5-5.9-7.5-7.1-13.3-1.1 2.6-3.5 11.7-5.6 13.1-0.8-9.1 4.6-15.7 9.1-22.8l-1.7-0.8q-1.1 0.9-2.2 1.9c-9 8.6-10.6 15.4-10.9 27.6l-0.9-0.2c-0.4-0.7-0.6-1.2-0.8-1.9-2.1-7.5 1-16.3 4.8-22.6 4.7-7.8 10.8-11.1 19.4-13.2z"/>
		<path class="s4" d="m1000.9 395.6c2.8-2.4 5.3-4.4 9.3-4.3 2.4 0.1 4.3 1.1 5.9 2.9 2.4 2.9 2.5 5.8 2.4 9.3-1 2.1-2.4 3.9-4.5 5.1-2.4 1.4-5.3 2.1-8 1.4-2.2-0.7-4.3-2.3-5.3-4.4-1.8-3.4-0.8-6.5 0.2-10z"/>
		<path class="s1" d="m1004 400.2c0.4-0.9 0.8-2 1.3-2.8 1.6-2 2.7-2.2 5.1-2.6 2.8 0.8 3.9 2.2 5.6 4.4-1.4 2.5-2.2 4.4-4.9 5.8-2 0.2-3.2 0.4-4.8-1.1-0.9-1-1.7-2.5-2.3-3.7z"/>
		<path class="s1" d="m1013.8 524.6q0.2 0 0.5 0c9.8-0.3 21.6 5.4 28.5 12.2 2.8 2.8 5.9 6.3 6 10.5-20-4.7-55.2-0.7-74.3 6.5-4.7 1.7-9.1 4.6-13.5 7.2-9.1 4.9-17.8 8.2-27.9 10.8 8-11.4 16.8-21.8 27.9-30.3 13.6-10.5 23.6-14.8 41-12.5 3.9-2 7.5-3.5 11.8-4.4z"/>
		<path class="s3" d="m1014.3 529.8q2.4 0 4.7 0.4 2.4 0.4 4.7 1.2c5 1.8 13.1 5.5 15.5 10.5q-0.7-0.3-1.4-0.6c-23.2-8-49.4-1.7-70.4 9.4q-9.7 5.8-19.6 11.2c10.5-11.5 21.9-21.6 36.2-27.8 12.5 1.6 18.7 0.9 30.3-4.3z"/>
		<path class="s1" d="m935.1 350.6c0.6 0.2 0.6 0.2 1.1 0.6 3.5 2.7 4.2 11.4 4.5 15.5 0.5 8-0.5 15.7-6 21.9-16.7 18.8-53.9 13-75.9 14.9-17 1.4-27.6 14.8-37.9 26.7l-2.7 1.1-0.9-0.9c1.3-7.3 4-13.1 7.6-19.5 3.8-6.7 9.9-14.7 16.6-18.7 22-13.3 71.6-5.2 89.7-28.7 3.3-4.2 4.6-7.5 3.9-12.9z"/>
	</g>
</svg>