<?xml version="1.0" encoding="utf-8" ?>
<svg xmlns="http://www.w3.org/2000/svg" xmlns:xlink="http://www.w3.org/1999/xlink" width="1024" height="1024">
	<path fill="#FAF2E4" d="M0 0L1024 0L1024 1024L0 1024L0 0Z"/>
	<path fill="#F9E7CB" d="M197.892 765.031C200.067 765.811 201.912 766.47 204.252 766.58C202.308 768.273 200.4 770.04 198.297 771.535C198.039 769.377 197.987 767.202 197.892 765.031Z"/>
	<path fill="#5A896D" d="M182.097 765.837C183.818 762.606 185.662 759.678 188.011 756.867C188.558 758.83 189.562 763.187 188.576 765.072C188.026 766.122 187.262 766.606 186.095 766.754C184.979 766.895 183.167 766.196 182.097 765.837Z"/>
	<path fill="#5A896D" d="M181.284 766.846C181.413 766.985 181.531 767.136 181.672 767.263C182.476 767.989 183.42 768.26 184.421 768.611L184.922 769.228C182.365 773.496 179.308 777.455 176.502 781.56C174.281 784.809 172.281 788.446 169.696 791.406C170.396 784.103 177.017 772.653 181.284 766.846Z"/>
	<path fill="#5A896D" d="M740.113 714.057C745.872 716.553 751.536 719.184 757.352 721.561Q752.613 724.55 747.685 727.217C741.547 725.297 735.665 722.82 729.72 720.378Q735.013 717.375 740.113 714.057Z"/>
	<path fill="#5A896D" d="M770.821 726.951C777.905 728.674 784.746 731.917 791.321 735.015C788.381 736.566 785.743 738.505 783.047 740.437C776.199 737.458 769.104 734.918 762.194 732.071L770.821 726.951Z"/>
	<path fill="#5A896D" d="M691.304 825.908C691.734 825.845 691.873 825.856 692.303 825.612C694.468 824.383 696.783 821.431 698.824 819.743C705.079 814.568 711.524 809.424 718.239 804.86C709.217 818.551 697.779 830.605 688.239 843.925C689.219 838.029 689.763 831.665 691.304 825.908Z"/>
	<path fill="#5A896D" d="M271.439 796.383C275.322 797.872 278.999 799.865 282.698 801.752C281.893 807.391 281.2 812.986 280.748 818.667Q273.057 813.481 265.161 808.612C266.991 804.394 269.228 800.407 271.439 796.383Z"/>
	<path fill="#5A896D" d="M295.763 750.014C295.436 756.009 291.62 762.852 289.981 768.654C287.438 777.66 285.589 786.936 283.824 796.12L274.652 790.178C282.007 777.004 287.454 762.625 295.763 750.014Z"/>
	<path fill="#5A896D" d="M693.865 695.968C703.73 700.576 713.794 704.425 723.715 708.828C720.501 710.729 717.343 712.482 713.915 713.968C707.603 712.465 701.751 710.502 695.803 707.915C694.737 704.171 694.359 699.846 693.865 695.968Z"/>
	<path fill="#5A896D" d="M246.359 783.821C252.873 786.393 259.29 790.09 265.597 793.186C264.036 796.051 261.401 802.485 258.793 804.033C251.748 800.49 244.954 796.233 238.078 792.353C240.717 789.401 243.569 786.63 246.359 783.821Z"/>
	<path fill="#5A896D" d="M204.252 766.58C211.963 766.778 231.258 776.436 238.758 780.452C236.03 783.622 233.337 786.831 230.522 789.924C221.148 784.305 208.31 775.03 198.297 771.535C200.4 770.04 202.308 768.273 204.252 766.58Z"/>
	<path fill="#5A896D" d="M830.359 745.35C832.319 746.694 834.777 747.664 836.503 749.306C842.695 755.197 844.63 768.549 846.861 776.767L841.513 789.371L838.84 796.106C837.33 790.702 836.825 784.905 836.012 779.355C834.346 767.99 832.892 756.564 830.359 745.35Z"/>
	<path fill="#5A896D" d="M198.316 744.582C198.357 744.525 198.394 744.465 198.44 744.412C206.675 734.876 223.257 729.184 234.811 725.066C237.989 723.933 241.152 722.178 244.519 721.775C231.888 730.094 220.7 739.771 209.433 749.823C207.769 751.308 204.994 754.445 203.006 755.209C202.374 755.452 201.036 755.388 200.366 755.27C199.822 755.175 199.282 755.037 198.746 754.904C197.109 752.323 198.514 747.6 198.316 744.582Z"/>
	<path fill="#5A896D" d="M333.753 866.26C334.181 866.569 334.934 867.025 335.291 867.449C335.398 867.577 335.914 868.321 335.966 868.573C335.998 868.725 326.508 911.908 325.699 916.823C322.66 916.379 319.614 916.099 316.556 915.819C315.818 915.742 314.956 915.713 314.248 915.504C313.021 915.142 312.836 915.017 312.301 913.955C313.059 907.053 320.776 894.598 323.938 887.873Q328.905 877.093 333.753 866.26Z"/>
	<path fill="#5A896D" d="M308.55 847.772Q318.081 854.347 327.495 861.09Q321.24 872.038 315.719 883.374C313.944 887.187 312.281 891.129 310.158 894.763C309.494 889.72 309.614 884.538 309.413 879.458Q308.634 863.624 308.55 847.772Z"/>
	<path fill="#5A896D" d="M715.232 728.497Q724.017 731.586 732.668 735.031C722.834 741.375 708.669 752.384 698.778 757.188C699.154 751.142 698.976 745.004 698.985 738.945C704.276 735.227 709.693 731.832 715.232 728.497Z"/>
	<path fill="#5A896D" d="M825.213 825.851C825.832 828.877 825.721 832.366 825.867 835.477C826.404 846.964 825.982 858.484 826.151 869.983C817.919 873.605 807.564 880.492 800.482 886.013C800.438 885.964 800.375 885.926 800.35 885.864C798.56 881.408 821.286 833.624 825.213 825.851Z"/>
	<path fill="#5A896D" d="M198.17 774.465Q202.174 776.201 206.057 778.194Q209.94 780.186 213.685 782.427Q217.431 784.667 221.023 787.145Q224.615 789.624 228.039 792.33C223.337 798.293 218.234 804.002 213.323 809.798C209.043 814.617 204.877 819.705 201.031 824.877C198.761 808.339 198.465 791.137 198.17 774.465Z"/>
	<path fill="#5A896D" d="M189.237 781.834C190.605 785.933 190.377 827.63 190.547 835.011Q188.199 838.828 185.721 842.562Q181.156 837.191 176.807 831.643C172.45 825.685 169.243 818.448 164.558 812.899C172.131 802.064 181.486 792.548 189.237 781.834Z"/>
	<path fill="#5A896D" d="M341.246 871.63C349.527 875.938 357.305 881.557 365.106 886.683C359.615 896.139 353.787 905.403 348.213 914.812C347.494 916.075 346.643 917.912 345.532 918.823C342.18 921.572 333.605 918.243 329.769 917.364C330.786 905.631 337.689 883.397 341.246 871.63Z"/>
	<path fill="#F9E7CB" d="M344.271 890.236C344.927 890.326 345.269 890.335 345.899 890.689C347.52 891.597 348.757 893.606 349.164 895.374C350.729 902.17 345.787 909.077 342.409 914.592C341.742 915.637 341.184 916.415 340.262 917.266C339.687 915.095 339.99 902.53 340.027 899.409C340.075 895.327 341.401 893.039 344.271 890.236Z"/>
	<path fill="#5A896D" d="M252.009 777.811C257.992 772.002 263.236 765.274 268.591 758.894C278.916 746.595 289.008 734.158 300.13 722.563C303.877 718.656 307.622 714.229 311.882 710.9C310.055 716.585 306.86 726.866 303.757 731.663L303.356 731.398C302.879 731.762 302.537 732.09 302.243 732.62C297.83 740.591 292.556 747.957 287.654 755.627C281.126 765.838 274.845 776.375 268.926 786.952C263.329 783.814 257.734 780.712 252.009 777.811Z"/>
	<path fill="#5A896D" d="M396.778 855.26C405.014 865.229 418.682 888.186 422.667 900.384C423.937 904.271 424.321 908.169 424.68 912.219C418.393 907.026 410.883 902.999 403.954 898.712Q392.579 891.609 381.43 884.155Q389.372 869.85 396.778 855.26Z"/>
	<path fill="#5A896D" d="M853.277 787.39C855.876 790.451 862.708 822.053 864.357 828.778C856.962 836.598 850.098 845.028 842.823 852.982L837.569 858.738C838.336 850.282 838.455 815.762 840.238 810.903C843.205 802.815 849.099 795.012 853.277 787.39Z"/>
	<path fill="#5A896D" d="M343.644 800.388C347.156 803.937 350.59 807.519 354.555 810.573C350.474 815.854 347.465 822.761 344.437 828.704C340.293 836.835 336.147 844.896 331.67 852.853C323.266 848.276 314.8 842.797 306.901 837.38C312.751 830.469 341.407 805.779 343.644 800.388Z"/>
	<path fill="#5A896D" d="M362.815 817.305C372.823 825.16 383.295 835.13 390.087 846.027C382.248 855.029 376.527 867.318 370.532 877.608C361.884 873.43 353.389 867.197 345.551 861.633C351.321 846.804 356.426 831.911 362.815 817.305Z"/>
	<path fill="#5A896D" d="M262.37 815.668C265.064 816.938 267.775 819.032 270.311 820.652C279.008 826.207 287.344 832.289 296.045 837.821C280.175 849.055 265.115 861.722 250.212 874.205C243.741 879.547 237.67 885.335 231.315 890.811C234.607 880.441 238.967 870.286 242.94 860.151C248.792 845.22 254.405 829.622 262.37 815.668Z"/>
	<path fill="#5A896D" d="M746.462 738.877C754.32 741.856 761.864 745.522 769.644 748.669C756.338 758.083 742.629 766.843 729.296 776.177C718.054 784.048 707.35 792.543 695.639 799.74C697.327 789.438 697.914 778.74 698.521 768.322C714.596 759.032 729.424 746.481 746.462 738.877Z"/>
	<path fill="#5A896D" d="M299.508 843.348L300.186 843.761C301.13 848.314 300.518 854.051 300.642 858.741Q301.058 873.119 301.193 887.503C301.305 893.431 301.834 899.566 301.289 905.475C300.996 908.649 300.148 911.055 298.908 913.949C282.31 913.034 265.226 911.678 249.67 905.532C245.901 903.723 242.27 901.917 238.705 899.722C245.515 894.014 251.848 887.555 258.292 881.436C271.861 868.55 285.292 855.527 299.508 843.348Z"/>
	<path fill="#5A896D" d="M375.257 893.645C392.962 902.557 408.396 915.829 426.187 924.652C427.234 929.508 427.17 934.943 427.541 939.912C428.072 947.028 428.899 954.25 429.046 961.379C416.632 957.801 404.333 953.325 393.396 946.325C381.363 938.625 371.079 929.361 357.412 924.458Q366.439 909.112 375.257 893.645Z"/>
	<path fill="#5A896D" d="M233.935 796.791C239.332 799.483 250.834 807.139 255.389 811.283C242.435 834.491 232.944 860.01 223.646 884.857C217.382 876.78 210.29 869.132 203.225 861.751C201.234 852.142 201.54 841.157 201.457 831.34C212.279 819.803 222.492 807.738 233.935 796.791Z"/>
	<path fill="#5A896D" d="M260.352 715.217C264.02 712.575 270.136 710.981 274.468 709.385C289.65 703.795 305.157 699.079 320.273 693.348L314.248 706.122L313.5 705.879C302.794 712.166 254.212 762.125 244.68 774.09C238.757 771.338 232.839 768.522 226.801 766.03C222.101 764.09 216.87 762.428 212.442 759.973Q230.396 741 250.242 724.014C253.554 721.188 257.148 718.762 260.462 715.959C260.442 715.71 260.49 715.425 260.352 715.217Z"/>
	<path fill="#5A896D" d="M818.246 751.362C820.694 759.569 826.966 807.322 825.223 814.557C823.904 820.032 820.057 825.993 817.498 831.003L802.505 860.327C797.155 871.047 792.686 882.25 787.013 892.797C772.432 900.278 755.923 903.99 740.201 908.249C738.038 908.706 735.885 909.37 733.746 909.936C735.339 902.687 736.564 895.284 738.6 888.146C753.037 837.535 782.619 789.761 818.246 751.362Z"/>
	<path fill="#5A896D" d="M624.559 925.732C642.691 916.549 692.9 854.136 709.34 834.932C719.304 823.293 729.679 811.704 740.277 800.639C747.749 792.84 755.361 784.867 763.465 777.732C777.125 765.703 794.834 752.816 810.053 742.726C776.253 779.921 744.127 820.972 726.02 868.359C720.146 883.733 715.971 899.547 712.396 915.589C688.739 922.463 664.818 925.68 640.829 930.891C613.409 936.847 586.172 943.597 558.659 949.161Q536.927 953.343 515.06 956.752C515.32 954.182 525.82 944.328 528.152 941.959C535.193 934.807 542.536 927.97 549.738 920.982C556.348 914.567 562.934 907.297 570.585 902.124C579.495 896.101 591.138 891.108 600.771 885.767C613.515 878.701 625.79 870.697 638.314 863.242C645.14 859.178 653.242 855.323 659.221 850.137C664.567 854.816 669.855 859.315 675.946 863.027C671.435 866.594 667.574 872.031 663.837 876.42C654.067 887.892 644.756 899.404 635.575 911.338C631.914 916.095 627.708 920.618 624.559 925.732Z"/>
	<path fill="#F9E7CB" d="M623.139 892.97L623.666 893.113C622.793 896.633 614.427 904.272 611.495 906.822C605.565 911.979 598.733 916.216 592.533 921.055C582.322 929.026 572.603 937.523 561.812 944.74L561.32 944.733L561.192 943.827C567.981 930.48 582.771 922.943 594.145 914.143C603.742 906.718 612.399 898.791 623.139 892.97Z"/>
	<path fill="#4F453E" d="M791.318 201.184C850.805 203.178 927.731 224.348 969.583 269.23C984.545 285.275 994.684 306.948 993.694 329.181C992.468 356.727 975.505 379.905 955.791 397.736C926.098 424.592 885.507 442.547 847.402 453.553C842.206 432.556 844.705 402.235 844.995 380.6C845.702 327.745 835.396 270.673 808.152 224.692C803.221 216.369 797.254 208.797 791.318 201.184Z"/>
	<path fill="#2E2925" d="M306.422 245.877C305.337 244.022 304.24 242.139 303.352 240.181C298.627 229.767 300.289 216.925 304.35 206.602C311.143 189.334 326.034 179.778 342.391 172.701C346.786 170.799 352.349 169.135 356.033 166.087C358.591 163.972 360.35 160.343 362.503 157.773C370.423 148.318 379.108 141.403 390.467 136.559C415.951 125.693 446.051 127.683 472.26 134.578C479.176 136.397 485.876 139.95 492.898 141.154C498.538 142.121 504.745 141.196 510.476 141.476C524.936 142.183 540.402 145.223 553.816 150.613C582.695 139.057 617.599 130.79 648.859 131.116C695.704 131.606 739.24 151.423 773.602 182.617C779.967 188.396 785.322 195.051 791.318 201.184C797.254 208.797 803.221 216.369 808.152 224.692C835.396 270.673 845.702 327.745 844.995 380.6C844.705 402.235 842.206 432.556 847.402 453.553C849.997 465.244 852.995 476.472 858.006 487.414C868.125 509.513 883.498 529.459 897.351 549.308C919.685 581.307 938.521 618.147 938.542 658.022Q938.522 660.285 938.422 662.546Q938.322 664.806 938.142 667.062Q937.963 669.318 937.703 671.566Q937.443 673.814 937.104 676.051Q936.765 678.289 936.346 680.513Q935.928 682.737 935.431 684.944Q934.935 687.152 934.36 689.341Q933.785 691.53 933.133 693.697Q932.481 695.864 931.753 698.007Q931.025 700.149 930.221 702.265Q929.417 704.38 928.539 706.466Q927.661 708.551 926.71 710.604Q925.758 712.658 924.734 714.676Q923.711 716.694 922.616 718.675Q921.522 720.655 920.358 722.596Q919.194 724.537 917.962 726.435C906.479 744.324 890.344 761.314 872.378 772.716C877.423 780.94 887.676 798.945 885.566 808.843C885.319 810.002 884.721 811.212 883.617 811.779C882.944 812.125 882.23 812.291 881.532 811.975C879.098 810.876 878.063 807.395 877.36 805.033C875.918 800.183 874.784 794.781 872.691 790.178C861.509 765.589 836.375 745.726 813.139 732.996C801.874 726.825 789.913 722.308 777.932 717.751C757.132 709.84 735.996 702.94 715.109 695.282C707.059 692.33 699.516 688.246 691.619 684.956Q692.652 690.48 693.865 695.968C694.359 699.846 694.737 704.171 695.803 707.915C696.373 713.007 697.631 717.959 698.221 722.986C698.834 728.212 698.509 733.657 698.985 738.945C698.976 745.004 699.154 751.142 698.778 757.188C698.653 760.897 698.483 764.611 698.521 768.322C697.914 778.74 697.327 789.438 695.639 799.74C693.914 808.318 692.354 817.222 691.304 825.908C689.763 831.665 689.219 838.029 688.239 843.925C686.191 851.041 684.978 858.318 677.943 862.243C677.283 862.611 676.679 862.849 675.946 863.027C669.855 859.315 664.567 854.816 659.221 850.137C653.242 855.323 645.14 859.178 638.314 863.242C625.79 870.697 613.515 878.701 600.771 885.767C591.138 891.108 579.495 896.101 570.585 902.124C562.934 907.297 556.348 914.567 549.738 920.982C542.536 927.97 535.193 934.807 528.152 941.959C525.82 944.328 515.32 954.182 515.06 956.752C508.101 959.722 496.957 961.162 489.45 959.666C481.434 960.645 473.339 960.44 465.286 960.995L459.745 960.989C451.672 961.227 442.974 960.882 435.013 962.228C432.749 962.695 431.167 962.203 429.046 961.379C428.899 954.25 428.072 947.028 427.541 939.912C427.17 934.943 427.234 929.508 426.187 924.652C425.863 920.54 425.788 916.203 424.68 912.219C424.321 908.169 423.937 904.271 422.667 900.384C418.682 888.186 405.014 865.229 396.778 855.26L390.087 846.027C383.295 835.13 372.823 825.16 362.815 817.305L354.555 810.573C350.59 807.519 347.156 803.937 343.644 800.388C337.477 802.785 330.7 810.569 324.197 813.937C318.652 817.995 312.454 821.982 307.676 826.941C306.295 829.131 304.079 831.835 301.38 832.346C300.222 832.566 298.946 832.526 297.999 831.749C297.218 831.107 296.97 830.576 296.555 829.684C294.539 826.912 288.574 824.003 285.619 822.064Q283.173 820.38 280.748 818.667C281.2 812.986 281.893 807.391 282.698 801.752C283.024 799.867 283.439 797.994 283.824 796.12C285.589 786.936 287.438 777.66 289.981 768.654C291.62 762.852 295.436 756.009 295.763 750.014C298.591 743.987 301.568 737.955 303.757 731.663C306.86 726.866 310.055 716.585 311.882 710.9C312.782 709.351 313.51 707.753 314.248 706.122L320.273 693.348C305.157 699.079 289.65 703.795 274.468 709.385C270.136 710.981 264.02 712.575 260.352 715.217Q252.354 718.299 244.519 721.775C241.152 722.178 237.989 723.933 234.811 725.066C223.257 729.184 206.675 734.876 198.44 744.412C198.394 744.465 198.357 744.525 198.316 744.582C194.511 748.404 191.27 752.581 188.011 756.867C185.662 759.678 183.818 762.606 182.097 765.837L181.284 766.846C177.017 772.653 170.396 784.103 169.696 791.406C165.84 800.839 163.731 810.355 161.156 820.158C160.007 824.53 158.594 828.801 157.564 833.211C146.614 827.87 136.683 820.735 127.709 812.522C95.9659 783.472 74.3194 741.697 72.5875 698.472C70.7236 651.95 95.5883 611.366 125.965 578.324C122.817 575.355 119.108 572.988 115.969 569.878C100.914 554.961 87.3806 536.543 77.9771 517.56C57.7418 476.709 48.3514 423.5 54.1034 378.187C55.9437 363.69 59.9628 348.552 64.6743 334.725C72.0091 313.2 87.6567 288.558 104.049 272.73C116.298 260.903 131.202 250.928 146.463 243.473C186.841 223.749 233.465 220.869 276.852 230.718C282.643 232.033 288.8 233.095 294.409 235.023C291.675 225.264 292.192 215.329 295.38 205.773C300.197 191.33 314.729 174.76 328.219 167.956L328.397 168.343C325.088 170.981 321.791 173.633 318.688 176.515C306.759 187.592 296.806 202.992 296.391 219.777C296.136 230.09 299.333 238.433 306.422 245.877Z"/>
	<path fill="#D3CBC1" d="M493.969 659.888C495.412 661.032 499.625 665.7 499.861 667.417C498.342 667.938 497.669 668.443 496.108 667.957C495.669 667.187 495.459 666.617 495.385 665.728C495.217 663.726 494.99 662.315 494.209 660.444C494.131 660.257 494.049 660.073 493.969 659.888Z"/>
	<path fill="#4F453E" d="M570.645 596.899C570.785 596.96 570.931 597.012 571.067 597.084C571.709 597.423 571.92 597.8 572.301 598.39C573.341 598.707 574.08 598.622 575.15 598.494C575.09 599.877 575.02 600.753 575.743 602.004C574.713 603.143 573.852 604.205 572.442 604.89C571.2 602.705 571.027 599.392 570.645 596.899Z"/>
	<path fill="#F9E7CB" d="M370.171 570.139L373.873 571.232C373.113 575.424 373.87 580.463 374.019 584.736C372.576 579.902 371.358 575.039 370.171 570.139Z"/>
	<path fill="#F9E7CB" d="M612.193 405.937C614.49 407.575 618.541 408.907 620.25 410.998C621.192 412.149 620.473 413.44 620.163 414.73L619.687 414.997C619.371 414.873 619.035 414.789 618.737 414.624C616.121 413.176 613.173 408.629 612.193 405.937Z"/>
	<path fill="#D3CBC1" d="M511.272 645.516C511.7 648.54 511.845 651.766 513.428 654.43C514.253 655.817 515.82 657.834 515.773 659.385C514.733 660.298 514.11 660.893 512.743 661.27C512.769 661.107 512.818 660.945 512.82 660.779C512.882 656.345 510.536 651.85 509.715 647.498C510.627 646.842 510.77 646.487 511.272 645.516Z"/>
	<path fill="#4F453E" d="M614.283 414.719C614.483 414.807 614.702 414.86 614.884 414.982C617.139 416.496 619.077 420.221 619.066 422.886C619.061 424.04 619.047 423.985 618.236 424.783L617.144 424.701C616.546 424.236 616.863 424.548 616.301 423.666L617.634 423.235C618 422.366 613.278 420.331 612.946 418.285C612.676 416.619 613.309 415.96 614.283 414.719Z"/>
	<path fill="#F9E7CB" d="M575.389 258.7L576.598 258.795C578.564 262.968 583.033 266.486 586.416 269.503C584.54 268.482 582.793 267.246 581.021 266.056C576.483 263.293 572.091 261.554 567.019 259.974C569.774 259.413 572.606 259.101 575.389 258.7Z"/>
	<path fill="#F9E7CB" d="M534.721 626.378C536.458 628.318 538.559 634.529 538.893 637.278C539.08 638.821 538.689 638.976 537.714 640.059L537.241 639.55C536.776 638.377 537.122 638.845 536.282 638.095C536.067 639.108 535.93 639.833 535.308 640.676C534.254 635.887 533.773 631.228 534.721 626.378Z"/>
	<path fill="#D3CBC1" d="M459.125 502.217L461.334 502.148L463.309 504.728L461.611 504.693C461.655 505.34 467.264 511.377 468.406 513.399C466.66 511.725 465.035 510.057 462.935 508.825L462.409 508.968C462.673 509.746 462.867 510.352 463.322 511.043C462.799 511.992 462.824 513.709 462.183 514.249C461.532 513.594 461.222 513.063 460.897 512.212C460.431 510.991 460.348 511.159 459.302 510.502C459.315 507.64 460.058 504.997 459.125 502.217Z"/>
	<path fill="#F9E7CB" d="M423.998 634.943C428.3 640.549 431.817 647.863 435.077 654.157C434.973 654.1 434.865 654.051 434.765 653.988C427.458 649.371 426.1 642.639 423.998 634.943Z"/>
	<path fill="#D3CBC1" d="M557.233 609.359C557.824 612.629 557.644 616.052 558.254 619.395C556.773 621.334 555.185 623.208 553.65 625.106L553.151 624.449C553.492 618.979 554.451 614.157 557.233 609.359Z"/>
	<path fill="#D3CBC1" d="M286.851 340.524C287.234 329.728 285.945 330.711 291.711 320.89L292.551 321.461C289.286 328.395 288.428 335.668 288.382 343.282C287.982 342.29 287.408 341.432 286.851 340.524Z"/>
	<path fill="#F9E7CB" d="M296.463 796.439L299.385 798.25L290.085 809.049C290.483 806.002 291.112 803.119 291.869 800.144C293.454 798.967 294.955 797.712 296.463 796.439Z"/>
	<path fill="#F9E7CB" d="M570.645 596.899C571.027 599.392 571.2 602.705 572.442 604.89C570.595 608.289 567.065 611.43 564.422 614.278C566.276 608.397 568.453 602.66 570.645 596.899Z"/>
	<path fill="#F9E7CB" d="M509.934 216.46L510.205 216.775C509.518 219.178 507.726 221.5 506.517 223.704C503.237 229.684 502.1 236.016 501.446 242.726C500.215 241.465 500.221 239.743 500.168 238.001C499.914 229.574 504.476 222.422 509.934 216.46Z"/>
	<path fill="#D3CBC1" d="M492.525 619.369C496.405 628.106 500.865 638.174 502.297 647.622C496.296 642.769 493.746 626.607 492.525 619.369Z"/>
	<path fill="#F9E7CB" d="M555.101 558.795C554.917 556.202 554.456 552.908 555.868 550.611C558.253 555.258 560.147 571.896 560.371 577.663L560.085 578.267L559.492 577.474C558.495 571.183 556.209 565.111 555.101 558.795Z"/>
	<path fill="#F9E7CB" d="M609.807 382.316C613.291 384.325 617.785 387.616 621.661 388.542C624.049 389.113 626.542 389.156 628.914 389.794L628.753 391.666C628.623 391.731 628.498 391.807 628.363 391.862C625.479 393.043 621.815 392.428 619.037 391.254C614.987 389.542 611.468 386.411 609.807 382.316Z"/>
	<path fill="#4F453E" d="M555.101 558.795C556.209 565.111 558.495 571.183 559.492 577.474L558.774 577.064C557.857 575.411 557.66 574.332 557.564 572.442C557.553 572.235 557.547 572.029 557.539 571.823C555.711 578.751 559.378 586.062 557.456 592.033L556.714 592.222C555.236 589.258 557.081 584.132 556.014 580.625C554.594 575.955 553.736 567.289 554.488 562.437Q554.774 560.612 555.101 558.795Z"/>
	<path fill="#F9E7CB" d="M609.951 395.914C614.608 399.796 618.781 400.122 624.614 400.719L622.455 405.66L621.835 406.89C620.078 406.947 618.947 406.181 617.449 405.274C613.737 403.025 611.006 400.181 609.951 395.914Z"/>
	<path fill="#F9E7CB" d="M391.231 589.077C392.606 601.319 394.251 612.575 398.887 624.08C395.526 620.844 389.758 615.706 388.398 611.098C389.852 611.454 392.391 615.134 393.485 616.443C392.708 607.945 391.231 599.665 389.59 591.3C389.867 591.279 390.418 590.94 390.677 590.814L391.231 589.077Z"/>
	<path fill="#F9E7CB" d="M638.975 265.868C640.624 267.829 649.189 288.287 650.341 291.7C651.088 293.914 651.889 296.26 651.763 298.617C649.073 293.157 643.708 285.956 641.911 280.678C640.832 277.51 639.999 270.018 638.975 265.868Z"/>
	<defs>
		<linearGradient id="gradient_0" gradientUnits="userSpaceOnUse" x1="601.57922" y1="543.10339" x2="597.76678" y2="564.45837">
			<stop offset="0" stop-color="#FFEBBC"/>
			<stop offset="1" stop-color="#FFFFED"/>
		</linearGradient>
	</defs>
	<path fill="url(#gradient_0)" d="M601.646 538.359C604.134 547.589 601.313 559.349 598.137 568.089L597.653 567.456C596.6 557.053 598.912 548.303 601.646 538.359Z"/>
	<path fill="#F9E7CB" d="M504.848 147.6C515.493 146.521 537.391 150.702 546.938 155.056C540.325 154.866 509.695 150.156 504.848 147.6Z"/>
	<path fill="#F9E7CB" d="M374.608 253.479C383.966 255.113 394.263 255.521 403.717 254.588C405.566 254.405 408.914 253.649 410.423 254.771L409.902 255.503Q409.326 255.723 408.744 255.927C397.02 260.017 385.682 258.767 374.608 253.479Z"/>
	<path fill="#F9E7CB" d="M462.357 623.782C464.335 627.663 465.935 631.572 468.143 635.377C472.432 642.767 479.939 651.617 482.205 659.619C482.021 659.455 481.825 659.304 481.654 659.127C478.929 656.31 476.549 652.623 474.151 649.509C467.414 640.76 462.181 635.377 462.357 623.782Z"/>
	<path fill="#F9E7CB" d="M475.533 636.381C475.689 636.455 475.852 636.517 476 636.605C477.468 637.476 478.818 639.189 479.966 640.462C487.534 648.852 489.444 658.938 491.598 669.693C490.737 669.246 490.339 668.635 489.893 667.785C487.625 663.458 485.989 658.598 484.017 654.109C481.376 648.095 478.419 642.277 475.533 636.381Z"/>
	<path fill="#F9E7CB" d="M588.94 302.471C600.823 315.113 613.252 327.491 626.558 338.647C625.697 338.487 625 338.196 624.235 337.782C615.665 333.137 591.689 311.531 588.94 302.471Z"/>
	<path fill="#F9E7CB" d="M549.974 575.436C552.262 584.996 551.773 595.101 554.565 604.485C553.435 607.906 552.186 611.336 551.373 614.848C548.677 605.736 550.459 601.002 550.135 592.098C549.957 587.22 548.807 582.695 547.439 578.029C549.607 580.455 550.045 584.579 551.187 587.656C550.425 583.895 549.655 579.75 549.931 575.907C549.943 575.75 549.96 575.593 549.974 575.436Z"/>
	<path fill="#7F7F7A" d="M319.432 774.308C324.468 769.743 329.841 765.581 335.28 761.51C334.134 765.424 332.962 769.277 332.354 773.32C328.933 774.794 325.388 777.065 321.945 778.249C321.387 776.247 321.079 775.595 319.432 774.308Z"/>
	<path fill="#F9E7CB" d="M575.86 554.364L577.261 553.87C580.395 562.41 580.061 565.997 577.746 574.715C576.746 582.934 577.272 589.631 579.022 597.7C577.953 599.15 576.921 600.64 575.743 602.004C575.02 600.753 575.09 599.877 575.15 598.494C575.817 594.355 575.491 589.957 575.684 585.758C575.868 581.76 576.349 577.749 576.772 573.77C577.284 567.385 576.612 560.704 575.86 554.364Z"/>
	<path fill="#F9E7CB" d="M595.769 332.351C599.755 334.853 602.667 340.447 606.414 343.609C616.211 351.878 627.531 358.381 638.712 364.546C638.294 364.482 638.13 364.467 637.679 364.335C619.996 359.163 604.741 348.722 595.769 332.351Z"/>
	<path fill="#4F453E" d="M468.918 656.847C470.228 657.947 470.978 660.204 471.515 660.348L471.654 658.485C472.351 658.304 471.986 658.338 472.75 658.406L472.893 655.949L473.511 655.718C476.848 659.071 478.659 663.703 481.842 667.285C482.45 667.969 483.028 668.683 483.62 669.381L483.603 669.348L483.456 670.78C482.181 670.985 481.095 671.047 479.816 671.001L479.347 670.377L479.457 669.861C478.669 669.307 478.06 669.005 477.136 668.733C477.535 669.789 477.929 670.374 477.751 671.517C477.277 671.671 476.321 672.069 475.782 672.068C475.073 672.067 474.435 671.924 473.944 671.402C472.132 669.471 472.825 665.973 472.853 663.551C471.467 662.633 470.911 662.395 470.134 660.888C469.843 659.525 469.339 658.179 468.918 656.847Z"/>
	<path fill="#F9E7CB" d="M562.971 563.836Q563.181 564.421 563.371 565.013C566.22 573.876 568.691 585.661 566.029 594.776C565.113 597.913 563.473 600.855 562 603.758C561.685 604.351 561.281 604.889 560.903 605.442C559.853 603.358 562.885 591.161 563.187 587.923Q563.705 581.91 563.651 575.874Q563.597 569.839 562.971 563.836Z"/>
	<path fill="#F9E7CB" d="M482.609 632.308C487.864 637.062 493.611 642.644 497.719 648.388C500.478 652.245 503.279 661.086 506.023 663.379L507.133 663.258C508.028 661.454 507.458 659.355 507.142 657.41L507.71 658.109C508.183 659.677 508.779 661.186 509.374 662.712L504.341 665.454C497.744 653.933 488.958 643.935 482.609 632.308Z"/>
	<path fill="#D3CBC1" d="M319.432 774.308C321.079 775.595 321.387 776.247 321.945 778.249C313.802 783.442 305.718 790.943 299.385 798.25L296.463 796.439C303.881 788.645 311.244 781.315 319.432 774.308Z"/>
	<path fill="#F9E7CB" d="M490.666 191.922L491.187 192.057C490.42 193.701 485.065 196.19 483.304 197.642C478.084 201.948 473.051 207.464 469.956 213.522C464.883 223.451 466.304 231.999 469.514 242.091C468.99 241.261 468.501 240.428 468.055 239.554C464.414 232.426 463.532 223.317 465.996 215.698C469.929 203.535 479.87 197.442 490.666 191.922Z"/>
	<path fill="#5A896D" d="M666.605 845.444C671.479 842.374 676.118 838.875 680.792 835.51C679.73 842.103 678.467 848.712 676.57 855.122C673.26 851.939 669.691 848.836 666.605 845.444Z"/>
	<path fill="#F9E7CB" d="M315.849 200.419C315.866 203.605 313.417 207.599 312.561 210.813C311.641 214.273 311.235 217.961 311.179 221.535Q311.102 225.414 311.57 229.266Q312.037 233.118 313.039 236.867C313.781 239.659 315.457 243.182 315.466 245.974L314.486 245.22Q313.274 243.483 312.256 241.626Q311.238 239.768 310.426 237.812Q309.614 235.855 309.018 233.823Q308.421 231.791 308.047 229.706C306.212 219.125 309.866 209.035 315.849 200.419Z"/>
	<path fill="#F9E7CB" d="M449.707 612.353C452.705 632.001 459.149 640.18 468.918 656.847C469.339 658.179 469.843 659.525 470.134 660.888Q469.51 660.249 468.927 659.573C465.445 655.533 462.516 650.955 459.522 646.546C450.901 633.85 448.725 627.797 449.707 612.353Z"/>
	<path fill="#F9E7CB" d="M579.072 258.298Q580.659 258.275 582.246 258.334C585.695 258.46 589.246 258.856 592.235 260.726C599.025 264.974 607.928 279 613.312 285.603C616.713 289.772 620.487 293.696 624.12 297.664C616.454 292.551 610.612 283.288 604.07 276.739C596.667 269.328 587.873 263.855 579.072 258.298Z"/>
	<path fill="#FAF2E4" d="M524.361 629.915C524.697 630.639 524.621 630.339 524.736 631.088C525.601 636.687 526.994 641.699 529.476 646.807C527.228 649.394 524.866 651.869 522.511 654.357C521.862 654.975 521.175 655.497 520.469 656.051L519.524 655.696C516.74 649.596 522.361 635.814 524.361 629.915Z"/>
	<path fill="#F9E7CB" d="M559.813 248.201C561.119 247.952 562.646 247.952 563.984 247.906C583.294 247.238 608.315 252.845 622.846 266.372L615.245 261.894C599.013 253.679 572.912 247.984 554.619 250.293C553.452 250.44 552.523 250.561 551.563 249.838C552.943 248.428 557.819 248.425 559.813 248.201Z"/>
	<path fill="#F9E7CB" d="M606.375 369.199C609.041 370.14 611.748 372.108 614.214 373.514C622.197 378.066 626.203 379.399 635.153 381.238L635.39 381.762L633.723 383.541C632.835 384.228 631.861 384.821 630.764 385.106C626.153 386.305 620.517 384.345 616.483 382.098C610.96 379.022 608.158 375.125 606.375 369.199Z"/>
	<path fill="#F9E7CB" d="M588.382 327.368C589.897 329.502 591.08 332.023 592.541 334.241C600.18 345.836 608.337 355.421 620.805 362.046C625.996 364.804 631.55 366.844 636.679 369.72L637.19 370.012C629.266 370.263 621.012 366.929 614.556 362.517C603.799 355.168 590.834 340.298 588.382 327.368Z"/>
	<path fill="#F9E7CB" d="M546.965 231.682C556.847 230.638 565.881 232.833 575.324 235.392C566.047 235.468 557.308 236.039 548.119 237.32C539.175 238.064 530.521 238.533 521.618 239.903C529.371 235.72 538.277 232.979 546.965 231.682Z"/>
	<path fill="#D3CBC1" d="M313.778 391.205C311.45 387.992 309.153 384.68 307.502 381.059C301.757 368.457 303.953 349.821 308.788 337.265C310.705 332.287 320.605 313.499 324.775 311.641C324.217 317.87 317.382 326.766 314.466 332.621C310.523 340.54 307.866 348.739 306.951 357.55C305.919 367.482 306.547 380.147 313.446 388.175C313.638 388.398 313.838 388.612 314.034 388.83L314.516 389.937L313.778 391.205Z"/>
	<path fill="#F9E7CB" d="M561.325 239.218C580.35 237.67 591.989 242.199 607.664 252.542C601.323 250.089 594.961 247.872 588.378 246.162C570.858 241.476 551.784 243.775 533.801 242.504C542.638 240.704 552.327 239.874 561.325 239.218Z"/>
	<path fill="#F9E7CB" d="M651.897 263.269C652.523 263.73 653.022 264.204 653.507 264.814C663.201 277 663.611 301.628 661.862 316.553L661.537 316.652C659.946 314.749 658.975 301.985 658.251 298.693C657.075 293.348 654.955 288.165 654.025 282.781C652.944 276.515 652.208 269.625 651.897 263.269Z"/>
	<path fill="#F9E7CB" d="M314.034 388.83C309.154 371.556 316.824 348.431 322.489 331.947C323.656 328.55 324.514 324.671 326.01 321.441C326.452 325.417 326.678 329.572 327.503 333.482C315.495 359.304 313.125 371.197 318.665 399.399C317.101 396.793 314.977 393.962 313.778 391.205L314.516 389.937L314.034 388.83Z"/>
	<path fill="#F9E7CB" d="M326.607 266.58C330.715 266.241 334.717 267.139 338.744 267.854C322.437 272.242 308.205 281.113 298.419 295.002C296.483 297.808 294.867 300.904 293.162 303.859C294.898 297.617 296.682 291.649 299.89 285.963C306.368 274.482 314.174 270.058 326.607 266.58Z"/>
	<path fill="#F9E7CB" d="M344.575 271.799C335.477 279.896 325.237 286.061 315.804 293.657C306.082 301.487 299.049 310.918 292.551 321.461L291.711 320.89C293.887 315.648 296.038 310.505 299.047 305.668C307.351 292.32 321.854 280.69 336.356 274.77Q340.407 273.121 344.575 271.799Z"/>
	<path fill="#F9E7CB" d="M526.309 159.184C550.561 162.868 582.077 167.574 601.355 183.053L595.12 180.837C587.611 178.423 579.69 177.664 572.11 175.435C560.003 171.873 548.446 166.961 536.217 163.704Q539.671 163.556 543.128 163.468C538.955 159.965 529.958 163.036 526.309 159.184Z"/>
	<path fill="#F9E7CB" d="M599.656 202.444C600.38 202.528 601.02 202.671 601.705 202.924C623.951 211.125 643.163 232.988 652.809 254.188C649.068 251.609 646.117 246.587 642.83 243.31C637.504 238.001 631.424 233.433 626.093 228.12C616.787 218.843 610.64 210.357 599.656 202.444Z"/>
	<path fill="#F9E7CB" d="M588.253 307.887C594.568 317.313 600.787 326.113 609.47 333.591C614.173 337.641 619.549 341.175 624.863 344.379C633.573 349.629 649.067 356.235 652.744 366.422L653.76 366.119C654.548 364.596 654.411 363.27 653.923 361.668C653.377 359.877 652.003 357.576 652.295 355.697C653.047 355.715 653.277 355.548 653.86 356.135C656.718 359.012 656.478 366.785 656.322 370.578C654.354 369.585 653.129 368.941 651.872 367.098C644.766 358.035 628.561 351.855 618.345 345.438C604.381 336.665 592.054 324.489 588.253 307.887Z"/>
	<path fill="#F9E7CB" d="M364.777 191.88C365.091 195.079 364.011 199.023 363.651 202.265C362.993 208.186 363.799 215.062 365.132 220.862C368.468 235.382 375.836 243.867 388.141 251.619C387.038 252.194 385.582 251.768 384.348 251.651C381.539 251.035 378.669 250.483 376.057 249.244C369.032 245.913 363.267 238.842 360.854 231.524C356.585 218.575 358.733 203.85 364.777 191.88Z"/>
	<path fill="#F9E7CB" d="M603.968 262.749Q605.38 263.047 606.71 263.606C620.708 269.342 634.281 282.83 641.348 296.038C644.157 301.287 646.131 307.131 648.297 312.67C645.973 310.688 643.773 307.67 641.553 305.442C634.315 298.178 627.292 290.831 620.694 282.97C615.069 276.268 609.849 269.233 603.968 262.749Z"/>
	<path fill="#F9E7CB" d="M546.313 192.222L547.809 192.185C547.753 192.226 547.708 192.287 547.642 192.309C542.423 194 537.309 195.576 532.284 197.838C521.248 202.805 503.517 214.885 498.34 226.234C495.971 231.428 495.659 237.085 493.673 242.314C492.158 242.843 490.654 242.57 489.069 242.479L488.303 243.011L487.55 242.779C487.414 242.264 487.35 242.093 487.279 241.599C486.317 234.895 489.706 224.326 493.681 218.924C504.658 204.01 528.764 195.214 546.313 192.222Z"/>
	<path fill="#F9E7CB" d="M341.594 665.268C352.817 648.246 366.266 634.089 383.732 623.424L384.732 634.638C384.61 635.064 384.598 635.538 384.367 635.916C384.242 636.12 344.789 663.666 342.295 664.939C342.065 665.057 341.828 665.158 341.594 665.268Z"/>
	<path fill="#F9E7CB" d="M333.901 285.962C333.763 288.456 329.359 296.998 328.324 300.035C317.644 309.47 302.689 323.214 300.114 337.765C298.974 344.205 299.381 350.923 298.283 357.288L297.795 356.911C296.379 352.234 295.626 347.203 295.534 342.321C295.008 314.347 316.913 303.698 333.901 285.962Z"/>
	<path fill="#F9E7CB" d="M549.441 209.701C560.567 208.392 571.041 210.833 581.831 213.159C564.273 214.521 547.27 216.338 530.871 223.233C523.295 226.729 516.167 231.122 508.986 235.355C510.572 231.794 512.299 228.526 514.75 225.474C523.303 214.824 536.4 211.203 549.441 209.701Z"/>
	<path fill="#F9E7CB" d="M610.552 578.024C615.957 580.195 621.947 582.835 626.381 586.681C626.491 586.877 626.595 587.075 626.709 587.269C628.377 590.106 632.094 592.219 634.222 594.907C640.323 602.614 646.005 618.099 643.636 628.005C643.481 628.656 643.451 628.68 643.231 629.207L642.578 628.625L642.603 627.152C635.658 612.287 627.896 600.991 614.411 591.158C613.909 590.842 613.444 590.5 612.996 590.111C610.945 588.325 610.67 586.761 610.466 584.128L610.552 578.024Z"/>
	<path fill="#7F7F7A" d="M610.466 584.128C612.896 586.401 615.49 588.279 618.212 590.184L614.411 591.158C613.909 590.842 613.444 590.5 612.996 590.111C610.945 588.325 610.67 586.761 610.466 584.128Z"/>
	<path fill="#5A896D" d="M618.212 590.184C629.342 597.477 639.118 609.199 641.961 622.448C642.291 623.987 642.479 625.585 642.603 627.152C635.658 612.287 627.896 600.991 614.411 591.158L618.212 590.184Z"/>
	<path fill="#F9E7CB" d="M576.163 270.429C585.752 275.638 601.665 293.605 611.256 301.786C621.251 310.312 632.227 316.897 643.141 324.113C654.92 331.9 654.299 336.759 656.97 349.68C654.168 347.589 652.351 343.724 649.665 341.334C640.837 333.48 630.908 327.18 622.363 318.884C612.88 309.677 605.144 298.863 595.81 289.528C589.625 283.342 581.124 277.59 576.163 270.429Z"/>
	<path fill="#F9E7CB" d="M462.437 164.447C468.762 162.9 475.232 162.333 481.732 162.152C490.914 161.897 514.858 163.097 522.46 167.544C522.971 167.842 523.064 167.981 523.424 168.359C519.168 169.579 499.612 164.687 493.586 164.143C483.264 163.209 473.135 163.435 462.954 165.487C451.084 168.254 439.47 174.699 430.933 183.402Q430.143 184.202 429.394 185.04Q428.645 185.878 427.939 186.752Q427.233 187.627 426.572 188.535Q425.91 189.444 425.295 190.385Q424.68 191.325 424.113 192.296Q423.546 193.266 423.028 194.263Q422.51 195.261 422.042 196.283Q421.575 197.305 421.159 198.349Q420.743 199.393 420.38 200.457Q420.017 201.521 419.708 202.601Q419.398 203.682 419.144 204.777Q418.889 205.871 418.689 206.977Q418.489 208.083 418.345 209.198Q418.201 210.312 418.112 211.433Q418.024 212.553 417.992 213.677Q417.96 214.8 417.984 215.924C418.18 229.22 423.111 241.247 432.661 250.46C429.651 249.323 426.516 248.153 423.856 246.319C417.665 242.05 413.74 235.508 412.417 228.163C409.947 214.442 415.079 199.81 423 188.701C432.668 175.14 446.163 167.194 462.437 164.447Z"/>
	<path fill="#F9E7CB" d="M557.89 195.201Q559.815 194.986 561.75 194.886C582.55 193.929 595.226 204.832 609.849 218.111C597.227 211.435 583.668 206.212 569.511 204.135L568.948 204.058C549.868 201.572 529.488 204.931 514.073 216.857C524.451 204.402 542.008 196.85 557.89 195.201Z"/>
	<path fill="#F9E7CB" d="M346.207 176.933L346.77 177.237C344.342 179.726 341.499 181.766 339.044 184.224C332.456 190.816 329.126 200.636 326.99 209.48C323.964 222.01 324.383 236.896 331.3 248.122C336.868 257.158 345.325 262.228 355.444 264.618C353.416 265.142 351.471 265.412 349.386 265.603C347.4 265.391 345.262 265.255 343.34 264.701C334.973 262.286 327.899 254.136 324.081 246.658C317.787 234.327 316.274 218.888 320.637 205.698C325.196 191.917 333.465 183.349 346.207 176.933Z"/>
	<path fill="#F9E7CB" d="M348.989 177.501L349.31 178.031C346.909 182.205 344.926 186.153 343.365 190.731C338.133 206.079 339.864 222.005 346.96 236.452C353.302 249.364 362.206 255.672 375.651 260.194C372.41 259.881 369.208 259.513 365.995 258.987C356.52 256.453 345.676 252.906 339.141 245.149C330.845 235.299 330.019 222.093 331.139 209.77C332.626 193.389 336.807 187.762 348.989 177.501Z"/>
	<path fill="#F9E7CB" d="M574.046 219.705C581.739 218.713 589.551 219.456 596.603 222.768C612.89 230.416 625.909 246.992 631.844 263.68C623.885 257.933 616.551 251.363 608.719 245.442Q605.142 242.912 601.362 240.699C585.167 231.181 565.229 223.596 546.199 225.481C542.504 225.847 538.799 226.946 535.209 227.872L534.735 227.565L534.76 227.825L535.256 227.622L535.069 227.475C547.708 223.008 560.775 221.118 574.046 219.705Z"/>
	<path fill="#5A896D" d="M384.732 634.638C385.612 637.963 385.003 642.653 384.985 646.138C379.862 651.535 378.047 656.596 375.862 663.513C369.092 662.577 338.199 685.443 331.79 690.296L327.018 693.93C329.115 686.986 337.037 670.812 341.594 665.268C341.828 665.158 342.065 665.057 342.295 664.939C344.789 663.666 384.242 636.12 384.367 635.916C384.598 635.538 384.61 635.064 384.732 634.638Z"/>
	<path fill="#F9E7CB" d="M455.35 515.326C456.352 512.942 457.586 510.656 458.76 508.353C458.134 510.967 457.617 513.614 457.061 516.244L459.302 510.502C460.348 511.159 460.431 510.991 460.897 512.212C461.222 513.063 461.532 513.594 462.183 514.249C462.824 513.709 462.799 511.992 463.322 511.043C464.402 513.299 465.86 515.208 468.258 516.184C474.376 518.676 482.889 513.442 494.814 518.715C497.718 519.998 502.198 521.137 505.282 520.225L505.584 519.519L504.616 518.315C507.632 518.409 513.666 520.855 516.112 519.262C516.031 517.941 514.94 517.026 514.112 516.073L514.318 515.532C517.263 517.144 519.135 521.43 522.059 522.465L522.779 521.986L522.835 520.044C524.476 522.144 526.343 523.859 528.305 525.643C517.816 520.808 443.765 529.616 428.449 532.238C420.537 533.593 412.814 535.818 405.083 537.941C402.415 538.829 399.779 539.848 397.137 540.814C402.929 534.8 407.977 534.57 414.94 530.827C420.591 527.79 424.948 524.057 429.504 519.607C427.181 523.02 424.591 525.825 421.618 528.673C435.306 527.786 444.321 523.144 455.35 515.326Z"/>
	<path fill="#FEFCF9" d="M501.899 529.709C506.532 529.144 511.366 529.367 516.03 529.439C511.583 533.666 507.006 537.115 501.542 539.948C482.316 549.915 455.766 554.063 434.882 547.555C431.714 546.456 428.678 544.981 425.624 543.602C427.913 543.801 430.556 544.269 432.773 543.633C431.223 541.537 424.007 541.213 421.263 540.771C429.527 538.884 437.698 537.106 446.115 536.023C454.336 534.966 462.635 534.557 470.87 533.61C481.232 532.417 491.497 530.596 501.899 529.709Z"/>
	<path fill="#F9E7CB" d="M455.061 147.231C460.53 147.202 465.839 147.637 471.231 148.548C448.22 150.368 416.413 155.234 398.674 170.576C387.304 180.41 382.75 195.413 381.819 210.009C381.066 221.802 382.875 234.695 390.902 243.848C391.559 244.459 392.109 244.715 392.321 245.608C389.473 244.162 386.755 241.889 384.407 239.734C376.096 232.109 371.325 220.742 370.804 209.598C370.181 196.262 373.586 183.992 382.702 174.06C400.381 154.798 429.954 148.163 455.061 147.231Z"/>
	<path fill="#F9E7CB" d="M307.092 404.459C310.103 404.38 312.439 405.105 314.766 407.087C320.678 412.12 321.959 420.202 322.632 427.502L321.726 427.282L322.424 428.356C319.546 426.583 317.683 421.244 314.956 418.781C313.577 417.536 311.952 416.721 310.036 417.027Q309.704 417.081 309.381 417.172Q309.057 417.262 308.746 417.387Q308.434 417.512 308.138 417.671Q307.842 417.83 307.565 418.02Q307.288 418.211 307.034 418.43Q306.78 418.65 306.551 418.896Q306.323 419.142 306.122 419.412Q305.922 419.682 305.753 419.972C303.206 424.375 304.908 431.88 306.12 436.573C307.421 441.615 318.169 469.535 321.438 471.439C316.91 460.687 307.483 435.299 307.678 424.501C307.711 422.706 307.853 421.536 309.161 420.264C310.588 420.404 311.374 421.278 312.314 422.274C315.269 425.405 320.718 431.927 321.552 436.191C322.2 439.506 321.365 444.308 321.214 447.718C321.663 466.184 326.861 484.863 330.779 502.864C331.575 506.526 335.797 518.146 335.238 521.041L334.065 521.026C331.894 519.961 330.245 518.368 328.81 516.429C320.971 505.835 322.764 490.401 318.652 478.19C313.565 463.084 304.902 449.141 301.224 433.575C299.821 427.636 299.489 421.217 300.599 415.198C301.457 410.542 303.117 407.081 307.092 404.459Z"/>
	<path fill="#5A896D" d="M331.315 780.199L332.347 780.1C335.471 787.425 338.728 794.068 343.644 800.388C337.477 802.785 330.7 810.569 324.197 813.937C318.652 817.995 312.454 821.982 307.676 826.941C306.295 829.131 304.079 831.835 301.38 832.346C300.222 832.566 298.946 832.526 297.999 831.749C297.218 831.107 296.97 830.576 296.555 829.684C294.539 826.912 288.574 824.003 285.619 822.064C292.813 817.265 297.615 810.942 303.528 804.807C311.243 795.052 320.178 785.94 331.315 780.199Z"/>
	<path fill="#F9E7CB" d="M296.555 829.684C297.549 830.433 298.299 830.986 299.488 831.407C302.639 829.262 298.564 814.74 302.191 809.679C303.469 807.895 305.651 807.817 307.651 807.492C307.572 813.813 306.95 820.674 307.676 826.941C306.295 829.131 304.079 831.835 301.38 832.346C300.222 832.566 298.946 832.526 297.999 831.749C297.218 831.107 296.97 830.576 296.555 829.684Z"/>
	<path fill="#F9E7CB" d="M331.315 780.199C329.38 791.287 326.765 801.479 323.347 812.199C317.433 810.571 308.466 808.391 303.528 804.807C311.243 795.052 320.178 785.94 331.315 780.199Z"/>
	<path fill="#F9E7CB" d="M427.755 135.207C440.243 133.705 459.35 137.2 471.252 141.58C449.07 138.967 424.574 142.494 404.013 151.074C383.624 159.581 365.2 175.415 356.71 196.194C352.426 207.093 351.815 220.392 353.233 231.893C350.746 226.755 349.292 221.468 348.842 215.769C347.435 197.965 354.484 177.376 366.189 163.939C382.088 145.69 404.035 136.787 427.755 135.207Z"/>
	<path fill="#5A896D" d="M341.345 765.359C343.904 763.453 363.494 731.584 368.039 725.351L367.931 729.32C368.558 733.805 368.692 738.316 369.159 742.815Q370.329 753.201 371.898 763.534C372.705 767.127 373.423 770.775 374.487 774.299C369.158 783.978 362.981 793.742 356.357 802.579C353.214 800.365 350.661 797.603 348.002 794.846C345.359 791.842 343.703 788.823 342.238 785.141C340.319 778.181 341.194 773.256 341.333 766.29L341.345 765.359Z"/>
	<path fill="#F9E7CB" d="M371.898 763.534C372.705 767.127 373.423 770.775 374.487 774.299C369.158 783.978 362.981 793.742 356.357 802.579C353.214 800.365 350.661 797.603 348.002 794.846C356.16 784.686 365.373 774.876 371.898 763.534Z"/>
	<path fill="#FAF2E4" d="M341.345 765.359C343.904 763.453 363.494 731.584 368.039 725.351L367.931 729.32C367.309 732.662 366.296 735.61 364.964 738.734C361.331 747.253 356.497 755.279 352.476 763.624C349.218 770.386 346.435 779.161 342.238 785.141C340.319 778.181 341.194 773.256 341.333 766.29L341.345 765.359Z"/>
	<path fill="#F9E7CB" d="M472.765 154.726Q477.284 154.722 481.784 155.134Q486.283 155.547 490.726 156.371Q495.169 157.196 499.517 158.427Q503.865 159.657 508.081 161.283C484.925 158.425 457.309 156.877 436.549 169.196C421.758 177.973 409.861 192.641 405.606 209.471C403.221 218.907 402.966 231.09 407.904 239.826C409.811 243.2 412.404 246.153 414.404 249.481C409.504 246.079 405.095 240.417 402.744 234.958C397.873 223.649 399.374 210.959 403.849 199.798C405.498 196.623 413.665 185.573 413.949 184.091Q412.073 185.784 410.248 187.532C400.679 196.765 396.284 208.108 396.089 221.356C395.917 232.987 399.655 241.72 407.707 250.033C405.854 248.854 403.985 247.732 402.299 246.313C394.118 239.432 390.304 229.763 389.549 219.262C388.541 205.247 391.865 189.327 401.354 178.547C415.902 162.02 451.286 156.211 472.765 154.726Z"/>
	<path fill="#5A896D" d="M374.487 774.299C376.706 779.291 379.453 783.556 382.702 787.935C386.814 792.841 391.154 797.661 394.342 803.242C400.27 813.623 407.598 841.686 410.709 854.461C413.065 859.262 414.298 865.765 415.904 870.931C410.298 863.552 405.994 855.04 400.751 847.37C386.887 827.089 375.1 817.808 356.357 802.579C362.981 793.742 369.158 783.978 374.487 774.299Z"/>
	<path fill="#F9E7CB" d="M410.709 854.461L410.216 854.654C409.798 854.402 409.692 854.372 409.317 853.955C407.153 851.556 405.447 847.394 403.899 844.458C396.275 829.998 383.291 803.851 382.702 787.935C386.814 792.841 391.154 797.661 394.342 803.242C400.27 813.623 407.598 841.686 410.709 854.461Z"/>
	<path fill="#4F453E" d="M586.846 791.491C588.624 791.428 590.481 791.389 592.249 791.59C605.756 793.125 620.322 807.605 628.263 817.618C622.881 818.306 617.281 820.878 612.271 822.97C598.643 828.663 586.203 835.44 573.846 843.511C564.731 849.466 555.641 856.28 545.941 861.261C545.065 858.817 544.279 856.45 542.828 854.269C546.202 851.019 557.442 845.927 562.222 842.756C573.056 835.57 579.851 824.956 582.453 812.253C583.822 805.57 584.532 798.594 586.641 792.099C586.708 791.896 586.778 791.694 586.846 791.491Z"/>
	<path fill="#D3CBC1" d="M463.639 908.622L466.456 907.813C467.948 910.895 468.092 913.866 468.95 917.097L469.087 917.589L469.074 918.169C468.985 923.69 469.885 929.279 469.448 934.779C468.742 943.671 466.27 952.198 465.286 960.995L459.745 960.989C451.672 961.227 442.974 960.882 435.013 962.228C435.31 949.392 433.799 936.338 433.159 923.51L437.196 921.587C437.422 920.171 437.895 919.141 438.529 917.881C446.141 917.931 455.469 909.568 461.625 909.667C462.31 909.383 462.988 908.969 463.639 908.622Z"/>
	<defs>
		<linearGradient id="gradient_1" gradientUnits="userSpaceOnUse" x1="438.13034" y1="916.32288" x2="460.81226" y2="913.68378">
			<stop offset="0" stop-color="#4E6654"/>
			<stop offset="1" stop-color="#557C6B"/>
		</linearGradient>
	</defs>
	<path fill="url(#gradient_1)" d="M438.529 917.881C446.141 917.931 455.469 909.568 461.625 909.667Q461.54 912.034 461.411 914.399C453.323 916.155 444.936 918.648 437.196 921.587C437.422 920.171 437.895 919.141 438.529 917.881Z"/>
	<path fill="#2E2925" d="M463.639 908.622L466.456 907.813C467.948 910.895 468.092 913.866 468.95 917.097L469.087 917.589L469.074 918.169C468.985 923.69 469.885 929.279 469.448 934.779C468.742 943.671 466.27 952.198 465.286 960.995L459.745 960.989C458.383 953.297 461.759 944.352 462.342 936.584C462.897 929.195 462.08 921.754 461.411 914.399Q461.54 912.034 461.625 909.667C462.31 909.383 462.988 908.969 463.639 908.622Z"/>
	<path fill="#2E2925" d="M451.111 925.591C452.703 925.596 454.265 925.736 455.711 926.447C458.126 927.635 459.788 929.746 460.534 932.315C461.591 935.949 461.028 940.093 459.075 943.326C457.056 946.669 454.577 947.877 450.889 948.767C449.121 948.533 447.15 948.132 445.581 947.264Q445.083 946.984 444.616 946.656Q444.148 946.327 443.716 945.953Q443.284 945.58 442.892 945.165Q442.499 944.75 442.15 944.297Q441.802 943.845 441.5 943.36Q441.198 942.875 440.946 942.362Q440.694 941.849 440.495 941.314Q440.296 940.779 440.152 940.226C439.32 937.143 439.629 933.589 441.38 930.872C443.757 927.183 447.105 926.425 451.111 925.591Z"/>
	<path fill="#F9E7CB" d="M479.074 169.713C485.675 169.22 492.564 169.884 498.978 171.478C480.663 176.744 466.332 185.365 453.96 200.18C446.7 208.873 442.481 218.473 443.557 229.931C444.354 238.405 447.584 245.388 454.159 250.9C449.965 249.996 446.782 249.219 443.55 246.181C439.098 241.997 437.754 235.75 437.675 229.879C438.009 224.791 439.198 219.65 440.084 214.629C437.896 219.145 435.628 223.832 434.794 228.824C433.481 236.695 435.848 242.561 440.262 248.931C430.695 240.335 427.078 231.963 425.876 219.138C424.877 208.469 426.93 199.03 433.934 190.724C445.573 176.921 461.605 171.276 479.074 169.713Z"/>
	<path fill="#F9E7CB" d="M303.633 752.026C312.811 746.888 321.927 738.397 330.545 732.132C342.677 723.312 355.438 715.391 368.059 707.296L367.958 709.475C367.995 714.64 368.486 720.234 368.039 725.351C363.494 731.584 343.904 763.453 341.345 765.359L341.432 764.832C342.271 759.944 346.815 751.041 345.906 746.857C344.879 745.79 344.652 745.499 343.253 745.083C338.923 745.891 332.663 753.871 329.16 756.844C317.829 766.459 306.446 775.088 296.12 785.861L294.368 787.975L294.062 787.47C294.981 777.783 299.804 760.879 303.633 752.026Z"/>
	<path fill="#5A896D" d="M367.958 709.475C367.995 714.64 368.486 720.234 368.039 725.351C363.494 731.584 343.904 763.453 341.345 765.359L341.432 764.832C342.271 759.944 346.815 751.041 345.906 746.857C344.879 745.79 344.652 745.499 343.253 745.083C338.923 745.891 332.663 753.871 329.16 756.844C317.829 766.459 306.446 775.088 296.12 785.861C296.106 785.291 296.079 785.114 296.197 784.481C296.907 780.675 299.009 773.86 301.459 771.005C307.554 763.9 326.976 750.551 335.344 744.044C346.188 735.612 356.28 726.572 367.502 718.57C367.478 715.521 367.341 712.478 367.958 709.475Z"/>
	<path fill="#5A896D" d="M545.941 861.261C555.641 856.28 564.731 849.466 573.846 843.511C586.203 835.44 598.643 828.663 612.271 822.97C617.281 820.878 622.881 818.306 628.263 817.618L628.432 818.72C614.297 828.656 605.644 837.722 589.807 846.433C575.957 854.051 561.734 860.748 547.525 867.65Q528.141 877.293 508.56 886.531C496.125 892.271 483.322 897.473 471.12 903.687C468.675 904.932 465.335 906.4 463.639 908.622C462.988 908.969 462.31 909.383 461.625 909.667C455.469 909.568 446.141 917.931 438.529 917.881C441.27 913.455 448.252 909.796 452.559 906.864Q474.245 892.258 496.836 879.095Q519.428 865.933 542.828 854.269C544.279 856.45 545.065 858.817 545.941 861.261Z"/>
	<path fill="#F9E7CB" d="M513.452 174.674C530.163 173.971 554.72 181.699 569.408 190.189C562.408 188.896 555.204 188.032 548.113 189.055C541.824 189.962 536.005 192.309 529.883 193.836C526.071 194.786 522.162 195.285 518.35 196.268C506.298 199.375 495.53 205.62 488.09 215.742C480.98 225.417 478.862 233.854 480.745 245.658C479.645 246.106 479.614 245.92 478.518 245.648C474.757 242.558 472.814 236.561 471.839 231.902C470.308 224.582 473.746 215.602 477.81 209.555C486.832 196.128 499.593 190.445 515.064 187.651C523.603 186.54 531.887 187.199 540.429 186.742C535.861 185.992 531.294 185.361 526.668 185.1C509.767 184.148 484.694 188.84 471.807 200.58C464.543 207.198 460.688 216.783 460.323 226.502C459.98 235.625 462.078 242.875 468.429 249.717C465.403 249.166 463.033 248.553 460.419 246.845C454.994 243.297 452.36 238.059 451.217 231.816C449.564 222.786 451.913 214.043 457.089 206.545C471.075 186.283 490.175 178.911 513.452 174.674Z"/>
	<path fill="#5A896D" d="M327.018 693.93L331.79 690.296C338.199 685.443 369.092 662.577 375.862 663.513L372.786 673.491Q370.994 683.753 369.751 694.096C369.24 698.302 369.167 703.241 368.059 707.296C355.438 715.391 342.677 723.312 330.545 732.132C321.927 738.397 312.811 746.888 303.633 752.026C305.097 746.869 307.457 741.732 309.321 736.688C311.849 729.847 314.021 722.526 317.274 716.002C320.331 708.573 323.324 701.069 327.018 693.93Z"/>
	<path fill="#FAF2E4" d="M327.018 693.93L331.79 690.296C338.199 685.443 369.092 662.577 375.862 663.513L372.786 673.491C362.786 683.87 349.076 691.393 337.626 700.154C331.395 704.922 323.959 712.505 317.274 716.002C320.331 708.573 323.324 701.069 327.018 693.93Z"/>
	<path fill="#D3CBC1" d="M589.861 763.49C590.574 770.32 589.187 779.144 587.266 785.712C586.692 785.966 586.12 786.224 585.566 786.52C577.362 790.906 578.648 807.184 576.196 815.152C574.495 820.677 571.678 825.768 567.498 829.797C560.145 836.884 550.291 841.664 541.496 846.76Q513.287 862.86 484.563 878.021C489.191 871.634 495.433 866.014 500.654 860.059C507.605 852.129 514.017 843.775 521.422 836.247C533.888 823.574 547.828 812.489 560.326 799.87C571.417 788.672 580.626 776.211 589.861 763.49Z"/>
	<path fill="#FAF2E4" d="M627.662 406.913C629.697 398.303 635.129 386.443 642.944 381.545C647.432 378.732 650.483 379.198 655.445 379.598C661.035 383.579 662.69 390.236 663.754 396.69C665.341 406.31 665.793 418.563 663.976 428.241C662.431 436.47 657.9 444.389 655.075 452.289C651.975 460.96 642.121 494.549 638.336 499.827C635.515 503.761 631.624 506.39 626.783 507.01C624.893 507.253 622.562 507.326 621.014 506.042C620.022 505.219 620.004 503.543 620.015 502.355C620.083 494.832 621.672 486.871 622.474 479.349C623.125 469.84 623.798 460.494 623.881 450.946C624.015 435.643 621.995 421.596 627.662 406.913Z"/>
	<path fill="#2E2925" d="M631.305 422.819Q632.253 423.708 633.106 424.689C638.101 430.527 641.506 438.57 640.74 446.34C639.807 455.798 633.541 464.128 626.538 470.109C625.69 470.378 625.592 470.407 624.673 470.206C624.928 466.778 636.406 455.798 636.477 445.421C636.539 436.264 630.097 430.145 629.804 424.863C629.75 423.89 630.659 423.448 631.305 422.819Z"/>
	<path fill="#2E2925" d="M650.376 388.409C653.815 389.179 655.521 389.703 657.457 392.752C662.382 400.508 660.949 412.004 658.852 420.434C657.163 427.224 654.629 433.776 652.254 440.348C647.531 453.422 642.037 471.073 629.429 478.819C627.781 479.831 626.15 479.453 624.359 479.084C627.253 475.471 631.831 472.978 634.906 469.254C645.186 456.804 651.328 435.229 655.077 419.609C656.753 412.624 658.602 401.073 654.466 394.708C653.529 393.265 652.107 391.939 650.314 391.754C648.232 391.54 646.038 392.833 644.592 394.214C643.084 395.654 641.751 397.403 641.714 399.557L642.342 399.936C643.422 399.636 644.004 399.177 644.84 398.465C645.606 397.814 645.945 397.534 646.89 397.119L647.377 397.725C648.01 400.759 647.152 404.402 647.048 407.524C646.76 416.149 648.219 422.905 645.006 431.325L644.88 430.821C644.812 430.541 644.752 430.259 644.681 429.98C642.738 422.351 643.403 414.417 641.446 406.721C640.924 404.665 640.491 402.485 638.573 401.335C633.865 403.612 633.069 413.518 628.927 417.371C628.057 418.18 628.051 418.247 626.825 418.182C625.767 415.338 628.192 412.689 629.22 410.031C632.964 401.892 637.349 392.589 646.492 389.403C647.74 388.968 649.087 388.698 650.376 388.409Z"/>
	<path fill="#FAF2E4" d="M531.043 526.83C533.184 527.868 538.007 529.661 540.261 528.746C540.4 528.69 540.521 528.596 540.651 528.521C540.774 527.961 540.86 527.303 541.071 526.772C543.735 527.194 545.032 528.732 547.1 530.389C550.41 541.649 547.869 552.256 548.358 563.596C548.529 567.575 549.727 571.476 549.974 575.436C549.96 575.593 549.943 575.75 549.931 575.907C549.655 579.75 550.425 583.895 551.187 587.656C550.045 584.579 549.607 580.455 547.439 578.029C545.443 580.698 546.126 594.398 545.405 598.768C545.315 599.314 545.244 599.866 545.162 600.414C544.691 588.295 547.517 574.393 544.762 562.655L544.166 562.252C542.264 563.486 541.489 565.167 540.98 567.328C539.622 573.091 539.902 605.478 542.526 609.729C542.994 610.487 543.03 610.502 543.521 611.129C545.185 617.178 541.101 629.563 543.417 633.728C543.222 635.115 542.922 635.002 541.897 635.863C541.709 634.927 541.769 634.676 541.892 633.761C542.727 627.598 542.46 620.026 540.679 614.077C539.624 610.551 538.085 606.814 537.619 603.171C536.991 598.251 537.931 593.045 537.792 588.079C537.703 584.922 537.866 576.952 535.819 574.561C535.343 574.006 535.3 574.223 534.433 574.211C531.383 577.789 533.017 592.648 532.206 598.013Q531.061 596.853 529.855 595.755C528.517 595.784 528.278 595.898 527.118 596.582C525.342 600.743 530.845 612.697 531.328 618.111C531.778 623.16 530.148 628.435 530.011 633.514C528.914 631.067 527.524 628.424 527.068 625.771C526.157 620.472 526.876 607.451 523.347 603.566L522.878 603.663L522.84 606.868C521.199 603.514 520.402 598.964 516.97 596.998C515.784 596.891 515.468 596.84 514.39 597.306C513.521 600.26 517.766 612.65 517.948 617.749C518.174 624.058 516.622 630.097 514.889 636.109L513.988 626.238C514.361 620.716 514.393 615.835 512.203 610.647C508.274 601.336 500.37 596.357 491.384 592.692Q492.908 596.289 494.57 599.823C495.937 608.749 504.464 619.213 507.873 628C510.089 633.712 510.677 639.456 511.272 645.516C510.77 646.487 510.627 646.842 509.715 647.498C507.675 638.813 505.545 635.227 502.614 627.414C498.122 615.438 496.054 606.104 484.596 598.387C482.436 596.933 479.473 595.07 476.799 595.631C476.314 596.133 475.971 596.304 475.854 597.038C474.91 602.963 485.48 615.448 487.936 621.255C490.449 627.198 490.362 631.689 494.032 637.619C490.162 633.913 486.352 630.198 482.696 626.276C482.574 624.341 482.507 622.279 481.91 620.423C480.486 616 478.003 611.955 476.327 607.634C475.124 604.532 474.383 601.184 472.917 598.201C472.398 597.143 471.866 596.441 470.988 595.665L470.38 595.868C467.717 603.704 473.639 611.455 474.122 617.964Q473.282 617.043 472.466 616.1C471.459 619.76 473.475 626.071 474.232 629.839C471.835 625.206 469.969 620.235 468.485 615.239C467.494 611.9 466.195 600.238 464.338 598.394L463.412 598.473C460.089 603.252 459.452 620.896 458.333 627.545C452.147 615.74 454.516 614.7 454.343 602.595C454.316 600.665 454.238 599.257 452.822 597.879L451.646 597.995C447.88 600.427 446.449 606.011 445.442 610.184C441.721 625.605 446.808 635.082 454.602 647.802C445.398 638.866 440.377 629.142 440.203 616.15C440.153 612.399 440.847 608.596 440.008 604.907C439.143 603.875 439.015 603.85 437.711 603.481L436.782 604.188C434.489 609.401 436.112 618.679 436.623 624.412C435.268 620.321 434.121 616.206 432.853 612.096C432.172 609.89 431.774 607.988 429.635 606.853C428.325 607.285 428.193 607.335 427.343 608.413C426.521 612.807 428.729 618.777 429.837 623.097C427.036 617.739 423.091 601.814 418.783 598.964C418.045 598.475 418.221 598.665 417.249 598.945C414.815 603.275 417.157 613.125 417.845 618.019C414.908 610.374 413.256 601.618 411.309 593.616C410.705 591.131 410.293 588.368 409.334 585.996C408.706 584.443 407.468 583.132 406.358 581.909C406.158 580.817 407.607 580.509 407.744 579.015C407.143 578.696 405.431 577.928 405.095 577.405C404.019 575.733 404.938 571.67 403.305 570.488C402.976 571.728 402.81 573.003 402.61 574.268C401.877 573.591 401.92 572.739 401.727 571.78C402.749 565.586 401.697 558.379 400.645 552.237C399.937 554.657 399.926 557.146 399.159 559.53L398.606 559.197C398.256 556.01 398.901 552.701 399.155 549.51Q399.672 548.451 400.214 547.404L400.978 547.254C401.343 548.031 401.674 548.792 401.972 549.599L402.248 550.364C404.813 548.866 403.228 542.445 404.786 539.799C414.136 543.684 422.743 549.331 432.34 552.575C450.641 558.761 480.177 553.994 497.656 546.717C502.809 544.572 507.877 542.092 512.455 538.88C517.146 535.588 521.565 531.71 526.552 528.881C518.592 537.544 510.862 546.423 501.243 553.321C499.87 554.306 498.453 555.41 496.933 556.156C495.254 556.981 492.503 557.202 491.146 558.34C490.564 558.828 490.351 561.403 490.209 562.225C488.857 561.207 487.434 559.567 485.693 559.494C484.673 560.529 485.346 562.661 484.69 563.18L483.457 562.014C482.738 560.694 482.665 560.582 481.336 559.893C480.198 560.148 480.2 560.11 479.504 561.037C480.05 561.754 480.621 562.367 481.265 562.997C481.267 564.217 481.144 564.286 480.42 565.288L479.523 565.18C478.767 564.159 478.164 563.273 477.159 562.474C475.892 564.383 475.793 569.745 475.406 572.224C475.101 568.647 475.102 564.616 474.134 561.172L473.054 560.992C471.217 562.61 471.358 566.704 471.166 569.038C470.014 566.752 470.184 564.158 468.721 561.973L468.059 562.169C466.888 565.482 466.553 569.005 465.833 572.429C465.539 569.602 465.517 565.129 463.155 563.124C462.906 562.912 462.622 562.746 462.356 562.557C461.239 563.848 460.925 565.269 461.1 566.952C461.175 567.676 461.328 568.389 461.452 569.105L461.901 571.849L461.569 571.182C460.56 569.127 459.974 566.978 458.569 565.137L458.016 565.095C457.749 567.377 457.612 569.667 457.458 571.96C456.748 569.533 456.048 565.411 454.594 563.456C453.707 563.433 453.714 563.24 453.029 563.895C452.274 564.618 452.559 564.333 451.805 565.198C450.892 564.645 450.43 564.081 449.794 563.231L448.122 562.569C445.384 561.586 442.493 560.053 439.659 561.599C438.684 562.131 437.766 562.802 436.859 563.439C436.854 561.762 438.735 561.149 437.824 559.685C436.324 559.356 435.699 559.472 434.287 559.914C432.77 559.028 432.517 558.577 430.715 558.986C430.363 559.066 430.006 559.184 429.66 559.292C429.909 557.929 430.182 557.482 429.557 556.212L428.568 555.698C428.413 555.751 428.259 555.807 428.103 555.858C426.29 556.452 425.486 556.53 423.729 555.604Q422.692 555.052 421.683 554.45L420.523 554.633C420.077 555.291 419.61 555.572 419.798 556.416C420.466 559.422 426.81 563.173 429.481 564.524C432.425 566.014 434.636 566.484 436.667 569.303C437.575 569.474 438.475 569.638 439.391 569.753C439.174 571.07 438.711 571.875 439.477 573.026C441.004 572.734 442.401 572.363 443.87 571.855C443.374 573.39 442.455 575.437 443.225 577.038C443.521 577.652 443.724 577.778 444.309 577.82C445.776 577.926 447.491 576.725 448.687 575.985C448.861 577.681 448.983 579.337 449.006 581.041L449.53 581.841L450.341 581.736L450.696 581.051C451.451 579.626 451.7 579.707 453.198 579.195C454.363 580.692 452.693 582.244 454.139 583.884C454.899 583.705 455.626 583.495 456.366 583.248C458.932 585.561 460.429 587.97 464.188 587.858C465.937 585.645 464.062 583.027 465.106 580.649C466.376 583.94 466.003 587.283 468.608 590.082L469.739 589.898C471.565 587.338 471.121 584.512 471.071 581.526C472.072 584.659 472.578 588.005 474.203 590.868L474.834 591.129C477.073 587.399 475.322 579.485 475.371 575.04L475.585 575.46C477.339 578.978 477.99 583.94 481.278 586.359L482.483 586.393C482.698 583.05 479.704 580.531 480.51 576.877C481.064 578.425 481.612 580.106 482.361 581.572C483.165 583.143 484.706 585.076 486.518 585.466C487.318 585.638 487.577 585.19 488.197 584.76C489.43 581.848 488.558 579.218 487.874 576.28C489.061 577.118 489.624 579.042 490.218 580.38L490.773 580.403C491.104 580.02 491.617 579.738 491.766 579.254C492.026 578.412 490.176 572.535 490.157 570.802C490.154 570.498 490.16 570.195 490.162 569.891C491.324 570.535 492.668 571.671 493.987 571.502C493.913 570.104 493.538 568.838 493.169 567.498L493.72 567.076C495.75 568.289 497.22 571.953 498.414 574.053C498.061 571.286 497.018 568.608 496.726 565.85C496.69 565.503 496.694 564.993 496.723 564.636C496.827 563.338 497.793 562.781 498.818 562.103C513.13 552.629 520.706 542.971 530.722 529.376C530.668 527.962 529.396 526.968 528.504 525.888L531.043 526.83Z"/>
	<path fill="#F9E7CB" d="M628.432 818.72L635.045 825.257C639.048 828.499 642.746 832.231 646.276 835.979C650.52 840.737 654.711 845.633 659.221 850.137C653.242 855.323 645.14 859.178 638.314 863.242C625.79 870.697 613.515 878.701 600.771 885.767C591.138 891.108 579.495 896.101 570.585 902.124C562.934 907.297 556.348 914.567 549.738 920.982C542.536 927.97 535.193 934.807 528.152 941.959C525.82 944.328 515.32 954.182 515.06 956.752C508.101 959.722 496.957 961.162 489.45 959.666C481.434 960.645 473.339 960.44 465.286 960.995C466.27 952.198 468.742 943.671 469.448 934.779C469.885 929.279 468.985 923.69 469.074 918.169L469.087 917.589L468.95 917.097C468.092 913.866 467.948 910.895 466.456 907.813L463.639 908.622C465.335 906.4 468.675 904.932 471.12 903.687C483.322 897.473 496.125 892.271 508.56 886.531Q528.141 877.293 547.525 867.65C561.734 860.748 575.957 854.051 589.807 846.433C605.644 837.722 614.297 828.656 628.432 818.72Z"/>
	<path fill="#5A896D" d="M592.834 863.829C605.969 850.082 620.834 837.851 635.045 825.257C639.048 828.499 642.746 832.231 646.276 835.979C628.866 845.69 611.069 855.772 592.834 863.829Z"/>
	<path fill="#5A896D" d="M466.456 907.813C474.323 905.367 481.636 901.353 489.293 898.359C508.506 890.844 527.732 883.37 546.569 874.929C558.629 869.524 570.331 863.251 582.428 857.957C578.414 861.595 574.445 865.233 570.712 869.164C566.75 873.335 562.916 878.584 558.198 881.875C552.689 885.719 544.901 887.741 538.711 890.372C527.227 895.255 516.029 901.363 504.407 905.773C492.794 910.18 480.573 912.797 468.95 917.097C468.092 913.866 467.948 910.895 466.456 907.813Z"/>
	<path fill="#5A896D" d="M469.087 917.589C475.101 919.3 536.605 901.617 546.72 898.974C538.428 903.458 529.801 906.309 521.054 909.708C510.017 913.998 499.066 918.474 487.99 922.671C481.269 925.218 473.458 927.23 467.318 930.893C487.889 928.418 512.196 919.933 531.987 913.232C523.338 922.966 514.173 932.234 505.445 941.895C500.156 947.75 495.397 954.495 489.45 959.666C481.434 960.645 473.339 960.44 465.286 960.995C466.27 952.198 468.742 943.671 469.448 934.779C469.885 929.279 468.985 923.69 469.074 918.169L469.087 917.589Z"/>
	<path fill="#FAF2E4" d="M626.381 586.681C639.342 592.093 654.29 615.594 660.688 628.021C663.796 634.057 666.244 640.545 668.894 646.798C671.338 652.567 674.024 658.238 676.397 664.034C680.199 673.318 683.885 683.882 684.818 693.875C687.124 705.372 689.021 716.641 689.916 728.34C690.363 734.182 690.29 740.024 690.68 745.855C690.765 751.798 691.229 758.562 690.385 764.419L689.759 767.37C689.612 770.298 689.801 773.78 689.176 776.616C688.932 778.213 688.602 779.85 688.478 781.458C688.424 790.117 687.669 799.97 685.789 808.437C684.259 817.504 682.855 826.543 680.792 835.51C676.118 838.875 671.479 842.374 666.605 845.444C659.932 839.563 654.039 832.916 647.944 826.46C636.629 814.475 625.157 803.119 611.383 793.987C606.384 790.672 601.588 787.615 595.862 785.692C592.897 785.074 590.224 785.324 587.266 785.712C589.187 779.144 590.574 770.32 589.861 763.49C604.401 744.046 616.763 722.278 625.302 699.541C628.289 691.586 630.612 683.376 633.259 675.304C639.224 657.109 643.892 648.419 642.578 628.625L643.231 629.207C643.451 628.68 643.481 628.656 643.636 628.005C646.005 618.099 640.323 602.614 634.222 594.907C632.094 592.219 628.377 590.106 626.709 587.269C626.595 587.075 626.491 586.877 626.381 586.681Z"/>
	<path fill="#5A896D" d="M654.37 780.934C666.189 768.935 679.455 758.513 690.68 745.855C690.765 751.798 691.229 758.562 690.385 764.419C690.153 763.767 690.336 764.175 689.666 763.286C686.65 764.272 683.59 767.218 680.797 768.902C672.701 773.784 663.508 778.551 654.37 780.934Z"/>
	<path fill="#5A896D" d="M689.759 767.37C689.612 770.298 689.801 773.78 689.176 776.616C673.661 784.171 657.051 798.363 644.753 810.469C641.045 806.75 637.296 803.209 633.243 799.86C638.339 796.051 642.56 790.809 647.889 787.397C652.131 784.681 657.555 783.39 662.284 781.706C668.221 779.592 674.187 777.271 679.874 774.549C683.584 772.774 685.918 769.203 689.759 767.37Z"/>
	<path fill="#5A896D" d="M688.478 781.458C688.424 790.117 687.669 799.97 685.789 808.437L685.197 808.254C683.008 808.756 662.527 823.397 658.699 825.842C655.4 821.009 651.997 816.943 647.468 813.238C660.585 801.864 674.657 791.933 688.478 781.458Z"/>
	<path fill="#5A896D" d="M681.089 724.445C681.757 727.932 681.113 731.629 682.081 735.125C682.497 736.624 682.999 737.044 684.302 737.772C684.464 737.862 685.316 738.311 685.475 738.447C686.379 739.222 686.616 739.817 686.728 740.965C686.897 742.705 686.536 744.197 685.376 745.512C679.299 752.401 672.248 758.504 665.679 764.922C659.202 771.25 652.53 777.303 645.984 783.537C640.9 788.379 636.2 793.259 630.822 797.821C628.327 796.463 626.144 795.549 623.411 794.783C644.835 777.925 667.053 747.876 681.089 724.445Z"/>
	<path fill="#5A896D" d="M626.381 586.681C639.342 592.093 654.29 615.594 660.688 628.021C663.796 634.057 666.244 640.545 668.894 646.798C671.338 652.567 674.024 658.238 676.397 664.034C680.199 673.318 683.885 683.882 684.818 693.875C679.101 704.61 674.289 715.972 668.032 726.408C653.797 750.152 634.666 769.231 615.567 788.934C612.912 787.728 610.359 786.818 607.543 786.058C618.184 763.628 629.635 741.628 640.357 719.233C648.885 701.422 663.121 672.718 665.283 653.425C665.615 650.46 665.453 647.894 664.445 645.07C662.616 639.943 659.344 635 656.683 630.254C652.371 668.945 635.778 703.058 619.064 737.708C615.319 745.473 611.893 753.376 608.203 761.165C605.645 766.566 596.519 781.432 595.862 785.692C592.897 785.074 590.224 785.324 587.266 785.712C589.187 779.144 590.574 770.32 589.861 763.49C604.401 744.046 616.763 722.278 625.302 699.541C628.289 691.586 630.612 683.376 633.259 675.304C639.224 657.109 643.892 648.419 642.578 628.625L643.231 629.207C643.451 628.68 643.481 628.656 643.636 628.005C646.005 618.099 640.323 602.614 634.222 594.907C632.094 592.219 628.377 590.106 626.709 587.269C626.595 587.075 626.491 586.877 626.381 586.681Z"/>
	<path fill="#D3CBC1" d="M387.263 680.369C389.283 683.304 387.436 694.214 387.468 698.246Q387.472 702.939 388.302 707.557C390.405 719.219 396.072 730.474 403.086 739.933C418.927 761.297 445.469 773.267 471.31 777.114C516.589 783.855 559.055 770.761 595.322 743.852C592.218 749.311 588.334 754.51 584.721 759.642C566.979 784.847 549.728 801.728 527.201 822.468C514.753 833.619 504.445 846.488 493.438 858.974C485.918 867.505 477.773 875.931 469.618 883.855C458.56 894.599 444.509 903.368 432.247 912.781C428.607 886.557 419.867 861.016 412.435 835.694C409.204 824.684 406.362 811.081 401.302 800.871C397.963 794.133 392.306 789.171 388.255 782.952C384.05 776.496 380.288 768.455 378.314 760.988C373.278 741.933 373.342 710.371 377.314 691.117C380.434 687.423 383.972 683.92 387.263 680.369Z"/>
	<path fill="#FAF2E4" d="M603.34 570.337C604.622 575.169 603.311 584.263 603.235 589.565C603.123 597.347 603.681 605.373 605.364 612.979C609.026 629.532 617.946 649.128 632.743 658.509C629.439 665.066 627.584 672.632 625.322 679.602C621.303 691.982 611.037 720.727 602.857 729.741C598.063 735.025 590.919 739.694 584.932 743.591C550.383 766.075 507.125 777.783 466.256 768.982C441.058 763.556 417.798 751.968 403.507 729.916C399.833 723.578 397.139 717.385 395.624 710.192C393.685 700.99 394.441 691.317 393.684 681.97C392.516 667.549 391.396 652.957 389.883 638.575C389.289 632.924 388.296 627.331 387.732 621.669C405.806 637.068 429.568 661.372 449.73 672.269C464.004 679.983 481.118 680.487 496.471 675.861Q499.493 674.938 502.437 673.789Q505.381 672.64 508.229 671.272Q511.078 669.904 513.814 668.325Q516.551 666.745 519.161 664.963C536.834 652.733 572.733 615.547 585.817 598.224C592.513 589.358 598.093 580.122 603.34 570.337Z"/>
	<path fill="#2E2925" d="M420.526 683.168C419.79 681.366 415.81 673.376 415.93 672.123C416.763 671.68 417.391 671.29 418.326 671.118C418.728 671.323 419.289 671.352 419.531 671.732C420.561 673.347 420.178 679.318 422.319 682.042C422.475 682.24 422.644 682.426 422.806 682.619C422.899 680.396 422.658 678.19 423.556 676.126C424.833 679.651 424.846 683.426 426.377 686.878L427.406 688.438L427.896 686.226L428.94 685.694C430.037 686.139 429.809 685.803 430.238 686.798C430.654 687.767 430.645 688.227 430.548 689.242C430.018 689.984 429.657 690.4 428.945 691.004L429.57 691.622C433.086 695.055 435.481 696.831 437.604 701.42C437.268 702.605 437.511 702.053 436.884 703.082L437.926 703.091L439.249 701.16L439.995 701.304C440.543 706.155 438.151 709.539 442.097 713.719L443.069 713.938C443.926 712.911 444.218 712.034 444.649 710.791C447.943 715.515 443.098 721.809 448.449 726.109C448.395 723.783 448.232 721.776 449.135 719.576L449.702 719.518C450.464 721.986 450.04 727.938 451.787 729.336L453.42 729.35C453.552 729.171 453.68 728.991 453.814 728.814C454.248 728.242 454.689 727.759 455.196 727.255L455.835 727.581C455.997 729.013 456.037 729.274 455.451 730.574C450.581 733.106 450.928 729.972 448.105 736.04C447.526 733.773 447.893 731.623 448.561 729.428L447.731 728.341C446.586 727.438 445.572 726.367 444.527 725.351L444.15 725.495Q444.628 727.205 445.009 728.939L444.584 729.137C443.269 727.853 442.21 726.195 441.98 724.335C441.868 723.424 442.169 723.414 442.723 722.788C440.845 720.822 438.527 719.113 436.8 717.042C432.444 711.82 422.591 692.067 421.731 685.491L420.526 683.168Z"/>
	<path fill="#4F453E" d="M427.406 688.438L427.896 686.226L428.94 685.694C430.037 686.139 429.809 685.803 430.238 686.798C430.654 687.767 430.645 688.227 430.548 689.242C430.018 689.984 429.657 690.4 428.945 691.004L429.57 691.622C433.086 695.055 435.481 696.831 437.604 701.42C437.268 702.605 437.511 702.053 436.884 703.082L436.171 703.462C435.408 705.14 437.141 705.868 436.696 707.598L435.902 707.543C432.804 704.113 430.986 698.396 429.384 694.099C428.382 693.728 426.977 693.334 426.192 692.594C425.366 691.816 424.938 690.053 424.82 688.958C425.663 688.305 425.881 687.801 426.377 686.878L427.406 688.438Z"/>
	<path fill="#F9E7CB" d="M128.319 580.412C174.726 529.947 241.981 485.35 305.535 459.871C308.137 467.731 311.625 475.585 313.563 483.617C317.443 499.7 315.542 518.295 332.755 526.979Q334.452 527.822 336.189 528.58L336.457 529.231C338.938 535.335 340.423 541.801 342.754 547.966C349.825 566.669 359.256 584.998 370.84 601.302C363.636 602.752 356.894 607.636 350.807 611.599C326.055 627.712 303.163 647.766 272.893 652.264C236.508 657.671 211.464 645.914 182.819 625.446C173.764 618.976 165.12 612.645 156.71 605.321Q147.755 597.5 138.89 589.579C135.681 586.712 132.527 583.468 129.063 580.945L128.319 580.412Z"/>
	<path fill="#FAF2E4" d="M128.319 580.412L129.063 580.945C132.527 583.468 135.681 586.712 138.89 589.579Q147.755 597.5 156.71 605.321C165.12 612.645 173.764 618.976 182.819 625.446C211.464 645.914 236.508 657.671 272.893 652.264C303.163 647.766 326.055 627.712 350.807 611.599C356.894 607.636 363.636 602.752 370.84 601.302C373.791 606.182 377.246 610.934 380.801 615.387C374.625 620.019 368.285 624.396 362.524 629.555C345.455 644.839 333.695 664.7 323.811 685.09C298.885 694.032 274.007 702.509 249.392 712.327C235.719 717.781 221.496 723.39 208.783 730.876C187.279 743.538 169.302 771.746 161.411 795.079C157.795 805.772 155.937 816.788 153.121 827.684C144.521 822.652 136.434 816.307 129.109 809.549C97.7756 780.635 77.4314 739.423 75.7287 696.742C73.9452 652.031 99.2111 612.136 128.319 580.412Z"/>
	<path fill="#F9E7CB" d="M125.965 578.324C122.817 575.355 119.108 572.988 115.969 569.878C100.914 554.961 87.3806 536.543 77.9771 517.56C57.7418 476.709 48.3514 423.5 54.1034 378.187C55.9437 363.69 59.9628 348.552 64.6743 334.725C72.0091 313.2 87.6567 288.558 104.049 272.73C116.298 260.903 131.202 250.928 146.463 243.473C186.841 223.749 233.465 220.869 276.852 230.718C282.643 232.033 288.8 233.095 294.409 235.023C296.407 241.596 298.882 246.296 304.127 250.851C296.043 252.15 289.672 256.006 284.916 262.664C279.233 270.62 277.194 281.72 278.944 291.291C279.27 293.078 279.779 294.843 280.3 296.582C280.888 284.482 283.398 273.131 292.759 264.573C298.462 259.359 304.177 256.015 312.17 256.441C313.27 256.5 313.653 256.535 314.594 257.151L314.234 257.607C313.56 257.598 312.863 257.408 312.211 257.58C311.182 257.852 309.379 259.312 308.382 259.884C303.654 262.598 299.282 264.451 295.316 268.347C286.853 276.659 283.518 288.885 283.439 300.445C283.416 303.815 284.718 307.131 284.597 310.451C284.162 322.423 280.546 328.734 286.851 340.524C287.408 341.432 287.982 342.29 288.382 343.282C289.429 360.877 300.403 381.861 308.777 397.201C309.305 398.169 309.309 397.718 309.068 398.523C308.87 398.515 308.673 398.505 308.475 398.5C305.108 398.404 302.298 399.322 299.838 401.707C294.948 406.45 294.522 414.924 294.626 421.347C294.821 433.386 298.539 445.928 303.816 456.694L303.405 456.92C297.322 460.19 290.551 462.597 284.223 465.396Q271.088 471.349 258.362 478.132C219.712 498.811 182.303 524.639 149.942 554.279C141.572 561.945 134.037 570.372 125.965 578.324Z"/>
	<path fill="#FAF2E4" d="M415.321 255.526C415.478 255.57 415.635 255.616 415.793 255.658C436.395 261.144 459.945 258.154 480.474 253.56C490.477 251.322 500.246 248.459 510.502 247.495C528.137 245.837 549.724 249.722 563.009 262.379C566.87 266.058 569.934 270.732 572.621 275.305C578.337 285.036 584.174 298.153 583.043 309.739C582.265 317.704 580.911 325.074 582.664 333.062C584.241 340.243 589.597 343.549 592.813 349.575C595.814 355.198 598.446 362.526 600.289 368.614C607.273 391.681 599.871 415.553 618.441 435.702C618.946 450.937 618.111 465.752 616.434 480.901C616.045 484.414 615.977 488.51 614.741 491.829C614.055 492.196 613.687 492.341 612.958 492.512C611.017 497.993 613.992 503.524 613.211 509.128C612.396 506.909 612.16 504.379 610.608 502.547L609.725 502.459C608.378 503.834 608.538 504.505 608.603 506.437C608.803 512.42 611.295 518.171 611.663 524.171L611.816 526.402L611.616 525.937C610.465 523.205 609.63 517.283 607.089 515.797C606.221 516.63 605.86 517.12 605.761 518.363C605.236 525.019 609.029 531.67 607.973 541.39C607.927 541.211 607.879 541.032 607.836 540.852C606.793 536.53 607.205 525.243 603.507 522.588C602.309 523.197 601.525 523.45 600.971 524.789C599.769 527.698 602.029 531.41 601.151 534.579C599.954 533.519 600.147 531.35 598.891 530.81C596.359 534.524 597.307 540.802 596.684 545.216L594.784 537.326L591.454 542.253L591.496 563.157C591.556 568.298 592.304 573.637 591.094 578.683C590.398 581.588 588.693 584.015 587.011 586.426C588.115 577.606 592.055 552.991 587.385 546.125C586.969 545.512 586.591 545.687 585.918 545.623C585.277 545.981 584.414 546.366 584.027 547.029C581.785 550.867 584.609 560.482 585.06 564.923L584.568 563.545L584.592 563.708C583.802 560.401 582.432 554.832 579.889 552.534C578.513 552.594 578.337 552.977 577.261 553.87L575.86 554.364C574.517 554.429 573.671 554.45 572.449 555.08C571.252 561.659 571.069 568.645 570.724 575.323C569.461 569.975 566.307 550.723 562.976 547.488L562.355 547.867C561.641 550.813 562.467 553.755 561.96 556.722C560.324 554.308 561.952 549.755 560.463 546.976C560.046 546.197 559.827 546.309 559.048 546.03C557.387 546.648 555.99 547.778 555.246 549.421C554.953 550.07 554.704 550.677 554.362 551.309C552.49 548.19 552.637 534.362 552.323 529.904C554.449 531.083 556.66 532.016 558.891 532.97C561.498 527.579 562.144 522.056 561.011 516.173C557.249 496.631 539.043 492.187 525.71 480.757C516.421 472.793 508.274 463.331 498.032 456.486C494.363 454.034 489.157 450.7 484.621 451.63L484.203 452.316C486.324 455.548 495.714 458.875 500.12 465.466C500.241 465.647 500.359 465.831 500.478 466.014C500.487 467.895 500.471 469.732 500.178 471.595C499.731 474.447 498.981 478.995 496.283 480.657C491.77 483.436 484.472 478.515 479.88 477.596C472.246 476.069 468.977 482.286 463.272 485.743C459.47 488.046 455.008 487.865 450.873 486.638C446.203 485.251 441.565 482.655 438.027 479.301C426 467.899 434.813 458.221 430.465 449.988L429.761 449.978C428.585 451.065 428.159 452.179 427.801 453.709C425.488 463.578 425.636 471.752 431.04 480.512C430.336 482.018 429.721 483.591 428.389 484.654C427.391 485.449 425.875 485.835 424.634 485.613C423.544 485.418 422.664 484.701 422.006 483.841C416.766 476.994 421.948 468.204 422.983 461.034L422.451 460.705C421.006 461.701 419.865 462.82 418.87 464.28C415.438 469.319 415.027 476.903 416.043 482.75C413.15 484.828 410.255 486.907 407.57 489.252C403.652 492.673 392.698 504.43 393.101 509.695C393.195 510.921 393.669 511.227 394.534 511.929C396.553 510.876 399.945 504.088 401.6 501.943C406.025 496.208 411.494 490.523 418.063 487.278C418.238 487.192 418.414 487.11 418.59 487.025C420.574 488.42 422.517 489.941 424.973 490.35C429.415 491.09 432.665 488.19 435.959 485.702C446.644 490.834 454.912 493.525 465.846 486.993C468.64 485.324 471.549 483.546 474.854 483.173C480.51 482.534 485.832 486.141 491.464 486.195C494.821 486.227 498.384 485.469 500.741 482.896C504.506 478.785 505.109 472.308 505.048 467.029C513.057 475.705 520.896 484.261 530.526 491.212C535.651 494.911 541.508 497.641 546.478 501.535C552.85 506.528 555.431 512.066 556.382 519.94C554.595 516.725 552.833 512.855 550.282 510.203C547.365 507.169 544.376 506.756 540.327 506.648C535.57 506.095 532.306 505.181 527.993 503.134C528.852 505.176 529.6 507.465 530.668 509.394C530.814 509.872 530.953 510.354 531.112 510.828C531.453 511.838 531.646 512.04 531.472 513.121C528.954 511.923 527.05 506.618 526.021 504.169C523.673 503.109 520.239 500.945 517.713 501.899C517.514 503.046 517.291 504.133 516.972 505.256C514.691 504.607 512.211 502.504 510.218 501.187C506.18 498.519 497.16 496.872 492.301 497.144C492 498.092 493.345 500.071 493.834 501.025C489.027 497.572 483.137 494.914 477.042 495.875C475.394 496.134 473.106 496.888 472.039 498.27C471.6 498.839 471.305 499.349 471.417 500.077C471.673 501.729 475.095 504.527 474.708 505.373C470.664 504.819 469.658 497.865 464.787 501.284L462.643 499.828L461.938 500.06L461.334 502.148L459.125 502.217C457.874 500.924 456.507 499.522 454.579 499.516C453.567 499.513 452.468 499.803 451.487 500.024C451.378 499.8 451.272 499.574 451.158 499.352C450.674 498.402 450.898 498.762 450.212 497.946L449.329 498.273L448.3 500.562L447.515 500.829C447.502 500.103 447.54 499.499 447.622 498.767L447.153 498.497Q445.922 499.379 444.719 500.298C444.704 500.029 444.732 499.754 444.673 499.492C444.526 498.831 444.234 498.158 443.578 497.925C439.558 496.498 434.88 500.668 430.83 500.722L430.159 498.975C426.117 497.717 416.157 503.709 412.318 505.716C408.92 507.493 406.922 509.14 404.833 512.355C404.69 512.575 404.533 512.787 404.383 513.003C390.455 515.627 392.643 520.453 383.009 526.289C382.48 526.609 381.962 526.94 381.43 527.255C376.776 529.545 373.715 534.469 372.21 539.335C371.713 540.941 371.961 542.071 372.685 543.581C373.783 544.397 373.842 544.379 375.217 544.371C376.412 543.652 376.924 543.36 377.323 541.98C377.74 540.535 377.594 538.561 378.993 537.666C379.055 537.904 379.121 538.142 379.178 538.381C379.4 539.31 379.379 540.169 379.38 541.118C379.381 543.269 379.576 544.465 381.105 546.11C381.853 545.717 382.017 545.549 382.524 544.917C383.63 545.933 382.476 546.64 384.039 547.636C384.915 547.175 385.571 546.669 386.314 546.017C386.66 546.941 386.773 547.597 386.89 548.564L387.585 548.724C388.482 547.615 389.004 545.382 390.275 545.088C390.825 546.807 389.856 547.983 390.033 549.669L390.236 548.862L390.151 549.64C391.18 548.94 392.026 548.151 392.939 547.313L393.367 547.571C393.058 549.057 392.189 550.885 393.183 552.206C393.582 552.735 394.347 553.229 394.874 553.641C395.792 559.951 391.588 571.437 390.784 578.289C390.355 581.952 390.687 585.453 391.231 589.077L390.677 590.814C390.418 590.94 389.867 591.279 389.59 591.3C388.711 587.517 388.12 577.643 385.448 575.115L384.662 575.493C381.956 581.186 382.449 586.571 382.143 592.633L381.688 592.991C378.661 590.177 379.845 580.968 379.457 576.876C379.329 575.967 379.203 575.159 378.765 574.331C377.703 572.322 375.885 571.872 373.873 571.232L370.171 570.139L368.779 568.661L367.831 568.681C367.011 570.641 367.446 572.644 367.262 574.696C365.595 570.509 364.711 563.954 361.889 560.567L361.314 560.968C361.119 562.51 360.931 564.041 360.824 565.591C359.543 558.331 357.928 552.991 354.449 546.425C353.372 544.251 351.387 538.786 349.529 537.604C350.112 539.688 351.704 543.036 351.294 545.109C350.966 544.845 344.335 526.6 343.716 524.828C340.402 514.833 338.244 504.365 335.888 494.105C332.748 480.434 328.954 466.357 328.334 452.314C327.786 439.869 329.361 427.535 329.243 415.145C329.169 407.354 326.947 399.715 327.494 391.872C328.193 381.84 333.024 372.263 334.66 362.283C337.09 347.448 333.935 333.032 333.371 318.239C332.737 301.644 340.789 283.196 351.975 271.128C357.837 270.637 361.868 270.713 366.806 267.239C375.198 268.106 382.685 268.432 391.076 267.369C400.145 264.615 407.371 260.559 415.321 255.526Z"/>
	<path fill="#4F453E" d="M411.86 386.162C412.818 386.626 413.615 387.199 414.472 387.827C414.746 389.303 414.492 389.305 413.646 390.579C412.368 390.112 411.322 389.717 410.235 388.86C410.306 387.443 410.939 387.165 411.86 386.162Z"/>
	<path fill="#2E2925" d="M504.861 407.405C516.801 410.207 522.84 413.199 535.77 410.948C537.058 410.724 538.231 410.59 539.538 410.542C540.825 411.278 540.703 411.339 541.151 412.776C539.447 413.455 537.546 413.911 535.731 414.198C524.963 415.899 513.745 413.746 504.861 407.405Z"/>
	<path fill="#2E2925" d="M469.076 394.2C469.698 394.677 470.087 394.953 470.34 395.737C472.934 403.799 468.554 423.215 464.019 430.219L462.659 430.202C462.359 429.226 462.3 429.436 462.395 428.582C462.933 423.705 464.526 418.674 465.63 413.887C467.138 407.345 468.256 400.862 469.076 394.2Z"/>
	<path fill="#2E2925" d="M423.958 387.715C425.493 387.864 426.949 388.085 428.367 388.733C433.609 391.129 436.791 397.156 438.724 402.327C442.373 412.087 442.834 421.281 438.418 430.829C437.353 431.825 437.108 432.113 435.711 432.452C434.839 431.955 434.554 431.84 434.193 430.837C433.431 428.724 433.739 425.618 433.817 423.356C434.41 406.122 434.974 402.212 423.958 387.715Z"/>
	<path fill="#2E2925" d="M519.851 379.22C528.401 379.332 537.173 379.441 545.15 382.909C550.699 385.322 559.088 391.204 561.32 396.98C561.014 398.274 561.087 398.203 559.965 398.907C556.676 399.063 552.241 394.498 549.61 392.564C545.328 395.53 540.922 398.525 536.266 400.872C525.356 404.93 513.638 401.876 502.605 399.963C499.113 399.358 494.772 399.088 491.577 397.624C490.356 397.064 490.075 396.659 489.601 395.438C489.91 392.602 491.666 389.659 493.575 387.587C499.986 380.63 510.992 379.693 519.851 379.22Z"/>
	<path fill="#FAF2E4" d="M523.027 384.851C524.385 384.85 525.31 384.8 526.512 385.549C526.781 386.987 526.293 387.589 525.724 388.912C524.492 388.857 524.283 388.589 523.261 387.862C522.681 386.474 522.722 386.335 523.027 384.851Z"/>
	<path fill="#FAF2E4" d="M513.898 393.226C514.814 392.144 515.377 391.333 516.83 390.994C517.894 391.598 518.032 391.858 518.468 393.079C518.683 393.678 518.769 394.459 518.879 395.075C518.25 395.669 518.417 395.821 517.724 395.72C516.218 395.499 514.851 394.336 513.898 393.226Z"/>
	<path fill="#4F453E" d="M511.582 392.231L512.788 393.594L513.898 393.226C514.851 394.336 516.218 395.499 517.724 395.72C518.417 395.821 518.25 395.669 518.879 395.075C519.049 396.114 519.177 397.102 519.212 398.154C518.286 398.15 517.355 398.152 516.429 398.104C514.845 398.022 513.199 397.797 512.181 396.407C511.264 395.157 511.472 393.674 511.582 392.231Z"/>
	<path fill="#F9E7CB" d="M539.836 387.113C541.618 387.883 543.922 388.613 545.467 389.769C546.27 390.369 546.282 390.459 546.457 391.473L544.765 392.706L539.767 396.038C539.849 395.274 539.916 394.505 540.007 393.742C540.299 391.306 540.355 389.532 539.836 387.113Z"/>
	<path fill="#FAF2E4" d="M497.439 395.912C500.391 392.841 503.602 390.132 507.357 388.081C509.784 386.756 511.959 385.973 514.714 386.739Q513.115 389.466 511.582 392.231C511.472 393.674 511.264 395.157 512.181 396.407C513.199 397.797 514.845 398.022 516.429 398.104C517.355 398.152 518.286 398.15 519.212 398.154L520.099 398.616C519.832 398.741 519.58 398.906 519.298 398.991C513.176 400.84 503.277 398.04 497.439 395.912Z"/>
	<path fill="#2E2925" d="M525.332 356.816C535.626 356.012 545.821 357.061 555.007 362.079C563.722 366.839 571.081 372.545 573.986 382.309C566.552 381.486 560.732 377.692 553.869 375.124C547.053 372.572 540.084 372.183 532.876 372.158C525.563 372.552 518.384 374.244 511.143 375.269C506.24 375.962 501.343 376.026 496.48 376.615C493.584 376.966 491.408 378.131 488.408 377.365C487.428 377.115 487.354 377.053 486.289 377.232L486.476 378.263L485.985 378.606C484.075 376.865 482.604 374.873 481.059 372.818C480.842 371.91 480.812 371.394 481.017 370.456C481.639 367.615 484.706 365.831 487.068 364.564Q490.466 362.705 494.111 361.397Q497.757 360.088 501.561 359.362C505.306 358.674 522.7 358.215 523.959 357.715C524.467 357.513 524.874 357.116 525.332 356.816Z"/>
	<path fill="#D3CBC1" d="M351.975 271.128C357.837 270.637 361.868 270.713 366.806 267.239C375.198 268.106 382.685 268.432 391.076 267.369C389.336 304.433 429.245 328.582 421.815 373.148C422.003 374.721 422.243 376.436 421.281 377.821C420.154 379.444 419.126 379.613 417.526 380.409C417.328 380.507 417.176 380.677 417.002 380.812C415.082 382.039 409.839 387.801 408.691 388.104C408.385 388.185 407.063 387.889 406.64 387.824C407.247 388.444 407.865 389.055 408.449 389.698C409.8 389.909 411.213 390.093 412.503 390.56C415.362 391.594 423.143 398.2 425.214 400.599L425.314 401.413C423.281 402.004 419.683 400.879 417.594 400.371C416.729 399.544 415.873 398.739 414.954 397.972C410.964 403.777 402.46 407.459 396.116 409.88C394.567 411.525 392.877 411.721 390.679 411.788C388.275 411.86 385.854 411.798 383.449 411.768C385.022 414.282 386.059 416.794 389.21 417.468C393.558 418.399 399.164 415.175 403.428 414.2C405.999 413.612 407.894 411.337 410.494 410.715L410.989 411.143C410.68 412.489 410.037 413.208 408.908 413.957C405.736 416.061 392.271 420.038 391.991 420.317C391.877 420.431 391.556 421.524 391.545 421.571C389.95 428.254 389.571 435.317 387.983 442.094C385.853 451.182 382.806 459.973 379.828 468.807C374.119 485.745 366.52 511.354 351.322 522.028C348.924 523.712 346.531 524.219 343.716 524.828C340.402 514.833 338.244 504.365 335.888 494.105C332.748 480.434 328.954 466.357 328.334 452.314C327.786 439.869 329.361 427.535 329.243 415.145C329.169 407.354 326.947 399.715 327.494 391.872C328.193 381.84 333.024 372.263 334.66 362.283C337.09 347.448 333.935 333.032 333.371 318.239C332.737 301.644 340.789 283.196 351.975 271.128Z"/>
	<path fill="#2E2925" d="M369.668 406.8C367.576 408.221 365.336 409.665 363.006 410.672C361.879 411.16 361.144 411.428 359.96 411.009L359.974 410.086C363.079 405.729 368.857 401.042 373.174 397.853C382.074 391.28 395.441 386.144 406.64 387.824C407.247 388.444 407.865 389.055 408.449 389.698C409.8 389.909 411.213 390.093 412.503 390.56C415.362 391.594 423.143 398.2 425.214 400.599L425.314 401.413C423.281 402.004 419.683 400.879 417.594 400.371C416.729 399.544 415.873 398.739 414.954 397.972C410.964 403.777 402.46 407.459 396.116 409.88C386.383 411.962 378.76 410.408 369.668 406.8Z"/>
	<path fill="#FAF2E4" d="M409.597 392.282C411.178 394.033 412.8 395.646 414.534 397.243C412.601 397.138 410.904 397.827 409.097 398.423C408.415 396.936 409.337 393.96 409.597 392.282Z"/>
	<path fill="#FAF2E4" d="M384.057 396.058C384.377 396.356 384.21 396.149 384.311 396.964C384.787 400.808 386.088 404.074 388.579 407.045C384.649 407.062 380.748 407.192 376.862 406.516C374.848 405.93 372.788 405.612 370.725 405.251C374.956 401.802 379.383 398.875 384.057 396.058Z"/>
	<path fill="#2E2925" d="M417.002 380.812C416.68 380.851 416.358 380.887 416.037 380.93C404.807 382.436 373.365 378.082 366.438 381.054C362.467 382.757 358.249 385.595 354.919 388.36C352.689 390.211 349.738 393.565 347.156 394.668L346.469 393.856C346.046 390.164 347.311 386.016 348.696 382.59C350.909 377.119 356.931 372.71 362.19 370.448C373.003 365.798 384.615 366.628 396.033 366.059C400.83 365.82 405.72 363.815 410.334 365.685C411.563 366.414 412.688 367.159 413.83 368.019L412.769 365.829L413.193 365.031C416.477 365.539 419.88 370.572 421.815 373.148C422.003 374.721 422.243 376.436 421.281 377.821C420.154 379.444 419.126 379.613 417.526 380.409C417.328 380.507 417.176 380.677 417.002 380.812Z"/>
	<path fill="#FAF2E4" d="M556.844 152.043C565.721 150.337 574.616 146.502 583.339 143.986C608.453 136.742 634.109 132.534 660.287 134.533C708.573 138.22 754.268 163.308 785.6 199.883C790.982 204.457 795.333 210.95 799.309 216.773C823.568 252.303 836.811 300.784 840.29 343.379Q842.001 366.036 841.353 388.749C840.933 410.526 839.625 432.762 844.053 454.246C850.837 490.847 873.566 520.103 893.969 550.123C919.434 587.591 941.41 630.787 933.592 677.421C927.19 715.612 901.351 747.94 870.43 769.908C839.767 729.613 793.233 714.476 747.518 698.343Q717.516 688.016 688.597 674.957C685.361 664.347 680.875 655.385 676.396 645.362C669.899 630.824 663.95 616.977 654.428 604.043C644.652 590.764 626.98 573.912 610.104 571.284C609.517 565.67 608.765 558.661 610.001 553.15C611.399 546.924 614.19 540.997 615.772 534.794C617.652 527.419 618.611 519.867 619.651 512.341Q621.299 512.601 622.959 512.767C628.705 513.305 635.536 511.885 639.947 508.029C643.114 505.262 645.254 501.359 646.927 497.55C652.197 485.554 654.99 472.026 659.237 459.595C662.145 451.084 666.44 442.939 668.911 434.323C670.108 430.152 670.742 425.956 671.012 421.628C671.365 415.964 671.312 410.227 671.086 404.558C670.556 391.3 668.208 383.002 659.389 372.986C663.274 365.604 660.71 362.778 661.913 355.547C662.72 350.7 664.236 345.926 665.146 341.079C667.832 326.778 669.646 311.1 669.022 296.562C668.017 273.14 658.332 246.702 644.114 228.128C638.24 220.454 631.348 213.99 624.24 207.506C624.455 205.033 624.934 202.202 624.291 199.777C620.475 185.406 597.742 170.81 585.032 164.831C579.435 162.199 573.398 160.878 567.736 158.492C563.992 156.915 560.331 154.148 556.844 152.043Z"/>
	<path fill="#4F453E" d="M785.6 199.883C790.982 204.457 795.333 210.95 799.309 216.773C823.568 252.303 836.811 300.784 840.29 343.379Q842.001 366.036 841.353 388.749C840.933 410.526 839.625 432.762 844.053 454.246C826.874 459.441 808.677 459.519 791.495 464.534C784.658 466.53 778.516 469.689 772.2 472.905C752.238 483.066 732.447 494.945 709.141 491.164C720.047 484.275 730.609 477.136 739.193 467.358C747.829 457.521 755.342 444.851 752.853 431.258C749.815 414.669 734.975 400.724 725.087 387.65C704.755 360.766 690.523 336.81 681.163 304.312C678.418 294.781 676.006 285.323 675.392 275.377C674.288 257.494 678.443 240.149 690.586 226.509C715.001 199.083 752.281 201.675 785.6 199.883Z"/>
</svg>
