<?xml version="1.0" encoding="utf-8" ?>
<svg xmlns="http://www.w3.org/2000/svg" xmlns:xlink="http://www.w3.org/1999/xlink" width="1024" height="1024">
	<path fill="#2C2927" d="M648.603 108.055C651.577 107.453 655.423 108.27 658.154 109.486C662.058 111.226 664.89 114.62 666.225 118.64C667.607 122.802 667.379 127.36 665.351 131.271C662.637 136.506 658.318 138.706 652.938 140.297C649.839 140.634 646.412 139.95 643.631 138.553C639.704 136.581 636.914 132.915 635.648 128.746C634.361 124.508 634.854 120.118 637.025 116.262C639.695 111.52 643.576 109.456 648.603 108.055ZM648.35 112.541C644.576 114.46 641.695 116.416 640.197 120.599Q640.007 121.14 639.872 121.697Q639.737 122.255 639.659 122.823Q639.582 123.391 639.561 123.964Q639.541 124.537 639.579 125.109Q639.617 125.682 639.712 126.247Q639.807 126.813 639.958 127.366Q640.11 127.919 640.317 128.454Q640.524 128.989 640.783 129.5C642.201 132.316 644.73 134.233 647.702 135.19C649.666 135.822 651.658 135.625 653.678 135.44C657.516 133.375 660.731 131.163 662.035 126.743Q662.188 126.204 662.286 125.653Q662.384 125.102 662.425 124.543Q662.467 123.984 662.451 123.425Q662.435 122.865 662.363 122.31Q662.29 121.754 662.161 121.209Q662.033 120.664 661.85 120.135Q661.666 119.606 661.43 119.098Q661.194 118.59 660.907 118.109C659.347 115.487 656.603 113.599 653.659 112.865C651.958 112.441 650.094 112.488 648.35 112.541Z"/>
	<path fill="#7F7F7C" d="M858.615 550.342C878.884 538.527 908.468 533.606 931.34 539.525C935.776 540.673 942.208 544.543 946.218 545.041C968.684 560.047 979.608 577.826 984.891 604.365C997.004 665.207 959.223 784.756 925.182 835.423C902.593 869.046 870.021 895.304 829.528 903.233C797.206 909.562 762.911 906.748 734.985 887.927C729.438 884.189 724.105 879.883 719.393 875.129C705.423 860.445 694.58 842.975 689.056 823.413C699.266 823.257 709.812 824.404 720.012 825.059C741.29 826.426 762.723 828.008 784.05 828.043C790.687 828.054 797.604 828.087 804 826.085C813.41 823.138 821.425 816.619 829.809 811.612C836.962 807.34 844.74 804.261 850.695 798.218C859.846 788.935 859.272 776.04 859.266 763.933L859.218 743.466C865.452 736.033 872.627 729.185 879.287 722.12Q886.005 715.121 892.035 707.522Q898.065 699.923 903.353 691.79C925.194 657.876 930.412 609.748 925.785 570.369C924.746 561.533 922.622 553.122 920.759 544.445C895.6 546.019 877.389 556.11 858.038 571.542C857.962 562.365 857.758 553.122 858.418 543.962L858.615 550.342Z"/>
	<path fill="#FAECD6" d="M52.6268 347.384C56.001 352.99 57.9726 359.657 60.7925 365.591C66.0763 376.709 83.8163 408.618 91.7793 416.109C95.3225 426.792 98.2273 437.628 102.055 448.229C115.782 486.249 137.522 525.866 175.327 544.259C176.062 544.617 176.795 544.932 177.549 545.246C178.432 602.814 177.857 660.39 178.895 717.956Q179.06 733.664 179.017 749.373C179.024 756.655 178.552 764.708 179.98 771.861C181.33 778.623 185.592 785.671 190.521 790.436C196.131 795.861 202.516 798.838 210.233 799.873C220.21 801.213 230.6 800.888 240.663 801.291C255.779 801.895 270.891 802.947 286.017 803.566L410.305 809.674L596.623 818.905L657.222 821.926C667.79 822.455 678.49 823.414 689.056 823.413C694.58 842.975 705.423 860.445 719.393 875.129Q717.709 876.459 715.986 877.738C698.135 890.938 675.956 898.409 654.658 903.936C634.116 909.267 613.277 912.187 592.28 915.006Q541.248 921.903 489.778 923.567C478.076 923.998 466.329 924.587 454.619 924.468Q416.849 924.165 379.193 921.233Q341.536 918.301 304.175 912.753C233.82 901.932 168.203 881.885 117.105 829.895C110.066 822.733 102.783 815.552 96.8441 807.429C78.6104 782.486 65.5868 753.623 57.1417 723.956C35.1097 646.563 38.7748 550.136 42.9261 469.989Q45.0649 425.527 49.5353 381.239C50.5828 369.976 50.8853 358.568 52.6268 347.384Z"/>
	<path fill="#2C2927" d="M330.431 875.37C331.033 875.997 331.553 876.269 331.679 877.175C332.208 880.961 327.612 885.468 325.422 888.146C324.402 887.716 324.346 887.7 323.779 886.755C324.179 882.444 327.692 878.514 330.431 875.37Z"/>
	<path fill="#2C2927" d="M319.918 856.693C322.728 858.19 327.619 861.058 329.106 863.911C329.958 865.545 329.481 866.212 329.017 867.853C326.218 866.272 320.522 863.437 319.249 860.289C318.602 858.689 319.23 858.104 319.918 856.693Z"/>
	<path fill="#2C2927" d="M346.255 850.462C347.511 851.061 347.618 850.979 348.159 852.238C347.317 856.94 343.388 860.956 340.543 864.666C339.362 864.116 339.268 864.152 338.694 863.001C339.323 858.513 343.635 854.076 346.255 850.462Z"/>
	<path fill="#2C2927" d="M338.918 873.914C342.407 874.044 345.304 875.294 347.746 877.872C349.722 879.957 350.664 881.64 350.57 884.535C349.54 884.49 348.975 884.42 348.03 883.943C344.172 881.997 340.406 877.915 338.918 873.914Z"/>
	<path fill="#2C2927" d="M141.161 788.228C141.876 788.535 142.564 788.835 143.177 789.323C147.057 792.413 154.649 803.927 155.269 808.803C153.799 808.518 152.83 807.782 151.768 806.764C147.538 802.71 141.408 794.096 141.161 788.228Z"/>
	<path fill="#2C2927" d="M109.182 742.217C113.061 743.145 116.052 747.251 118.43 750.249C121.063 753.569 125.093 758.04 124.589 762.478C124.011 762.193 123.772 762.102 123.268 761.767C118.909 758.875 110.186 747.313 109.182 742.217Z"/>
	<path fill="#2C2927" d="M148.346 736.199C149.409 736.727 149.604 736.79 150.217 737.789C150.413 744.763 145.686 752.958 142.892 759.214L142.411 759.256C141.812 758.801 141.295 758.635 141.105 757.857C139.909 752.959 146.107 740.783 148.346 736.199Z"/>
	<path fill="#2C2927" d="M111.606 777.255C112.64 777.152 113.679 777.041 114.717 776.986C116.67 776.882 117.307 777.26 118.755 778.526L118.735 779.431C114.951 782.3 104.617 781.301 99.875 781.264C98.5144 781.317 96.439 781.385 95.2206 780.77C94.3632 780.337 94.2488 780.188 93.9836 779.269C97.2254 776.546 107.293 777.278 111.606 777.255Z"/>
	<path fill="#2C2927" d="M125.733 788.679C126.291 789.111 127.074 789.469 127.268 790.184C128.502 794.71 120.911 807.375 118.503 811.739C117.546 811.171 116.958 811.008 116.763 809.788C115.96 804.773 123.017 792.951 125.733 788.679Z"/>
	<path fill="#2C2927" d="M156.772 772.246C161.137 771.905 169.74 771.464 173.501 773.707C173.366 773.853 173.249 774.018 173.097 774.145C170.522 776.303 165.513 776.018 162.376 776.089C158.165 776.357 151.382 776.877 147.505 775.112C146.573 774.688 146.751 774.662 146.393 773.811L147.125 772.791C149.661 771.835 153.99 772.294 156.772 772.246Z"/>
	<path fill="#2C2927" d="M96.5324 596.594C100.851 596.123 104.769 596.208 108.732 598.226Q109.473 598.605 110.172 599.057Q110.871 599.508 111.521 600.028Q112.172 600.548 112.766 601.13Q113.36 601.713 113.893 602.353Q114.426 602.992 114.891 603.682Q115.357 604.372 115.75 605.105Q116.144 605.839 116.462 606.608Q116.779 607.378 117.018 608.175C118.246 612.271 117.895 616.787 115.831 620.555C113.403 624.989 109.742 627.007 105.127 628.463C102.242 629.239 98.7965 629.039 95.9594 628.174C91.6858 626.871 88.2837 623.717 86.367 619.718Q86.0049 618.98 85.7175 618.209Q85.4301 617.439 85.2203 616.644Q85.0105 615.849 84.8803 615.037Q84.7501 614.225 84.7008 613.404Q84.6515 612.583 84.6836 611.761Q84.7157 610.94 84.8288 610.125Q84.942 609.311 85.1351 608.511Q85.3282 607.712 85.5994 606.936C87.5634 601.419 91.4697 598.863 96.5324 596.594Z"/>
	<path fill="#FAECD6" d="M98.3164 599.517C100.68 599.617 103.035 599.68 105.273 600.546C108.786 601.905 111.817 604.772 113.285 608.243C114.587 611.324 114.669 614.826 113.253 617.885C111.353 621.986 107.945 623.94 103.917 625.46C101.736 625.623 99.2813 625.343 97.1684 624.742C93.8185 623.789 90.9946 621.622 89.468 618.462C87.9723 615.367 87.8588 611.6 89.0323 608.382C90.8015 603.531 93.9577 601.669 98.3164 599.517Z"/>
	<path fill="#FAECD6" d="M61.2216 216.479C62.4139 211.032 63.4842 205.478 65.2355 200.179Q66.0388 197.774 66.9425 195.405Q67.8463 193.036 68.8488 190.707Q69.8514 188.378 70.9511 186.093Q72.0507 183.808 73.2455 181.571Q74.4403 179.335 75.7281 177.15Q77.0159 174.966 78.3944 172.838Q79.7729 170.71 81.2397 168.641Q82.7065 166.573 84.2591 164.568Q85.8116 162.563 87.447 160.626Q89.0825 158.688 90.798 156.82Q92.5135 154.953 94.3061 153.16Q96.0986 151.366 97.965 149.65Q99.8313 147.933 101.768 146.297Q103.705 144.66 105.709 143.107Q107.713 141.553 109.781 140.085Q111.848 138.618 113.976 137.238Q115.486 136.263 117.026 135.336C135.47 124.245 156.095 118.232 177.257 115.072C194.901 112.437 212.984 112.276 230.788 112.436C295.637 113.019 359.177 124.272 423.001 134.525C469.73 142.032 518.45 150.188 565.581 154.017C599.813 156.798 636.956 156.334 670.747 149.935C737.614 137.272 814.315 100.606 882.498 115.365C909.525 121.216 931.95 135.447 946.869 158.88C958.828 177.662 965.937 198.73 971.023 220.277C985.468 281.482 981.849 344.208 974.261 406.082Q968.868 452.279 958.89 497.706Q953.342 521.584 946.218 545.041C942.208 544.543 935.776 540.673 931.34 539.525C908.468 533.606 878.884 538.527 858.615 550.342L858.418 543.962C858.55 529.341 858.054 514.723 858.023 500.103L858.043 396.748Q858.084 369.882 857.64 343.019C857.536 330.097 858.046 316.869 856.253 304.043C855.302 297.24 852.146 288.914 847.76 283.636C843.45 278.45 837.471 275.193 830.875 274C813.87 270.924 796.001 271.393 778.777 270.956L704.854 269.142L452.957 263.552Q405.42 262.617 357.9 261.042C347.778 260.661 337.215 261.232 327.167 260.267L326.588 260.206C319.525 253.86 311.123 248.272 303.196 243.061C260.654 215.094 200.844 191.062 149.473 190.013C117.914 189.369 85.0435 193.638 61.2216 216.479Z"/>
	<path fill="#2C2927" d="M918.565 371.811C918.897 371.884 919.234 371.939 919.562 372.031C923.631 373.183 927.642 377.259 929.833 380.706C927.769 380.735 926.355 380.463 924.527 379.472C921.38 377.766 919.577 375.19 918.565 371.811Z"/>
	<path fill="#2C2927" d="M908.314 371.805C908.531 371.917 908.77 371.995 908.965 372.141C909.481 372.528 909.798 372.989 909.746 373.63C909.488 376.858 905.053 380.153 902.735 382.188C901.68 381.557 901.618 381.786 901.225 380.531C902.043 376.944 905.75 374.24 908.314 371.805Z"/>
	<path fill="#2C2927" d="M926.409 351.311C927.023 351.449 927.399 351.707 927.933 352.028L928.081 353.204C926.938 356.643 923.884 359.152 921.368 361.627C920.231 361.262 920.222 361.252 919.554 360.262C919.759 357.033 924.248 353.503 926.409 351.311Z"/>
	<path fill="#2C2927" d="M898.336 353.247C899.91 353.415 901.182 353.777 902.544 354.577C905.774 356.477 908.744 359.357 909.778 363.039C909.168 363.007 908.599 362.986 908.014 362.787C903.586 361.283 900.478 357.181 898.336 353.247Z"/>
	<path fill="#2C2927" d="M880.169 177.647C880.924 177.963 881.481 178.375 882.075 178.93C885.644 182.26 891.8 190.129 892.049 195.079C891.327 194.874 890.808 194.625 890.229 194.139C885.878 190.488 880.761 183.347 880.169 177.647Z"/>
	<path fill="#2C2927" d="M905.624 226.393C907.532 226.71 908.564 227.473 909.855 228.877C913.232 232.549 915.688 237.791 915.4 242.807C915.186 242.677 914.967 242.552 914.756 242.415C910.723 239.803 906.515 230.901 905.624 226.393Z"/>
	<path fill="#2C2927" d="M890.973 223.696L892.009 224.166L892.369 225.183C891.435 230.896 885.983 237.248 882.526 241.717C882.368 241.637 882.187 241.591 882.053 241.476C881.552 241.05 881.214 240.486 881.206 239.833C881.144 235.112 887.845 227.006 890.973 223.696Z"/>
	<path fill="#2C2927" d="M917.828 174.707C918.401 175.141 918.939 175.286 919.042 176.058C919.722 181.136 912.246 191.29 909.586 195.399C908.721 194.896 908.794 194.671 908.401 193.792C908.878 187.84 914.062 179.232 917.828 174.707Z"/>
	<path fill="#2C2927" d="M863.385 205.669C867.86 205.329 879.747 204.383 883.626 207.222C884.829 208.103 884.678 208.851 884.883 210.238C879.865 210.42 873.551 210.019 868.651 208.924C866.026 208.337 864.842 207.992 863.385 205.669Z"/>
	<path fill="#2C2927" d="M913.229 209.53C917.993 209.33 934.515 210.543 937.913 213.407C938.592 213.979 938.322 214.497 938.312 215.31C933.603 215.982 918.886 214.404 914.637 211.939C913.516 211.288 913.578 210.715 913.229 209.53Z"/>
	<path fill="#2C2927" d="M385.801 159.709C390.911 159.642 395.761 160.777 399.995 163.755C404.875 167.187 408.114 172.738 409.113 178.582C410.168 184.743 408.388 191.056 404.613 195.995C400.271 201.676 394.469 203.81 387.631 204.69C382.726 204.479 378.224 203.508 374 200.897Q373.536 200.613 373.086 200.307Q372.636 200.001 372.202 199.672Q371.768 199.344 371.351 198.995Q370.933 198.645 370.534 198.275Q370.134 197.906 369.754 197.517Q369.373 197.128 369.012 196.721Q368.651 196.313 368.311 195.888Q367.971 195.464 367.652 195.023Q367.333 194.581 367.037 194.125Q366.74 193.669 366.467 193.198Q366.193 192.728 365.943 192.244Q365.693 191.761 365.468 191.266Q365.242 190.77 365.041 190.265Q364.84 189.759 364.665 189.244Q364.489 188.728 364.339 188.205Q364.19 187.682 364.066 187.152Q363.945 186.624 363.852 186.09Q363.758 185.556 363.691 185.018Q363.624 184.481 363.584 183.94Q363.544 183.4 363.532 182.858Q363.519 182.316 363.534 181.775Q363.549 181.233 363.591 180.693Q363.633 180.152 363.702 179.615Q363.771 179.077 363.867 178.544Q363.963 178.011 364.086 177.483Q364.209 176.955 364.358 176.434Q364.507 175.913 364.683 175.401Q364.858 174.888 365.059 174.384Q365.26 173.881 365.485 173.389Q365.711 172.896 365.962 172.415Q366.212 171.935 366.486 171.467Q366.761 171 367.058 170.547C371.462 163.856 378.286 161.176 385.801 159.709Z"/>
	<path fill="#FAECD6" d="M383.611 164.581Q384.75 164.475 385.893 164.485Q387.036 164.494 388.173 164.619Q389.31 164.743 390.428 164.981Q391.546 165.22 392.635 165.569Q393.062 165.705 393.481 165.864Q393.9 166.022 394.31 166.202Q394.721 166.381 395.121 166.582Q395.522 166.783 395.911 167.004Q396.301 167.225 396.678 167.466Q397.056 167.707 397.421 167.967Q397.785 168.228 398.136 168.506Q398.487 168.785 398.823 169.082Q399.158 169.378 399.478 169.692Q399.798 170.005 400.102 170.335Q400.405 170.665 400.691 171.009Q400.977 171.354 401.245 171.714Q401.512 172.073 401.761 172.445Q402.01 172.818 402.239 173.203Q402.468 173.588 402.677 173.984Q402.886 174.38 403.074 174.787Q403.263 175.184 403.431 175.59Q403.599 175.996 403.746 176.41Q403.893 176.825 404.018 177.246Q404.144 177.667 404.248 178.094Q404.351 178.521 404.433 178.953Q404.515 179.385 404.574 179.82Q404.634 180.256 404.671 180.694Q404.708 181.132 404.723 181.571Q404.737 182.01 404.729 182.45Q404.721 182.889 404.691 183.327Q404.66 183.766 404.607 184.202Q404.554 184.638 404.479 185.071Q404.404 185.504 404.306 185.933Q404.209 186.362 404.09 186.785Q403.97 187.208 403.83 187.624Q403.689 188.04 403.527 188.449C401.064 194.547 396.357 197.298 390.644 199.777C386.529 200.306 382.103 200.07 378.277 198.376Q377.52 198.044 376.801 197.637Q376.081 197.23 375.406 196.754Q374.731 196.277 374.107 195.735Q373.483 195.193 372.917 194.592Q372.351 193.99 371.847 193.334Q371.344 192.679 370.909 191.976Q370.474 191.274 370.112 190.531Q369.749 189.788 369.463 189.013Q369.144 188.174 368.91 187.308Q368.677 186.442 368.532 185.556Q368.387 184.671 368.331 183.775Q368.276 182.88 368.31 181.983Q368.345 181.086 368.47 180.198Q368.594 179.309 368.807 178.438Q369.021 177.566 369.32 176.72Q369.62 175.874 370.003 175.063C372.813 169.233 377.735 166.5 383.611 164.581Z"/>
	<path fill="#2C2927" d="M382.142 168.503C384.641 168.472 387.254 168.357 389.682 169.04C393.568 170.132 396.99 172.682 398.924 176.25C400.556 179.262 401.017 182.866 399.931 186.143C398.453 190.598 394.962 193.13 391.005 195.245C388.523 195.809 386.141 196.084 383.606 195.681C380.05 195.114 376.899 193.331 374.847 190.332C372.716 187.217 372.017 183.173 372.83 179.502C374.045 174.019 377.643 171.249 382.142 168.503Z"/>
	<path fill="#FAECD6" d="M384.126 173.017C385.159 172.989 386.193 172.953 387.225 173.025C389.746 173.202 392.45 174.627 393.998 176.636C395.424 178.488 395.932 180.807 395.557 183.099C394.903 187.09 392.364 189.064 389.303 191.28C385.707 191.758 383.764 190.912 380.614 189.377Q379.815 188.345 379.075 187.27C377.67 185.188 377.025 182.703 377.601 180.22C378.419 176.694 381.172 174.734 384.126 173.017Z"/>
	<path fill="#2C2927" d="M61.2216 216.479C85.0435 193.638 117.914 189.369 149.473 190.013C200.844 191.062 260.654 215.094 303.196 243.061C311.123 248.272 319.525 253.86 326.588 260.206L327.167 260.267C337.215 261.232 347.778 260.661 357.9 261.042Q405.42 262.617 452.957 263.552L704.854 269.142L778.777 270.956C796.001 271.393 813.87 270.924 830.875 274C837.471 275.193 843.45 278.45 847.76 283.636C852.146 288.914 855.302 297.24 856.253 304.043C858.046 316.869 857.536 330.097 857.64 343.019Q858.084 369.882 858.043 396.748L858.023 500.103C858.054 514.723 858.55 529.341 858.418 543.962C857.758 553.122 857.962 562.365 858.038 571.542C877.389 556.11 895.6 546.019 920.759 544.445C922.622 553.122 924.746 561.533 925.785 570.369C930.412 609.748 925.194 657.876 903.353 691.79Q898.065 699.923 892.035 707.522Q886.005 715.121 879.287 722.12C872.627 729.185 865.452 736.033 859.218 743.466L859.266 763.933C859.272 776.04 859.846 788.935 850.695 798.218C844.74 804.261 836.962 807.34 829.809 811.612C821.425 816.619 813.41 823.138 804 826.085C797.604 828.087 790.687 828.054 784.05 828.043C762.723 828.008 741.29 826.426 720.012 825.059C709.812 824.404 699.266 823.257 689.056 823.413C678.49 823.414 667.79 822.455 657.222 821.926L596.623 818.905L410.305 809.674L286.017 803.566C270.891 802.947 255.779 801.895 240.663 801.291C230.6 800.888 220.21 801.213 210.233 799.873C202.516 798.838 196.131 795.861 190.521 790.436C185.592 785.671 181.33 778.623 179.98 771.861C178.552 764.708 179.024 756.655 179.017 749.373Q179.061 733.664 178.895 717.956C177.857 660.39 178.432 602.814 177.549 545.246C176.795 544.932 176.062 544.617 175.327 544.259C137.522 525.866 115.782 486.249 102.055 448.229C98.2273 437.628 95.3225 426.792 91.7793 416.109C83.8163 408.618 66.0763 376.709 60.7925 365.591C57.9726 359.657 56.001 352.99 52.6268 347.384C51.7103 341.74 48.6887 335.343 46.9496 329.804Q44.1688 321.112 42.3684 312.166Q40.5681 303.219 39.7704 294.128C37.1496 264.314 41.7473 239.713 61.2216 216.479Z"/>
	<path fill="#7F7F7C" d="M806.505 349.953C809.648 350.044 812.822 350.052 815.956 350.302C815.94 362.896 816.43 375.715 815.882 388.285C813.443 379.276 817.318 364.983 815.223 356.028C814.919 354.729 814.633 354.423 813.511 353.757C811.758 353.792 810.925 354.337 809.486 355.293L808.74 353.317C808.962 352.227 809.357 351.509 808.839 350.488L806.505 349.953Z"/>
	<path fill="#D2CCC4" d="M765.713 349.083C779.359 348.958 792.86 350.327 806.505 349.953L808.839 350.488C809.357 351.509 808.962 352.227 808.74 353.317C804.233 351.215 793.755 352.341 788.401 351.887C783.397 351.462 778.455 350.387 773.466 349.831C770.847 349.539 768.317 349.636 765.713 349.083Z"/>
	<path fill="#626160" d="M833.781 781.755C837.093 782.412 839.716 780.135 842.386 778.461C840.731 787.746 837.566 793.688 830.586 800.055C831.215 797.915 832.061 795.668 832.313 793.453C833.706 789.63 833.63 785.776 833.781 781.755Z"/>
	<path fill="#FAECD6" d="M159.179 529.246C165.389 529.036 171.584 529.201 177.794 529.343C177.818 533.491 177.73 537.538 177.326 541.667C172.922 540.411 166.714 536.412 162.922 533.636C161.444 532.554 159.503 531.162 159.179 529.246Z"/>
	<path fill="#626160" d="M822.322 783.098C822.504 783.989 822.411 784.002 823.078 784.717C825.295 784.297 826.845 782.505 828.84 781.526C829.109 781.394 829.381 781.268 829.651 781.139C829.029 785.534 828.38 789.921 827.985 794.344Q827.72 795.508 827.4 796.658C825.262 804.198 819.826 807.939 813.369 811.516C818.007 803.679 821.78 794.707 822.099 785.435C822.138 784.302 822.081 784.744 822.231 783.664C822.258 783.475 822.292 783.287 822.322 783.098Z"/>
	<path fill="#626160" d="M110.137 257.783C112.897 259.971 120.01 285.768 121.363 290.798L116.399 288.015C111.628 285.718 106.892 283.52 101.949 281.605C104.595 273.64 107.15 265.628 110.137 257.783Z"/>
	<path fill="#626160" d="M113.502 253.869C120.366 257.525 127.105 263.253 133.403 267.934Q130.588 276.445 127.543 284.876L125.264 291.903Q119.825 272.749 113.502 253.869Z"/>
	<path fill="#FAECD6" d="M97.2787 422.117L97.9841 421.958C101.251 426.082 103.844 430.767 106.879 435.072C110.721 440.523 115.211 445.682 119.611 450.697C121.801 453.193 127.858 458.692 128.494 461.678Q118.468 458.983 108.482 456.145C106.967 451.472 104.987 446.926 103.366 442.283C101.052 435.657 99.1726 428.872 97.2787 422.117Z"/>
	<path fill="#7F7F7C" d="M886.013 708.748L886.321 709.188L886.44 709.135L884.701 710.487L885.483 711.15L884.726 711.42L884.88 711.196C879.422 716.611 872.354 725.452 867.108 729.949C864.905 731.838 862.771 731.548 860.045 731.248C857.992 728.148 859.141 715.57 859.254 711.538C868.186 711.484 877.188 709.985 886.013 708.748Z"/>
	<path fill="#D2CCC4" d="M779.21 299.537C788.982 299.358 799.679 300.227 807.196 307.274C814.741 314.348 816.206 324.115 816.32 333.913Q816.353 338.571 816.27 343.228C811.213 343.454 805.849 343.916 800.842 343.061C803.522 342.732 806.265 342.996 808.957 343.118C809.12 334.102 808.64 324.215 804.138 316.158C798.51 306.086 789.8 302.523 779.21 299.537Z"/>
	<path fill="#626160" d="M136.15 467.157C146.122 468.415 168.787 475.874 177.255 480.989C177.308 485.398 177.309 489.814 177.508 494.219C161.74 490.487 147.157 478.677 136.15 467.157Z"/>
	<path fill="#7F7F7C" d="M918.521 552.908C918.584 552.948 918.652 552.981 918.708 553.029C921.752 555.613 922.649 574.064 923.073 578.63C913.697 582.225 904.346 585.977 894.87 589.3L889.948 591.457C898.425 578.101 908.677 565.296 918.521 552.908Z"/>
	<path fill="#D2CCC4" d="M827.776 284.702C830.245 284.661 832.674 284.956 834.984 285.886C840.933 288.282 843.381 294.354 845.859 299.771C837.835 302.989 830 306.465 822.171 310.134C822 310.196 821.832 310.267 821.657 310.319C821.273 310.433 820.221 310.608 819.857 310.319C819.117 309.732 818.162 307.954 817.572 307.136C813.607 301.645 810.64 298.025 804.461 294.896C812.304 290.356 818.875 286.776 827.776 284.702Z"/>
	<path fill="#7F7F7C" d="M915.166 548.156L915.861 548.332L915.927 549.29C913.226 554.654 887.782 589.078 883.716 592.246C881.555 581.618 881.549 570.14 881.483 559.312C891.838 553.056 903.215 549.684 915.166 548.156Z"/>
	<path fill="#626160" d="M101.151 284.257C106.889 286.893 114.011 289.415 118.964 293.356C125.763 298.767 129.621 316.209 132.103 324.62C132.661 326.511 133.653 328.387 133.845 330.343C132.575 330.136 131.548 328.791 130.593 327.926C119.641 319.208 108.417 308.969 95.6071 303.064C97.1707 296.714 99.2003 290.496 101.151 284.257Z"/>
	<path fill="#FAECD6" d="M133.128 501.979C148.001 502.542 162.901 503.39 177.783 503.528Q177.871 514.936 177.735 526.344C170.426 525.448 161.655 525.371 154.349 526.3C145.629 519.95 139.059 510.864 133.128 501.979Z"/>
	<path fill="#7F7F7C" d="M876.601 561.9C876.673 561.923 876.755 561.924 876.817 561.969C879.16 563.654 880.309 592.278 880.617 596.892C873.205 608.071 866.579 617.605 860.642 629.801C860.115 630.567 860.474 630.24 859.488 630.688C858.183 628.254 858.508 581.482 858.497 575.459C863.751 570.211 870.454 566.026 876.601 561.9Z"/>
	<path fill="#626160" d="M177.18 331.842C179.231 339.612 177.809 352.937 177.799 361.288L177.502 431.495C175.193 427.139 173.496 422.423 171.66 417.851C166.102 406.295 161.274 393.738 156.959 381.675C166.366 366.093 169.876 348.262 177.18 331.842Z"/>
	<path fill="#7F7F7C" d="M907.572 673.127C908.339 672.924 908.614 672.975 909.375 673.103C909.457 678.753 895.095 698.582 890.851 704.061C881.149 706.221 870.753 706.814 860.899 708.337C860.055 708.096 860.515 708.31 859.626 707.505C857.605 701.27 858.687 690.078 858.692 683.209C865.227 682.013 871.824 681.345 878.363 680.039C888.183 678.078 897.829 675.419 907.572 673.127Z"/>
	<path fill="#7F7F7C" d="M921.699 582.539L922.688 582.987C924.847 588.137 923.633 600.039 923.51 606.091C919.242 608.115 914.513 609.582 910.092 611.275Q896.871 616.395 883.74 621.74C878.31 623.927 872.654 625.9 867.468 628.606C866.907 628.559 866.489 628.376 865.966 628.179C865.927 627.195 866.141 626.555 866.553 625.682C868.121 622.357 870.421 619.336 872.244 616.14C880.482 601.701 885.784 596.281 901.157 590.187Q911.357 586.173 921.699 582.539Z"/>
	<path fill="#626160" d="M136.918 269.976Q148.682 277.364 159.91 285.543C153.313 302.18 148.516 319.092 143.701 336.305L142.058 343.357C136.084 328.481 131.709 312.536 127.059 297.192Q131.774 283.506 136.918 269.976Z"/>
	<path fill="#FAECD6" d="M131.006 498.488C121.608 487.508 115.958 472.778 109.857 459.793C118.585 462.362 127.399 464.664 136.15 467.157C147.157 478.677 161.74 490.487 177.508 494.219L177.518 500.345C162.009 499.783 146.534 498.598 131.006 498.488Z"/>
	<path fill="#7F7F7C" d="M921.979 610.497L922.585 610.768C924.445 616.089 920.933 630.911 920.405 637.316C899.992 641.499 880.23 648.236 859.928 653.005C857.967 648.44 858.95 643.339 859.428 638.545C860.918 637.138 862.015 635.408 863.19 633.74C869.588 630.948 876.328 628.736 882.806 626.104C895.832 620.812 908.749 615.27 921.979 610.497Z"/>
	<path fill="#7F7F7C" d="M917.48 641.126C918.403 641.049 917.9 640.986 918.95 641.509C920.124 647.251 913.951 662.342 911.583 668.266C894.749 673.518 877.56 677.614 859.983 679.357C857.111 675.767 858.693 661.602 859.009 657.078C878.781 652.603 897.746 645.534 917.48 641.126Z"/>
	<path fill="#626160" d="M94.8015 306.457C95.6399 306.784 96.4209 307.195 97.2138 307.619C103.949 311.222 110.219 315.707 116.328 320.274C138.381 336.758 142.664 349.362 150.342 374.844L147.354 372.397C127.384 355.928 112.573 346.23 89.3451 334.634C91.4265 325.319 93.0006 315.833 94.8015 306.457Z"/>
	<path fill="#626160" d="M162.476 287.209C168.745 290.245 173.845 294.947 178.833 299.712C178.607 305.553 178.287 311.317 177.146 317.064C173.895 333.444 164.053 356.707 157.727 372.623L155.274 377.94C154.392 373.886 152.391 369.936 150.885 366.072C148.541 360.055 146.328 353.99 143.942 347.988Q152.339 317.333 162.476 287.209Z"/>
	<path fill="#626160" d="M94.3178 412.82C110.496 420.123 125.636 429.098 141.123 437.714C153.197 444.431 165.526 450.75 177.517 457.602L177.465 477.091C161.461 470.171 145.193 466.317 128.494 461.678C127.858 458.692 121.801 453.193 119.611 450.697C115.211 445.682 110.721 440.523 106.879 435.072C103.844 430.767 101.251 426.082 97.9841 421.958L97.2787 422.117C95.9096 419.314 95.4077 415.815 94.3178 412.82Z"/>
	<path fill="#626160" d="M89.311 338.658Q96.4896 342.159 103.598 345.8C112.178 350.242 120.17 355.841 128.065 361.388C138.785 368.921 150.378 376.678 156.283 388.773C157.799 391.878 158.632 395.232 159.936 398.426C162.237 404.065 164.934 409.597 166.778 415.408L166.149 415.701C161.336 412.131 156.742 408.269 151.818 404.844C133.66 392.213 108.612 378.848 87.3708 372.354Q86.854 363.902 87.3407 355.448Q87.8275 346.995 89.311 338.658Z"/>
	<path fill="#D2CCC4" d="M187.731 331.892C243.314 332.708 298.933 335.344 354.502 336.916C374.552 337.483 394.627 337.827 414.669 338.629C421.437 338.9 428.917 338.398 435.543 339.435L434.952 339.486C431.295 339.767 426.768 338.794 423.375 339.872C423.663 340.656 423.419 340.349 423.995 340.767C425.106 341.573 425.739 342.1 426.357 343.373C426.278 345.351 425.187 345.913 424.802 347.703C426.899 348.18 429.023 347.952 431.106 348.438C411.606 348.995 391.682 347.561 372.16 346.989L274.626 344.154C255.184 343.453 233.992 341.557 214.738 342.64C211.773 342.807 209.49 343.162 206.933 344.769C202.036 339.592 194.306 334.471 187.731 331.892Z"/>
	<path fill="#626160" d="M88.4665 375.949C111.147 383.464 148.614 402.558 165.765 419.465C175.407 428.971 177.651 440.424 177.787 453.446C174.243 452.818 167.917 448.498 164.461 446.643Q147.575 437.583 130.966 428.024C118.963 421.098 107.354 413.679 94.1521 409.202C92.0648 400.081 88.3571 384.977 88.4665 375.949Z"/>
	<defs>
		<linearGradient id="gradient_0" gradientUnits="userSpaceOnUse" x1="532.86273" y1="667.08643" x2="877.48767" y2="561.40869">
			<stop offset="0" stop-color="#68966D"/>
			<stop offset="1" stop-color="#919D86"/>
		</linearGradient>
	</defs>
	<path fill="url(#gradient_0)" d="M809.486 355.293C810.925 354.337 811.758 353.792 813.511 353.757C814.633 354.423 814.919 354.729 815.223 356.028C817.318 364.983 813.443 379.276 815.882 388.285C816.598 471.108 814.822 553.94 815.2 636.771L815.571 735.797C815.649 753.945 816.86 773.245 815.107 791.244C814.488 797.592 812.581 803.116 808.009 807.749C800.531 815.324 790.147 816.52 780.039 816.408C761.104 816.198 742.215 814.682 723.31 813.778C691.875 812.276 660.504 810.959 629.097 808.892L594.215 806.68C583.701 806.053 573.252 805.77 562.918 803.552C580.881 802.908 598.998 804.594 616.946 805.195C624.299 805.442 631.652 804.973 638.997 805.224C666.013 806.146 693.136 807.774 720.132 809.274C740.952 810.431 763.674 813.113 784.421 811.964C791.092 811.595 800.375 810.865 805.007 805.426C809.511 800.137 810.296 793.85 810.53 787.203C811.13 770.113 808 752.389 808.029 734.883L809.019 540.438L809.299 415.174L809.49 376.873C809.55 369.676 810.112 362.475 809.486 355.293Z"/>
	<path fill="#7F7F7C" d="M849.512 307.705L849.989 499C850.082 531.406 849.628 563.841 850.026 596.242C850.479 633.049 849.94 669.855 850.274 706.66Q850.623 729.731 850.53 752.805C850.533 760.609 850.969 768.703 850.282 776.466C849.695 783.104 847.197 788.149 843.438 793.537C846.042 780.476 845.719 767.097 845.866 753.839L846.243 719.372Q846.473 656.772 845.777 594.176C845.715 582.558 845.443 570.922 845.599 559.307C845.772 546.334 847.074 524.574 844.551 512.358C843.641 514.976 843.008 517.595 842.727 520.352C841.869 528.748 842.522 537.603 842.412 546.074Q842.257 585.451 842.952 624.821Q843.165 668.271 842.809 711.719L842.56 751.424C842.531 760.411 842.825 769.486 842.386 778.461C839.716 780.135 837.093 782.412 833.781 781.755C833.63 785.776 833.706 789.63 832.313 793.453C832.081 793.642 831.839 793.821 831.615 794.021C830.191 795.286 829.624 799.056 828.38 799.668C827.974 797.834 827.917 796.218 827.985 794.344C828.38 789.921 829.029 785.534 829.651 781.139C829.381 781.268 829.109 781.394 828.84 781.526C826.845 782.505 825.295 784.297 823.078 784.717C822.411 784.002 822.504 783.989 822.322 783.098C823.185 770.396 822.516 757.32 822.517 744.565L822.252 661.749L822.273 435.8C822.273 397.287 821.314 358.756 822.359 320.247C824.812 319.079 827.263 318.023 829.795 317.04C830.608 344.039 830.278 371.248 829.997 398.255C829.872 410.28 827.904 426.754 830.329 438.265C834.414 435.864 838.772 432.921 842.352 429.817C843.778 428.58 846.033 426.751 846.164 424.764C845.398 423.613 845.335 423.644 844.009 423.209C840.984 423.455 835.462 429.532 833.037 431.722L832.986 417.375C834.918 416.123 836.86 414.875 838.741 413.548C840.714 412.158 844.789 409.466 845.199 407.033L844.49 406.525C840.264 406.362 836.365 410.072 833.029 412.425Q832.651 363.847 834.017 315.287C839.094 312.591 844.325 310.181 849.512 307.705Z"/>
	<path fill="#2C2927" d="M829.651 781.139C831.055 769.891 830.169 758.761 830.072 747.482L829.509 688.029C829.431 669.614 829.882 651.167 829.979 632.75Q830.178 576.961 829.724 521.174C829.606 511.955 830.048 502.399 829.325 493.243C828.47 482.419 825.058 473.077 827.037 461.955C827.911 457.046 829.831 450.747 834.239 447.948C836.288 446.647 839.526 446.099 841.85 446.94C843.823 447.653 845.065 449.504 845.965 451.304C850.816 460.993 850.242 478.334 846.859 488.416C845.741 491.747 844.009 495.109 840.67 496.672C837.922 497.959 835.607 496.899 832.963 495.992C834.198 507.625 833.508 519.828 833.504 531.53L833.735 591.833L834.298 711.601C834.301 734.964 834.75 758.411 833.781 781.755C833.63 785.776 833.706 789.63 832.313 793.453C832.081 793.642 831.839 793.821 831.615 794.021C830.191 795.286 829.624 799.056 828.38 799.668C827.974 797.834 827.917 796.218 827.985 794.344C828.38 789.921 829.029 785.534 829.651 781.139Z"/>
	<path fill="#FAECD6" d="M838.337 452.748C838.461 452.825 838.589 452.897 838.71 452.98C841.822 455.106 843.183 458.092 843.886 461.714C845.698 471.055 843.962 482.876 838.717 490.85C838.259 490.679 838.28 490.704 837.778 490.412C834.885 488.727 833.546 485.054 832.972 481.931C831.115 471.822 832.426 461.225 838.337 452.748Z"/>
	<path fill="#7F7F7C" d="M61.2216 216.479C85.0435 193.638 117.914 189.369 149.473 190.013C200.844 191.062 260.654 215.094 303.196 243.061C311.123 248.272 319.525 253.86 326.588 260.206L265.223 258.33C250.165 257.76 233.7 255.369 218.816 258.172C208.049 260.199 198.031 264.828 190.012 272.378C183.375 278.626 179.863 286.23 178.591 295.18C163.699 283.063 148.068 273.121 132.321 262.272C125.302 257.435 116.694 249.682 108.893 246.67L107.393 246.983L107.562 246.318L107 246.796C106.92 248.381 107.623 249.316 108.327 250.655C108.431 250.852 108.528 251.052 108.629 251.251C95.1649 287.174 80.3666 335.257 84.0716 373.921C84.9604 383.197 86.6035 392.299 88.573 401.401C89.619 406.236 91.134 411.221 91.7793 416.109C83.8163 408.618 66.0763 376.709 60.7925 365.591C57.9726 359.657 56.001 352.99 52.6268 347.384C51.7103 341.74 48.6887 335.343 46.9496 329.804Q44.1688 321.112 42.3684 312.166Q40.5681 303.219 39.7704 294.128C37.1496 264.314 41.7473 239.713 61.2216 216.479Z"/>
	<path fill="#FAECD6" d="M189.57 282.764C207.228 280.589 226.231 282.373 243.995 282.889L348.952 286.459L779.21 299.537C789.8 302.523 798.51 306.086 804.138 316.158C808.64 324.215 809.12 334.102 808.957 343.118C806.265 342.996 803.522 342.732 800.842 343.061C792.805 343.169 784.653 342.649 776.612 342.41L728.761 340.939L587.463 336.683Q387.519 330.082 187.501 326.218C187.442 314.606 185.792 292.778 189.57 282.764Z"/>
	<path fill="#2C2927" d="M239.577 292.511C241.836 292.424 244.147 292.439 246.352 292.994C250.197 293.961 253.573 296.246 255.557 299.72Q255.901 300.325 256.181 300.963Q256.46 301.6 256.672 302.264Q256.884 302.927 257.025 303.608Q257.167 304.29 257.237 304.983Q257.307 305.675 257.305 306.371Q257.303 307.068 257.228 307.76Q257.154 308.452 257.008 309.133Q256.862 309.813 256.646 310.475C255.044 315.258 251.406 318.069 247.044 320.22C243.886 320.537 240.966 320.641 237.934 319.526C234.365 318.214 231.467 315.591 229.955 312.081C228.436 308.553 228.319 304.385 229.797 300.821C231.738 296.142 235.141 294.284 239.577 292.511Z"/>
	<path fill="#FB9950" d="M239.777 296.564L246.994 296.496C251.048 299.594 252.356 301.723 253.599 306.602C252.179 311.5 250.662 313.87 246.407 316.743C244.993 317.078 243.468 317.091 242.026 316.91C239.115 316.545 236.452 315.15 234.783 312.702C233.092 310.219 232.603 307.06 233.303 304.155C234.238 300.277 236.447 298.489 239.777 296.564Z"/>
	<path fill="#2C2927" d="M275.045 293.498C277.464 293.433 280.1 293.219 282.461 293.81C286.575 294.839 290.289 297.48 292.364 301.21C294.186 304.485 294.745 308.45 293.607 312.049C292.193 316.522 288.646 319.391 284.587 321.399C282.183 321.758 279.641 322.039 277.227 321.64C273.433 321.013 270.039 318.953 267.911 315.725C265.824 312.558 265.137 308.447 265.893 304.75C267.029 299.191 270.664 296.493 275.045 293.498Z"/>
	<path fill="#5A896D" d="M276.579 297.53C278.263 297.46 280.075 297.303 281.718 297.763C284.541 298.553 287.161 300.484 288.558 303.083Q288.797 303.523 288.991 303.985Q289.184 304.447 289.331 304.926Q289.477 305.405 289.574 305.896Q289.672 306.387 289.719 306.885Q289.767 307.384 289.764 307.885Q289.762 308.385 289.709 308.883Q289.656 309.381 289.553 309.872Q289.45 310.362 289.299 310.839C288.078 314.648 285.466 316.559 282.003 318.22C278.878 318.434 276.464 317.77 273.547 316.671C272.73 315.744 271.896 314.807 271.25 313.75C269.712 311.234 268.99 308.119 269.789 305.228C270.803 301.564 273.46 299.414 276.579 297.53Z"/>
	<path fill="#2C2927" d="M204.552 291.586C204.735 291.572 204.917 291.555 205.1 291.543L206.014 291.489C208.577 291.324 210.829 291.361 213.295 292.188C216.956 293.417 220.017 295.929 221.6 299.491C223.138 302.951 223.06 306.97 221.607 310.442C219.484 315.516 215.54 317.821 210.765 319.896C208.558 320.607 205.901 320.09 203.734 319.387C200.088 318.205 197.338 315.453 195.703 312.03C193.957 308.374 193.48 304.093 194.912 300.25C196.726 295.379 200.071 293.531 204.552 291.586Z"/>
	<path fill="#FB9950" d="M207.372 295.076C209.332 295.272 211.379 295.377 213.155 296.305C215.528 297.544 217.443 299.748 218.243 302.31Q218.391 302.788 218.491 303.279Q218.591 303.77 218.643 304.268Q218.695 304.766 218.698 305.267Q218.701 305.767 218.654 306.266Q218.608 306.764 218.514 307.256Q218.419 307.748 218.277 308.228Q218.134 308.708 217.946 309.172Q217.757 309.636 217.524 310.079C215.85 313.221 213.019 314.987 209.72 316.032C208.043 316.02 206.383 316.024 204.831 315.304Q204.314 315.069 203.824 314.783Q203.334 314.497 202.875 314.162Q202.416 313.828 201.993 313.449Q201.571 313.071 201.188 312.651Q200.806 312.231 200.468 311.775Q200.13 311.319 199.84 310.831Q199.55 310.344 199.311 309.829Q199.071 309.314 198.885 308.778C197.929 305.961 198.062 302.919 199.491 300.29C201.248 297.059 203.991 296.023 207.372 295.076Z"/>
	<path fill="#FAECD6" d="M187.731 331.892C194.306 334.471 202.036 339.592 206.933 344.769C209.49 343.162 211.773 342.807 214.738 342.64C233.992 341.557 255.184 343.453 274.626 344.154L372.16 346.989C391.682 347.561 411.606 348.995 431.106 348.438C429.023 347.952 426.899 348.18 424.802 347.703C425.187 345.913 426.278 345.351 426.357 343.373C425.739 342.1 425.106 341.573 423.995 340.767C423.419 340.349 423.663 340.656 423.375 339.872C426.768 338.794 431.295 339.767 434.952 339.486L435.543 339.435C452.777 339.655 470.022 340.526 487.25 341.037L623.251 345.054L724.127 347.797C737.982 348.247 751.885 347.959 765.713 349.083C768.317 349.636 770.847 349.539 773.466 349.831C778.455 350.387 783.397 351.462 788.401 351.887C793.755 352.341 804.233 351.215 808.74 353.317L809.486 355.293C810.112 362.475 809.55 369.676 809.49 376.873L809.299 415.174L809.019 540.438L808.029 734.883C808 752.389 811.13 770.113 810.53 787.203C810.296 793.85 809.511 800.137 805.007 805.426C800.375 810.865 791.092 811.595 784.421 811.964C763.674 813.113 740.952 810.431 720.132 809.274C693.136 807.774 666.013 806.146 638.997 805.224C631.652 804.973 624.299 805.442 616.946 805.195C598.998 804.594 580.881 802.908 562.918 803.552L350.138 792.639Q295.739 790.099 241.382 786.759C233.125 786.284 224.838 786.858 216.6 786.207C207.824 785.513 200.68 783.158 194.833 776.167C191.281 771.921 190.473 768.26 190.127 762.921C189.304 750.24 189.547 737.328 189.433 724.621Q189.023 694.102 189.028 663.579L188.488 509.689L187.955 383.268C187.946 373.902 188.049 364.517 187.853 355.152C187.691 347.432 187.107 339.598 187.731 331.892Z"/>
	<path fill="#D2CCC4" d="M793.236 364.402C796.904 368.261 796.748 374.054 796.615 379.085C796.529 382.31 796.589 388.741 794.402 391.253C793.485 382.467 793.926 373.288 793.236 364.402Z"/>
	<path fill="#D2CCC4" d="M735.471 355.962C740.178 353.026 775.726 355.261 782.183 356.768Q783.493 357.075 784.797 357.407C776.964 357.758 768.842 357.145 760.987 356.981C752.693 356.807 743.636 357.295 735.471 355.962Z"/>
	<path fill="#626160" d="M792.064 641.959C793.256 654.926 792.288 671.533 792.284 684.855C792.279 700.643 793.384 716.767 791.878 732.48C762.063 732.524 731.832 730.316 702.004 729.179L664.335 727.781C658.278 727.569 651.888 727.817 645.893 727.068C649.089 726.657 652.396 726.748 655.614 726.714L653.676 726.353L653.754 725.736C656.169 724.391 658.566 723.127 661.186 722.223L661.655 722.065C672.163 721.557 683.299 722.833 693.863 723.211C724.646 724.313 755.501 726.542 786.286 727.037C786.636 711.972 786.321 696.907 786.577 681.842C787.641 692.523 787.123 703.962 787.312 714.725L787.503 713.076C788.726 711.956 789.931 710.73 791.306 709.803C791.379 710.38 791.471 710.955 791.517 711.535C791.534 711.755 791.528 711.977 791.534 712.198C792.088 711.617 791.592 648.353 792.064 641.959Z"/>
	<defs>
		<linearGradient id="gradient_1" gradientUnits="userSpaceOnUse" x1="694.16949" y1="616.2746" x2="703.51477" y2="721.42145">
			<stop offset="0" stop-color="#272628"/>
			<stop offset="1" stop-color="#605D4C"/>
		</linearGradient>
	</defs>
	<path fill="url(#gradient_1)" d="M613.652 724.746C609.645 720.629 607.895 716.42 607.238 710.752C606.018 700.208 606.571 688.88 606.516 678.25C606.451 665.371 605.585 647.483 607.546 635.047C608.003 632.147 608.874 628.813 610.843 626.546C613.187 623.849 616.953 622.371 620.451 622.117C629.513 621.46 638.982 622.217 648.059 622.504L700.771 624.305L750.252 625.395C758.484 625.533 766.984 625.04 775.173 625.853C779.634 626.296 784.664 626.751 788.094 629.92C791.547 633.11 791.885 637.573 792.064 641.959C791.592 648.353 792.088 711.617 791.534 712.198C791.528 711.977 791.534 711.755 791.517 711.535C791.471 710.955 791.379 710.38 791.306 709.803C789.931 710.73 788.726 711.956 787.503 713.076L787.312 714.725C787.123 703.962 787.641 692.523 786.577 681.842Q786.344 673.502 786.643 665.164C786.967 655.818 789.644 641.306 784.334 633.122C784.31 633.086 784.288 633.049 784.264 633.012C775.57 629.761 754.274 631.711 744.063 631.482C716.349 630.858 688.623 629.366 660.919 628.361L634.897 627.491C630.001 627.361 624.843 627.614 620.013 626.914C617.596 628.19 613.906 629.816 612.935 632.583C611.759 635.932 612.118 697.566 612.431 705.933C612.568 709.617 612.864 713.405 613.71 717.002C615.085 718.218 616.407 719.442 617.959 720.429C632.516 721.303 647.109 721.215 661.655 722.065L661.186 722.223C658.566 723.127 656.169 724.391 653.754 725.736L653.676 726.353L655.614 726.714C652.396 726.748 649.089 726.657 645.893 727.068C638.963 727.826 620.438 726.589 613.652 724.746Z"/>
	<path fill="#FAECD6" d="M620.013 626.914C624.843 627.614 630.001 627.361 634.897 627.491L660.919 628.361C688.623 629.366 716.349 630.858 744.063 631.482C754.274 631.711 775.57 629.761 784.264 633.012C784.288 633.049 784.31 633.086 784.334 633.122C789.644 641.306 786.967 655.818 786.643 665.164Q786.344 673.502 786.577 681.842C786.321 696.907 786.636 711.972 786.286 727.037C755.501 726.542 724.646 724.313 693.863 723.211C683.299 722.833 672.163 721.557 661.655 722.065C647.109 721.215 632.516 721.303 617.959 720.429C616.407 719.442 615.085 718.218 613.71 717.002C612.864 713.405 612.568 709.617 612.431 705.933C612.118 697.566 611.759 635.932 612.935 632.583C613.906 629.816 617.596 628.19 620.013 626.914Z"/>
	<path fill="#626160" d="M626.367 696.489C651.694 696.454 676.991 698.198 702.3 699.063C723.448 699.786 744.948 699.428 765.998 701.64C767.745 701.823 770.664 701.916 771.95 703.222C772.791 704.076 773.289 705.112 773.198 706.335C773.024 708.678 771.69 710.457 770.066 712.016C763.63 713.369 629.642 707.951 627.179 706.834C625.854 706.233 624.983 704.686 624.667 703.34C624.062 700.761 624.986 698.595 626.367 696.489Z"/>
	<path fill="#626160" d="M626.954 637.891C633.507 638.947 640.698 638.488 647.35 638.733Q685.996 640.402 724.672 641.071C737.493 641.381 750.577 641.008 763.356 641.926C765.794 642.102 770.007 642.302 771.994 643.763C773.037 644.53 773.521 645.482 773.635 646.75C773.881 649.47 772.239 651.839 770.551 653.764L678.243 651.159C662.431 650.724 646.465 650.862 630.685 649.84C629.301 649.75 627.157 649.781 626.03 648.924C624.664 647.885 623.876 646.699 623.695 644.979C623.419 642.357 625.324 639.719 626.954 637.891Z"/>
	<path fill="#626160" d="M626.553 657.402C634.005 658.572 643.831 657.94 651.599 658.189L702.516 660.226C712.68 660.585 765.936 661.179 770.605 663.161C771.874 663.7 772.669 664.72 773.101 666.014C773.93 668.502 772.428 671.333 771.192 673.38C761.783 674.54 751.483 673.382 741.986 673.052L692.644 671.405L650.841 670.12C642.796 669.83 634.529 669.884 626.586 668.559C625.56 667.856 624.981 667.095 624.645 665.892C623.839 663.007 625.303 659.91 626.553 657.402Z"/>
	<path fill="#626160" d="M625.96 677.506C650.075 677.248 674.28 678.868 698.383 679.628C720.528 680.326 742.955 680.085 765.044 681.81C766.963 681.959 769.868 682.024 771.479 683.15C772.537 683.89 773.045 684.77 773.227 686.034C773.595 688.585 772.174 690.863 770.649 692.737C767.932 693.496 765.136 693.491 762.336 693.491C731.602 693.498 700.896 691.41 670.192 690.34C660.629 690.007 634.649 690.486 627.357 688.446C626.231 688.13 625.452 687.35 624.948 686.293C623.636 683.542 624.995 680.155 625.96 677.506Z"/>
	<defs>
		<linearGradient id="gradient_2" gradientUnits="userSpaceOnUse" x1="481.50381" y1="603.0257" x2="509.90292" y2="738.41339">
			<stop offset="0" stop-color="#1E1D1E"/>
			<stop offset="1" stop-color="#404035"/>
		</linearGradient>
	</defs>
	<path fill="url(#gradient_2)" d="M413.959 616.57C414.687 616.478 415.421 616.395 416.155 616.362C426.547 615.889 437.304 616.704 447.717 616.981Q477.19 617.652 506.654 618.638L551.097 619.851C559.501 620.086 568.317 619.877 576.638 621.071C579.736 621.516 582.433 622.532 584.75 624.706C589.556 629.214 589.387 636.823 589.597 642.97C589.97 653.905 589.445 664.888 589.595 675.838C589.751 687.244 591.089 704.193 589.269 715.157C588.84 717.742 587.856 720.541 585.966 722.429C584.035 724.357 582.262 724.581 579.624 724.622L482.06 720.701C460.936 719.855 439.531 719.591 418.474 717.951C415.844 717.747 412.524 717.724 410.13 716.533C406.699 714.825 404.582 713.046 403.352 709.338C402.418 706.521 402.243 703.482 402.132 700.538C401.742 690.171 402.499 679.708 402.49 669.321C402.48 656.806 401.589 643.604 402.699 631.17C402.968 628.164 403.474 624.594 405.012 621.974C406.936 618.697 410.505 617.477 413.959 616.57Z"/>
	<path fill="#FAECD6" d="M413.67 621.498C445.035 621.335 476.643 623.277 508.009 624.217C520.985 624.606 533.995 624.978 546.975 625.156C554.477 625.258 562.068 624.924 569.554 625.436C572.68 625.649 575.915 626.134 578.822 627.342C580.55 628.06 582.397 629.098 583.011 630.968C584.953 636.88 584.704 700.697 584.118 710.297C583.984 712.499 583.781 715.04 582.695 716.996C581.729 718.736 580.405 719.051 578.625 719.505C564.902 719.617 551.203 718.435 537.499 717.829L470.519 714.974Q454.06 714.134 437.589 713.572C431.371 713.4 425.034 713.581 418.84 713.079C415.697 712.824 412.462 712.333 409.69 710.765C408.239 708.218 407.661 705.446 407.391 702.541C406.198 689.704 407.363 676.368 407.464 663.481C407.54 653.73 405.845 635.292 408.5 626.368C409.227 623.927 411.633 622.684 413.67 621.498Z"/>
	<path fill="#626160" d="M419.871 670.012C431.252 670.108 442.648 670.991 454.019 671.46L520.325 674.123Q533.118 674.658 545.917 674.989C552.971 675.184 560.503 674.816 567.383 676.477C568.451 677.39 569.097 677.887 569.339 679.332C569.762 681.863 568.357 684.637 566.871 686.564C557.488 687.282 548.069 686.309 538.687 685.883L494.149 683.936L446.081 682.284C440.229 682.09 424.798 682.505 419.979 680.794C419.109 680.032 418.509 679.425 418.202 678.272C417.456 675.462 418.44 672.417 419.871 670.012Z"/>
	<path fill="#626160" d="M421.139 650.465C452.717 651.115 484.354 653.106 515.93 654.242L545.614 655.22C552.617 655.422 560.248 655.09 567.087 656.606C568.178 657.435 569.036 658.077 569.397 659.497C570.092 662.223 568.547 664.746 567.198 666.97C556.501 667.185 545.693 666.372 535.003 665.935Q511.091 664.972 487.17 664.263L447.293 662.801C438.382 662.48 428.824 662.783 420.084 660.995C419.17 660.196 418.594 659.582 418.406 658.327C417.978 655.473 419.674 652.748 421.139 650.465Z"/>
	<path fill="#626160" d="M420.683 632.117C426.96 631.374 433.635 631.983 439.956 632.172L472.919 633.235L527.25 635.1C537.546 635.451 547.913 635.509 558.187 636.248C560.553 636.418 565.285 636.464 567.161 637.883C568.269 638.722 568.769 639.644 568.982 641.006C569.41 643.73 567.788 646.425 566.131 648.394C546.682 645.87 424.634 644.38 419.981 641.641C418.894 641.001 418.231 639.981 418.083 638.73C417.789 636.261 419.172 633.928 420.683 632.117Z"/>
	<path fill="#626160" d="M419.463 689.574C425.612 688.721 432.424 689.553 438.64 689.849L468.292 691.205L537.505 694.053C544.807 694.363 560.329 694.025 566.531 695.861C567.711 696.21 568.594 697.039 569.033 698.2C569.979 700.707 568.196 704.077 567.135 706.253C560.936 707.523 533.923 705.369 525.665 705.029L455.155 701.963C447.316 701.62 439.448 701.668 431.617 701.216C427.994 701.007 423.697 700.837 420.202 699.793C419.051 699.449 418.194 698.779 417.728 697.642C416.664 695.048 418.349 691.869 419.463 689.574Z"/>
	<path fill="#2C2927" d="M233.565 444.526C241.063 444.4 248.637 444.95 256.13 445.215L296.26 446.59L342.848 448.166C351.498 448.428 360.177 448.396 368.816 448.949C372.138 449.161 376.183 449.121 379.253 450.438C381.719 451.496 383.967 453.581 384.93 456.118C386.076 459.137 386.293 462.904 386.433 466.117C387.39 488.099 386.464 511.869 386.46 534.04C386.456 553.007 387.495 572.221 386.508 591.158C386.352 594.15 386.023 597.884 384.631 600.569C382.996 603.723 380.161 605.518 376.885 606.587C376.795 606.603 376.705 606.617 376.616 606.634C368.847 608.097 359.463 606.596 351.508 606.232Q332.601 605.375 313.685 604.753L260.864 603.404C252.313 603.183 242.734 603.721 234.318 602.379C231.639 601.952 228.921 599.796 227.442 597.594C225.627 594.892 224.934 591.507 224.675 588.306C224.192 582.339 224.482 576.16 224.477 570.167L224.748 528.304C224.732 511.589 224.254 494.875 224.322 478.156C224.36 469.017 223.843 459.239 225.875 450.287C228.172 447.583 230.402 446.033 233.565 444.526Z"/>
	<path fill="#7F7F7C" d="M316.18 489.737C320.957 493.825 324.273 504.18 326.062 510.163C328.484 518.267 326.221 530.254 322.069 537.62C319.642 541.924 316.181 545.406 311.263 546.624C304.347 548.336 297.669 545.373 291.858 541.897C282.19 534.11 277.525 525.316 275.112 513.175C278.287 512.724 281.536 512.468 284.682 511.869C298.724 509.194 308.286 501.357 316.18 489.737Z"/>
	<path fill="#7F7F7C" d="M293.507 548.861C298.865 550.96 304.084 551.407 309.783 551.716C314.47 573.887 331.572 564.457 344.472 575.012C351.976 581.152 352.471 591.617 353.379 600.506C338.919 600.579 324.222 599.961 309.79 599.033Q279.072 597.788 248.341 596.935C248.386 595.899 248.471 594.875 248.573 593.843C250.95 569.851 257.226 571.556 278.048 566.193C281.734 565.244 285.646 564.152 288.586 561.616C292.663 558.098 293.109 553.874 293.507 548.861Z"/>
	<path fill="#7F7F7C" d="M234.6 449.518Q235.682 449.51 236.764 449.517C261.851 449.647 287.092 451.508 312.19 452.202L349.984 453.135C358.001 453.337 366.197 453.266 374.162 454.225C376.067 454.454 377.777 454.805 379.065 456.366C380.837 458.513 380.881 462.925 381.022 465.629C381.518 475.155 381.112 484.663 381.053 494.191L381.009 540.986L381.411 573.441C381.508 580.154 382.26 587.779 381.016 594.354C380.321 598.032 378.842 599.37 375.82 601.385C370.036 602.076 364.47 601.514 358.771 600.445C358.136 596.281 357.554 592.077 356.618 587.969C352.801 571.236 344.803 568.46 329.716 564.69C326.487 563.884 322.935 563.224 320.13 561.347C316.074 558.633 315.328 555.193 314.548 550.716C316.707 549.718 318.888 548.693 320.77 547.216C329.683 540.22 332.208 526.326 333.613 515.681C337.22 511.717 338.491 509.411 338.549 503.944C337.929 493.92 336.151 480.26 330.886 471.498C328.536 467.588 325.075 465.812 320.715 464.794C308.846 462.022 293.155 460.198 282.379 466.932C272.922 472.841 268.06 483.905 265.66 494.377C264.404 499.861 263.746 505.048 266.957 509.984C269.556 513.979 270.448 518.347 271.959 522.816C275.487 533.253 282.188 540.28 289.998 547.734Q289.653 549.429 289.245 551.109C285.945 564.439 263.37 562.01 253.547 568.276C244.28 574.186 245.367 585.604 242.86 594.824C242.645 595.614 242.315 596.91 241.509 597.248C239.293 598.176 236.026 596.893 233.823 596.252C232.841 595.162 231.69 593.99 230.939 592.726C229.553 590.397 229.685 586.908 229.584 584.271C228.636 559.485 229.713 534.436 229.727 509.625C229.733 499.187 228.066 462.003 230.397 453.924C231.09 451.521 232.561 450.709 234.6 449.518Z"/>
	<path fill="#2C2927" d="M206.745 727.736C211.224 728.368 216.028 728.265 220.558 728.449L247.834 729.554L346.249 733.534L665.749 746.242L750.515 749.872C763.661 750.458 779.124 749.991 791.877 752.262C794.166 768.122 791.55 785.052 791.484 801.05C785.026 802.989 752.689 799.914 744.84 799.46Q715.544 797.669 686.226 796.265L346.893 779.609L260.932 775.379C247.334 774.714 233.278 774.834 219.762 773.341C216.516 772.983 212.343 771.05 210.316 768.484C208.529 766.222 207.57 763.528 206.979 760.735C205.412 753.334 205.78 735.53 206.745 727.736Z"/>
	<path fill="#FAECD6" d="M479.278 744.833C480.78 744.938 481.851 745.103 483.26 745.627C483.534 745.95 483.888 746.219 484.081 746.596C484.999 748.387 484.328 775.194 484.322 779.422C482.853 779.399 481.823 779.263 480.423 778.823C478.255 775.849 479.253 750.089 479.278 744.833Z"/>
	<path fill="#FAECD6" d="M611.99 750.44C613.558 750.419 614.602 750.412 616.05 751.14C617.64 753.384 616.774 780.973 616.902 786.133C615.429 786.094 614.271 786.01 612.857 785.508C610.201 777.191 611.832 759.735 611.99 750.44Z"/>
	<path fill="#FAECD6" d="M336.486 738.926C338.824 739.056 341.18 739.365 343.513 739.589C343.407 750.443 343.794 761.296 343.758 772.154C341.416 772.009 339.032 772.048 336.684 772C336.779 760.982 336.524 749.947 336.486 738.926Z"/>
	<path fill="#FAECD6" d="M212.491 733.5C230.89 733.227 249.435 734.628 267.81 735.511C288.96 736.527 310.003 737.181 331.138 738.601C331.882 749.51 331.612 760.616 330.951 771.523C312.498 771.79 293.624 770.186 275.159 769.399C258.446 768.687 241.33 768.812 224.707 767.022C221.531 766.68 218.259 766.128 215.361 764.735C210.493 758.864 212.376 741.353 212.491 733.5Z"/>
	<path fill="#FAECD6" d="M489.27 745.505C506.87 745.179 524.536 746.835 542.122 747.454C563.433 748.203 585.086 747.908 606.264 750.404C607.165 762.285 606.55 774.146 606.521 786.042C592.45 784.334 577.601 784.432 563.416 783.755L489.488 779.961C489.524 768.473 489.201 756.991 489.27 745.505Z"/>
	<path fill="#FAECD6" d="M349.297 739.461C390.812 742.014 432.462 742.603 474.014 744.845L474.23 779.357L397.603 775.223C381.373 774.378 365.203 774.021 349.002 772.533Q348.958 755.995 349.297 739.461Z"/>
	<path fill="#FAECD6" d="M622.173 750.661L785.981 758.061C786.104 770.637 785.984 783.098 785.469 795.663C765.58 792.857 743.12 792.68 722.928 791.454C689.389 789.419 655.673 786.734 622.067 786.499C621.344 778.354 619.921 758.28 622.173 750.661Z"/>
	<path fill="#2C2927" d="M410.775 451.574C420.186 450.634 430.329 451.795 439.82 452.089Q473.212 453.23 506.585 454.834C521.413 455.476 536.256 455.738 551.09 456.26C560.076 456.576 573.549 456.138 581.794 458.946C584.696 459.934 586.358 461.922 587.592 464.68C588.934 467.68 589.326 470.947 589.489 474.195C589.824 480.876 589.528 487.619 589.512 494.309L589.489 532.5C589.533 552.532 590.62 572.655 590.217 592.673C590.151 595.905 590.397 600.643 589.087 603.632C587.021 608.35 583.919 610.543 579.175 612.291C574.53 613.294 568.157 612.3 563.31 612.149L532.583 611.259L462.994 609.283C450.993 608.99 438.967 609.102 426.976 608.508C421.897 608.256 415.303 608.398 410.59 606.493C407.564 605.27 404.694 602.573 403.442 599.544C402.201 596.541 401.721 593.24 401.525 590.013C401.179 584.288 401.465 578.487 401.458 572.752L401.337 537.236C401.07 514.243 399.533 490.915 400.504 467.947C400.643 464.658 400.873 460.515 402.256 457.493C403.805 454.109 407.515 452.733 410.775 451.574Z"/>
	<path fill="#FAECD6" d="M411.993 457.053C422.727 456.669 433.516 457.732 444.236 458.233L489.489 459.94L546.245 461.862C555.428 462.14 564.805 461.88 573.949 462.68C576.535 462.906 579.635 463.16 581.321 465.385C582.558 467.016 583.315 468.656 583.527 470.702C584.466 479.734 584.024 489.11 584.034 498.19L584.328 537.442Q584.367 551.9 584.597 566.356C584.871 577.927 585.91 589.977 584.053 601.432C582.611 603.372 581.172 604.93 579.334 606.5C564.945 606.615 550.66 605.799 536.286 605.326L473.747 603.547Q457.198 603.023 440.642 602.794C432.433 602.737 423.788 603.252 415.633 602.201C412.772 601.832 410.651 600.29 408.361 598.678C407.285 595.561 406.927 592.393 406.743 589.12C405.614 569.114 406.706 548.761 406.456 528.697C406.178 506.49 404.544 483.832 405.679 461.661C407.699 459.013 408.632 457.581 411.993 457.053Z"/>
	<path fill="#626160" d="M422.747 522.412C434.77 521.931 446.692 522.979 458.693 523.353C467.886 523.639 477.204 523.164 486.338 524.396C487.984 524.618 489.498 524.811 490.837 525.896C491.959 526.805 492.747 527.88 492.729 529.398C492.702 531.6 491.532 532.792 490.08 534.251C478.117 534.435 465.945 533.48 453.972 533.089C445.121 532.801 435.979 533.155 427.176 532.291C425.272 532.104 422.81 532.013 421.315 530.727C420.586 530.1 420.16 528.879 420.151 527.926C420.125 525.374 420.953 524.064 422.747 522.412Z"/>
	<path fill="#626160" d="M423.626 480.791C435.3 480.559 542.187 483.632 545.457 484.923C546.207 485.22 546.659 485.587 546.97 486.319C547.835 488.356 546.569 490.445 545.765 492.307C540.501 493.267 533.704 492.527 528.318 492.483C507.011 492.311 485.67 491.101 464.365 490.533C456.263 490.317 432.66 490.963 426.317 489.408C425.016 489.089 423.438 488.046 422.865 486.81C421.921 484.776 422.872 482.694 423.626 480.791Z"/>
	<path fill="#626160" d="M424.206 500.727C445.334 500.933 466.578 502.195 487.703 502.951C502.444 503.478 517.255 503.344 531.975 504.289C534.488 504.45 539.512 504.438 541.691 505.708C542.607 506.242 543.34 507.495 543.463 508.526C543.711 510.604 542.555 512.429 541.406 514.035C528.398 513.333 427.728 511.389 422.74 507.881C422.275 507.064 421.955 506.731 421.912 505.764C421.819 503.651 422.78 502.163 424.206 500.727Z"/>
	<path fill="#2C2927" d="M616.835 453.65C629.22 452.886 641.944 453.597 654.344 453.899L699.749 454.847L746.625 456.39C757.478 456.689 768.522 456.525 779.323 457.495C781.825 457.719 784.465 457.979 786.697 459.224C788.826 460.412 790.265 462.252 790.855 464.618C793.031 473.353 791.745 484.021 791.615 492.985Q791.434 508.56 791.463 524.136L791.505 573.448C791.517 582.425 791.909 591.566 791.364 600.518C791.136 604.267 790.684 608.603 788.633 611.826C786.551 615.097 783.423 616.149 779.813 616.965C746.684 616.64 713.533 615.502 680.405 614.848C660.774 614.461 640.678 615.392 621.144 613.385C617.567 613.017 613.802 612.209 610.693 610.332C607.261 608.26 605.541 604.458 604.67 600.694C602.623 591.845 603.972 580.897 604.138 571.778L604.475 539.467C604.584 516.794 603.29 493.756 604.421 471.134C604.598 467.595 604.835 462.309 606.848 459.329C609.188 455.866 612.921 454.503 616.835 453.65Z"/>
	<path fill="#FAECD6" d="M615.25 459.468C651.69 459.266 688.94 461.206 725.442 462.198L757.838 462.927C766.771 463.132 776.317 462.721 785 464.934C787.772 477.489 786.291 496.654 786.102 509.821L785.861 555.568Q785.746 567.516 785.873 579.463C785.995 588.684 786.518 598.108 784.935 607.228C783.924 608.361 782.769 609.385 781.668 610.433C762.477 611.526 742.842 610.147 723.618 609.712L616.679 607.494C614.439 605.588 612.545 603.684 610.688 601.402C610.705 574.698 610.982 547.962 610.63 521.262Q610.448 503.838 610.44 486.413C610.426 479.99 609.963 473.058 610.836 466.698C611.32 463.166 612.416 461.6 615.25 459.468Z"/>
	<path fill="#5A896D" d="M640.917 474.522C643.255 474.44 645.691 474.362 647.976 474.945C651.696 475.894 655.064 478.145 656.974 481.522C658.856 484.851 659.126 488.941 657.984 492.561C656.309 497.872 652.488 500.542 647.786 502.921C644.87 503.482 642.215 503.337 639.433 502.234C635.815 500.799 633.02 497.93 631.512 494.356C630.001 490.774 629.892 486.625 631.4 483.024C633.258 478.588 636.628 476.249 640.917 474.522Z"/>
	<path fill="#7F7F7C" d="M684.146 488.581C686.872 488.277 689.654 488.102 692.308 488.923Q693.014 489.134 693.693 489.417Q694.373 489.7 695.02 490.052Q695.666 490.405 696.272 490.823Q696.878 491.241 697.438 491.72Q697.997 492.199 698.503 492.734Q699.009 493.269 699.456 493.854Q699.904 494.438 700.288 495.067Q700.672 495.695 700.988 496.36C702.904 500.36 703.133 505.263 701.631 509.433C699.851 514.376 696.296 517.198 691.698 519.395L691.003 519.453L689.996 519.52C688.24 519.653 686.809 519.592 685.082 519.148C680.927 518.079 677.476 515.508 675.423 511.723C673.346 507.892 672.976 503.188 674.295 499.047C675.972 493.782 679.497 491.051 684.146 488.581Z"/>
	<path fill="#5A896D" d="M740.043 493.518C742.391 493.393 744.677 493.629 746.894 494.45Q747.582 494.702 748.241 495.021Q748.9 495.34 749.523 495.724Q750.146 496.108 750.728 496.553Q751.31 496.998 751.844 497.499Q752.378 498 752.859 498.552Q753.339 499.105 753.762 499.702Q754.185 500.3 754.546 500.937Q754.906 501.575 755.201 502.245C756.952 506.142 757.233 510.805 755.618 514.793C753.498 520.027 749.285 522.6 744.31 524.631C741.768 524.858 739.223 524.82 736.8 523.941C732.994 522.559 730.002 519.937 728.436 516.169C726.8 512.234 726.778 507.455 728.409 503.515C730.715 497.948 734.792 495.691 740.043 493.518Z"/>
	<path fill="#5A896D" d="M638.858 507.54C643.691 506.966 648.983 507.264 653.55 508.977C663.038 512.536 667.416 520.052 671.524 528.757C677.409 525.155 683.904 523.236 690.838 523.734C701.8 524.52 709.333 529.399 716.378 537.627L716.884 537.099C723.824 529.922 731.766 525.912 741.86 525.837C750.02 525.777 757.981 528.549 763.817 534.384C771.645 542.211 773.117 551.957 773.123 562.573L763.75 562.465C727.916 561.917 692.101 560.693 656.259 560.467Q656.349 557.769 656.712 555.093Q657.074 552.418 657.705 549.793Q658.336 547.168 659.229 544.62Q660.122 542.072 661.268 539.628C646.325 539.7 631.383 538.566 616.425 538.583C616.824 532.308 617.315 526.239 620.466 520.637C624.639 513.218 630.921 509.696 638.858 507.54Z"/>
	<path fill="#B57751" d="M683.873 525.748Q685.778 525.712 687.683 525.705C700.122 525.678 707.166 530.084 715.801 538.671C713.839 542.236 712.099 546.171 711.208 550.159C710.613 552.819 710.821 556.147 709.503 558.533C706.824 560.716 695.232 559.29 691.25 559.255C680.129 559.437 668.993 558.753 657.859 558.799C658.689 551.496 660.743 543.346 665.05 537.282C669.634 530.829 676.174 527.081 683.873 525.748Z"/>
	<path fill="#2C2927" d="M206.933 344.769C209.49 343.162 211.773 342.807 214.738 342.64C233.992 341.557 255.184 343.453 274.626 344.154L372.16 346.989C391.682 347.561 411.606 348.995 431.106 348.438Q459.624 349.388 488.152 349.983L621.251 353.397L696.395 355.222C709.283 355.523 722.614 356.602 735.471 355.962C743.636 357.295 752.693 356.807 760.987 356.981C768.842 357.145 776.964 357.758 784.797 357.407C786.933 357.837 788.67 358.549 790.623 359.503C791.671 361.118 792.619 362.57 793.236 364.402C793.926 373.288 793.485 382.467 794.402 391.253C794.019 392.854 794.02 394.333 794.026 395.973C793.453 400.192 792.013 404.407 790.88 408.51C791.266 416.662 793.643 442.985 790.465 449.244C786.493 450.413 765.357 449.523 759.334 449.512C741.275 449.48 723.181 449.586 705.127 449.181Q642.843 447.322 580.58 444.825L390.315 438.595C331.378 436.915 272.306 435.845 213.466 431.958L213.467 611.012Q269.801 612.162 326.115 614.059C342.095 614.567 360.614 613.613 376.193 615.977C379.171 616.428 381.936 617.469 384.293 619.384C387.115 621.678 388.061 625.28 388.474 628.749C389.7 639.063 388.432 650.167 388.445 660.559C388.463 676.081 389.674 692.073 388.472 707.533C388.305 709.676 388.16 712.427 386.791 714.163C379.285 716.584 348.77 713.459 338.929 713.071L266.238 710.488C246.977 709.649 227.762 708.191 208.476 707.987Q207.146 596.682 207.451 485.373L206.929 423.611C206.875 414.808 205.915 404.799 207.166 396.1C207.561 393.354 209.977 391.984 212.021 390.486C211.985 385.95 212.206 381.73 210.593 377.422C208.843 376.709 207.171 375.482 205.878 374.11C200.325 368.219 202.266 357.019 202.539 349.63L206.933 344.769Z"/>
	<path fill="#FAECD6" d="M213.28 616.459Q265.874 618.325 318.484 619.602C336.903 620.05 357.888 619.312 375.976 621.679C377.903 621.931 380.558 622.593 381.923 624.09C383.257 625.552 383.325 628.599 383.45 630.503C384.185 641.706 383.536 653.378 383.52 664.624C383.497 680.413 383.927 696.245 383.442 712.022C348.973 711.312 314.542 709.328 280.095 707.899L237.801 706.127C229.376 705.782 220.879 705.706 212.489 704.879Q212.637 660.667 213.28 616.459Z"/>
	<path fill="#2C2927" d="M225.798 672.475C234.028 672.491 273.112 672.408 277.77 675.292C278.877 675.978 279.592 676.884 279.868 678.179C280.416 680.755 279.206 683.174 277.847 685.258C271.223 685.643 231.469 684.644 226.554 682.693C225.264 682.18 224.113 680.802 223.766 679.447C223.07 676.718 224.422 674.703 225.798 672.475Z"/>
	<path fill="#626160" d="M225.777 652.457C234.586 652.833 272.947 653.067 277.474 654.86C278.854 655.406 279.959 656.849 280.299 658.266C280.92 660.854 278.961 663.517 277.565 665.487C269.879 665.507 228.836 665.783 224.831 662.365C223.746 661.439 223.105 660.377 223.013 658.941C222.833 656.14 223.958 654.436 225.777 652.457Z"/>
	<path fill="#626160" d="M289.994 655.051C299.103 654.947 365.603 656.217 369.739 659.177C370.789 659.929 371.431 661.277 371.555 662.54C371.8 665.021 370.843 666.847 369.285 668.681C355.073 669.175 340.568 667.697 326.346 667.137C315.582 666.713 304.385 667.309 293.723 665.897C291.875 665.652 289.717 665.427 288.41 663.932C287.457 662.841 287.292 661.457 287.363 660.071C287.487 657.667 288.203 656.612 289.994 655.051Z"/>
	<path fill="#626160" d="M288.752 674.493C299.418 674.441 363.477 675.089 369.128 678.177C370.125 678.722 371.209 679.998 371.516 681.088C372.154 683.346 370.694 685.762 369.749 687.746C362.118 690.13 304.262 686.8 292.39 685.673C290.631 685.506 289.025 685.645 288.008 683.961C286.354 681.219 288.127 677.346 288.752 674.493Z"/>
	<path fill="#626160" d="M225.01 632.49C243.76 632.321 262.622 633.72 281.375 634.229Q312.429 634.958 343.469 636.142C350.857 636.403 363.151 635.634 369.755 637.734C371.001 638.833 371.914 639.731 372.006 641.529C372.141 644.202 370.859 646.357 369.153 648.277C350.137 648.332 330.885 646.808 311.865 646.148C301.981 645.804 229.29 644.609 225.259 642.904C223.924 642.339 222.713 640.908 222.424 639.49C221.885 636.841 223.497 634.475 225.01 632.49Z"/>
	<path fill="#FAECD6" d="M213.504 395.506C237.071 395.261 260.826 396.785 284.394 397.548L415.588 401.911L784.871 413.512C786.108 421.932 786.07 431.285 785.988 439.776C785.975 441.113 786.203 441.72 785.232 442.686C765.456 444.243 745.031 443.265 725.214 442.875Q671.769 441.613 618.339 439.782L365.504 432.083L263.625 428.845C246.929 428.355 230.212 427.584 213.51 427.48C213.24 416.811 213.381 406.176 213.504 395.506Z"/>
	<path fill="#2C2927" d="M206.933 344.769C209.49 343.162 211.773 342.807 214.738 342.64C233.992 341.557 255.184 343.453 274.626 344.154L372.16 346.989C391.682 347.561 411.606 348.995 431.106 348.438Q459.624 349.388 488.152 349.983L621.251 353.397L696.395 355.222C709.283 355.523 722.614 356.602 735.471 355.962C743.636 357.295 752.693 356.807 760.987 356.981C768.842 357.145 776.964 357.758 784.797 357.407C786.933 357.837 788.67 358.549 790.623 359.503C791.671 361.118 792.619 362.57 793.236 364.402C793.926 373.288 793.485 382.467 794.402 391.253C794.019 392.854 794.02 394.333 794.026 395.973C793.453 400.192 792.013 404.407 790.88 408.51C760.302 406.539 729.53 406.16 698.894 405.141L505.501 399.332L305.5 393.305L240.32 391.326C230.88 391.062 221.468 390.519 212.021 390.486C211.985 385.95 212.206 381.73 210.593 377.422C208.843 376.709 207.171 375.482 205.878 374.11C200.325 368.219 202.266 357.019 202.539 349.63L206.933 344.769Z"/>
	<path fill="#D2CCC4" d="M721.278 358.521C733.044 358.428 744.677 358.89 756.43 359.257C767.114 359.59 778.09 359.33 788.576 361.622C788.537 370.894 787.772 380.184 787.064 389.427L786.629 389.239L786.981 389.917C783.54 391.195 730.736 387.628 721.297 387.477Q720.886 372.999 721.278 358.521Z"/>
	<path fill="#2C2927" d="M768.052 364.121C770.672 364.334 772.97 364.849 775.208 366.299C778.085 368.164 780.219 371.099 780.78 374.511C781.276 377.529 780.602 380.669 778.761 383.13C776.645 385.958 773.587 387.313 770.17 387.799C764.486 386.83 761.58 384.859 757.799 380.693C757.012 376.881 756.762 373.391 758.874 369.91C760.877 366.608 764.454 365.032 768.052 364.121Z"/>
	<path fill="#626160" d="M768.646 367.028C770.238 367.022 771.812 367.016 773.331 367.559C776.562 368.713 777.749 372.034 779.029 374.906C776.186 374.312 771.516 372.959 768.726 373.763C767.323 374.166 765.954 374.96 765.253 376.217C767.895 378.015 775.008 376.594 778.325 376.695L778.773 376.712C777.63 379.563 776.405 382.566 773.585 384.137C771.531 385.281 769.424 385.404 767.21 384.631C764.77 383.78 762.66 381.784 761.585 379.447Q761.406 379.068 761.268 378.672Q761.129 378.276 761.033 377.867Q760.936 377.459 760.882 377.043Q760.829 376.627 760.818 376.208Q760.808 375.788 760.842 375.37Q760.875 374.952 760.952 374.539Q761.029 374.127 761.148 373.725Q761.268 373.323 761.428 372.935C762.823 369.652 765.565 368.369 768.646 367.028Z"/>
	<path fill="#D2CCC4" d="M210.593 377.422C223.855 380.685 246.058 379.412 260.489 379.911L392.845 383.718L629.592 390.48L708.458 393.514C736.971 394.752 765.478 396.16 794.026 395.973C793.453 400.192 792.013 404.407 790.88 408.51C760.302 406.539 729.53 406.16 698.894 405.141L505.501 399.332L305.5 393.305L240.32 391.326C230.88 391.062 221.468 390.519 212.021 390.486C211.985 385.95 212.206 381.73 210.593 377.422Z"/>
	<path fill="#FAECD6" d="M212.105 347.716C232.287 347.489 252.649 348.852 272.841 349.335Q345.799 351.02 418.733 353.554L715.845 361.506C715.821 368.502 716.549 379.794 715.207 386.316C714.021 387.091 713.687 386.898 712.249 386.801C692.782 385.43 673.35 385.11 653.849 384.57L583.751 382.453L337.618 375.219L250.159 372.878C239.301 372.572 227.922 373.504 217.156 372.367C214.393 372.076 212.054 372.019 210.282 369.6C207.11 365.269 207.598 357.715 208.656 352.664C209.152 350.298 210.124 349.035 212.105 347.716Z"/>
</svg>
