<?xml version="1.0" encoding="utf-8" ?>
<svg xmlns="http://www.w3.org/2000/svg" xmlns:xlink="http://www.w3.org/1999/xlink" width="1024" height="1024">
	<path fill="#141617" d="M504.244 118.448C506.76 121.12 509.847 124.222 509.621 128.191C509.566 129.171 509.213 130.203 508.819 131.091C506.965 128.143 505.616 125.031 503.573 122.164L504.244 118.448Z"/>
	<path fill="#FAF3E6" d="M566.53 159.548C569.099 159.416 571.554 159.268 574.03 160.115C578.161 161.528 581.562 164.493 583.363 168.491C585.049 172.234 585.117 176.739 583.465 180.504C581.678 184.575 578.265 186.876 574.238 188.401C571.498 188.975 568.747 189.015 566.076 188.065C562.413 186.761 559.518 183.832 557.981 180.291C556.237 176.274 555.922 171.591 557.646 167.509C559.413 163.326 562.431 161.167 566.53 159.548Z"/>
	<path fill="#7B7B78" d="M658.971 70.6309C665.655 70.169 672.167 72.3917 677.822 75.8199C687.38 81.6147 697.362 91.5259 699.924 102.789C701.196 108.379 700.798 114.361 697.584 119.25C693.966 124.753 687.774 127.353 681.584 128.656C673.393 128.732 666.928 127.094 659.995 122.704C650.312 116.571 641.791 106.206 639.513 94.772C638.483 89.6043 638.889 84.1242 642.011 79.7224C646.007 74.087 652.507 71.882 658.971 70.6309Z"/>
	<path fill="#FAF3E6" d="M721.678 153.347C735.362 149.84 747.411 146.466 761.609 149.558C770.776 147.738 780.531 149.364 789.616 150.974C819.034 156.185 845.409 166.844 870.254 183.49C914.415 213.08 962.748 260.866 973.218 314.851C981.956 359.905 965.652 426.358 939.944 464.139Q936.218 469.571 932.043 474.666Q927.868 479.761 923.275 484.482C909.345 463.419 861.815 429.837 839.833 415.829C827.215 407.788 813.909 400.183 800.788 392.994C789.227 386.659 777.607 380.352 765.916 374.263C749.295 365.607 728.427 356.126 714.539 343.579C711.086 340.459 708.602 336.538 706.132 332.641C701.388 328.893 696.089 313.073 694.56 307.033C689.612 293.572 684.126 269.884 677.287 258.686C675.248 255.347 670.327 252.457 667.115 250.35C658.071 244.418 648.116 239.777 638.783 234.29C630.979 229.703 612.86 215.659 605.309 214.1C597.76 212.543 582.786 221.092 576.635 224.898C574.545 223.585 572.527 222.24 570.236 221.298C570.298 212.615 571.151 207.598 577.299 200.999C602.217 174.25 652.5 164.661 687.165 158.454C698.555 156.415 710.093 153.832 721.678 153.347Z"/>
	<path fill="#7B7B78" d="M721.678 153.347C735.362 149.84 747.411 146.466 761.609 149.558C776.745 154.684 789.516 164.156 796.734 178.647C803.987 193.211 804.136 209.242 798.948 224.489C793.789 239.651 785.276 251.898 774.097 263.175C778.216 275.194 776.171 286.489 770.7 297.76C763.646 312.293 751.615 323.613 736.249 328.903C725.318 332.666 716.781 331.054 706.132 332.641C701.388 328.893 696.089 313.073 694.56 307.033C689.612 293.572 684.126 269.884 677.287 258.686C675.248 255.347 670.327 252.457 667.115 250.35C658.071 244.418 648.116 239.777 638.783 234.29C630.979 229.703 612.86 215.659 605.309 214.1C597.76 212.543 582.786 221.092 576.635 224.898C574.545 223.585 572.527 222.24 570.236 221.298C570.298 212.615 571.151 207.598 577.299 200.999C602.217 174.25 652.5 164.661 687.165 158.454C698.555 156.415 710.093 153.832 721.678 153.347Z"/>
	<path fill="#302C2A" d="M765.927 259.416C768.729 259.469 771.35 261.858 773.531 263.422C772.159 264.721 770.709 265.882 769.182 266.99C752.959 278.761 734.129 282.377 714.538 279.315C711.452 278.603 708.492 277.767 705.494 276.746C707.217 274.561 709.569 271.789 712.3 270.958C716.294 269.743 721.003 271.116 725.08 271.303C740.813 272.026 752.62 267.113 765.927 259.416Z"/>
	<path fill="#FAF3E6" d="M570.236 221.298C570.298 212.615 571.151 207.598 577.299 200.999C602.217 174.25 652.5 164.661 687.165 158.454C698.555 156.415 710.093 153.832 721.678 153.347L720.82 153.905C716.457 156.712 711.834 158.945 707.569 161.97Q706.277 162.875 705.029 163.84Q703.781 164.804 702.579 165.826Q701.377 166.847 700.224 167.924Q699.071 169 697.969 170.128Q696.867 171.257 695.818 172.435Q694.77 173.614 693.777 174.84Q692.785 176.066 691.851 177.337Q690.916 178.607 690.042 179.92Q689.167 181.233 688.355 182.585Q687.542 183.937 686.793 185.325Q686.045 186.714 685.361 188.135Q684.677 189.557 684.061 191.008Q683.444 192.46 682.895 193.939Q682.347 195.418 681.867 196.921Q681.388 198.423 680.979 199.947Q680.57 201.47 680.232 203.011C675.307 224.679 680.383 240.542 691.911 258.804C701.391 273.823 709.953 275.768 705.551 296.262Q705.215 297.804 704.778 299.32C702.066 301.897 698.123 305.871 694.56 307.033C689.612 293.572 684.126 269.884 677.287 258.686C675.248 255.347 670.327 252.457 667.115 250.35C658.071 244.418 648.116 239.777 638.783 234.29C630.979 229.703 612.86 215.659 605.309 214.1C597.76 212.543 582.786 221.092 576.635 224.898C574.545 223.585 572.527 222.24 570.236 221.298Z"/>
	<path fill="#141617" d="M128.886 443.393C125.024 437.594 120.222 432.397 116.071 426.79C106.35 413.658 97.8901 398.609 92.3799 383.215C81.4954 352.805 85.4485 316.525 99.2642 287.734C104.361 277.113 111.387 267.085 118.191 257.498C131.377 238.917 146.378 222.414 162.835 206.7C199.473 171.715 238.42 145.786 283.55 122.972C300.501 114.402 317.873 106.141 335.808 99.8257C370.372 87.6546 410.366 82.2576 444.489 98.772C454.562 103.647 458.606 109.273 462.239 119.735C469.112 114.356 476.211 110.316 485.208 110.301C492.719 110.29 499.011 113.183 504.244 118.448L503.573 122.164C505.616 125.031 506.965 128.143 508.819 131.091L508.681 131.557C507.168 136.821 507.025 142.387 504.045 147.119C503.925 147.309 503.813 147.504 503.696 147.695L503.482 148.038C511.402 147.712 518.186 150.942 523.904 156.242C527.042 159.15 529.973 162.887 531.566 166.885C532.523 169.29 532.289 173.581 534.032 175.425C535.307 175.253 536.497 174.681 537.746 174.54C541.012 174.171 546.18 177.33 548.598 179.229C552.736 182.477 555.712 187.227 556.337 192.499C557.112 199.031 555.361 205.292 552.26 210.994C557.034 213.449 561.973 215.734 566.315 218.91L570.015 221.601L570.236 221.298C572.527 222.24 574.545 223.585 576.635 224.898C582.786 221.092 597.76 212.543 605.309 214.1C612.86 215.659 630.979 229.703 638.783 234.29C648.116 239.777 658.071 244.418 667.115 250.35C670.327 252.457 675.248 255.347 677.287 258.686C684.126 269.884 689.612 293.572 694.56 307.033C696.089 313.073 701.388 328.893 706.132 332.641C708.602 336.538 711.086 340.459 714.539 343.579C728.427 356.126 749.295 365.607 765.916 374.263C777.607 380.352 789.227 386.659 800.788 392.994C813.909 400.183 827.215 407.788 839.833 415.829C861.815 429.837 909.345 463.419 923.275 484.482C926.18 489.147 929.439 493.452 933.324 497.35C948.145 512.218 966.218 522.558 960.509 546.71C956.24 564.772 938.396 584.696 924.678 597.113C922.521 599.065 917.19 601.857 916.022 604.343C915.658 605.116 911.475 636.798 911.066 640.87C918.911 646.622 936.351 662.327 937.446 672.082C938.355 680.179 936.07 689.795 935.002 697.896Q933.269 711.308 931.698 724.74L923.16 794.111C921.513 807.571 920.538 821.648 917.729 834.898C916.96 838.526 915.568 842.249 913.112 845.073C905.331 854.023 892.186 856.396 880.94 856.884C863.695 857.633 842.711 853.735 829.581 841.695C824.241 836.799 821.3 830.823 819.854 823.801C813.864 831.768 808.786 840.472 802.108 847.893C784.212 867.779 755.027 880.577 728.656 884.248C726.775 884.51 724.922 884.542 723.027 884.492C720.589 894.372 719.123 938.13 711.212 943.834C710.607 944.271 710.351 944.066 709.678 943.967C708.772 942.209 708.986 940.346 709.164 938.436C709.771 931.899 711.535 925.408 712.66 918.94Q715.164 903.845 716.761 888.628C719.183 865.48 719.916 841.921 720.215 818.654C702.936 825.224 681.167 838.632 673.242 856.181C668.678 866.287 667.82 877.357 665.582 888.078C659.568 916.881 642.236 935.022 615.13 945.571C569.368 963.38 516.428 954.146 472.702 934.753C454.888 926.853 437.921 917.165 420.073 909.338C409.37 904.644 398.481 901.538 387.522 897.618C370.361 908.25 353.232 912.779 333.192 908.112C322.823 905.698 313.009 901.689 302.492 899.695C302.753 913.133 306.175 925.685 303.408 939.243C301.909 933.45 301.439 927.425 300.633 921.507Q299.056 909.747 296.823 898.093C279.292 896.884 260.257 893.638 243.644 887.753C218.638 878.895 200.092 862.605 189.164 838.298C186.137 831.563 184.334 824.267 181.146 817.644C181.073 817.492 180.996 817.341 180.922 817.189C166.728 807.315 152.053 793.649 140.061 781.174Q136.064 777.043 132.209 772.778Q128.355 768.513 124.648 764.119Q120.942 759.725 117.387 755.207Q113.833 750.689 110.434 746.053Q107.035 741.417 103.797 736.667Q100.558 731.917 97.4833 727.06Q94.4085 722.203 91.5011 717.244Q88.5936 712.285 85.8569 707.23Q83.1202 702.174 80.5574 697.029Q77.9946 691.883 75.6087 686.653Q73.2228 681.423 71.0166 676.115Q68.8104 670.806 66.7864 665.426Q64.7624 660.045 62.923 654.599Q61.0836 649.153 59.4309 643.647Q57.7782 638.141 56.3142 632.582Q54.8502 627.023 53.5765 621.417C49.0377 601.507 46.1836 581.742 46.573 561.294C46.4622 559.595 45.5605 557.782 45.0027 556.159C42.9005 550.042 41.1802 544.767 42.0589 538.146C42.9372 531.527 45.3624 524.782 49.2518 519.33C54.487 511.99 62.6546 507.647 68.9518 501.325C76.3887 493.86 82.7448 485.107 89.9475 477.351C101.773 464.616 115.115 453.912 128.886 443.393ZM502.934 272.882C503.487 277.829 504.798 282.739 505.758 287.626L505.116 287.92C509.475 315.866 510.253 343.095 506.246 371.15C506.772 371.776 507.082 372.108 507.784 372.558C507.379 374.929 506.71 377.274 506.128 379.608C511.854 374.302 515.553 368.165 517.982 360.757C527.137 332.846 515.623 298.237 502.934 272.882Z"/>
	<path fill="#FEFEFD" d="M559.696 262.771C560.565 263.514 561.143 263.923 561.465 265.048C561.014 266.545 559.538 267.248 558.314 268.091L557.472 268.013L557.128 267.327C557.557 265.482 558.576 264.266 559.696 262.771Z"/>
	<path fill="#FEFEFD" d="M349.406 205.366C350.528 204.327 351.495 203.233 353.008 202.805C354.567 203.337 354.534 203.776 355.319 205.171L354.486 206.14L349.832 205.941L349.406 205.366Z"/>
	<path fill="#FEFEFD" d="M361.587 200.567C363.033 200.906 364.358 201.259 365.725 201.844C366.452 203.282 366.115 203.797 365.817 205.345C365.157 205.372 364.736 205.354 364.147 204.99C362.593 204.032 362.107 202.195 361.587 200.567Z"/>
	<path fill="#FAF3E6" d="M430.889 173.8C432.255 173.995 433.446 174.235 434.758 174.657L435.271 175.675L434.49 177.609C433.902 178.016 433.392 178.283 432.749 178.583C431.41 177.501 431.3 175.463 430.889 173.8Z"/>
	<path fill="#FAF3E6" d="M566.903 254.958C568.064 255.282 569.548 255.791 570.518 256.537C571.796 257.52 571.969 258.577 572.301 260.051C571.349 260.042 570.551 260.068 569.691 259.578C567.937 258.582 567.444 256.749 566.903 254.958Z"/>
	<path fill="#FEFEFD" d="M582.506 325.116L584.019 325.788C585.358 328.671 584.359 331.428 583.697 334.357C583.577 334.255 583.444 334.167 583.336 334.053C581.662 332.274 582.265 327.353 582.506 325.116Z"/>
	<path fill="#E9DCC7" d="M402.983 426.069L403.276 426.642C401.203 429.133 398.872 431.023 396.028 432.573C395.461 431.046 395.263 430.938 395.777 429.422C397.646 427.561 400.534 426.923 402.983 426.069Z"/>
	<path fill="#FAF3E6" d="M603.424 298.233C605.947 299.955 608.103 303.531 609.172 306.344L604.212 305.238L603.424 298.233Z"/>
	<path fill="#FAF3E6" d="M447.241 197.683C448.026 198.063 448.264 198.433 448.804 199.098C449.614 202.483 447.916 205.283 446.6 208.322C446.331 208.486 445.981 208.451 445.669 208.495C444.77 205.95 446.629 200.494 447.241 197.683Z"/>
	<path fill="#E9DCC7" d="M388.902 416.481C391.478 417.399 395.871 418.498 397.376 420.747C394.93 421.321 392.777 422.166 390.484 420.758C389.471 419.377 389.238 418.141 388.902 416.481Z"/>
	<path fill="#FEFEFD" d="M390.777 222.7C392.986 222.694 395.24 223.035 397.438 223.256L390.952 226.583L390.027 226.854C389.541 226.642 389.345 226.582 388.871 226.243C387.826 225.498 387.307 224.882 387.171 223.65C388.373 222.62 389.226 222.818 390.777 222.7Z"/>
	<path fill="#302C2A" d="M591.104 407.591C595.045 409.967 599.156 412.818 603.517 414.326C601.533 414.998 599.287 414.914 597.308 414.225C594.075 413.101 592.434 410.568 591.104 407.591Z"/>
	<path fill="#FAF3E6" d="M456.272 205.272C457.068 205.902 457.236 206.101 457.532 207.118C458.424 210.178 457.922 213.566 456.366 216.308L455.946 216.416L455.26 215.799C454.051 211.937 454.743 208.934 456.272 205.272Z"/>
	<path fill="#FEFEFD" d="M591.746 375.917C597.194 377.106 600.952 375.419 605.993 375.774C601.868 377.487 595.338 380.41 590.918 378.832C590.133 377.821 590.056 377.905 590.2 376.651L591.746 375.917Z"/>
	<path fill="#FEFEFD" d="M418.53 213.652C419.982 214.946 420.38 217.745 420.865 219.555C418.614 219.529 416.361 219.307 414.117 219.139C413.414 219.047 412.818 218.868 412.142 218.662L412.134 217.933C413.766 216.041 416.381 214.89 418.53 213.652Z"/>
	<path fill="#FAF3E6" d="M451.104 200.618C452.236 201.238 453.047 201.979 453.354 203.282C453.988 205.974 452.02 209.297 450.879 211.652C450.168 211.212 449.694 210.747 449.101 210.165C447.981 206.893 449.881 203.624 451.104 200.618Z"/>
	<path fill="#FAF3E6" d="M444.154 210.184C445.369 210.723 445.52 210.987 446.31 212.079C446.429 212.997 446.412 213.484 446.044 214.365C444.909 217.083 441.64 218.254 439.153 219.353C438.663 219.446 438.941 219.464 438.361 219.087C439.808 215.961 441.67 212.592 444.154 210.184Z"/>
	<path fill="#FEFEFD" d="M617.738 344.69L618.844 344.596C619.1 346.026 618.968 346.894 618.076 348.09C616.211 350.588 613.209 351.982 611.309 354.372C610.066 354.731 608.912 355.021 607.627 355.204L606.536 354.359C608.47 353.199 610.117 351.81 611.827 350.356C613.998 349.003 615.937 346.525 617.738 344.69Z"/>
	<path fill="#E9DCC7" d="M884.338 599.199C891.042 598.608 899.144 599.584 905.329 602.321C897.881 603.127 891.205 602.038 884.338 599.199Z"/>
	<path fill="#FEFEFD" d="M489.532 196.188C491.455 197.12 492.054 199.377 492.895 201.223C491.42 211.26 488.75 215.92 491.629 226.392C491.188 226.828 491.487 226.643 490.634 226.734C486.584 218.869 491.382 206.325 489.532 196.188Z"/>
	<path fill="#FAF3E6" d="M597.336 432.926C600.248 434.141 603.127 434.438 605.996 435.438C607.294 435.89 607.394 436.291 607.893 437.442C607.632 438.361 607.437 439.238 607.319 440.184L607.201 441.16C606.399 441.549 606.137 441.574 605.278 441.605C601.301 439.978 599.19 436.656 597.336 432.926Z"/>
	<path fill="#FEFEFD" d="M579.582 292.211C580.59 292.722 581.413 293.3 582.19 294.122C588.417 300.704 589.605 310.511 589.31 319.136C587.629 317.613 587.653 312.93 587.255 310.713C586.071 304.119 582.102 298.889 579.78 292.753C579.712 292.573 579.648 292.392 579.582 292.211Z"/>
	<path fill="#FAF3E6" d="M478.245 225.312L479.164 226.37C479.447 227.42 479.623 228.225 479.432 229.313C478.564 234.276 472.003 241.4 467.97 244.398L466.911 243.011C466.843 239.837 471.169 237.882 473.056 235.677C475.237 233.13 476.513 228.382 478.245 225.312Z"/>
	<path fill="#FAF3E6" d="M454.196 242.453C454.331 242.511 454.467 242.568 454.601 242.628C457.438 243.905 461.274 245.176 462.448 248.263C462.243 250.033 461.545 250.506 460.417 251.848C456.867 250.872 453.809 248.405 450.801 246.368L454.196 242.453Z"/>
	<path fill="#FEFEFD" d="M537.861 221.928C542.149 225.68 560.44 240.654 561.508 244.445C556.451 242.761 550.947 237.111 547.066 233.501C543.772 229.77 540.796 225.94 537.861 221.928Z"/>
	<path fill="#FEFEFD" d="M327.837 213.828C334.296 212.589 339.429 209.061 345.337 206.433C342.913 210.61 339.66 215.188 334.666 216.376C332.484 216.896 330.412 216.669 328.511 215.459C327.981 215.122 327.788 214.953 327.328 214.586L327.837 213.828Z"/>
	<path fill="#FEFEFD" d="M471.424 256.511C470.818 261.437 465.282 264.236 463.088 268.428L463.372 268.749C464.581 267.599 466.029 265.832 467.607 265.258C466.24 268.299 462.872 271.371 460.828 274.126C458.922 276.215 456.682 277.992 454.537 279.83C457.276 271.023 464.908 262.893 471.424 256.511Z"/>
	<path fill="#FEFEFD" d="M556.507 221.339C557.029 221.403 557.12 221.398 557.595 221.506C563.359 222.814 572.006 228.609 575.18 233.595C574.373 233.635 573.545 233.67 572.742 233.565C566.977 232.812 560.044 225.576 556.507 221.339Z"/>
	<path fill="#FAF3E6" d="M478.636 235.344C479.407 235.831 479.31 235.915 479.643 236.711C478.919 242.325 473.671 249.078 470.593 253.749C470.067 252.638 469.498 251.281 469.504 250.038C469.528 245.009 475.239 238.702 478.636 235.344Z"/>
	<path fill="#FAF3E6" d="M370.958 204.362C374.123 206.346 381.222 211.554 381.786 215.4C381.907 216.225 381.441 216.371 380.925 216.92C375.232 215.51 377.106 213.731 373.539 211.546C371.826 210.496 369.842 210.806 368.498 209.241C368.701 207.398 369.955 205.875 370.958 204.362Z"/>
	<path fill="#FAF3E6" d="M375.581 200.807C379.137 200.496 382.687 200.373 386.254 200.261C385.641 203.677 384.544 207.056 383.605 210.397L383.249 210.71L382.405 210.554C379.955 208.18 375.745 204.651 374.763 201.31L375.581 200.807Z"/>
	<path fill="#E9DCC7" d="M392.323 339.419C393.552 340.718 391.927 343.882 392.21 345.698C392.98 346.123 393.592 346.423 394.455 346.629C395.382 346.85 396.384 347.011 397.221 347.49C399.128 348.579 405.978 355.459 406.403 357.339C400.517 355.461 395.438 352.246 390.166 349.105C390.634 345.807 391.482 342.636 392.323 339.419Z"/>
	<path fill="#FAF3E6" d="M398.203 191.422C396.61 193.587 396.169 196.168 393.611 197.557C392.585 198.115 392.186 198.499 391.046 198.169C390.613 196.603 391.053 195.08 391.709 193.632C394.105 188.348 400.797 183.102 406.187 181.176L406.469 181.663L405.122 183.235C402.667 185.62 399.892 188.438 398.203 191.422Z"/>
	<path fill="#FEFEFD" d="M613.941 467.525C614.458 467.609 614.36 467.55 614.916 467.91C615.983 468.598 616.471 469.394 616.635 470.651C617.19 474.908 612.748 480.382 610.463 483.611L609.62 484.49L609.181 484.078C609.625 479.912 609.028 471.897 611.195 468.534C611.649 467.83 613.14 467.725 613.941 467.525Z"/>
	<path fill="#FAF3E6" d="M607.458 327.678C610.598 327.623 614.367 327.891 616.905 329.909L616.936 330.896C614.548 333.565 610.739 333.444 607.415 333.797C605.06 334.911 602.794 336.221 600.51 337.473C601.08 335.407 601.556 333.035 602.491 331.111C603.549 328.932 605.278 328.287 607.458 327.678Z"/>
	<path fill="#FEFEFD" d="M594.247 389.134C596.294 389.773 598.344 390.392 600.443 390.839C610.871 393.059 613.924 390.358 622.199 385.109L622.779 384.745C621.244 388.579 618.184 391.148 614.463 392.83C610.328 394.698 603.711 395.94 599.333 394.259C596.818 393.293 594.611 392.027 593.18 389.699C593.85 389.055 593.473 389.197 594.247 389.134Z"/>
	<path fill="#FAF3E6" d="M403.721 204.338Q408.294 206.589 412.75 209.063C410.64 211.667 408.194 213.405 405.405 215.186C403.325 216.118 401.109 216.815 398.964 217.586C400.418 213.108 401.846 208.664 403.721 204.338Z"/>
	<path fill="#FEFEFD" d="M593.424 418.774C604.211 421.918 604.054 423.751 616.287 420.165C616.071 421.309 615.161 422.255 614.485 423.194C613.283 424.237 611.82 425.152 610.4 425.866C607.436 427.356 603.629 427.427 600.563 426.226C596.844 424.77 595.025 422.299 593.424 418.774Z"/>
	<path fill="#302C2A" d="M547.066 233.501C550.947 237.111 556.451 242.761 561.508 244.445L560.963 245.999C561.441 247.936 562.332 250.463 561.638 252.348C556.748 249.316 548.574 242.608 546.536 237.094C545.951 235.513 546.464 234.929 547.066 233.501Z"/>
	<path fill="#FAF3E6" d="M623.113 392.934L623.593 393.121C623.824 394.346 623.628 395.148 623.071 396.276C621.419 399.617 618.067 401.74 614.624 402.842C607.003 405.282 600.271 403.598 593.46 399.961C592.49 399.184 591.817 398.762 591.264 397.611C593.326 396.584 599.348 400.246 602.076 400.6C610.254 401.661 616.895 397.626 623.113 392.934Z"/>
	<path fill="#E9DCC7" d="M384.012 392.359C384.866 393.479 385.734 394.348 387.004 394.977C393.975 398.43 401.654 395.395 408.453 393.117C407.278 394.443 406.036 395.715 404.823 397.006C403.714 397.968 402.45 398.956 401.201 399.732C397.651 401.936 392.143 402.463 388.127 401.447C386.361 401.001 384.569 399.964 383.788 398.238C382.943 396.371 383.527 394.233 384.012 392.359Z"/>
	<path fill="#FEFEFD" d="M607.939 291.546C610.622 292.79 613.362 293.976 615.988 295.332C621.591 310.739 623.747 327.318 628.663 342.988L627.538 342.611C619.369 322.174 621.966 310.752 607.939 291.546Z"/>
	<path fill="#FEFEFD" d="M591.104 407.591L591.17 406.311C592.446 405.726 593.757 406.194 595.029 406.692C602.388 409.578 606.824 411.734 614.721 408.512C617.477 407.388 620.09 405.932 622.662 404.444C620.708 408.628 618.68 411.56 614.089 413.234C610.793 414.435 606.987 414.697 603.517 414.326C599.156 412.818 595.045 409.967 591.104 407.591Z"/>
	<path fill="#FAF3E6" d="M440.118 206.07C440.457 206.057 440.909 206.236 441.241 206.323C441.542 209.118 436.885 216.405 435.083 218.69C434.687 218.557 434.055 218.336 433.664 218.251C431.869 217.862 430.964 218.935 429.497 219.864C428.586 216.856 426.999 213.984 425.636 211.151C430.389 209.131 435.093 207.302 440.118 206.07Z"/>
	<path fill="#FEFEFD" d="M529.664 239.816C530.274 240.222 530.667 240.601 531.073 241.239C533.809 245.537 535.431 251.373 537.627 256.045C540.841 262.881 545.915 269.958 547.881 277.228C547.072 276.957 546.287 276.698 545.596 276.18C536.786 269.587 531.636 250.008 529.664 239.816Z"/>
	<path fill="#FAF3E6" d="M604.211 310.126C604.429 310.157 604.647 310.185 604.864 310.218L605.779 310.365C607.011 310.552 607.879 310.697 608.935 311.395C611.616 313.166 614.867 316.731 615.272 320.028C615.447 321.463 615.324 322.144 614.376 323.199Q608.794 323.333 603.215 323.574C603.396 319.063 603.72 314.614 604.211 310.126Z"/>
	<path fill="#302C2A" d="M595.633 319.8C596.327 320.392 596.905 321.131 597.162 322.021C599.146 328.897 594.66 341.758 591.189 347.662C590.464 348.896 590.038 349.9 588.645 350.307C588.172 349.767 587.439 349.074 587.225 348.374C586.394 345.657 589.967 339.556 590.683 336.615C591.316 334.018 590.861 331.177 591.878 328.695Q592.44 329.429 592.994 330.17C594.81 328.666 595.223 322.224 595.633 319.8Z"/>
	<path fill="#FEFEFD" d="M518.587 309.822C520.693 311.087 521.777 314.842 522.422 317.134C527.431 334.925 526.362 352.079 517.303 368.305L516.324 369.451C516.12 368.365 517.024 366.898 517.483 365.875C519.783 360.75 521.586 355.885 522.289 350.28C523.961 336.961 521.692 322.8 518.587 309.822Z"/>
	<path fill="#FAF3E6" d="M468.695 221.169C469.761 221.363 470.165 221.292 471.015 222.005C470.12 226.926 461.722 232.59 457.954 235.757L452.719 232.566C451.763 231.835 450.954 231.12 450.14 230.233L451.124 228.903L450.604 230.318L450.525 229.624C450.618 229.532 450.705 229.434 450.804 229.348C453.101 227.355 463.704 222.256 466.339 222.334C465.993 223.033 465.704 223.703 465.421 224.428L466.067 224.422C467.426 223.725 467.964 222.442 468.695 221.169Z"/>
	<path fill="#FAF3E6" d="M496.168 219.917C499.876 224.249 504.773 252.764 506.466 259.822Q508.186 267.041 510.535 274.08C500.916 266.113 498.082 232.83 496.168 219.917Z"/>
	<path fill="#E9DCC7" d="M251.276 744.058C255.46 747.904 258.861 761.279 261.279 766.941C259.281 765.125 257.335 763.243 255.371 761.391Q248.754 754.698 241.665 748.509C244.983 747.195 248.117 745.715 251.276 744.058Z"/>
	<path fill="#FEFEFD" d="M499.817 209.646Q500.941 215.66 502.158 221.655L501.407 223.446C503.674 230.161 505.706 237.005 506.832 244.015C508.016 251.38 508.294 258.996 510.517 266.15C510.855 267.131 511.077 268.05 511.253 269.073C507.154 264.035 506.183 250.234 504.548 243.534C501.957 232.915 496.453 220.861 496.647 209.857C497.954 210.222 498.551 209.965 499.817 209.646Z"/>
	<path fill="#302C2A" d="M499.817 209.646Q500.941 215.66 502.158 221.655L501.407 223.446C499.751 218.971 498.671 214.157 496.647 209.857C497.954 210.222 498.551 209.965 499.817 209.646Z"/>
	<path fill="#FAF3E6" d="M603.275 220.669C608.51 220.643 613.522 224.922 617.506 227.907C608.196 227.081 598.122 226.816 588.866 228.143C583.905 229.022 580.518 230.616 576.257 233.254C582.13 226.374 594.89 222.916 603.275 220.669Z"/>
	<path fill="#FAF3E6" d="M430.984 231.362C439.358 231.462 445.663 235.801 452.403 240.142L449.695 244.276L448.88 245.114C448.707 245.11 448.533 245.124 448.361 245.104C444.688 244.668 433.923 238.511 431.599 235.443C430.482 233.968 430.792 233.067 430.984 231.362Z"/>
	<path fill="#FAF3E6" d="M595.076 388.531L594.312 387.747C596.614 387.395 598.939 387.254 601.251 386.973C608.212 386.124 615.86 383.703 620.984 378.733C622.709 377.059 624.055 374.75 625.557 372.847C624.798 375.514 623.783 377.893 622.618 380.399C623.106 381.426 623.518 382.395 623.843 383.486C623.505 384.007 623.323 384.423 622.779 384.745L622.199 385.109C613.924 390.358 610.871 393.059 600.443 390.839C598.344 390.392 596.294 389.773 594.247 389.134L595.076 388.531Z"/>
	<path fill="#302C2A" d="M595.076 388.531C597.833 389.419 600.725 390.111 603.634 390.119C611.921 390.14 617.031 385.866 622.618 380.399C623.106 381.426 623.518 382.395 623.843 383.486C623.505 384.007 623.323 384.423 622.779 384.745L622.199 385.109C613.924 390.358 610.871 393.059 600.443 390.839C598.344 390.392 596.294 389.773 594.247 389.134L595.076 388.531Z"/>
	<path fill="#FAF3E6" d="M611.309 354.372C616.576 353.479 620.939 346.503 624.174 342.612L623.209 344.601L622.836 345.389C615.914 359.777 604.721 361.748 591.016 366.444C585.822 368.223 580.853 370.583 575.628 372.392L574.783 371.85L574.721 372.071C581.217 369.18 586.77 365.194 592.918 361.726C596.353 359.788 600.123 358.46 603.432 356.316C604.459 355.651 605.5 355.01 606.536 354.359L607.627 355.204C608.912 355.021 610.066 354.731 611.309 354.372Z"/>
	<path fill="#FAF3E6" d="M499.817 209.646C499.449 207.94 498.657 205.685 499.024 203.966C501.782 209.125 502.395 215.76 504.051 221.393C505.588 226.62 507.781 231.795 509.196 236.987C511.885 246.856 513.761 256.96 516.349 266.861C518.159 273.783 520.597 280.481 522.534 287.352C518.395 280.63 514.852 274.288 512.864 266.577C508.664 251.455 508.555 236.349 502.158 221.655Q500.941 215.66 499.817 209.646Z"/>
	<path fill="#FAF3E6" d="M389.54 200.485C390.472 200.728 391.253 201.038 392.118 201.46C392.806 203.122 392.302 203.983 392.39 205.686L393.435 205.734C394.273 204.678 395.114 203.766 396.086 202.83C398.072 202.274 399.039 202.721 401.019 203.196C399.827 207.054 398.799 210.968 397.723 214.86C397.558 216.019 397.012 217.322 395.982 217.951C393.424 219.516 388.744 217.8 386.057 217.118C386.857 211.447 388.084 206.016 389.54 200.485Z"/>
	<path fill="#FAF3E6" d="M382.321 457.13C389.456 459.576 393.014 470.343 397.634 476.001L394.984 482.85C394.64 483.909 394.602 484.086 393.731 484.858L392.667 484.622C386.987 478.588 383.381 465.32 382.321 457.13Z"/>
	<path fill="#FAF3E6" d="M591.746 375.917L590.162 374.582C590.818 373.545 591.501 373.371 592.668 373.115C594.595 372.694 596.589 372.676 598.513 372.151C608.159 369.517 616.725 362.909 624.102 356.455C623.327 358.314 622.56 360.073 622.158 362.055C621.457 365.505 618.981 368.799 616.027 370.683C612.917 372.667 609.44 374.457 605.993 375.774C600.952 375.419 597.194 377.106 591.746 375.917Z"/>
	<path fill="#FAF3E6" d="M416.586 294.881L417.1 295.113C417.084 296.294 410.368 304.656 409.155 306.578C400.499 320.292 402.986 334.653 406.477 349.455C401.674 340.799 399.529 331.954 400.403 322.08C400.921 315.681 404.637 309.84 407.177 304.062C402.722 309.719 400.404 314.241 399.291 321.41C398.943 323.65 398.798 325.938 397.878 328.028C397.513 324.566 397.136 320.985 397.732 317.527C399.476 307.411 408.711 300.429 416.586 294.881Z"/>
	<path fill="#FEFEFD" d="M522.082 276.252C525.385 278.778 528.168 283.884 530.303 287.446C543.569 309.583 552.351 326.222 545.732 352.39C545.566 352.738 545.262 353.002 545.007 353.29C544.74 352.458 544.708 352.702 544.804 351.964C547.476 331.425 543.212 316.095 533.057 298.302C528.928 291.067 524.904 284.149 522.082 276.252Z"/>
	<path fill="#FEFEFD" d="M493.746 277.39C497.865 283.436 485.081 324.477 483.392 334.162C482.279 340.541 482.212 347.002 482.261 353.454C476.104 340.143 488.559 292 493.746 277.39Z"/>
	<path fill="#FAF3E6" d="M599.874 343.87L600.657 343.612C605.399 342.016 613.72 340.919 618.485 342.843L617.739 343.993L617.738 344.69C615.937 346.525 613.998 349.003 611.827 350.356C603.214 352.325 591.054 360.98 583.22 365.669C589.68 358.87 595.355 352.13 599.874 343.87Z"/>
	<path fill="#E9DCC7" d="M880.761 602.125C884.491 602.974 887.925 604.908 891.736 605.57C895.943 606.301 907.856 605.091 910.551 607.241C910.719 607.866 910.781 607.97 910.791 608.707Q910.803 609.256 910.713 609.797Q910.623 610.339 910.434 610.854Q910.246 611.37 909.965 611.841Q909.685 612.313 909.322 612.725C903.998 614.767 898.213 614.908 892.617 614.05C888.562 613.429 883.942 612.162 881.507 608.578C879.974 606.322 880.294 604.73 880.761 602.125Z"/>
	<path fill="#FAF3E6" d="M485.845 174.538C492.011 177.192 497.203 181.227 501.994 185.881C501.775 187.481 501.336 189.686 502.009 191.186C502.876 189.921 503.007 188.437 503.279 186.96L509.334 193.582L510.768 196.231C509.016 196.683 507.28 197.004 505.468 197.093C500.791 197.323 496.157 194.891 492.818 191.768C487.635 186.921 486.119 181.354 485.845 174.538Z"/>
	<path fill="#FAF3E6" d="M459.773 167.697C463.084 167.449 466.26 167.234 469.574 167.541Q471.07 168.873 472.506 170.27C483.404 180.976 487.465 194.59 487.539 209.541C486.599 206.439 485.863 203.251 485.049 200.112C484.485 197.886 483.863 195.72 483.009 193.585C478.721 182.878 469.678 176.168 459.132 172.242C456.268 171.176 453.073 170.665 450.315 169.417C450.076 169.309 449.839 169.195 449.601 169.085C452.962 168.498 456.388 168.14 459.773 167.697Z"/>
	<path fill="#FEFEFD" d="M501.146 307.36L501.633 307.814C505.328 318.634 501.578 345.772 500.891 357.701C500.602 362.722 500.841 367.739 500.314 372.749L499.877 372.631C495.08 356.69 496.687 340.037 498.508 323.756C499.112 318.352 499.539 312.569 501.146 307.36Z"/>
	<path fill="#FEFEFD" d="M496.851 302.882C497.583 311.064 495.225 321.603 494.414 329.907C493.482 339.455 492.769 349.689 493.859 359.246C494.363 363.676 495.803 368.003 496.453 372.409C496.613 373.495 496.88 374.508 496.215 375.425L494.743 374.049Q493.862 372.827 493.095 371.531C484.453 357.163 489.104 337.892 492.425 322.602C493.854 316.024 495.217 309.413 496.851 302.882Z"/>
	<path fill="#FAF3E6" d="M504.38 380.818C503.21 364.491 506.05 348.144 505.931 331.834C505.8 313.915 502.61 296.146 502.682 278.241C503.638 281.427 504.351 284.684 505.116 287.92C509.475 315.866 510.253 343.095 506.246 371.15C505.219 373.918 505.004 377.841 504.38 380.818Z"/>
	<path fill="#FAF3E6" d="M455.416 285.509L455.678 286.097C454.485 287.342 453.287 288.598 452.196 289.933C441.535 302.98 432.051 321.714 433.492 338.921C433.945 344.324 436.174 349.289 436.66 354.542L436.277 354.883L435.218 353.837C429.913 343.903 427.081 333.233 429.445 321.996C432.408 307.91 443.502 293.327 455.416 285.509Z"/>
	<path fill="#E9DCC7" d="M416.703 391.349C417.301 394.407 417.213 398.196 416.621 401.245C415.707 405.96 413.18 410.409 409.119 413.086C404.664 416.023 399.073 416.187 394.014 414.933C389.954 413.925 386.871 412.248 384.685 408.642C384.18 406.721 383.122 404.111 383.447 402.151L383.794 402.066C384.462 403.887 385.224 405.654 386.905 406.765C389.52 408.493 393.277 407.802 396.103 407.066C405.266 404.678 411.88 399.391 416.703 391.349Z"/>
	<path fill="#FAF3E6" d="M357.386 248.999C358.996 241.447 359.439 231.175 364.351 224.929C365.587 223.358 367.304 222.229 369.331 222.078C374.919 221.66 380.75 227.4 384.886 230.66C382.324 232.726 378.422 235.925 375.376 237.089C373.869 237.666 372.828 237.576 371.363 236.997C370.185 235.538 370.28 233.713 370.149 231.922C370.552 228.74 371.148 225.743 371.965 222.642C369.38 225.949 367.363 227.978 367.447 232.389C367.521 235.282 368.563 237.191 369.764 239.765C365.715 242.967 361.585 245.999 357.386 248.999Z"/>
	<path fill="#E9DCC7" d="M418.446 375.198C418.678 379.71 415.032 385.772 412.436 389.33C408.324 391.553 404.072 391.657 399.489 391.637C395.551 391.62 386.035 391.663 383.122 388.728L383.251 387.444C383.706 383.896 383.567 380.437 383.435 376.871C389.746 380.376 395.793 383.287 403.226 382.997C409.814 382.741 414.107 379.834 418.446 375.198Z"/>
	<path fill="#FAF3E6" d="M355.319 205.171C357.737 208.912 360.345 212.276 363.582 215.356C360.241 219.935 356.753 224.38 353.777 229.211C349.752 230.215 344.234 231.821 340.114 231.161L339.907 230.56C342.511 227.877 346.178 226.495 348.985 223.899C349.152 223.745 349.324 223.595 349.491 223.441C349.592 223.348 349.69 223.253 349.79 223.159C345.144 225.035 340.62 227.464 335.891 229.057C339.86 223.995 350.221 208.824 354.486 206.14L355.319 205.171Z"/>
	<path fill="#FAF3E6" d="M352.347 232.11L353.008 232.2C353.089 232.315 353.187 232.42 353.251 232.546C354.185 234.411 353.132 238.289 352.687 240.29C351.498 245.634 348.457 257.597 343.66 260.67C342.318 260.435 342.375 260.164 341.554 259.047C336.746 250.663 336.809 242.586 337.615 233.197C342.92 233.673 347.131 233.195 352.347 232.11Z"/>
	<path fill="#FAF3E6" d="M439.756 175.855C440.859 177.161 441.955 178.542 442.871 179.989C444.1 181.933 444.948 184.78 444.367 187.079C444.095 188.155 444.042 187.952 443.183 188.486C441.707 188.147 441.003 186.892 440.117 185.763Q437.477 186.993 434.876 188.304C434.504 189.456 434.561 189.402 435.073 190.512C437.022 190.74 439.971 190.541 441.705 191.352C442.961 191.939 443.666 192.686 444.175 193.976C444.865 195.724 444.689 199.559 443.837 201.237C442.722 203.433 439.826 204.316 437.692 205.067C431.823 206.276 426.688 209.243 420.746 210.215C429.854 200.749 431.367 186.168 439.756 175.855Z"/>
	<path fill="#FAF3E6" d="M415.907 172.186C418.403 171.807 421.172 172.052 423.702 172.061C406.262 178.106 396.769 181.797 387.053 198.195L378.308 198.669C376.425 199.007 374.404 198.963 372.493 199.044C373.782 196.651 375.055 194.352 376.819 192.27Q377.73 191.195 378.694 190.165Q379.657 189.136 380.669 188.156Q381.682 187.175 382.741 186.245Q383.801 185.315 384.905 184.439Q386.009 183.562 387.154 182.741Q388.3 181.919 389.484 181.155Q390.669 180.391 391.889 179.686Q393.11 178.981 394.364 178.337Q395.618 177.693 396.901 177.111Q398.185 176.529 399.496 176.011Q400.807 175.493 402.142 175.04Q403.477 174.587 404.832 174.2Q406.188 173.813 407.56 173.493Q408.933 173.173 410.32 172.921Q411.707 172.668 413.105 172.485Q414.502 172.301 415.907 172.186Z"/>
	<path fill="#FEFEFD" d="M382.321 477.252C379.132 470.627 375.421 462.907 374.57 455.52C374.184 452.168 374.315 448.149 376.602 445.436C378.361 443.35 381.11 442.539 383.753 442.419C386.885 442.277 389.797 443.23 392.098 445.385C398.975 451.825 398.665 466.011 399.029 474.733C396.541 468.174 393.26 461.042 388.119 456.105C386.129 454.195 384.182 452.873 381.37 452.939C380.16 453.599 379.543 453.96 379.033 455.295C376.88 460.935 381.344 471.181 383.302 476.519L382.321 477.252Z"/>
	<path fill="#FAF3E6" d="M383.302 476.519C387.055 482.718 390.449 488.006 395.93 492.809C397.021 489.479 398.099 486.234 399.613 483.068Q404.843 500.939 408.638 519.169C400.272 515.571 395.363 510.584 391.966 502.145C388.635 493.871 385.82 485.489 382.321 477.252L383.302 476.519Z"/>
	<path fill="#FEFEFD" d="M522.827 212.273C523.436 212.642 523.995 212.99 524.527 213.466C531.9 220.061 540.935 240.635 546.714 250.004C548.7 253.226 555.28 260.817 556.028 263.789C556.069 263.953 556.063 264.125 556.07 264.294C556.12 265.391 556.18 265.481 555.417 266.311L553.476 266.28C552.607 269.476 551.561 271.259 549.378 273.754C543.33 266.583 538.845 256.048 535.329 247.368C532.816 242.532 531.523 237.257 529.099 232.404C529.014 232.233 528.925 232.064 528.837 231.895L529.089 231.287C535.815 240.566 539.874 251.925 547.807 260.308C546.544 256.815 541.37 249.925 539.221 246.148C533.609 236.286 526.812 222.832 522.827 212.273Z"/>
	<path fill="#FAF3E6" d="M407.456 184.313C413.653 178.781 418.788 176.295 426.731 174.112L428.337 180.728C424.866 189.794 420.767 198.847 414.969 206.688C411.866 205.382 406.99 204.119 405.335 200.926C404.085 198.515 405.606 195.635 406.534 193.4C409.609 185.198 416.463 180.721 423.712 176.579L421.586 177.15C421.143 177.268 420.698 177.376 420.258 177.503C412.381 179.776 408.124 185.206 404.424 192.094C403.874 193.81 403.365 196.196 402.371 197.693C401.487 199.024 400.574 199.837 399.014 200.178L398.369 199.419C398.018 196.467 399.298 194.345 400.687 191.819C402.774 189.142 405.091 186.744 407.456 184.313Z"/>
	<path fill="#FEFEFD" d="M562.633 366.573C564.56 361.224 566.45 355.934 567.418 350.307C571.025 329.355 562.61 309.956 548.934 294.438C541.681 286.207 533.769 278.927 528.365 269.23C522.712 259.088 520.337 247.524 517.382 236.412C515.691 230.052 513.705 223.744 511.731 217.467L512.17 217.53C515.182 221.601 516.321 227.094 517.464 231.934C521.713 249.932 524.386 265.545 538.278 279.156C542.267 283.064 546.771 286.338 550.955 290.014C552.267 291.207 553.592 292.403 554.823 293.68C566.511 305.809 573.24 326.854 572.866 343.469C572.647 353.182 569.664 359.92 562.633 366.573Z"/>
	<path fill="#E9DCC7" d="M849.434 657.249C851.893 658.609 853.319 664.252 857.981 666.828C872.012 674.579 890.202 676.799 905.996 675.953C908.899 675.798 912.183 675.805 914.987 675.041C920.047 673.662 924.294 669.932 929.168 668.707C930.283 668.427 930.412 668.534 931.317 669.116C931.71 670.774 931.114 672.03 930.572 673.573C923.383 677.885 916.437 679.77 908.134 680.666C891.473 682.464 863.919 680.745 850.414 669.351C848.619 667.836 847.158 665.923 846.992 663.508C846.816 660.918 847.754 659.126 849.434 657.249Z"/>
	<path fill="#FEFEFD" d="M495.177 257.84C497.425 266.673 490.904 281.333 488.452 290.043C486.958 295.347 485.798 300.739 484.672 306.13C482.099 318.439 479.913 331.275 479.442 343.86C479.046 354.455 480.035 367.168 486.284 376.211C488.384 379.251 491.265 381.983 493.78 384.681C492.731 385.301 491.942 384.783 490.799 384.497C484.827 380.299 481.018 374.269 478.483 367.525C468.464 340.872 478.743 308.403 486.886 282.402C489.432 274.272 491.708 265.602 495.177 257.84Z"/>
	<path fill="#E9DCC7" d="M388.084 355.069C395.791 358.655 403.762 360.848 411.532 364.108C414.167 365.213 419.36 367.503 420.464 370.172C419.469 372.837 415.768 374.987 413.437 376.531C407.738 379.232 402.28 379.584 396.195 377.882C389.67 376.057 385.723 373.063 382.474 367.236C385.116 363.237 386.823 359.711 388.084 355.069Z"/>
	<path fill="#FAF3E6" d="M368.511 159.763C365.405 162.368 363.21 165.508 360.534 168.516L360.266 168.267C362.497 159.672 371.395 150.805 378.981 146.553C387.439 141.811 398.523 140.75 407.757 143.592C419.642 147.249 427.717 156.171 435.07 165.701C433.037 164.701 429.936 162.655 427.669 162.705C418.388 157.307 407.405 152.702 396.615 151.798C386.62 150.961 376.265 153.157 368.511 159.763Z"/>
	<path fill="#FAF3E6" d="M531.31 284.408C531.788 284.784 531.845 284.805 532.324 285.327C535.585 288.888 538.323 293.875 540.899 297.979C551.197 314.378 554.406 321.405 553.783 340.713C554.215 339.661 554.596 338.606 554.851 337.494C558.249 322.639 548.948 308.308 541.412 296.363C543.465 298.361 545.482 300.416 547.283 302.646C557.992 315.903 562.269 331.633 560.408 348.524C559.642 352.998 558.327 357.476 556.38 361.582C550.989 372.952 542.173 377.755 530.767 381.821C538.886 374.442 545.77 366.436 549.669 356.031C556.692 337.291 550.892 319.217 541.477 302.486C538.179 296.624 534.284 290.985 531.505 284.848L531.31 284.408Z"/>
	<path fill="#FAF3E6" d="M534.338 178.416C537.293 178.568 539.966 178.998 542.662 180.286C547.053 182.384 550.161 186.099 551.567 190.748C553.667 197.694 551.65 203.468 548.424 209.585L542.4 207.578Q533.309 205.467 524.271 203.138C523.341 201.855 522.327 200.639 521.33 199.407C528.507 192.686 531.979 188.18 534.338 178.416Z"/>
	<path fill="#FAF3E6" d="M621.964 429.545C623.24 429.582 624.441 429.657 625.598 430.269C627.472 431.26 628.313 433.017 628.91 434.958C629.991 438.476 629.694 442.255 629.3 445.868C628.633 451.98 626.837 458.008 625.679 464.044C623.446 475.684 622.905 490.589 617.111 500.998C615.939 503.104 613.778 505.977 611.158 506.315C609.673 506.507 609.401 506.211 608.261 505.386C606.012 501.297 607.588 494.323 608.092 489.851C610.417 488.557 612.29 486.78 614.257 485.015C614.51 484.765 614.759 484.51 614.997 484.245C620.793 477.8 622.694 471.562 619.477 463.355C618.546 460.978 617.299 458.491 617.202 455.903C617.158 454.737 616.999 454.361 617.819 453.501C618.578 453.55 619.559 453.719 620.267 453.362C623.363 451.799 624.917 440.101 625.785 436.757C617.482 443.117 617.13 448.924 612.027 457.414C613.173 452.128 613.776 446.733 614.935 441.443C616.031 436.442 617.521 432.38 621.964 429.545Z"/>
	<path fill="#FAF3E6" d="M507.601 274.218C516.393 280.976 526.02 309.983 531.538 321.226C529.194 308.05 523.163 300.06 518.12 288.427L517.844 287.782C520.6 290.69 522.998 293.897 525.224 297.225C536.349 313.858 542.442 335.463 538.466 355.387Q537.739 358.813 536.428 362.06C531.696 373.484 522.319 379.673 511.348 384.324C517.185 380.102 522.154 375.481 525.481 368.989C538.355 343.869 527.624 317.495 516.57 294.131C513.612 287.878 509.87 281.466 507.807 274.893L507.601 274.218Z"/>
	<path fill="#FEFEFD" d="M513.284 216.788L512.871 216.212C511.424 214.157 509.165 210.983 508.917 208.481C513.318 213.073 515.723 220.015 520.076 224.067C518.072 216.653 511.817 211.609 508.615 204.973C529.141 221.783 522.385 253.317 537.002 273.676C540.228 278.168 544.681 281.767 548.989 285.165C553.792 288.955 558.506 292.696 564.339 294.758C575.303 308.839 583.307 324.976 581.105 343.249Q580.935 344.729 580.649 346.19C577.063 350.069 573.939 354.199 570.782 358.424C574.924 343.147 574.489 333.712 569.535 318.644C567.805 313.381 565.938 308.096 563.141 303.291C560.079 298.031 556.049 293.773 551.627 289.646C545.605 283.829 538.813 279.037 533.754 272.237C521.252 255.431 523.496 231.361 513.284 216.788Z"/>
	<path fill="#FEFEFD" d="M471.837 281.416C472.2 284.42 467.446 289.065 466.042 291.762C462.814 297.961 460.056 305.234 457.907 311.869C450.169 335.752 452.143 354.282 463.346 376.401Q460.066 374.55 456.818 372.643C447.824 364.719 443.25 356.238 442.554 344.138C442.227 338.44 442.909 332.69 444.08 327.119C448.204 307.493 459.047 295.82 471.837 281.416Z"/>
	<path fill="#FAF3E6" d="M450.457 280.912L450.924 281.346C450.926 282.649 450.239 283.455 449.447 284.447C444.116 291.121 437.799 296.197 432.519 303.47C429.545 307.568 427.084 311.982 425.408 316.772C420.343 331.249 425.301 342.959 431.587 355.998C423.7 347.553 419.105 335.408 419.522 323.831C420.088 308.173 429.538 299.972 440.301 290.092C431.18 294.426 421.845 304.197 418.277 313.63C416.856 319.544 415.942 325.315 416.446 331.415C417.938 349.446 430.17 360.882 443.15 371.883C432.232 369.151 422.267 362.662 416.35 352.95C410.35 343.102 408.647 330.304 411.48 319.154C415.341 303.957 428.232 295.393 440.618 287.451C443.938 285.322 447.077 282.946 450.457 280.912Z"/>
	<path fill="#FAF3E6" d="M445.455 175.273C449.857 175.763 455.238 177.501 459.354 179.136C468.32 182.698 475.463 188.601 479.26 197.63C481.175 202.183 483.459 210.556 481.219 215.228C480.807 216.089 480.532 216.367 479.656 216.714C477.362 213.667 477.916 203.452 477.169 199.294C473.574 195.288 460.001 181.536 455.793 179.817C457.607 182.181 459.933 184.104 461.975 186.27C464.589 189.043 466.803 192.161 468.958 195.294C473.756 203.127 474.237 209.885 474.565 218.82C463.806 219.9 455.682 221.626 447.11 228.556C445.1 227.737 443.166 226.759 441.216 225.806C445.674 222.406 449.259 219.329 452.277 214.507C453.412 216.71 454.274 219.067 455.208 221.361Q456.031 220.344 456.804 219.29Q457.076 218.913 457.329 218.522Q457.581 218.132 457.814 217.73Q458.047 217.327 458.26 216.914Q458.472 216.5 458.664 216.076Q458.855 215.653 459.025 215.22Q459.196 214.787 459.344 214.347Q459.492 213.906 459.618 213.458Q459.745 213.011 459.848 212.557Q459.952 212.104 460.033 211.646Q460.114 211.188 460.171 210.727Q460.229 210.266 460.264 209.802Q460.299 209.338 460.31 208.873Q460.322 208.409 460.31 207.944Q460.299 207.479 460.264 207.015Q460.229 206.552 460.171 206.09Q460.113 205.629 460.032 205.171C459.25 200.883 457.089 198.46 453.577 196.153C451.99 188.161 450.273 181.976 445.455 175.273Z"/>
	<path fill="#FEFEFD" d="M502.934 272.882C515.623 298.237 527.137 332.846 517.982 360.757C515.553 368.165 511.854 374.302 506.128 379.608C506.71 377.274 507.379 374.929 507.784 372.558C507.082 372.108 506.772 371.776 506.246 371.15C510.253 343.095 509.475 315.866 505.116 287.92L505.758 287.626C504.798 282.739 503.487 277.829 502.934 272.882ZM505.116 287.92C509.475 315.866 510.253 343.095 506.246 371.15C506.772 371.776 507.082 372.108 507.784 372.558C512.819 351.39 511.541 308.353 505.758 287.626L505.116 287.92Z"/>
	<path fill="#141617" fill-opacity="0.98431373" d="M505.116 287.92L505.758 287.626C511.541 308.353 512.819 351.39 507.784 372.558C507.082 372.108 506.772 371.776 506.246 371.15C510.253 343.095 509.475 315.866 505.116 287.92Z"/>
	<path fill="#E9DCC7" d="M235.569 675.498C237.491 674.656 239.802 673.862 241.449 672.536C245.745 669.08 247.621 663.378 252.951 661.154C251.851 680.167 234.322 715.942 219.836 728.822C216.891 731.441 212.868 734.321 208.729 734.039C205.596 733.826 203.011 731.725 201.1 729.379C195.298 722.253 191.795 710.053 192.959 701.016Q193.056 700.267 193.163 699.52C193.266 699.72 193.373 699.919 193.473 700.12C197.619 708.443 195.488 721.296 206.052 725.143C207.452 725.653 208.904 725.948 210.365 726.225C216.952 724.53 222.9 718.308 226.357 712.532C227.226 711.08 227.59 709.908 227.643 708.229C227.021 706.981 226.943 706.794 225.549 706.319C224.983 706.126 224.204 706.074 223.626 705.994C224.31 701.415 231.059 687.409 232.944 681.185C234.059 679.96 234.474 677.089 235.569 675.498Z"/>
	<path fill="#FAF3E6" d="M879.537 613.047C891.031 618.963 897.012 619.654 909.687 617.279C908.88 625.656 908.112 638.138 905.023 645.934C901.285 648.021 897.568 649.399 893.227 649.539C886.448 649.758 881.322 646.738 876.488 642.346C876.326 632.397 877.723 622.788 879.537 613.047Z"/>
	<path fill="#FAF3E6" d="M504.4 151.66C505.986 151.665 507.478 151.868 509.028 152.217C516.015 153.789 522.018 158.542 525.767 164.571C529.04 169.835 530.368 176.126 528.734 182.176C526.891 188.999 522.585 192.79 516.7 196.136C523.63 187.801 520.046 187.255 524.124 179.82C524.57 179.007 524.398 178.714 524.326 177.809L523.742 177.472C522.781 178.605 521.898 179.801 520.999 180.983C519.773 181.452 519.21 181.472 517.925 181.215L517.581 180.449L518.551 178.166L518.321 177.696C517.175 178.846 516.539 179.984 515.799 181.421C515.997 181.549 516.184 181.697 516.393 181.805C517.474 182.36 518.722 182.621 519.678 183.424C520.731 184.307 521.07 185.27 521.321 186.564C520.91 189.28 518.677 191.3 516.867 193.221C513.325 189.108 508.027 184.187 506.027 179.138L506.438 178.204C508.276 177.339 510.654 178.283 512.68 178.276L512.973 177.77L512.586 177.065C509.927 176.174 506.444 177.449 503.818 178.188C498.27 174.356 492.231 171.163 486.37 167.83Q487.166 165.768 488.182 163.804C491.775 157.005 497.34 153.856 504.4 151.66Z"/>
	<path fill="#7B7B78" d="M230.939 564.916Q232.727 565.379 234.469 565.995Q236.21 566.61 237.893 567.373Q239.575 568.135 241.185 569.04Q242.795 569.945 244.322 570.985C267.407 586.977 274.775 619.944 279.554 645.927C273.232 646.895 265.612 647.591 261.125 652.695C260.771 645.627 260.848 638.515 260.264 631.461C257.943 603.427 249.404 585.481 230.939 564.916Z"/>
	<path fill="#FAF3E6" d="M369.565 161.892C379.294 155.25 388.652 152.594 400.376 154.855C409.235 156.564 416.969 161.018 425.491 163.6C428.247 164.878 432.477 167.525 435.392 167.872C435.567 167.893 435.744 167.879 435.92 167.883C435.243 168.404 434.992 168.216 434.186 168.109C425.159 166.906 417.813 164.378 408.53 165.988C395.013 168.332 381.132 176.634 372.953 187.704C370.691 190.766 369.667 194.646 367.443 197.805C365.882 198.756 363.067 198.512 361.245 198.596C361.103 198.463 360.949 198.343 360.821 198.198C358.68 195.765 358.12 192.02 358.092 188.901C358.023 181.249 360.48 171.986 365.371 165.967C366.574 164.487 368.21 163.254 369.565 161.892Z"/>
	<path fill="#FAF3E6" d="M870.053 640.401L870.46 640.589C872.728 643.76 875.403 647.402 878.777 649.415C884.782 652.998 893.55 654.547 900.321 652.676C905.088 651.359 907.464 649.12 909.925 644.969C916.873 650.423 922.3 657.057 927.884 663.835C924.694 666.247 921.554 667.878 917.797 669.211C905.37 671.487 893.822 672.23 881.279 670.024C869.967 668.034 860.168 664.911 853.319 655.159C858.184 649.203 863.907 644.919 870.053 640.401Z"/>
	<path fill="#FEFEFD" d="M491.141 238.852C491.382 239.091 491.666 239.292 491.864 239.567C497.204 246.96 479.302 296.92 476.531 307.868C474.055 317.647 472.148 327.517 471.625 337.615C470.719 355.114 474.995 370.959 486.845 384.076C483.518 383.126 480.365 382.168 477.233 380.68C474.273 379.026 471.755 377.077 469.376 374.662C462.618 367.802 459.323 359.418 457.971 349.995C453.006 315.385 475.843 289.942 486.741 259.426C489.214 252.501 491.119 246.261 491.141 238.852Z"/>
	<path fill="#E9DCC7" d="M285.725 646.985L291.725 646.987C300.741 686.623 282.524 742.836 274.741 782.433C269.109 768.253 262.87 754.476 254.517 741.661C274.331 724.076 284.989 699.746 286.461 673.376C286.949 664.64 286.92 655.654 285.725 646.985Z"/>
	<path fill="#FEFEFD" d="M482.457 166.52C477.656 164.878 473.367 163.176 469.661 159.557C463.617 153.654 459.29 143.401 459.525 134.929C459.687 129.119 462.076 123.517 466.398 119.585C471.555 114.896 478.845 113.059 485.691 113.433C492.86 113.825 498.866 116.822 503.573 122.164C505.616 125.031 506.965 128.143 508.819 131.091L508.681 131.557C507.168 136.821 507.025 142.387 504.045 147.119C503.925 147.309 503.813 147.504 503.696 147.695L503.482 148.038C502.955 148.358 502.144 148.533 501.541 148.713C500.78 148.94 500.029 149.155 499.279 149.424C490.084 152.712 486.396 158.012 482.457 166.52Z"/>
	<path fill="#141617" d="M492.184 133.553C494.066 133.457 496.561 133.132 498.381 133.734C499.605 134.139 500.275 134.642 500.879 135.749C499.382 137.569 486.219 138.929 481.92 141.246C479.575 142.509 477.763 144.344 475.913 146.217C475.109 147.239 474.117 148.75 473.034 149.48C472.224 150.024 471.906 149.925 471.013 149.782L470.656 148.687C470.887 147.727 471.112 146.895 471.607 146.031C475.825 138.676 484.494 135.581 492.184 133.553Z"/>
	<path fill="#FAF3E6" d="M868.471 704.282C884.87 703.152 904.21 706.952 917.728 716.721C920.411 718.66 923.619 721.443 924.002 724.965C924.182 726.628 923.529 728.263 922.496 729.544C917.399 735.864 905.362 736.949 897.805 737.967C880.794 738.193 859.62 735.246 845.954 724.11C843.906 722.441 841.491 720.156 841.357 717.321C841.275 715.575 842.154 714.064 843.294 712.818C849.39 706.159 859.988 704.678 868.471 704.282Z"/>
	<path fill="#FAF3E6" d="M844.651 669.229C854.664 676.202 853.997 677.891 867.139 681.81C882.94 686.521 903.38 688.262 919.374 683.517C924.097 682.116 928.282 679.993 932.612 677.67C932.534 683.1 928.908 717.959 926.898 720.714L926.137 720.468Q924.386 718.325 922.393 716.405C909.266 703.647 887.528 700.075 869.983 700.435C858.193 700.677 847.593 703.913 839.282 712.511C839.798 705.54 841.092 698.547 842.057 691.621Q843.526 680.445 844.651 669.229Z"/>
	<path fill="#E9DCC7" d="M261.125 652.695C265.612 647.591 273.232 646.895 279.554 645.927C279.674 652.365 280.389 658.789 280.276 665.23C279.857 689.019 273.361 713.764 256.525 731.395C251.021 737.158 243.926 741.679 235.714 741.697C229.865 741.711 223.951 739.843 218.759 737.258C238.226 721.782 250.409 696.647 256.779 673.02C258.594 666.29 259.607 659.475 261.125 652.695Z"/>
	<path fill="#7B7B78" d="M764.357 569.54L764.532 569.638C764.318 571.717 758.084 578.53 756.526 581.002C749.23 592.58 747.276 607.601 748.235 620.999C750.043 646.27 767.801 692.427 782.209 713.281C785.503 718.049 789.079 721.872 793.457 725.663C794.3 725.237 795.118 724.796 795.925 724.304C810.187 715.621 813.73 699.34 817.394 684.22C818.801 683.319 820.381 682.625 821.879 681.88C821.426 687.992 820.405 693.885 819.224 699.888C815.525 710.758 811.405 722.86 801.546 729.775C796.739 733.147 791.244 734.555 785.458 733.322C775.983 731.303 767.595 718.258 762.772 710.683C743.961 681.141 728.364 644.548 736.426 608.993C740.425 591.362 749.077 579.074 764.357 569.54Z"/>
	<path fill="#FAF3E6" d="M577.983 578.48C579.382 580.167 578.519 593.207 578.719 596.209C579.284 604.693 581.448 612.454 584.053 620.487C581.853 626.859 578.585 632.559 573.772 637.311C558.145 652.737 533.461 658.477 512.128 658.303C475.798 658.007 452.324 643.621 427.502 618.513C427.232 618.166 426.289 616.955 426.28 616.475C426.233 614.086 431.182 606.526 432.174 603.41C434.423 596.343 435.355 589.292 436.205 581.962C446.845 593.386 457.702 604.312 470.109 613.834C484.797 625.109 499.177 629.567 517.698 627.079C545.527 623.34 562.169 599.221 577.983 578.48Z"/>
	<path fill="#E9DCC7" d="M334.369 298.798C338.255 321.453 309.212 372.111 330.836 387.931C333.337 389.761 336.087 390.562 339 391.484C313.535 411.57 292.904 436.629 272.281 461.476C267.738 466.949 262.886 472.159 258.367 477.637C252.174 451.468 236.352 432.438 247.775 403.44Q250.829 395.872 255.211 388.988C256.788 386.481 259.367 383.774 260.31 381L259.641 380.147C263.937 378.421 267.739 375.612 272.078 373.855C280.758 370.34 290.33 366.713 297.856 361.078C312.254 350.299 318.926 331.953 326.154 316.168C328.817 310.352 331.879 304.685 334.369 298.798Z"/>
	<path fill="#FAF3E6" d="M334.369 298.798C337.362 288.859 346.537 266.949 352.919 259.496C354.492 257.659 356.636 256.655 358.728 255.528C363.921 252.732 368.779 249.848 373.588 246.431C386.6 237.186 403.041 221.857 420.414 226.756C423.425 227.605 425.903 229.264 428.98 229.993C429.647 230.151 429.93 230.303 430.413 230.782C429.461 232.688 426.958 233.82 426.631 235.93C427.351 238.054 429.044 239.713 430.469 241.408C421.034 239.432 412.849 239.74 403.319 240.764C395.485 248.674 385.66 254.605 375.887 259.848C371.769 262.057 367.15 264.013 363.46 266.902C362.136 267.939 361.821 268.387 361.776 270.067C362.188 270.677 362.326 271.248 363.099 271.422C371.507 273.315 399.978 248.477 410.729 246.453C418.901 244.914 427.384 246.909 435.269 249.022C439.305 250.104 447.963 252.58 450.491 256.036C451.108 256.878 451.573 258.059 451.286 259.112C450.903 260.518 449.637 261.439 448.607 262.396C432.025 259.503 423.464 256.918 407.575 264.815C402.964 267.107 398.508 269.769 393.831 271.919C388.328 274.448 380.673 276.227 375.825 279.724C375.308 280.098 375.262 280.186 374.896 280.602C375.005 282.166 375.629 283.197 376.369 284.531C379.238 285.642 386.599 281.576 389.447 280.317C394.123 278.25 398.856 276.255 403.486 274.09C416.303 268.097 427.847 262.841 442.105 268.175C443.83 268.82 446.321 269.959 447.16 271.752C447.701 272.909 447.473 273.849 446.922 274.938C443.1 282.507 421.814 284.497 414.511 288.206C409.722 290.638 405.02 295.006 401.367 298.9C389.042 312.039 387.901 326.261 383.539 342.895C377.115 367.394 366.783 386.273 340.444 391.226Q339.723 391.361 339 391.484C336.087 390.562 333.337 389.761 330.836 387.931C309.212 372.111 338.255 321.453 334.369 298.798Z"/>
	<path fill="#FAF3E6" d="M838.339 719.318C839.133 719.9 839.51 720.634 840.006 721.464C840.691 722.611 841.356 723.742 842.173 724.804C850.032 735.024 866.123 739.175 878.404 740.779C895.543 743.018 911.965 741.882 925.945 731.048C924.399 747.14 921.676 763.134 919.785 779.192C917.477 798.796 916.886 820.035 910.975 838.921C909.773 840.374 908.463 841.765 906.967 842.921C896.48 851.027 879.407 851.727 866.866 850.041C853.378 848.228 836.576 843.48 828.061 831.97C825.716 828.801 825.232 826.38 825.088 822.544C824.6 809.455 827.822 795.786 829.586 782.839C832.472 761.662 834.979 740.428 838.339 719.318Z"/>
	<path fill="#141617" d="M840.116 730.731C841.025 731.358 841.262 731.57 841.574 732.719C841.847 733.717 834.231 798.132 833.318 803.634C832.822 806.627 832.32 809.6 830.852 812.294L829.855 811.423C827.795 802.165 836.973 742.706 840.116 730.731Z"/>
	<path fill="#141617" d="M918.853 744.113C919.319 744.373 919.841 744.658 920.146 745.116C921.326 746.889 920.864 750.732 920.766 752.79C919.998 768.96 917.183 785.244 914.978 801.28C913.794 809.881 913.23 819.338 910.993 827.707C910.091 831.081 909.021 834.692 906.296 837.04C896.558 845.43 881.74 845.667 869.627 844.56C856.255 843.338 841.598 840.047 832.648 829.277C831.592 826.505 831.078 824.515 831.63 821.577L832.373 821.107C833.812 822.023 834.285 823.441 834.981 824.926C835.171 824.882 835.359 824.833 835.55 824.795C853.586 821.128 886.025 824.936 901.628 835.235C901.769 835.329 901.907 835.426 902.047 835.521C902.545 835.37 902.903 835.291 903.364 834.993C905.802 833.415 906.906 829.658 907.597 827.001C909.33 820.341 909.726 813.096 910.612 806.263L915.331 769.684C916.382 761.146 917.061 752.537 918.853 744.113Z"/>
	<path fill="#FAF3E6" d="M845.076 827.243C860.258 827.343 880.466 829.223 894.493 834.954C895.706 835.45 896.52 835.712 897.073 836.953C895.69 838.693 891.771 838.987 889.622 839.348Q886.639 839.589 883.648 839.681C869.586 840.211 847.791 837.443 837.113 827.51C839.749 827.288 842.431 827.311 845.076 827.243Z"/>
	<path fill="#FAF3E6" d="M105.937 471.12C105.923 471.371 105.917 471.622 105.894 471.872C105.435 476.826 100.627 482.974 98.5997 487.619C88.9355 509.759 82.4766 540.72 98.1379 561.601C104.421 569.977 115.414 574.151 119.669 579.469C124.542 577.721 128.385 574.482 133.008 572.302C131.45 577.044 129.913 581.325 125.178 583.773C123.021 584.889 121.064 585.344 118.689 585.691C118.613 585.702 118.539 585.721 118.464 585.736C122.289 587.429 124.7 593.68 127.886 596.619C133.842 602.113 141.004 606.801 148.323 610.258C162.694 617.046 178.748 619.25 193.358 625.383C207.82 631.453 219.825 641.761 233.264 649.595C239.808 653.41 247.564 655.444 253.34 660.438L252.951 661.154C247.621 663.378 245.745 669.08 241.449 672.536C239.802 673.862 237.491 674.656 235.569 675.498C234.474 677.089 234.059 679.96 232.944 681.185C231.059 687.409 224.31 701.415 223.626 705.994L223.316 706.15C212.072 702.653 201.299 696.817 190.926 691.313C142.73 665.741 99.8066 628.101 73.2823 579.908C62.7327 560.74 65.3127 549.531 71.241 529.557C69.2227 531.869 67.2799 534.22 65.6732 536.841C58.6062 548.371 60.5421 560.425 63.5595 572.893C56.1122 564.267 47.5993 552.321 48.5069 540.359C48.9371 534.691 51.2247 529.067 54.4341 524.412C59.91 516.471 68.3143 510.984 74.9687 504.088C85.4873 493.188 94.4393 481.151 105.937 471.12Z"/>
	<path fill="#141617" d="M227.387 664.964C229.756 668.754 232.25 672.47 235.569 675.498C234.474 677.089 234.059 679.96 232.944 681.185C230.165 676.423 228.885 670.258 227.387 664.964Z"/>
	<path fill="#141617" d="M119.669 579.469C124.542 577.721 128.385 574.482 133.008 572.302C131.45 577.044 129.913 581.325 125.178 583.773C123.021 584.889 121.064 585.344 118.689 585.691C118.613 585.702 118.539 585.721 118.464 585.736C113.016 585.728 106.087 584.049 101.768 580.49C100.07 579.091 97.2842 576.628 97.0577 574.38C100.627 572.998 107.862 577.539 111.477 578.596C113.862 579.294 116.614 579.411 119.088 579.462L119.669 579.469Z"/>
	<path fill="#FAF3E6" d="M840.358 666.167Q832.632 717.968 826.04 769.926C823.764 787.972 821.126 805.641 819.854 823.801C813.864 831.768 808.786 840.472 802.108 847.893C784.212 867.779 755.027 880.577 728.656 884.248C726.775 884.51 724.922 884.542 723.027 884.492C725.024 869.028 725.47 851.8 725.931 836.149C726.13 829.391 726.773 822.478 726.337 815.737C725.927 809.505 726.747 803.03 727.026 796.788C739.799 781.359 751.023 765.225 766.879 752.645C769.193 750.809 771.551 748.736 774.203 747.423C777.802 745.29 781.625 743.248 784.786 740.492C794.919 740.708 802.246 738.802 809.637 731.669C821.981 719.756 827.537 701.139 827.821 684.37C827.862 681.94 827.751 679.502 827.639 677.075C831.821 673.369 836.113 669.799 840.358 666.167Z"/>
	<path fill="#7B7B78" d="M774.203 747.423C774.223 747.568 774.241 747.713 774.264 747.857C776.615 762.56 806.856 770.368 793.112 790.149C783.599 803.84 766.476 808.609 750.917 811.254C746.052 812.081 741.151 812.766 736.304 813.691C733.005 814.321 729.659 815.313 726.337 815.737C725.927 809.505 726.747 803.03 727.026 796.788C739.799 781.359 751.023 765.225 766.879 752.645C769.193 750.809 771.551 748.736 774.203 747.423Z"/>
	<path fill="#E9DCC7" d="M199.661 737.67C199.824 737.766 199.985 737.864 200.149 737.959C204.139 740.257 208.369 740.201 212.666 741.47C218.353 743.15 224.451 745.498 229.994 747.631C239.729 751.375 265.478 780.696 273.477 789.745C273.932 814.356 283.336 838.918 288.957 862.734Q291.504 873.481 293.747 884.296C294.688 888.853 295.379 893.666 296.823 898.093C279.292 896.884 260.257 893.638 243.644 887.753C218.638 878.895 200.092 862.605 189.164 838.298C186.137 831.563 184.334 824.267 181.146 817.644C181.073 817.492 180.996 817.341 180.922 817.189C180.827 808.266 180.547 799.033 181.512 790.157C183.125 775.33 190.7 749.973 199.661 737.67Z"/>
	<path fill="#FAF3E6" d="M46.573 561.294C46.6682 561.402 46.7648 561.509 46.8586 561.618C49.8965 565.157 51.9466 569.405 55.0207 572.97C60.7041 579.562 67.6037 585.454 72.7885 592.403C79.6712 601.628 85.4755 611.498 92.7308 620.488C118.505 652.423 151.125 677.062 186.818 696.978C186.648 710.835 187.172 725.063 197.453 735.57C198.165 736.298 198.892 737.002 199.661 737.67C190.7 749.973 183.125 775.33 181.512 790.157C180.547 799.033 180.827 808.266 180.922 817.189C166.728 807.315 152.053 793.649 140.061 781.174Q136.064 777.043 132.209 772.778Q128.355 768.513 124.648 764.119Q120.942 759.725 117.387 755.207Q113.833 750.689 110.434 746.053Q107.035 741.417 103.797 736.667Q100.558 731.917 97.4833 727.06Q94.4085 722.203 91.5011 717.244Q88.5936 712.285 85.8569 707.23Q83.1202 702.174 80.5574 697.029Q77.9946 691.883 75.6087 686.653Q73.2228 681.423 71.0166 676.115Q68.8104 670.806 66.7864 665.426Q64.7624 660.045 62.923 654.599Q61.0836 649.153 59.4309 643.647Q57.7782 638.141 56.3142 632.582Q54.8502 627.023 53.5765 621.417C49.0377 601.507 46.1836 581.742 46.573 561.294Z"/>
	<path fill="#FAF3E6" d="M367.762 385.767C370.516 392.78 371.986 400.403 374.338 407.577C377.533 417.322 381.696 426.717 385.048 436.395C380.488 436.626 376.232 437.42 372.954 440.954C369.424 444.761 368.91 450.204 369.254 455.165C370.219 469.063 378.504 480.927 383.561 493.503C385.876 499.262 387.067 505.605 390.184 511.011C392.196 514.498 395.247 517.822 398.304 520.427C400.936 522.671 407.42 523.732 408.982 525.323C409.356 525.704 412.447 542.236 413.15 544.72C416.467 556.45 421.745 565.489 430.051 574.35C429.883 580.866 429.434 599.188 424.191 603.672C422.626 605.011 416.874 603.531 414.446 604.007C402.279 606.391 390.599 609.979 378.203 611.172C372.067 605.328 364.785 599.127 355.815 599.318C350.091 599.44 344.567 601.603 339.211 603.429C314.264 589.211 290.331 581.015 261.679 578.378C252.499 569.276 243.862 559.78 229.93 559.795C228.297 559.797 226.654 559.977 225.031 560.143C220.412 557.147 215.048 553.233 211.228 549.295C219.757 538.466 226.561 526.401 234.336 515.034C238.025 508.434 252.843 491.597 258.215 486.638Q276.818 466.449 294.381 445.348C307.326 430.026 320.538 413.508 336.436 401.099C341.596 397.072 348.43 395.996 354.385 393.615C359.317 391.643 363.531 388.946 367.762 385.767Z"/>
	<path fill="#DAA76A" d="M258.215 486.638C275.122 494.915 291.379 510.342 297.702 528.431C300.098 535.285 300.806 543.093 297.441 549.77C295.011 554.594 291.171 557.61 286.028 559.154C276.966 561.876 267.292 560.541 259.084 555.975C247.557 549.563 242.088 539.087 238.314 526.896C237.116 523.029 236.181 518.616 234.336 515.034C238.025 508.434 252.843 491.597 258.215 486.638Z"/>
	<path fill="#DAA76A" d="M354.143 454.035C356.256 453.982 358.052 454.013 359.984 454.973C363.241 456.592 364.84 459.361 366.277 462.578C370.953 473.053 371.654 484.896 375.743 495.628C380.11 507.091 387.52 517.306 391.494 529.005C394.231 537.066 395.106 546.473 391.077 554.294C387.703 560.842 382.117 563.284 375.443 565.281L374.998 565.192C362.95 562.664 353.944 554.819 347.423 544.608Q346.891 543.756 346.38 542.892Q345.868 542.028 345.379 541.151Q344.889 540.274 344.421 539.385Q343.954 538.497 343.508 537.597Q343.062 536.697 342.639 535.786Q342.216 534.876 341.815 533.955Q341.414 533.034 341.037 532.104Q340.659 531.173 340.304 530.234Q339.949 529.294 339.618 528.346Q339.287 527.398 338.979 526.442Q338.671 525.486 338.387 524.523Q338.103 523.56 337.842 522.59Q337.582 521.62 337.346 520.644Q337.11 519.668 336.898 518.686Q336.686 517.705 336.498 516.718Q336.31 515.732 336.147 514.741Q335.984 513.75 335.845 512.755Q335.707 511.761 335.592 510.763Q335.478 509.765 335.389 508.765Q335.3 507.765 335.235 506.763Q335.17 505.761 335.13 504.757Q335.091 503.754 335.075 502.75Q335.06 501.745 335.07 500.741Q335.08 499.737 335.115 498.733Q335.149 497.73 335.208 496.727Q335.268 495.725 335.352 494.724Q335.436 493.723 335.545 492.725Q335.654 491.727 335.787 490.732Q335.92 489.736 336.078 488.744Q336.236 487.753 336.419 486.765Q336.601 485.778 336.808 484.795Q337.015 483.812 337.246 482.835C339.806 471.536 343.932 460.458 354.143 454.035Z"/>
	<path fill="#E9DCC7" d="M259.641 380.147L260.31 381C259.367 383.774 256.788 386.481 255.211 388.988Q250.829 395.872 247.775 403.44C236.352 432.438 252.174 451.468 258.367 477.637Q250.694 485.787 243.381 494.262C240.883 497.12 238.342 500.698 235.506 503.18C230.354 509.655 225.556 516.229 221.075 523.186C210.478 539.64 204.629 549.968 187.291 560.574C180.089 564.979 172.775 569.018 164.655 571.488C160.235 572.832 154.931 573.362 150.814 575.499C149.445 576.21 148.395 577.772 148.318 579.315C151.823 581.195 164.555 578.027 168.477 576.833C182.556 572.545 195.881 564.104 206.761 554.271C234.014 573.945 247.582 591.012 253.01 624.957C254.913 636.857 255.404 648.544 253.34 660.438C247.564 655.444 239.808 653.41 233.264 649.595C219.825 641.761 207.82 631.453 193.358 625.383C178.748 619.25 162.694 617.046 148.323 610.258C141.004 606.801 133.842 602.113 127.886 596.619C124.7 593.68 122.289 587.429 118.464 585.736C118.539 585.721 118.613 585.702 118.689 585.691C121.064 585.344 123.021 584.889 125.178 583.773C129.913 581.325 131.45 577.044 133.008 572.302C128.385 574.482 124.542 577.721 119.669 579.469C115.414 574.151 104.421 569.977 98.1379 561.601C82.4766 540.72 88.9355 509.759 98.5997 487.619C100.627 482.974 105.435 476.826 105.894 471.872C105.917 471.622 105.923 471.371 105.937 471.12C130.405 445.258 179.764 418.288 212.057 402.185C227.535 394.046 243.601 387.091 259.641 380.147Z"/>
	<path fill="#FAF3E6" d="M259.641 380.147L260.31 381C259.367 383.774 256.788 386.481 255.211 388.988Q250.829 395.872 247.775 403.44C236.352 432.438 252.174 451.468 258.367 477.637Q250.694 485.787 243.381 494.262C240.883 497.12 238.342 500.698 235.506 503.18C229.632 504.114 225.376 509.332 221.318 513.299C226.461 503.564 230.133 494.035 231.952 483.117C237.12 452.081 230.133 427.463 212.057 402.185C227.535 394.046 243.601 387.091 259.641 380.147Z"/>
	<path fill="#FAF3E6" d="M627.538 342.611L628.663 342.988C633.175 360.132 639.106 382.867 655.595 392.3C662.393 396.189 668.766 395.894 676.248 395.276C682.897 401.817 688.628 409.417 695.051 416.231C707.547 429.487 720.903 442.333 732.492 456.386C739.48 462.885 759.792 484.449 763.718 492.461C777.178 508.554 789.88 525.132 803.891 540.774C794.06 545.682 784.482 550.088 776.268 557.55L771.445 562.977C762.551 563.183 753.471 564.014 744.942 566.679C724.896 571.653 716.877 593.589 702.76 600.166C692.178 605.096 681.968 594.218 671.245 597.703C662.628 600.503 658.33 610.386 654.594 617.873C645.961 619.109 637.007 619.212 628.304 619.591C621.979 611.097 617.048 604.708 605.747 604.249C602.751 604.127 599.579 604.291 596.714 603.333C595.091 602.791 593.261 602.095 591.561 601.909C590.116 601.751 588.518 602.144 587.534 603.276C586.22 604.789 586.275 606.92 586.317 608.792L586.336 609.398L586.029 609.398C582.251 597.837 586.148 581.321 585.234 568.878C585.219 568.668 585.199 568.458 585.181 568.247C594.973 555.926 603.034 542.337 605.257 526.499C605.969 521.425 605.785 516.295 606.595 511.232L606.711 510.526C610.856 510.591 613.756 510.504 617.16 507.839C625.14 501.593 626.206 486.713 627.444 477.381C628.962 466.21 632.63 455.57 634.808 444.539C635.269 440.452 635.702 436.444 634.358 432.439C632.587 427.162 628.597 425.201 623.928 422.962C629.788 399.797 634.327 365.703 627.538 342.611Z"/>
	<path fill="#9FB09B" d="M758.25 506.484C760.293 506.5 762.281 506.457 764.186 507.294C766.856 508.466 769.201 510.781 770.181 513.55C770.938 515.69 770.931 517.919 769.888 519.964C768.54 522.609 766.443 523.669 763.74 524.574C762.481 524.559 761.269 524.501 760.024 524.289C757.018 523.776 753.981 522.331 752.228 519.738C750.976 517.887 750.603 515.737 751.179 513.583C752.193 509.784 755.033 508.213 758.25 506.484Z"/>
	<path fill="#E9DCC7" d="M708.397 543.144L708.618 544.196C712.054 544.351 716.507 541.062 723.388 541.582C727.131 543.73 729.565 546.247 730.754 550.531C731.65 553.76 731.667 557.575 729.912 560.528C728.712 562.545 726.786 563.901 724.507 564.43C720.707 565.312 716.813 563.949 713.707 561.772C708.845 558.364 709.301 556.144 706.42 551.995C707.458 549.166 707.154 545.778 708.397 543.144Z"/>
	<path fill="#DAA76A" d="M744.942 566.679C743.446 562.242 742.1 557.963 742.185 553.215C742.28 547.908 744.268 542.598 748.143 538.896C751.864 535.34 757.364 533.18 762.522 533.413C766.532 533.594 770.345 535.182 773.022 538.227C777.987 543.875 776.552 550.7 776.268 557.55L771.445 562.977C762.551 563.183 753.471 564.014 744.942 566.679Z"/>
	<path fill="#E9DCC7" d="M732.492 456.386C739.48 462.885 759.792 484.449 763.718 492.461C763.027 493.22 763.278 492.872 762.765 493.704C761.596 495.598 760.413 497.344 758.793 498.891C755.606 501.935 749.958 502.715 745.741 502.604C737.015 502.376 728.33 497.576 722.482 491.243C718.706 487.153 716.125 482.021 716.482 476.341C716.917 469.427 720.709 464.117 726.374 460.443C728.167 459.28 730.312 458.393 731.893 456.952C732.096 456.767 732.292 456.574 732.492 456.386Z"/>
	<path fill="#DAA76A" d="M685.854 519.928C681.312 512.342 677.441 504.189 679.81 495.106Q679.932 494.635 680.077 494.171Q680.223 493.707 680.391 493.251Q680.56 492.795 680.752 492.348Q680.944 491.902 681.158 491.465Q681.372 491.029 681.608 490.603Q681.844 490.178 682.101 489.766Q682.358 489.353 682.636 488.954Q682.914 488.555 683.211 488.17Q683.509 487.786 683.826 487.417Q684.142 487.048 684.477 486.695Q684.812 486.343 685.165 486.008Q685.517 485.673 685.886 485.356Q686.255 485.04 686.64 484.742Q687.024 484.445 687.423 484.167Q687.822 483.889 688.235 483.632Q688.648 483.375 689.073 483.139C694.945 479.851 702.512 479.534 708.857 481.537C714.123 483.199 718.338 486.641 720.877 491.557C724.115 497.827 725.102 506.743 722.749 513.422C720.156 520.776 713.898 525.326 707.086 528.425Q705.682 529.061 704.263 529.661C698.857 523.329 693.797 521.568 685.854 519.928Z"/>
	<path fill="#7B7B78" d="M685.854 519.928C693.797 521.568 698.857 523.329 704.263 529.661C706.14 533.889 708.385 538.413 708.397 543.144C707.154 545.778 707.458 549.166 706.42 551.995C705.619 553.374 704.767 554.692 703.779 555.945C699.297 561.632 692.933 565.13 685.77 565.986C679.925 566.685 674.164 565.231 669.57 561.478C664.399 557.254 661.13 550.287 660.722 543.655Q660.687 543.083 660.681 542.51Q660.675 541.937 660.698 541.365Q660.722 540.792 660.775 540.222Q660.828 539.651 660.91 539.084Q660.992 538.517 661.103 537.955Q661.215 537.393 661.354 536.837Q661.494 536.282 661.663 535.734Q661.831 535.186 662.027 534.648Q662.223 534.109 662.447 533.582Q662.671 533.054 662.921 532.539Q663.172 532.024 663.448 531.522Q663.725 531.02 664.027 530.533Q664.329 530.046 664.655 529.575Q664.982 529.104 665.332 528.651Q665.683 528.198 666.056 527.763Q666.429 527.328 666.824 526.913C672.165 521.273 678.498 520.256 685.854 519.928Z"/>
	<path fill="#E9DCC7" d="M641.697 547.662C645.644 548.055 648.928 548.967 652.386 550.979C658.179 554.349 662.678 560.058 664.299 566.587C665.965 573.301 664.624 580.492 660.971 586.332C656.309 593.785 649.414 597.124 641.22 599.044C635.671 598.799 630.452 598.146 625.741 594.869C621.28 591.765 618.623 587.09 617.777 581.768C616.472 573.568 619.361 564.51 624.205 557.895C628.747 551.691 634.262 548.87 641.697 547.662Z"/>
	<path fill="#E9DCC7" d="M634.808 444.539C645.586 438.258 652.165 432.522 665.712 436.198C673.273 438.25 680.183 443.811 683.876 450.737Q684.216 451.36 684.524 452Q684.831 452.639 685.106 453.294Q685.38 453.948 685.621 454.616Q685.862 455.283 686.069 455.962Q686.275 456.642 686.447 457.33Q686.619 458.019 686.755 458.715Q686.891 459.412 686.992 460.115Q687.092 460.817 687.157 461.524Q687.221 462.231 687.25 462.94Q687.278 463.649 687.271 464.359Q687.263 465.068 687.219 465.777Q687.175 466.485 687.095 467.19Q687.015 467.896 686.899 468.596Q686.783 469.296 686.632 469.99Q686.48 470.683 686.294 471.368Q686.107 472.053 685.886 472.727C683.369 480.555 677.737 487.663 670.31 491.316C663.013 494.904 654.231 495.001 646.618 492.319C637.483 489.101 634.847 481.718 627.444 477.381C628.962 466.21 632.63 455.57 634.808 444.539Z"/>
	<path fill="#FAF3E6" d="M569.216 375.537C571.853 375.595 574.897 376.152 577.483 376.722C579.937 377.263 582.843 378.071 583.595 380.756C585.044 385.928 583.497 397.156 583.572 403.015C583.624 407.058 583.663 411.37 584.391 415.342C587.238 430.891 596.111 451.55 604.606 464.928C601.557 483.17 602.306 501.92 600.012 520.275C596.096 551.614 565.836 586.832 544.103 608.789C533.478 619.524 520.772 622.315 506.026 622.297C500.505 622.29 494.716 621.755 489.498 619.848C476.849 615.224 463.685 600.701 454.25 591.266C445.041 582.13 434.875 573.118 427.662 562.279C417.329 546.75 416.202 528.319 412.77 510.556C411.446 503.698 408.712 497.166 407.266 490.331C404.566 477.569 403.118 449.095 407.155 436.915C410.443 426.998 422.581 422.684 424.828 412.715C426.514 405.238 424.351 397.244 424.154 389.683C424.031 384.946 424.784 380.6 425.73 375.983C438.757 378.95 440.575 380.982 454.572 380.104C459.33 382.207 463.752 385.062 468.493 387.224C486.843 395.59 522.013 391.126 541.203 385.745C550.761 383.065 559.945 379.06 569.216 375.537Z"/>
	<path fill="#302C2A" d="M554.432 473.366C554.116 469.837 556.142 465.722 556.836 462.175L556.961 461.516L557.476 461.427C558.785 463.73 560.158 465.857 559.457 468.612C559.014 470.351 557.498 471.918 555.924 472.715C555.44 472.961 554.933 473.158 554.432 473.366Z"/>
	<path fill="#141617" d="M476.562 474.768L476.82 475.004C472.144 479.202 462.031 480.14 456.058 480.64L455.55 479.959L456.062 479.254C462.528 476.57 469.648 475.513 476.562 474.768Z"/>
	<path fill="#141617" d="M462.041 510.33L462.494 510.5C463.064 511.434 463.171 511.589 462.914 512.677C461.435 518.946 450.387 525.276 445.307 528.5L445.042 528.453L444.939 528.028C450.993 522.428 455.83 515.758 462.041 510.33Z"/>
	<path fill="#141617" d="M494.078 426.753C499.75 426.459 509.912 425.53 515.163 427.123L515.012 427.6C512.254 428.305 509.445 428.591 506.625 428.938C498.219 429.145 489.667 429.792 481.333 428.422C485.704 427.227 489.58 426.859 494.078 426.753Z"/>
	<path fill="#141617" d="M518.511 552.07C523.332 551.883 528.237 552.588 533.013 553.17L533.119 553.608C530.982 554.038 528.563 553.628 526.377 553.522C519.403 553.183 514.778 555.545 508.7 558.519C502.587 558.657 498.997 556.647 494.42 552.805C506.231 557.897 507.154 555.2 518.511 552.07Z"/>
	<path fill="#141617" d="M438.043 541.923C443.65 548.107 448.845 562.235 452.123 570.245C451.55 570.072 451.057 569.857 450.559 569.52C442.604 564.14 439.526 550.776 438.043 541.923Z"/>
	<path fill="#141617" d="M591.284 504.889C592.076 512.941 581.041 532.25 576.975 539.822C575.299 531.814 587.021 512.205 591.284 504.889Z"/>
	<path fill="#302C2A" d="M537.095 539.197L537.784 539.683C548.415 547.095 560.364 549.434 564.59 563.297C560.055 559.229 554.19 552.948 548.206 551.352L547.574 551.558L547.129 551.348C543.834 547.287 540.226 544.691 537.566 539.996C537.414 539.727 537.252 539.464 537.095 539.197Z"/>
	<path fill="#141617" d="M482.105 461.792C487.431 463.553 491.226 467.732 493.639 472.684C499.405 484.514 497.755 501.729 493.556 513.768L493.429 513.979L492.89 513.995C491.157 510.84 496.521 489.08 492.396 478.125C490.168 472.209 485.672 466.95 482.105 461.792Z"/>
	<path fill="#141617" d="M489.926 579.448C505.316 585.744 513.824 584.008 529.531 579.728C529.486 581.037 528.091 582.076 527.227 583.054C521.018 587.885 513.624 590.434 505.674 589.381C498.843 588.476 493.948 584.818 489.926 579.448Z"/>
	<path fill="#141617" d="M523.634 461.544C524.044 461.677 523.776 461.551 524.246 462.188C523.125 464.804 521.414 467.076 520.205 469.645C518.456 473.363 517.746 478.783 517.169 482.824C516.677 486.277 516.535 504.3 515.848 505.525L515.562 504.599C514.402 502.497 513.57 500.311 512.894 498.012C510.268 489.077 510.332 476.648 515.005 468.357C517.223 464.421 519.374 462.828 523.634 461.544Z"/>
	<path fill="#141617" d="M547.574 551.558C547.109 553.53 546.143 555.594 545.022 557.278C540.641 563.859 531.717 566.136 524.427 567.645C513.036 570.004 501.619 570.225 490.285 567.54C485.713 566.456 481.269 564.942 476.677 563.929C472.951 563.108 466.796 562.902 463.723 560.677C462.466 559.766 461.624 558.305 461.522 556.745C461.447 555.599 461.676 554.855 462.621 554.19C464.046 553.187 466.157 553.405 467.682 553.926C470.535 554.901 473.236 557.639 475.9 559.15C481.231 562.177 489.507 563.384 495.5 564.299C508.405 566.267 529.516 563.63 540.72 557.074C543.046 555.712 544.89 553.006 547.129 551.348L547.574 551.558Z"/>
	<path fill="#141617" d="M518.519 515.382C526.124 518.405 531.83 521.5 537.972 526.995L543.863 532.757C539.653 530.497 535.575 527.945 531.465 525.506C531.61 527.489 531.718 529.473 531.579 531.46C531.399 534.009 530.545 536.817 528.438 538.435C525.706 540.534 522.21 540.35 518.997 539.887C514.98 542.169 511.417 543.575 506.726 543.659C499.136 543.795 490.441 539.837 485.084 534.518C482.46 531.912 480.309 528.502 480.474 524.673C480.634 520.94 482.636 518.358 485.232 515.89C486.114 517.133 485.171 524.35 486.534 527.608C488.564 532.465 493.638 535.397 498.322 537.269C505.322 540.067 508.683 539.306 515.334 536.337C518.405 534.966 521.219 536.118 524.106 535.055C525.183 534.659 525.942 533.887 526.229 532.758C527.385 528.211 520.872 519.281 518.519 515.382Z"/>
	<path fill="#141617" d="M574.806 472.022C563.426 478.189 555.735 478.348 543.134 476.122C538.152 475.241 533.06 474.447 528.155 473.197C526.465 472.767 525.299 472.583 524.413 471.077C524.507 470.156 524.683 469.706 525.22 468.92C529.495 462.647 543.584 457.324 550.763 455.963C564.174 453.421 574.95 457.108 585.927 464.641C583.623 467.473 581.203 469.662 578.197 471.713C572.247 464.637 566.168 463.086 557.476 461.427L556.961 461.516L556.836 462.175C556.142 465.722 554.116 469.837 554.432 473.366C551.121 473.799 547.718 474.129 544.873 472.007C542.029 469.887 541.576 466.285 541.108 463.03C535.921 464.94 531.927 467.46 527.68 470.959C539.402 473.674 549.477 477.957 561.824 475.539C566.089 474.704 570.093 472.761 574.385 472.082C574.525 472.06 574.665 472.042 574.806 472.022Z"/>
	<path fill="#FEFEFD" d="M561.25 458.77C569.2 459.064 575.93 461.49 583.276 464.288L578.664 466.706C571.431 462.047 565.848 460.18 557.316 459.755L557.591 460.096L557.331 459.341C558.628 459.085 559.939 458.937 561.25 458.77Z"/>
	<path fill="#141617" d="M567.628 436.293C573.224 435.729 579.631 436.602 584.393 439.711C586.564 441.128 589.601 443.133 590.143 445.787C589.047 447.304 582.373 445.583 580.357 445.262C567.141 443.161 549.175 452.412 536.379 456.324C531.269 457.772 521.964 459.835 516.852 457.995C515.583 457.539 515.162 457.002 514.509 455.863C514.27 453.822 514.347 451.95 515.713 450.286C516.612 449.19 517.825 448.453 519.129 447.929C522.937 446.399 527.474 445.947 531.468 444.911C543.315 441.836 555.346 437.096 567.628 436.293Z"/>
	<path fill="#141617" d="M426.83 441.748C439.687 441.364 451.544 445.71 464.114 447.161C466.783 447.469 469.471 447.229 472.148 447.324C475.12 447.43 478.018 447.835 480.06 450.232C480.369 450.596 480.657 450.979 480.987 451.325C481.019 451.205 481.08 451.089 481.085 450.965C481.133 449.799 481.009 448.761 481.164 447.57L482.271 447.304C483.445 447.612 484.408 448.177 485.018 449.271C486.193 451.381 486.718 454.643 486.324 457.005C485.45 457.774 485.435 457.691 484.255 457.687C483.071 456.966 482.741 456.018 482.181 454.812C481.859 454.118 482.114 454.387 481.496 454.012Q481.411 455.639 481.223 457.258C476.964 458.503 470.459 457.579 465.692 458.247C474.556 462.092 481.186 467.779 485.812 476.265C480.477 471.637 474.248 468.393 469.205 463.326C469.088 465.008 469.025 467.018 468.327 468.575C467.366 470.718 464.95 472.489 462.756 473.175C460.646 473.834 458.381 473.702 456.42 472.661C453.85 471.296 452.652 469.522 451.79 466.805L452.674 466.725L453.922 468.024C454.844 468.979 455.741 469.992 456.946 470.594C458.483 471.362 460.112 471.357 461.701 470.774L461.872 470.107C459.632 469.227 457.066 469.198 454.985 468.125C453.72 466.137 453.449 463.529 452.966 461.246C444.908 463.621 439.171 468.677 431.924 472.597C430.052 473.61 427.651 474.813 425.5 474.152L425.237 473.381C425.509 472.603 425.76 471.935 426.275 471.279C432.306 463.605 450.114 458.996 459.509 457.596C444.192 452.178 428.338 451.407 412.83 456.033C413.665 453.389 414.498 450.819 416.006 448.46C418.723 444.209 422.165 442.852 426.83 441.748Z"/>
	<path fill="#FAF3E6" d="M604.077 233.286C605.792 233.116 607.532 233.069 609.254 233.026C622.755 232.681 631.317 238.852 642.748 244.862C651.505 249.466 662.664 252.692 670.042 259.435C677.277 266.045 685.877 299.95 689.829 311.065C693.574 321.597 697.888 332.489 704.563 341.522C714.648 355.17 732.34 364.029 746.97 372.039C760.501 379.448 774.47 385.994 788.041 393.319C828.107 414.945 868.055 439.586 901.887 470.255C906.11 474.083 910.73 478.071 914.324 482.499C918.666 487.85 922.163 493.866 926.783 499.007C931.843 504.637 938.073 509.126 943.511 514.369C950.276 520.892 955.515 528.77 955.533 538.524C955.578 562.14 927.903 585.193 912.616 600.719C906.664 598.116 900.86 596.171 894.418 595.186C889.522 594.437 883.674 593.733 879.502 597.005C872.438 602.546 873.037 625.865 871.849 634.925C855.084 644.281 841.807 657.73 826.868 669.511C812.413 680.912 796.457 688.799 779.415 695.503C767.974 669.508 750.278 631.609 755.287 603.126C758.706 583.686 772.735 567.081 788.56 556.071C794.956 552.155 801.855 548.973 808.822 546.234C814.086 551.198 819.594 556.195 825.73 560.058C833.405 564.888 843.7 568.472 852.822 566.068C855.761 565.293 860.152 563.306 861.576 560.415C862.029 559.496 861.77 559.398 861.481 558.48C855.898 554.178 846.478 561.591 839.68 560.056C829.944 557.856 818.788 546.784 811.841 539.792C804.014 531.913 797.181 522.902 790.146 514.314C776.668 497.863 763.422 481.123 749.369 465.158Q729.748 443.094 709.061 422.027C701.539 414.253 692.854 406.874 686.001 398.558C683.027 394.95 680.572 390.908 678.106 386.947C671.405 388.273 667.266 390.617 660.401 387.828C639.927 379.51 632.293 338.308 628.226 318.83C626.637 311.222 625.648 302.408 622.33 295.38C618.275 286.792 599.117 282.166 590.198 279.023C583.114 283.243 576.168 288.697 567.547 288.723C565.062 288.73 562.986 288.509 561.172 286.683L561.39 285.847C562.776 284.831 564.645 283.709 565.738 282.388C569.901 277.356 571.823 272.881 577.956 269.498C594.9 260.153 613.673 272.844 630.008 277.256C632.729 277.991 637.555 279.28 640.077 277.85C640.343 276.724 640.449 277.15 639.974 276.221C636.796 270.002 621.749 265.905 615.284 263.849C598.232 258.425 588.807 256.752 572.591 265.192C572.668 265.099 572.742 265.005 572.822 264.914C577.942 259.144 580.647 249.967 587.487 246.066C597.992 240.076 630.519 253.785 641.692 257.041C644.642 257.901 651.963 260.317 654.681 258.815L654.309 257.653C647.046 250.122 599.651 237.205 589.294 239.751C585.104 240.781 573.833 251.117 571.794 250.698C570.55 250.442 570.311 250.232 569.685 249.231C569.713 246.862 571.071 245.145 572.666 243.512C581.902 234.056 591.642 233.618 604.077 233.286Z"/>
	<path fill="#141617" d="M904.267 572.93C904.326 572.935 904.385 572.935 904.443 572.947C905.836 573.226 906.021 573.151 906.832 574.268C906.77 574.405 906.724 574.551 906.645 574.679C904.387 578.354 893.061 582.144 888.998 583.317L887.17 583.297L886.891 582.43C889.522 578.714 899.756 575.017 904.267 572.93Z"/>
	<path fill="#141617" d="M934.841 530.609C936.82 531.401 938.094 533.149 939.152 534.938C942.996 541.434 943.301 549.593 941.505 556.732L940.972 556.733C939.804 555.063 940.745 551.566 940.371 549.489C939.151 542.721 934.37 538.038 934.841 530.609Z"/>
	<path fill="#FAF3E6" d="M128.886 443.393C125.024 437.594 120.222 432.397 116.071 426.79C106.35 413.658 97.8901 398.609 92.3799 383.215C81.4954 352.805 85.4485 316.525 99.2642 287.734C104.361 277.113 111.387 267.085 118.191 257.498C131.377 238.917 146.378 222.414 162.835 206.7C199.473 171.715 238.42 145.786 283.55 122.972C300.501 114.402 317.873 106.141 335.808 99.8257C370.372 87.6546 410.366 82.2576 444.489 98.772C454.562 103.647 458.606 109.273 462.239 119.735C457.35 126.913 454.805 133.978 456.441 142.782C457.812 150.162 461.559 156.294 465.716 162.413C456.936 161.485 449.617 162.846 441.419 165.972C430.895 152.309 420.798 140.293 402.654 137.933C390.814 136.393 379.324 139.785 369.91 147.075Q368.976 147.808 368.079 148.586Q367.183 149.364 366.326 150.185Q365.469 151.006 364.654 151.869Q363.838 152.732 363.067 153.634Q362.295 154.536 361.569 155.475Q360.843 156.414 360.164 157.388Q359.485 158.362 358.855 159.368Q358.225 160.374 357.646 161.41Q357.067 162.446 356.539 163.509Q356.012 164.573 355.538 165.661Q355.063 166.749 354.643 167.86Q354.224 168.97 353.859 170.1Q353.495 171.229 353.187 172.376Q352.878 173.522 352.627 174.682Q352.376 175.842 352.183 177.014Q351.989 178.185 351.854 179.364C350.978 186.45 351.809 193.131 353.604 200.006C353.426 200.1 353.249 200.196 353.07 200.288C351.737 200.973 350.847 201.374 349.353 201.486C343.43 201.933 329.431 216.566 323.234 210.509C322.921 210.204 322.844 209.973 322.672 209.609L322.209 210.744C322.754 212.018 323.511 212.733 324.81 213.348C325.772 213.804 326.796 213.814 327.837 213.828L327.328 214.586C326.974 214.987 326.754 215.516 326.501 215.986L326.942 217.424C327.629 217.98 328.003 218.113 328.91 218.217C332.508 218.628 339.658 215.903 342.169 213.329C344.592 210.846 346.187 207.7 349.032 205.624C349.155 205.535 349.282 205.452 349.406 205.366L349.832 205.941C347.74 211.899 338.036 225.866 332.235 228.119C329.631 229.131 326.673 228.295 324.293 227.063C318.516 224.073 313.295 218.086 311.47 211.861C310.109 207.222 310.936 200.602 313.367 196.458C315.662 192.548 319.283 190.553 323.11 188.402L322.913 187.985C319.504 188.288 316.405 190.333 314.221 192.916C310.704 197.075 309.597 203.015 310.145 208.321C310.844 215.094 314.563 221.199 319.879 225.363C323.813 228.446 328.256 230.285 333.101 231.413C331.744 245.554 333.255 254.594 341.557 266.265Q332.291 285.566 324.013 305.312C317.776 319.843 312.155 335.992 302.013 348.318C297.711 353.546 292.555 357.331 286.668 360.61C273.094 368.493 254.336 376.518 239.567 382.073C229.62 387.664 218.684 391.788 208.395 396.755Q177.02 412.171 147.634 431.105C141.506 434.978 134.481 438.804 128.886 443.393Z"/>
	<path fill="#FEFEFD" d="M423.227 127.791C425.053 128.134 426.34 128.812 427.779 130.003C429.935 131.787 431.062 133.893 431.231 136.667C430.17 136.373 429.246 135.797 428.332 135.194C425.566 133.371 423.883 131.032 423.227 127.791Z"/>
	<path fill="#DAA76A" d="M239.567 382.073C240.255 379.696 241.526 377.364 242.692 375.189C247.122 366.923 254.084 359.248 263.349 356.582C271.867 354.131 279.292 356.442 286.668 360.61C273.094 368.493 254.336 376.518 239.567 382.073Z"/>
	<path fill="#7B7B78" d="M750.894 571.284C734.67 588.366 726.976 606.253 727.532 630.1C728.289 662.625 747.24 709.897 771.052 732.408Q773.916 735.156 777.075 737.559C753.253 754.128 740.348 768.358 723.466 791.488C721.487 790.123 719.49 788.781 717.585 787.312C720.097 797.872 720.699 807.832 720.215 818.654C702.936 825.224 681.167 838.632 673.242 856.181C668.678 866.287 667.82 877.357 665.582 888.078C659.568 916.881 642.236 935.022 615.13 945.571C569.368 963.38 516.428 954.146 472.702 934.753C454.888 926.853 437.921 917.165 420.073 909.338C409.37 904.644 398.481 901.538 387.522 897.618C370.361 908.25 353.232 912.779 333.192 908.112C322.823 905.698 313.009 901.689 302.492 899.695C300.94 897.555 296.29 868.828 295.189 864.146C293.415 856.6 291.726 849.036 289.651 841.565C285.53 826.726 280.252 811.126 279.651 795.634C279.054 780.23 283.885 764.55 287.256 749.641C294.962 715.56 301.209 684.531 297.766 649.355C296.615 646.674 296.645 638.918 295.974 635.445C292.898 619.518 286.769 605.526 277.915 591.996C279.546 599.336 282.313 606.562 284.457 613.779Q289.217 630.137 291.725 646.987L285.725 646.985C283.906 625.047 276.295 604.841 266.317 585.446C293.697 589.757 321.409 596.964 342.426 616.159C367.173 638.761 370.215 671.341 371.51 702.767C379.698 669.061 374.326 650.771 357.477 621.483C386.78 645.713 402.271 673.814 419.279 707.159C423.728 715.882 428.436 724.519 432.771 733.289C434.017 735.81 434.795 738.5 436.088 741.009C436.372 741.561 436.164 741.376 436.762 741.568C436.654 737.669 434.4 733.068 433.07 729.38C424.697 706.166 413.599 685.335 401.678 663.787C423.113 685.449 435.383 714.524 453.725 738.483C442.664 712.742 430.046 686.833 411.51 665.552C405.241 658.355 398.29 651.899 391.521 645.192C385.922 639.645 380.799 633.644 374.895 628.405C365.707 620.251 355.229 613.95 344.822 607.519C348.561 605.981 352.361 605.037 356.306 604.205C366.897 607.695 373.163 615.851 381.713 622.42C387.243 626.67 393.357 629.52 399.872 631.9C394.341 626.903 388.436 622.329 382.922 617.299C394.089 614.18 405.702 611.84 417.058 609.491C422.249 623.221 431.925 633.859 443.588 642.555C468.016 660.769 500.362 668.406 530.414 663.997C550.016 661.121 571.811 652.471 583.907 636.038C590.674 626.845 592.458 617.829 590.74 606.7C590.812 606.731 590.883 606.763 590.955 606.793C595.46 608.661 599.677 611.083 603.945 613.431C604.837 624.806 600.927 635.916 594.07 644.946C578.629 665.282 549.333 675.065 524.984 678.402C483.911 684.03 447.525 664.926 419.874 635.635C415.411 630.907 408.429 619.106 404.135 616.074C403.132 615.365 402.979 615.433 401.85 615.671C401.003 616.553 400.59 616.858 400.598 618.181C400.654 627.508 419.866 646.631 427.116 652.92C453.305 675.637 486.311 687.528 521.038 684.999C547.793 683.05 577.712 673.389 595.688 652.381C607.009 639.151 609.178 626.323 607.792 609.42Q608.758 609.932 609.707 610.475C622.846 618.02 626.043 632.293 629.687 645.893C630.664 638.557 630.11 632.15 628.933 624.842C636.531 625.294 643.924 624.905 651.498 624.368C648.713 631.844 646.644 638.913 645.282 646.763C648.985 641.356 652.26 635.585 655.282 629.773C659.95 620.798 663.205 610.675 671.833 604.656C681.391 603.028 690.249 607.818 699.933 607.43L701.372 607.889C712.3 603.384 719.599 593.034 728.103 585.263C734.883 579.069 742.362 574.609 750.894 571.284Z"/>
	<path fill="#302C2A" d="M717.194 605.453C715.141 611.546 712.085 617.531 709.629 623.493C704.434 636.106 700.336 648.457 697.554 661.833C695.703 648.147 691.955 633.944 695.489 620.216C696.569 616.021 698.611 612.157 699.784 607.979L699.933 607.43L701.372 607.889C696.876 622.077 695.875 640.399 697.168 655.297L697.46 654.905L697.139 654.782L697.393 655.828L697.381 655.721L698.174 655.679L697.384 655.412L697.435 654.334L698.253 654.99L697.671 654.661C701.217 633.674 699.096 620.103 717.194 605.453Z"/>
	<path fill="#302C2A" d="M635.356 670.866C636.706 677.846 616.073 723.113 612.028 733.003C607.802 743.333 604.041 753.85 599.581 764.084C599.534 763.951 599.468 763.824 599.438 763.686C598.827 760.873 601.34 754.217 602.166 751.327C609.276 726.466 621.065 692.455 635.356 670.866Z"/>
	<path fill="#302C2A" d="M683.228 622.372C686.078 625.079 691.457 672.846 692.054 680.407C692.836 690.304 692.702 700.249 693.755 710.136L693.363 710.591C687.929 694.295 682.074 660.861 681.547 643.641Q681.386 638.294 681.807 632.961Q682.229 627.628 683.228 622.372Z"/>
	<path fill="#302C2A" d="M666.475 688.317C669.523 691.935 670.391 701.185 671.344 705.948C678.87 743.57 682.115 780.824 683.384 819.121C683.35 819.089 683.314 819.061 683.283 819.026C680.417 815.755 668.471 721.793 667.315 709.976C666.628 702.948 665.818 695.353 666.475 688.317Z"/>
	<path fill="#302C2A" d="M650.976 692.22C651.658 692.605 652.225 692.987 652.728 693.6C663.591 706.861 670.038 769.161 671.123 787C672.037 802.041 672.386 817.938 671.456 832.962L671.275 832.981C669.697 828.47 669.437 822.887 668.801 818.139C666.669 802.208 665.593 786.18 663.315 770.266C661.258 755.903 658.529 741.585 655.922 727.311C653.787 715.615 651.501 704.133 650.976 692.22Z"/>
	<path fill="#302C2A" d="M713.777 669.367C715.785 671.311 717.176 721.671 717.96 729.295Q719.66 747.19 723.735 764.697C727.62 749.493 729.139 732.82 730.793 717.208C732.674 723.033 733.47 728.271 733.93 734.382C734.242 742.975 732.6 752.279 730.379 760.546C729.29 764.596 727.61 774.094 723.874 776.263C722.623 775.97 722.166 775.568 721.412 774.511C718.748 770.773 717.81 765.043 716.65 760.619C709.07 731.73 707.696 698.635 713.777 669.367Z"/>
	<path fill="#141617" d="M418.268 794.51C424.722 798.915 438.434 820.416 444.404 828.319Q453.584 840.417 463.433 851.977C485.307 877.311 510.979 899.178 538.201 918.536C497.135 901.234 463.398 868.426 439.141 831.66C435.017 825.408 431.253 818.851 427.607 812.313C425.253 808.092 423.086 802.921 419.832 799.336L418.268 794.51Z"/>
	<path fill="#302C2A" d="M624.637 649.927C624.88 650.009 625.013 650.278 625.184 650.469C623.672 656.029 620.204 661.425 617.679 666.623L603.047 697.015L577.912 749.173C569.271 767.48 560.829 786.004 551.431 803.936L551.322 804.064L551.001 803.883C555.865 775.046 577.71 733.583 590.503 706.653C597.441 692.05 603.521 676.554 612.418 663C615.907 657.685 619.542 653.72 624.637 649.927Z"/>
	<path fill="#302C2A" d="M636.376 680.314C636.72 680.64 636.548 680.444 636.902 681.012C638.076 682.895 635.077 698.768 634.48 701.838C631.23 718.531 626.878 735.115 623.091 751.705L597.745 862.636L597.375 862.273C592.384 847.421 618.959 737.377 624.98 715.513C628.27 703.563 632.178 691.968 636.376 680.314Z"/>
	<path fill="#E9DCC7" d="M297.766 649.355L298.224 647.855C300.986 647.44 305.623 651.139 307.845 652.789C334.773 672.794 382.568 729.61 400.168 757.891C407.493 769.661 413.165 781.634 418.268 794.51L419.832 799.336L419.877 799.897C420.348 805.13 421.928 810.203 422.401 815.425C424.486 838.426 419.738 863.976 404.714 882.151C399.827 888.063 394.011 893.508 387.522 897.618C370.361 908.25 353.232 912.779 333.192 908.112C322.823 905.698 313.009 901.689 302.492 899.695C300.94 897.555 296.29 868.828 295.189 864.146C293.415 856.6 291.726 849.036 289.651 841.565C285.53 826.726 280.252 811.126 279.651 795.634C279.054 780.23 283.885 764.55 287.256 749.641C294.962 715.56 301.209 684.531 297.766 649.355Z"/>
	<path fill="#302C2A" d="M304.311 687.863C304.747 688.261 304.817 688.273 305.147 688.876C306.614 691.557 306.556 698.09 306.863 701.245C309.974 733.239 306.833 763.997 300.218 795.373L299.634 796.666C298.776 794.704 299.243 791.595 299.333 789.431C299.924 775.1 301.396 760.838 302.203 746.527C303.306 726.961 303.745 707.445 304.311 687.863Z"/>
</svg>
