<?xml version="1.0" standalone="no"?>
<!DOCTYPE svg PUBLIC "-//W3C//DTD SVG 20010904//EN"
 "http://www.w3.org/TR/2001/REC-SVG-20010904/DTD/svg10.dtd">
<svg version="1.0" xmlns="http://www.w3.org/2000/svg"
 width="700.000000pt" height="700.000000pt" viewBox="0 0 700.000000 700.000000"
 preserveAspectRatio="xMidYMid meet">
<metadata>
Created by potrace 1.14, written by Peter Selinger 2001-2017
</metadata>
<g transform="translate(0.000000,700.000000) scale(0.100000,-0.100000)"
fill="#000000" stroke="none">
<path d="M3359 6302 c-47 -43 -231 -229 -312 -317 -101 -110 -112 -122 -182
-201 -38 -43 -234 -243 -435 -444 -339 -339 -476 -482 -547 -570 -15 -19 -31
-37 -34 -40 -3 -3 -30 -36 -59 -75 -29 -38 -56 -72 -59 -75 -6 -4 -86 -126
-148 -225 -59 -92 -176 -356 -199 -445 -2 -8 -8 -33 -14 -55 -20 -74 -50 -226
-57 -293 -9 -79 -9 -350 0 -442 15 -161 90 -445 157 -595 35 -79 104 -220 111
-225 3 -3 12 -20 20 -38 8 -17 17 -32 21 -32 5 0 8 -5 8 -10 0 -10 106 -180
119 -190 3 -3 24 -32 46 -65 22 -33 45 -64 51 -70 5 -5 37 -44 70 -85 32 -41
64 -80 69 -86 6 -6 41 -47 80 -90 89 -101 379 -391 469 -469 37 -33 78 -69 90
-80 12 -11 41 -36 65 -55 24 -19 48 -40 55 -45 49 -44 115 -95 123 -95 5 0 8
249 8 577 0 318 2 593 6 611 4 18 3 32 -3 32 -5 0 -6 4 -3 10 3 5 8 81 10 167
6 218 24 528 39 653 3 25 8 65 10 90 3 25 8 72 12 105 3 33 8 67 9 75 2 8 8
51 15 95 13 92 18 120 25 155 6 29 12 62 21 105 31 168 129 494 187 625 14 30
24 57 23 60 0 3 9 19 20 35 12 17 25 41 29 55 4 14 13 32 20 40 41 51 89 240
64 255 -9 6 -47 -11 -64 -29 -23 -26 -75 -95 -75 -101 0 -4 -13 -26 -30 -50
-16 -24 -30 -48 -30 -53 0 -6 -4 -12 -8 -14 -24 -10 -229 -405 -297 -570 -14
-35 -30 -72 -35 -83 -79 -171 -215 -644 -254 -890 -3 -16 -8 -46 -12 -65 -3
-19 -7 -46 -9 -60 -1 -14 -6 -50 -10 -80 -4 -30 -9 -68 -10 -85 -2 -16 -6 -57
-9 -90 -17 -164 -22 -465 -11 -655 l6 -104 -23 25 c-26 29 -113 126 -161 179
-53 60 -143 163 -173 200 -16 19 -35 41 -43 49 -7 8 -39 49 -70 90 -31 42 -59
78 -63 79 -5 2 -8 7 -8 12 0 5 -17 35 -38 67 -70 106 -139 252 -175 373 -54
177 -71 317 -71 565 0 214 10 311 48 470 18 75 79 226 137 339 65 125 177 294
270 406 12 14 37 45 57 69 103 124 250 273 823 836 259 254 309 308 383 410
13 18 17 16 72 -45 80 -88 457 -465 522 -523 l53 -47 47 26 c99 55 137 79 140
86 2 4 8 8 14 8 7 0 53 30 90 60 4 3 -3 17 -15 31 -36 42 -140 160 -167 189
-14 15 -59 65 -100 111 -215 240 -485 491 -582 540 -63 32 -74 31 -119 -9z"/>
<path d="M5165 5710 c-110 -55 -207 -105 -215 -110 -8 -5 -73 -44 -145 -86
-71 -42 -131 -81 -133 -86 -2 -4 -8 -8 -13 -8 -8 0 -106 -65 -119 -80 -3 -3
-26 -21 -53 -40 -166 -122 -352 -308 -476 -475 -25 -33 -56 -76 -71 -95 -36
-48 -129 -201 -171 -280 -18 -36 -37 -68 -42 -71 -5 -3 -9 -10 -9 -15 0 -5
-16 -43 -36 -84 -94 -202 -173 -405 -238 -619 -24 -79 -46 -153 -48 -165 -2
-11 -9 -41 -16 -66 -7 -25 -14 -53 -16 -63 -2 -10 -5 -26 -8 -35 -3 -9 -8 -30
-11 -47 -2 -16 -7 -41 -10 -55 -3 -14 -10 -52 -16 -85 -5 -33 -12 -71 -15 -85
-3 -14 -7 -43 -9 -65 -3 -22 -6 -49 -9 -60 -7 -37 -24 -191 -41 -380 -3 -37
-13 -202 -20 -340 -6 -109 -18 -528 -19 -657 -1 -71 -3 -128 -6 -128 -3 0 -5
-44 -6 -98 -1 -95 -10 -242 -19 -292 -17 -100 -25 -453 -12 -522 27 -140 115
-252 192 -243 16 1 41 -2 55 -7 41 -16 142 -12 177 6 46 23 80 74 98 145 19
72 25 193 13 266 -4 28 -10 66 -13 85 -10 71 -17 107 -40 200 -24 96 -64 268
-70 305 -13 71 -17 107 -21 160 -4 74 -4 586 1 675 19 351 25 434 51 635 2 17
6 53 9 80 3 28 8 61 10 75 3 14 7 41 10 60 4 37 15 102 21 135 3 11 7 35 10
54 3 18 8 43 10 55 7 31 12 56 24 111 17 85 20 97 46 200 14 55 27 107 29 115
13 60 144 456 174 525 141 327 246 510 423 736 104 133 358 388 477 479 18 14
40 32 49 41 47 44 223 166 312 215 116 65 204 141 194 167 -3 9 -14 17 -23 17
-9 0 -106 -45 -216 -100z"/>
<path d="M5454 5076 c-10 -7 -66 -38 -124 -68 -157 -82 -367 -208 -435 -260
-187 -145 -308 -255 -384 -348 -20 -24 -43 -52 -51 -61 -43 -50 -140 -193
-140 -207 0 -7 -3 -12 -7 -12 -5 0 -13 -10 -19 -23 -6 -12 -32 -60 -56 -107
-53 -101 -128 -278 -169 -398 -16 -48 -33 -94 -36 -102 -3 -8 -7 -19 -8 -25
-2 -5 -13 -48 -25 -95 -24 -93 -29 -113 -36 -150 -2 -14 -9 -49 -15 -78 -6
-29 -12 -66 -15 -82 -2 -17 -6 -45 -9 -62 -8 -46 -14 -88 -19 -123 -2 -16 -9
-59 -15 -95 -11 -71 -17 -119 -26 -195 -3 -27 -8 -72 -11 -100 -28 -252 -33
-675 -10 -960 12 -152 17 -201 21 -235 3 -19 7 -75 10 -125 6 -108 13 -185 18
-205 2 -8 7 -32 11 -52 5 -20 17 -45 27 -54 19 -17 21 -17 52 1 18 10 65 46
106 79 147 121 816 802 946 963 11 14 28 35 39 47 40 47 185 245 223 306 98
158 178 349 227 542 19 73 37 156 40 183 4 28 9 64 11 80 13 87 16 141 15 260
0 71 -3 150 -5 175 -3 25 -7 62 -9 82 -3 32 -13 87 -22 123 -1 6 -5 21 -8 35
-73 338 -165 590 -249 686 -51 58 -96 72 -166 49 -34 -10 -155 -165 -162 -205
-1 -8 9 -40 23 -70 14 -30 35 -79 47 -107 12 -29 30 -75 40 -101 11 -27 22
-59 25 -73 3 -13 17 -61 31 -107 46 -155 67 -308 68 -502 1 -145 -6 -233 -23
-320 -6 -30 -14 -66 -16 -80 -15 -74 -71 -244 -100 -300 -7 -14 -29 -59 -50
-100 -32 -65 -168 -282 -198 -317 -6 -7 -15 -18 -21 -25 -56 -72 -130 -162
-160 -194 -152 -162 -295 -298 -386 -367 -40 -30 -54 -34 -45 -12 11 28 17
240 22 665 2 234 6 445 9 470 2 25 7 70 10 100 2 30 7 72 10 93 3 20 8 56 11
80 4 35 17 110 48 292 7 39 58 239 85 332 35 122 118 324 192 470 39 76 74
140 78 143 4 3 18 23 31 45 67 112 214 292 325 396 112 106 124 114 381 282
55 36 107 73 114 82 29 35 -26 68 -66 41z"/>
</g>
</svg>
